<svg xmlns="http://www.w3.org/2000/svg" xmlns:xlink="http://www.w3.org/1999/xlink" width="20" height="20" viewBox="0 0 20 20"><defs><style>.a,.c{fill:#707070;}.a{stroke:#707070;}.b{clip-path:url(#a);}</style><clipPath id="a"><rect class="a" width="20" height="20" transform="translate(233 168)"/></clipPath></defs><g class="b" transform="translate(-233 -168)"><path class="c" d="M11.308,2.308a9,9,0,0,1,9,9v.923a3.974,3.974,0,0,1-.938,2.753,3.08,3.08,0,0,1-2.144,1,3.014,3.014,0,0,1-2.95-1.766,4.154,4.154,0,1,1-.2-6V7.846a.692.692,0,1,1,1.385,0v5.308a1.508,1.508,0,0,0,1.7,1.443,1.7,1.7,0,0,0,1.187-.546,2.609,2.609,0,0,0,.576-1.819v-.923a7.615,7.615,0,1,0-4.231,6.824.692.692,0,1,1,.617,1.24,9,9,0,1,1-4-17.064Zm0,6.231a2.769,2.769,0,1,0,2.769,2.769A2.769,2.769,0,0,0,11.308,8.538Z" transform="translate(231.692 166.692)"/></g></svg>