<svg xmlns="http://www.w3.org/2000/svg" width="12.45" height="10.899" viewBox="0 0 12.45 10.899">
  <defs>
    <style>
      .cls-1 {
        fill: #303133;
      }
    </style>
  </defs>
  <path id="btn_ins" class="cls-1" d="M-7171.354,52.961l-.706-.708a.5.5,0,0,1,0-.706l2.89-2.89h-8.33a.5.5,0,0,1-.5-.5v-1a.5.5,0,0,1,.5-.5h8.33l-2.89-2.89a.5.5,0,0,1,0-.708l.706-.706a.5.5,0,0,1,.708,0l4.951,4.95a.5.5,0,0,1,.146.353.5.5,0,0,1-.146.353l-4.951,4.95a.5.5,0,0,1-.354.146A.5.5,0,0,1-7171.354,52.961Z" transform="translate(7178 -42.208)"/>
</svg>
