<svg xmlns="http://www.w3.org/2000/svg" xmlns:xlink="http://www.w3.org/1999/xlink" width="26" height="26" viewBox="0 0 26 26"><defs><style>.a,.d{fill:#393939;}.a{stroke:#707070;}.b{clip-path:url(#a);}.c{fill:#fff;}</style><clipPath id="a"><rect class="a" width="26" height="26" transform="translate(466 91)"/></clipPath></defs><g class="b" transform="translate(-466 -91)"><g transform="translate(466 91)"><path class="c" d="M24.984,24.73H1.016a1.016,1.016,0,0,1,0-2.031H24.984a1.016,1.016,0,0,1,0,2.031Z"/><path class="c" d="M23.359,21.48H14.016a1.016,1.016,0,0,1,0-2.031h9.344a1.016,1.016,0,0,1,0,2.031Z"/><path class="d" d="M4.718,14.626l.933.933,3.183,3.183.933.933-1.274.341L4.144,21.181l-1.274.342.341-1.274L4.376,15.9Z"/><path class="c" d="M3.947,20.445l4.348-1.165L5.112,16.1,3.947,20.445M2.87,21.523a1.523,1.523,0,0,1-.394-1.472L3.641,15.7a1.523,1.523,0,0,1,2.549-.683L9.372,18.2a1.523,1.523,0,0,1-.683,2.549L4.341,21.917a1.523,1.523,0,0,1-1.472-.394Z"/><path class="d" d="M8.353,18.579l-2.37-2.37a1.271,1.271,0,0,1,0-1.8L16.755,3.642a1.271,1.271,0,0,1,1.8,0l2.37,2.37a1.271,1.271,0,0,1,0,1.8L10.148,18.579A1.271,1.271,0,0,1,8.353,18.579Z"/><path class="c" d="M17.832,4.36a.254.254,0,0,0-.359,0L6.7,15.132a.254.254,0,0,0,0,.359l2.37,2.37a.254.254,0,0,0,.359,0L20.2,7.089a.254.254,0,0,0,0-.359l-2.37-2.37m1.436-1.436,2.37,2.37a2.285,2.285,0,0,1,0,3.232L10.866,19.3a2.285,2.285,0,0,1-3.232,0l-2.37-2.37a2.285,2.285,0,0,1,0-3.232L16.037,2.923a2.285,2.285,0,0,1,3.232,0Z"/></g></g></svg>