<svg xmlns="http://www.w3.org/2000/svg" xmlns:xlink="http://www.w3.org/1999/xlink" fill="none" version="1.1" width="50" height="50" viewBox="0 0 50 50"><defs><clipPath id="master_svg0_33_4232"><rect x="0" y="0" width="50" height="50" rx="0"/></clipPath></defs><g clip-path="url(#master_svg0_33_4232)"><g><path d="M24.99992734375,2.603515625C12.63042734375,2.60351705551,2.60302734375,12.630915625,2.60302734375,25.000415625C2.60302734375,37.369815625,12.63042734375,47.397215625,24.99992734375,47.397215625C37.36932734375,47.397215625,47.39672734375,37.369815625,47.39672734375,25.000415625C47.39672734375,12.630915625,37.36932734375,2.60351705551,24.99992734375,2.603515625ZM24.98112734375,13.022315625C28.72332734375,13.024015625,31.75532734375,16.059315625,31.75302734375,19.801415625C31.75072734375,23.543615625,28.71492734375,26.575115625,24.97282734375,26.572215625C21.23072734375,26.569415625,18.19952734375,23.533115625,18.20302734375,19.791015625C18.20302734375,16.050415625,21.24052734375,13.022315625,24.98422734375,13.022315625L24.98112734375,13.022315625ZM35.50302734375,34.334715625L35.88422734375,34.716015625C36.51472734375,35.348515625,36.48762734375,36.379915625,35.82492734375,36.978515625C32.86022734375,39.665415625,29.00102734375,41.151615625,24.99992734375,41.147215625C20.99882734375,41.151615625,17.13962734375,39.665415625,14.17492734375,36.978515625C13.51302734375,36.379015625,13.48742734375,35.347715625,14.11862734375,34.716015625L14.50922734375,34.325415625000005C19.94682734375,28.644115625,29.94682734375,28.334715625,35.50302734375,34.334715625Z" fill="#D8D8D8" fill-opacity="1" style="mix-blend-mode:passthrough"/></g></g></svg>