<svg xmlns="http://www.w3.org/2000/svg" xmlns:xlink="http://www.w3.org/1999/xlink" fill="none" version="1.1" width="113" height="32" viewBox="0 0 113 32"><defs><linearGradient x1="1" y1="0.015281280502676964" x2="0" y2="1" id="master_svg0_20_6353"><stop offset="2.857142873108387%" stop-color="#905ADC" stop-opacity="1"/><stop offset="100%" stop-color="#4C0D29" stop-opacity="1"/></linearGradient><linearGradient x1="0.005919137038290501" y1="1.002891182899475" x2="0.9842951893806458" y2="0.007127248216420412" id="master_svg1_20_6438"><stop offset="0%" stop-color="#F4BED6" stop-opacity="1"/><stop offset="100%" stop-color="#E61673" stop-opacity="1"/></linearGradient></defs><g><g><g><path d="M20.6096,31.999966257858276L0,31.999966257858276L5.89968,3.5286662578582764L26.5082,3.5286662578582764L20.6096,31.999966257858276Z" fill="url(#master_svg0_20_6353)" fill-opacity="1" style="mix-blend-mode:passthrough"/></g><g><path d="M20.4004,29.0329L0,32L1.84551,2.96815L22.2448,0L20.4004,29.0329Z" fill="url(#master_svg1_20_6438)" fill-opacity="1" style="mix-blend-mode:passthrough"/></g><g><path d="M6.177888642059326,18.73735047302246C6.240534642059326,17.84665047302246,6.295753642059326,17.039750473022462,6.353097642059327,16.23395047302246C6.459283642059326,14.745050473022461,6.565469642059326,13.25614047302246,6.673777642059326,11.76829047302246C6.792707642059327,10.135210473022461,6.911637642059326,8.50211047302246,7.044367642059326,6.870120473022461C7.051797642059326,6.777580473022461,7.172847642059326,6.6732304730224605,7.265227642059326,6.615135473022461C7.343807642059327,6.565652473022461,7.459547642059326,6.575318473022461,7.558307642059326,6.561345473022461C9.559897642059326,6.274112473022461,11.561497642059326,5.984699473022461,13.564167642059326,5.6996194730224605C15.222787642059327,5.462946473022461,16.723227642059328,6.821680473022461,16.626527642059326,8.51932047302246C16.508727642059327,10.588100473022461,16.336727642059326,12.652570473022461,16.194427642059324,14.720280473022461C16.109427642059327,15.94885047302246,16.057427642059324,17.18065047302246,15.952327642059327,18.40815047302246C15.772827642059326,20.50595047302246,14.881937642059325,22.26175047302246,13.388967642059326,23.71515047302246C12.092437642059327,24.977050473022462,10.530437642059326,25.66235047302246,8.767757642059326,25.916250473022462C7.8450076420593255,26.048550473022463,6.921187642059326,26.17335047302246,5.9995046420593265,26.31755047302246C5.688374542059326,26.365950473022462,5.5864404420593265,26.278750473022463,5.618301352059326,25.952850473022462C5.687324642059326,25.23205047302246,5.732977642059327,24.509150473022462,5.773328642059326,23.78615047302246C5.789258642059326,23.49465047302246,5.896507642059326,23.342950473022462,6.202322642059326,23.30525047302246C7.042257642059326,23.20095047302246,7.878997642059327,23.07185047302246,8.715737642059326,22.94915047302246C11.029537642059326,22.61035047302246,13.030067642059326,20.25965047302246,13.103327642059327,17.88745047302246C13.151107642059326,16.35335047302246,13.302957642059326,14.82250047302246,13.404897642059325,13.289470473022462C13.478157642059326,12.190000473022462,13.558857642059326,11.09160047302246,13.610887642059327,9.991050473022462C13.643807642059326,9.30254047302246,13.185077642059326,8.79368047302246,12.509737642059326,8.83239047302246C11.682547642059326,8.879720473022461,10.857487642059326,9.00238047302246,10.038797642059325,9.137930473022461C9.917747642059325,9.158370473022462,9.762717642059325,9.41981047302246,9.748917642059325,9.58118047302246C9.666087642059326,10.533280473022462,9.622557642059327,11.48967047302246,9.562027642059327,12.44500047302246C9.480257642059327,13.731670473022461,9.392127642059325,15.019410473022461,9.311427642059327,16.30605047302246C9.280627642059326,16.79775047302246,9.248787642059327,17.28935047302246,9.241347642059326,17.78105047302246C9.236027642059327,18.17155047302246,9.116037642059325,18.38775047302246,8.682807642059327,18.42435047302246C8.026567642059327,18.48025047302246,7.375657642059326,18.60395047302246,6.722617642059326,18.69435047302246C6.570770642059326,18.715850473022464,6.415743642059326,18.71915047302246,6.176826642059326,18.73845047302246L6.177888642059326,18.73735047302246Z" fill="#FFFFFF" fill-opacity="1" style="mix-blend-mode:passthrough"/></g></g><g><g><path d="M65.71478197631836,21.242566626930238C65.68728197631836,20.712366626930237,65.60108197631835,20.218866626930236,65.45648197631836,19.761066626930237C65.31058197631836,19.304466626930235,65.08898197631837,18.878166626930238,64.78928197631836,18.482166626930237C64.48958197631836,18.087366626930237,64.06818197631836,17.722966626930237,63.52388197631836,17.391366626930235C64.01418197631835,17.058466626930237,64.40348197631836,16.674266626930237,64.69398197631836,16.237466626930235C64.98448197631836,15.800566626930237,65.20148197631836,15.333496626930236,65.34738197631836,14.833526626930237C65.49198197631836,14.334856626930236,65.58728197631837,13.815136626930236,65.63328197631836,13.274346626930237C65.67808197631837,12.733556626930238,65.70098197631836,12.194116626930237,65.70098197631836,11.653326626930237C65.70098197631836,10.842826626930236,65.62408197631837,10.078366626930237,65.47018197631836,9.361286626930237C65.31628197631836,8.644206626930236,65.03498197631836,8.010006626930236,64.62618197631836,7.458706626930237C64.21858197631836,6.908736626930237,63.655881976318355,6.471892626930237,62.93938197631836,6.149538626930237C62.22288197631836,5.8271846269302365,61.31110197631836,5.666666626930237,60.204171976318364,5.666666626930237L51.82168197631836,5.666666626930237L51.82168197631836,28.555566626930236L56.72027197631836,28.555566626930236L56.72027197631836,19.574166626930236L59.25110197631836,19.574166626930236C59.723041976318356,19.574166626930236,60.04457197631836,19.803166626930235,60.21681197631836,20.259666626930237C60.389051976318356,20.717566626930235,60.47518197631836,21.288666626930237,60.47518197631836,21.974166626930238L60.47518197631836,28.554266626930236L65.75498197631836,28.554266626930236L65.75498197631836,22.909666626930235C65.75498197631836,22.328066626930237,65.74118197631836,21.771566626930237,65.71368197631836,21.241266626930237L65.71478197631836,21.242566626930238ZM60.19247197631836,14.560986626930237C59.92445197631836,14.934176626930237,59.57837197631836,15.115056626930237,59.41531197631836,15.115056626930237L56.72144197631836,15.115056626930237L56.72144197631836,10.687546626930237L59.14317197631836,10.687546626930237C59.55999197631836,10.687546626930237,59.89185197631836,10.838846626930238,60.13644197631836,11.140156626930237C60.38102197631836,11.441476626930237,60.50388197631836,11.945416626930236,60.50388197631836,12.651966626930236C60.50388197631836,13.327926626930237,60.46049197631836,14.187796626930236,60.19247197631836,14.560986626930237Z" fill="#FFFFFF" fill-opacity="1" style="mix-blend-mode:passthrough"/></g><g><path d="M81.18677507934571,8.53772C80.8176750793457,7.7381,80.3094750793457,7.0779,79.6612750793457,6.55842C79.01297507934571,6.03895,78.2575750793457,5.649673,77.3928350793457,5.389277C76.5292150793457,5.130198,75.6018150793457,5,74.61174507934571,5C73.6216650793457,5,72.7261450793457,5.130198,71.8705050793457,5.389277C71.0148650793457,5.649673,70.2686050793457,6.03895,69.6294350793457,6.55842C68.99027507934571,7.0779,68.4901080793457,7.7381,68.1312160793457,8.53772C67.7711840793457,9.337340000000001,67.5911750793457,10.277650000000001,67.5911750793457,11.35869L67.5911750793457,22.6413C67.5911750793457,23.7223,67.77574607934571,24.6627,68.1448880793457,25.4623C68.5140300793457,26.2619,69.0221650793457,26.9221,69.6704550793457,27.4416C70.3187250793457,27.9611,71.0741050793457,28.3503,71.9388650793457,28.6107C72.8024750793457,28.8698,73.7298850793457,29,74.7199750793457,29C75.7100650793457,29,76.60556507934571,28.8698,77.4612050793457,28.6107C78.31567507934571,28.3503,79.06307507934571,27.9611,79.7022750793457,27.4416C80.3414750793457,26.9221,80.84047507934571,26.2619,81.20047507934571,25.4623C81.56047507934571,24.6627,81.7404750793457,23.7223,81.7404750793457,22.6413L81.7404750793457,11.35869C81.7404750793457,10.278970000000001,81.5558750793457,9.338619999999999,81.18677507934571,8.53772ZM76.8801050793457,22.3927C76.8801050793457,22.5387,76.8299850793457,22.7044,76.73199507934571,22.8912C76.6328550793457,23.0779,76.4893250793457,23.2502,76.3001750793457,23.4054C76.1110650793457,23.5606,75.8774950793457,23.696,75.5983650793457,23.8104C75.3192350793457,23.9249,75.00021507934571,23.9814,74.6401950793457,23.9814C74.2801750793457,23.9814,73.9657250793457,23.9249,73.69568507934571,23.8104C73.4256650793457,23.696,73.2000850793457,23.5606,73.0211950793457,23.4054C72.8411850793457,23.2489,72.7010350793457,23.0779,72.60305507934571,22.8912C72.50393507934571,22.7044,72.4549350793457,22.5374,72.4549350793457,22.3927L72.4549350793457,11.60856C72.4549350793457,11.46388,72.50393507934571,11.29685,72.60305507934571,11.110109999999999C72.7021850793457,10.92337,72.8457350793457,10.75108,73.0348650793457,10.5959C73.2240050793457,10.439409999999999,73.45755507934571,10.30526,73.7367050793457,10.19083C74.01584507934571,10.0764,74.3348650793457,10.019860000000001,74.69488507934571,10.019860000000001C75.37848507934571,10.019860000000001,75.9139550793457,10.201329999999999,76.30134507934571,10.565629999999999C76.6887150793457,10.92992,76.8824150793457,11.27711,76.8824150793457,11.60984L76.8824150793457,22.394L76.8801050793457,22.3927Z" fill="#FFFFFF" fill-opacity="1" style="mix-blend-mode:passthrough"/></g><g><path d="M97.63123355102539,10.859956626930238L97.63123355102539,10.857316626930237C97.53203355102539,9.849456626930237,97.25743355102539,8.960006626930237,96.80743355102538,8.191596626930236C96.35733355102539,7.423186626930237,95.67373355102539,6.808736626930237,94.75533355102539,6.352170626930237C93.83698355102538,5.8956066269302365,92.55857355102539,5.666666626930237,90.92126355102539,5.666666626930237L84.11673355102539,5.666666626930237L84.11673355102539,28.555566626930236L88.9774235510254,28.555566626930236L88.9774235510254,22.443866626930237L90.92126355102539,22.443866626930237C92.5597135510254,22.443866626930237,93.83815355102539,22.214966626930238,94.75533355102539,21.758366626930236C95.67373355102539,21.301766626930238,96.35733355102539,20.687366626930235,96.80743355102538,19.918966626930235C97.25743355102539,19.150566626930235,97.5321335510254,18.261066626930237,97.63123355102539,17.253266626930237C97.7303335510254,16.245366626930235,97.7975335510254,15.190126626930237,97.83403355102539,14.087506626930237C97.83403355102539,13.013776626930238,97.73603355102539,11.927496626930237,97.63123355102539,10.859956626930238ZM92.91861355102539,14.958556626930237C92.8821435510254,15.332236626930237,92.79669355102538,15.701966626930236,92.66225355102539,16.06506662693024C92.5266635510254,16.42956662693024,92.33865355102539,16.746666626930235,92.09482355102539,17.016366626930235C91.85214355102539,17.287466626930236,91.51486355102539,17.42166662693024,91.08190355102539,17.42166662693024L88.9751435510254,17.42166662693024L88.9751435510254,10.686296626930236L91.08190355102539,10.686296626930236C91.49549355102539,10.686296626930236,91.82822355102539,10.821826626930237,92.08117355102539,11.091556626930238C92.33297355102539,11.362616626930237,92.5266635510254,11.683646626930237,92.6622735510254,12.058656626930237C92.7967235510254,12.432336626930237,92.88217355102539,12.812576626930237,92.91864355102538,13.196766626930238C92.95511355102539,13.582276626930238,92.97219355102538,13.878316626930237,92.97219355102538,14.084906626930238C92.97219355102538,14.291486626930237,92.95397355102538,14.583576626930236,92.91861355102539,14.958556626930237Z" fill="#FFFFFF" fill-opacity="1" style="mix-blend-mode:passthrough"/></g><g><path d="M48.144800000000004,9.112656626930237C48.6868,10.162626626930237,49.0481,11.378386626930237,49.2287,12.761246626930237L49.2287,12.762496626930236C49.4083,14.145356626930237,49.5169,15.583496626930236,49.5535,17.080866626930238L49.5535,17.142666626930236C49.518,18.638666626930238,49.4094,20.078066626930237,49.2287,21.460966626930237C49.0481,22.843866626930236,48.6868,24.059566626930238,48.144800000000004,25.10956662693024C47.6029,26.159566626930236,46.8311,26.996366626930236,45.8283,27.620066626930235C44.8256,28.24366662693024,43.50268,28.555566626930236,41.85849,28.555566626930236L34,28.555566626930236L34,23.529866626930236L38.87767,23.529866626930236L38.87767,23.53336662693024L41.74986,23.53336662693024C42.29182,23.53336662693024,42.73889,23.268966626930236,43.091049999999996,22.738666626930236C43.44321,22.208366626930236,43.72334,21.589966626930234,43.93143,20.883466626930236C44.138400000000004,20.176866626930234,44.278999999999996,19.45976662693024,44.3511,18.732166626930237L44.3511,18.730966626930236C44.4231,18.003366626930237,44.4597,17.452066626930236,44.4597,17.078366626930237C44.4597,16.704666626930237,44.4368,16.163866626930236,44.3922,15.457326626930238C44.3476,14.750746626930237,44.2344,14.042886626930237,44.0538,13.336306626930238C43.87313,12.629736626930237,43.60215,12.011336626930238,43.24084,11.481076626930236C42.87838,10.950826626930237,42.382149999999996,10.686356626930237,41.74986,10.686356626930237L38.87767,10.686356626930237L38.87767,19.723266626930236L34,19.723266626930236L34,5.666666626930237L41.85849,5.666666626930237C43.50268,5.666666626930237,44.8256,5.9785166269302366,45.8283,6.602183626930237C46.8311,7.225846626930236,47.6029,8.062686626930237,48.144800000000004,9.112656626930237Z" fill-rule="evenodd" fill="#FFFFFF" fill-opacity="1" style="mix-blend-mode:passthrough"/></g><g><path d="M108.08888999999999,13.62432L112.9037,13.62432L112.9037,12.709620000000001C112.9037,7.1343,110.07900000000001,5,106.77284,5C102.15062,5,100,7.96189,100,12.404720000000001C100,21.4211,107.99259,18.023600000000002,107.99259,21.8566C107.99259,23.5989,107.57531,24.078,106.51605,24.078C105.1679,24.078,104.94321,22.51,104.91111,20.5499L100.0962962,20.5499L100.0962962,20.854799999999997C100.0962962,26.6915,102.31111,29,106.77284,29C110.5284,29,113,26.735,113,21.4211C113,12.79673,105.1037,15.6715,105.1037,11.92559C105.1037,10.793099999999999,105.68148,10.00908,106.51605,10.00908C108.08888999999999,10.00908,108.08888999999999,11.969149999999999,108.08888999999999,13.62432Z" fill="#FFFFFF" fill-opacity="1"/></g></g></g></svg>