<svg xmlns="http://www.w3.org/2000/svg" xmlns:xlink="http://www.w3.org/1999/xlink" width="20" height="20" viewBox="0 0 20 20"><defs><style>.a,.c{fill:#707070;}.a{stroke:#707070;}.b{clip-path:url(#a);}</style><clipPath id="a"><rect class="a" width="20" height="20" transform="translate(113 168)"/></clipPath></defs><g class="b" transform="translate(-113 -168)"><g transform="translate(112.773 167.655)"><path class="c" d="M10.227,1.345a9,9,0,1,0,9,9,9.009,9.009,0,0,0-9-9Zm0,16.713a7.713,7.713,0,1,1,7.713-7.713A7.722,7.722,0,0,1,10.227,18.058Z"/><path class="c" d="M7.39,8.134m-.965,0a.965.965,0,1,0,.965-.965.965.965,0,0,0-.965.965Z"/><path class="c" d="M12.78,8.134m-.965,0a.965.965,0,1,0,.965-.965.965.965,0,0,0-.965.965Z"/><path class="c" d="M13.458,12.328a.642.642,0,0,0-.888.194A2.873,2.873,0,0,1,10.156,13.6a2.87,2.87,0,0,1-2.413-1.073.644.644,0,1,0-1.084.694,4.108,4.108,0,0,0,3.5,1.667,4.107,4.107,0,0,0,3.5-1.668.643.643,0,0,0-.2-.888Z"/></g></g></svg>