<svg xmlns="http://www.w3.org/2000/svg" xmlns:xlink="http://www.w3.org/1999/xlink" fill="none" version="1.1" width="430.111328125" height="60" viewBox="0 0 430.111328125 60"><defs><linearGradient x1="0.19240973889827728" y1="0.1372157335281372" x2="0.9081063270568848" y2="0.981374979019165" id="master_svg0_3867_06064"><stop offset="0%" stop-color="#FF804D" stop-opacity="1"/><stop offset="100%" stop-color="#FFEFBA" stop-opacity="1"/></linearGradient><linearGradient x1="0.5021402835845947" y1="0.01593017764389515" x2="0.5" y2="1" id="master_svg1_3867_08038"><stop offset="0%" stop-color="#FEF2C2" stop-opacity="1"/><stop offset="14.945778250694275%" stop-color="#FFD06C" stop-opacity="1"/><stop offset="50.00001788139343%" stop-color="#FFF99A" stop-opacity="1"/><stop offset="77.82745361328125%" stop-color="#F5B55A" stop-opacity="1"/><stop offset="100.00001192092896%" stop-color="#FFBF5D" stop-opacity="1"/></linearGradient><linearGradient x1="1" y1="0.5698085427284241" x2="0.03322594240307808" y2="0.6496136784553528" id="master_svg2_3867_12618"><stop offset="0%" stop-color="#FFCF72" stop-opacity="1"/><stop offset="99.99984502792358%" stop-color="#FFDA73" stop-opacity="1"/></linearGradient><linearGradient x1="1" y1="0.5698085427284241" x2="0.03322594240307808" y2="0.6496136784553528" id="master_svg3_3867_12290"><stop offset="0%" stop-color="#FF833A" stop-opacity="1"/><stop offset="99.99984502792358%" stop-color="#FFDA73" stop-opacity="1"/></linearGradient><linearGradient x1="0.4108355939388275" y1="0.11440909653902054" x2="0.41691577434539795" y2="0.7167142629623413" id="master_svg4_3867_13344"><stop offset="0%" stop-color="#FFFEEE" stop-opacity="1"/><stop offset="99.9998390674591%" stop-color="#FFFB8F" stop-opacity="1"/></linearGradient><linearGradient x1="0.17722059786319733" y1="0.957522988319397" x2="0.9217092990875244" y2="0.06318137794733047" id="master_svg5_3867_10830"><stop offset="0%" stop-color="#FF7030" stop-opacity="1"/><stop offset="100%" stop-color="#FF9F63" stop-opacity="1"/></linearGradient><linearGradient x1="0.17722059786319733" y1="0.957522988319397" x2="0.9217092990875244" y2="0.06318137794733047" id="master_svg6_3867_10825"><stop offset="0%" stop-color="#FF8841" stop-opacity="1"/><stop offset="100%" stop-color="#FFDC7E" stop-opacity="1"/></linearGradient><linearGradient x1="0.29481565952301025" y1="0.03493907302618027" x2="0.6820687055587769" y2="1" id="master_svg7_3867_08383"><stop offset="0%" stop-color="#FFCF72" stop-opacity="1"/><stop offset="99.99995827674866%" stop-color="#FFA15A" stop-opacity="1"/></linearGradient><linearGradient x1="0.5902748107910156" y1="0.4390558898448944" x2="0.26058727502822876" y2="0.8322629928588867" id="master_svg8_3867_08859"><stop offset="0%" stop-color="#FF7F4D" stop-opacity="1"/><stop offset="99.99989867210388%" stop-color="#FFA446" stop-opacity="1"/></linearGradient><linearGradient x1="0.763924241065979" y1="0.04273437336087227" x2="0.7434826493263245" y2="1.00209379196167" id="master_svg9_3867_11548"><stop offset="0%" stop-color="#FFF0CA" stop-opacity="1"/><stop offset="34.24657583236694%" stop-color="#FFE9AD" stop-opacity="1"/><stop offset="70.54794430732727%" stop-color="#EDAA4E" stop-opacity="1"/><stop offset="100%" stop-color="#F86748" stop-opacity="1"/></linearGradient><linearGradient x1="0.12436416745185852" y1="0.0408204048871994" x2="1" y2="0.9728272557258606" id="master_svga_3867_17995"><stop offset="0%" stop-color="#FFCF72" stop-opacity="1"/><stop offset="100.00003576278687%" stop-color="#FEBB6D" stop-opacity="1"/></linearGradient><linearGradient x1="0.7193063497543335" y1="0.0053459275513887405" x2="0.5" y2="1" id="master_svgb_3867_11737"><stop offset="0%" stop-color="#FFDE80" stop-opacity="1"/><stop offset="100.00001192092896%" stop-color="#FFBC6D" stop-opacity="1"/></linearGradient></defs><g style="mix-blend-mode:passthrough"><g style="mix-blend-mode:passthrough"><g style="mix-blend-mode:passthrough"><path d="M96.484982,34.197807641601564Q93.90064,48.395607641601565,105.08756,59.15100764160156L133.91570000000002,59.58210764160156Q116.2227,39.66880764160156,126.9794,14.284176641601562C116.2227,12.563787641601563,109.8222,15.266397641601563,105.94873,18.277987641601563C102.07531,21.289587641601564,97.90559,26.393307641601563,96.484982,34.197807641601564Z" fill="#FFD06C" fill-opacity="1"/></g><g style="mix-blend-mode:passthrough"><path d="M100.41071665991211,36.13692674865723Q99.12101765991211,52.48632674865723,113.6409076599121,59.46022674865723L133.8636076599121,59.46022674865723Q116.65240765991211,41.389726748657225,124.8275076599121,18.586581748657228C115.8769076599121,17.181266748657226,110.94780765991212,20.339286748657226,107.72474765991211,22.799336748657225C104.50170765991211,25.259386748657228,100.92038065991211,29.675426748657227,100.41071665991211,36.13692674865723Z" fill="url(#master_svg0_3867_06064)" fill-opacity="1"/></g></g><g style="mix-blend-mode:passthrough"><path d="M121.07665644140624,30.203310626220702Q119.78575744140625,45.69221062622071,132.26362744140624,59.460110626220704L173.56952744140625,59.460110626220704C165.82462744140625,56.448410626220706,160.23112744140624,42.6805106262207,158.94032744140625,37.087310626220706C157.64952744140624,31.494110626220703,157.74012744140626,22.332910626220702,159.80092744140626,17.295910626220703Q163.67332744140626,7.830460626220703,172.50052744140623,3.9998166262207033Q137.00052744140623,3.500171626220703,133.50052744140626,5.000630626220703C130.00054744140624,6.501090626220703,122.36755744140625,14.714410626220703,121.07665644140624,30.203310626220702Z" fill="url(#master_svg1_3867_08038)" fill-opacity="1"/></g><g style="mix-blend-mode:passthrough"><path d="M241.49966430664062,56.99998542175293L277.57366430664064,58.16928542175293Q281.01586430664065,48.27358542175293,281.01586430664065,35.79638542175293C281.01586430664065,23.31924542175293,273.2709643066406,17.295906421752928,265.5261643066406,16.86554082175293Q257.78126430664065,16.43517542175293,253.87266430664062,24.557605421752932L241.49966430664062,56.99998542175293Z" fill="url(#master_svg2_3867_12618)" fill-opacity="1"/></g><g style="mix-blend-mode:passthrough"><path d="M241.674072265625,57.308606066894534L274.131572265625,57.30890606689453Q277.573672265625,47.84340606689453,277.143372265625,34.936006066894535C276.713172265625,22.02862606689453,261.653672265625,17.29590606689453,259.072072265625,17.29590606689453Q256.490472265625,17.29590606689453,252.000272265625,25.47070606689453L241.674072265625,57.308606066894534Z" fill="url(#master_svg3_3867_12290)" fill-opacity="1"/></g><g style="mix-blend-mode:passthrough"><path d="M208.7305908203125,37.51751145324707L216.9057108203125,46.98301145324707L258.2115908203125,16.43541145324707L235.4072908203125,16.43541145324707C232.8256908203125,16.43541145324707,228.5229908203125,18.586831453247072,224.6505908203125,21.59838145324707Q220.7780908203125,24.60992145324707,208.7305908203125,37.51751145324707Z" fill="url(#master_svg4_3867_13344)" fill-opacity="1"/></g><g style="mix-blend-mode:passthrough"><ellipse cx="210.45165824890137" cy="43.54098606109619" rx="15.48969841003418" ry="10.756180763244629" fill="#FFDD67" fill-opacity="1"/></g><g style="mix-blend-mode:passthrough"><path d="M205.28842163085938,59.0298539855957L232.39542163085937,59.0298539855957L296.5055216308594,15.288133985595703Q298.4657216308594,14.168593985595702,298.55792163085937,12.912043985595703Q298.7489216308594,10.307143985595703,290.9120216308594,7.113435985595703Q280.15532163085936,4.101593985595703,269.99932163085936,11.499863985595702L205.28842163085938,59.0298539855957Z" fill="url(#master_svg5_3867_10830)" fill-opacity="1"/></g><g style="mix-blend-mode:passthrough"><path d="M207.00950622558594,54.29668224792481L214.75435622558592,54.29668224792481Q269.99970622558595,11.500592247924804,276.49970622558595,9.500592247924804Q282.99970622558595,7.500592247924805,287.03960622558594,6.539392247924805C277.1126062255859,3.7598822479248044,273.78170622558594,5.744435247924804,269.26880622558593,8.433292247924804C268.89150622558594,8.658042247924804,268.5060062255859,8.887722247924804,268.10780622558593,9.119942247924804Q262.94450622558594,12.130392247924805,207.00950622558594,54.29668224792481Z" fill="url(#master_svg6_3867_10825)" fill-opacity="1"/></g><g style="mix-blend-mode:passthrough"><path d="M157.95880126953125,23.57475749206543C157.95880126953125,29.16795749206543,158.81765926953125,32.60995749206543,160.54042126953124,36.051957492065426Q162.26318126953126,39.49385749206543,183.77500126953126,58.51805749206543L227.66240126953124,58.51805749206543Q185.49940126953126,10.920977492065429,182.05560126953125,7.65472749206543C178.61170126953124,4.38848849206543,173.01820126953126,2.6685774920654297,167.42473126953126,5.249987492065429C161.83122126953126,7.831397492065429,158.38739026953124,14.96975749206543,157.95880126953125,23.57475749206543Z" fill="url(#master_svg7_3867_08383)" fill-opacity="1"/></g><g style="mix-blend-mode:passthrough"><path d="M161.83120727539062,26.67894480895996C161.83120727539062,34.42344480895996,162.53628827539063,37.112444808959964,163.98255727539063,40.01664480895996Q165.42881727539063,42.92084480895996,183.07360727539063,58.731244808959964L221.63820727539064,58.73104480895996Q191.08900727539063,24.09754480895996,183.77440727539062,16.35322480895996C176.45990727539063,8.608861808959961,174.30850727539064,8.17822980895996,169.57556727539063,9.468817808959962C164.84259727539063,10.75940480895996,161.83120727539062,18.934544808959963,161.83120727539062,26.67894480895996Z" fill="url(#master_svg8_3867_08859)" fill-opacity="1"/></g><g style="mix-blend-mode:passthrough"><path d="M214.7543487548828,59.46015994567871Q302.9595487548828,60.463459945678714,307.6925487548828,59.60295994567871C312.4255487548828,58.74245994567871,317.5883487548828,54.44005994567871,320.1703487548828,50.99805994567871C322.7523487548828,47.55605994567871,327.0543487548828,40.24185994567871,325.7643487548828,27.764659945678712C324.4733487548828,15.28755994567871,314.4084487548828,10.02816994567871,310.70444875488283,9.26405994567871Q307.0004487548828,8.499959945678711,285.0004487548828,4.999959945678711Q306.4017487548828,20.02025994567871,303.3898487548828,36.79985994567871Q300.3779487548828,53.57955994567871,284.8882487548828,56.59125994567871L217.7662387548828,57.30885994567871L214.7543487548828,59.46015994567871Z" fill="url(#master_svg9_3867_11548)" fill-opacity="1"/></g><g style="mix-blend-mode:passthrough"><path d="M159.49954682128907,13.99981689453125C156.05656682128907,22.17451689453125,157.14007092128907,33.11671689453125,158.81955682128907,38.80821689453125C160.49903682128905,44.49981689453125,163.98257682128906,59.46011689453125,174.31066682128906,59.46011689453125L220.34786682128907,59.46011689453125L222.49916682128907,57.30891689453125Q182.87176682128907,57.30851689453125,178.99906682128906,57.30841689453125C168.11426682128905,57.30841689453125,163.99903682128905,40.99981689453125,162.99903682128905,32.99981689453125C161.75868682128907,23.07701689453125,164.99957682128905,9.99981689453125,171.99956682128905,8.99981689453125L171.99956682128905,3.99981689453125Q162.94252682128905,5.82511689453125,159.49954682128907,13.99981689453125Z" fill="url(#master_svga_3867_17995)" fill-opacity="1"/></g><g style="mix-blend-mode:passthrough"><path d="M219.91758728027344,59.46065134277344L287.46988728027344,59.89045134277344Q309.4135872802734,48.094151342773436,304.68068728027345,25.292251342773437C299.94768728027344,2.4903213427734374,281.64778728027346,4.497369342773437,277.5736872802734,5.248982342773438C273.49958728027343,6.000591342773437,272.99958728027343,11.500591342773436,274.99958728027343,10.000591342773436C276.99958728027343,8.500591342773438,288.42388728027345,8.359271342773438,291.99958728027343,11.000331342773437C295.5752872802734,13.641401342773438,301.6687872802734,20.307751342773436,301.6687872802734,33.21515134277344Q301.6687872802734,48.70405134277344,284.8882872802734,56.44845134277344L222.49920728027342,57.309251342773436L219.91758728027344,59.46065134277344Z" fill="url(#master_svgb_3867_11737)" fill-opacity="1"/></g><g style="mix-blend-mode:passthrough" transform="matrix(1,0,0,-1,0,94.3615493774414)"><g><g><path d="M120.716715625,69.85230445861816Q122.223215625,77.19135445861816,134.012415625,85.54360445861816L126.789815625,87.92110445861816Q115.346335625,83.90110445861816,110.416015625,74.05399445861816L120.716715625,69.85230445861816Z" fill="#FFDF5A" fill-opacity="1"/></g><g transform="matrix(0.9651126861572266,-0.2618349492549896,0.25613051652908325,0.9666422605514526,-14.632020986154316,1.9056344799366798)" style="opacity:0.5;"><path d="M6.57894,57.127206802368164Q7.54082,61.806986802368165,15.0724,67.12374680236816L10.4564,68.64180680236817C6.0731,66.99247680236816,2.38233,63.874296802368164,0,59.807676802368164L6.57894,57.127206802368164Z" fill="#FF7A5A" fill-opacity="1"/></g><g transform="matrix(0.9843951463699341,-0.17597253620624542,0.17196254432201385,0.9851035475730896,-13.428612946625776,15.897119400615793)"><path d="M86.78236375,85.73753672314453Q81.15825375,86.81691872314452,84.10027375,94.49357872314454C89.68906375,94.05304872314453,95.30324375000001,94.05304872314453,100.89204375,94.49357872314454Q92.41796375,84.65582572314453,86.78236375,85.73753672314453Z" fill="#2EEAEA" fill-opacity="1"/></g><g><path d="M312.2957,56.85248565673828Q305.03942,60.34196565673828,299,72.54378565673828L306.22261,74.92128565673828C310.4951,69.03048565673828,316.1124,64.27331565673828,322.5964,61.05417565673828L312.2957,56.85248565673828Z" fill="#EC5AFF" fill-opacity="1"/></g><g transform="matrix(0.5545423030853271,-0.8321555852890015,0.8260366916656494,0.5636163353919983,75.64611104974574,312.12785294462765)"><path d="M337.67677125,86.29169464111328Q338.83552125,91.78991464111328,347.79733125,98.05879464111328L342.29783125,99.83999464111328C337.06891125,97.89749464111328,332.66833125,94.22657464111327,329.83203125,89.44111464111329L337.67677125,86.29169464111328Z" fill="#FFDF5A" fill-opacity="1"/></g><g transform="matrix(-0.4955796003341675,0.8685625791549683,-0.8634505271911621,-0.5044335722923279,687.8305641867512,-295.9310343342013)" style="opacity:0.5;"><path d="M433.834798125,51.718713945526126Q428.163548125,52.78864494552612,431.130228125,60.39803494552612C436.765868125,59.961354945526125,442.427128125,59.961354945526125,448.062728125,60.39803494552612Q439.517638125,50.646481945526126,433.834798125,51.718713945526126Z" fill="#2EEAEA" fill-opacity="1"/></g></g></g></g></svg>