<svg xmlns="http://www.w3.org/2000/svg" xmlns:xlink="http://www.w3.org/1999/xlink" width="18" height="18" viewBox="0 0 18 18">
  <defs>
    <style>
      .cls-1, .cls-4 {
        fill: #fff;
      }

      .cls-1 {
        stroke: #707070;
        opacity: 0.1;
      }

      .cls-2 {
        clip-path: url(#clip-path);
      }

      .cls-3 {
        fill: #999;
      }

      .cls-4 {
        stroke: #fff;
        stroke-linecap: round;
        stroke-width: 0.4px;
      }
    </style>
    <clipPath id="clip-path">
      <rect id="mask" class="cls-1" width="18" height="18"/>
    </clipPath>
  </defs>
  <g id="icon_cer" class="cls-2">
    <path id="shape" class="cls-3" d="M7.977,17.523,6.242,15.788H3.787a1.5,1.5,0,0,1-1.5-1.5V11.834L.552,10.1a1.5,1.5,0,0,1,0-2.121L2.288,6.241V3.787a1.5,1.5,0,0,1,1.5-1.5H6.241L7.977.553a1.5,1.5,0,0,1,2.121,0l1.735,1.735h2.454a1.5,1.5,0,0,1,1.5,1.5V6.242l1.735,1.735a1.5,1.5,0,0,1,0,2.121l-1.735,1.735v2.454a1.5,1.5,0,0,1-1.5,1.5H11.833L10.1,17.523a1.5,1.5,0,0,1-2.121,0Z" transform="translate(-0.038 -0.038)"/>
    <path id="hook" class="cls-4" d="M4794.338,71.1a.618.618,0,0,1-.456-.2l-1.726-1.887a.539.539,0,0,1,.065-.793.628.628,0,0,1,.846.061l1.269,1.388,2.62-2.875a.628.628,0,0,1,.846-.062.538.538,0,0,1,.066.793l-3.075,3.375a.615.615,0,0,1-.455.2Z" transform="translate(-4786.013 -59.855)"/>
  </g>
</svg>
