<svg xmlns="http://www.w3.org/2000/svg" width="44" height="44" viewBox="0 0 44 44">
  <defs>
    <style>
      .cls-1 {
        fill: #f0f3f5;
      }

      .cls-2 {
        fill: rgba(255,255,255,0.01);
      }

      .cls-3, .cls-4 {
        fill: none;
        stroke: #333;
        stroke-linejoin: round;
        stroke-width: 1.875px;
      }

      .cls-4 {
        stroke-linecap: round;
      }
    </style>
  </defs>
  <g id="icon_share" transform="translate(-1146 -138)">
    <rect id="shape" class="cls-1" width="44" height="44" rx="8" transform="translate(1146 138)"/>
    <g id="icon_share-2" data-name="icon_share" transform="translate(1156 148)">
      <rect id="矩形_19" data-name="矩形 19" class="cls-2" width="24" height="24"/>
      <path id="路径_16" data-name="路径 16" class="cls-3" d="M21.25,8.75a2.5,2.5,0,1,0-2.5-2.5A2.5,2.5,0,0,0,21.25,8.75Z" transform="translate(-3.75 -0.75)"/>
      <path id="路径_17" data-name="路径 17" class="cls-3" d="M7.5,16.875a2.5,2.5,0,1,0-2.5-2.5A2.5,2.5,0,0,0,7.5,16.875Z" transform="translate(-1 -2.375)"/>
      <path id="路径_18" data-name="路径 18" class="cls-4" d="M17.167,8.484,10.837,12.32" transform="translate(-2.167 -1.697)"/>
      <path id="路径_19" data-name="路径 19" class="cls-4" d="M10.837,16.6l6.67,3.941" transform="translate(-2.167 -3.32)"/>
      <path id="路径_20" data-name="路径 20" class="cls-3" d="M21.25,20a2.5,2.5,0,1,1-2.5,2.5A2.5,2.5,0,0,1,21.25,20Z" transform="translate(-3.75 -4)"/>
    </g>
  </g>
</svg>
