<svg xmlns="http://www.w3.org/2000/svg" xmlns:xlink="http://www.w3.org/1999/xlink" width="24" height="24" viewBox="0 0 24 24">
  <defs>
    <style>
      .cls-1 {
        fill: #bfc2cc;
      }

      .cls-2 {
        clip-path: url(#clip-path);
      }
    </style>
    <clipPath id="clip-path">
      <rect id="mask" class="cls-1" width="24" height="24" transform="translate(176 284)"/>
    </clipPath>
  </defs>
  <g id="img_upload" class="cls-2" transform="translate(-176 -284)">
    <path id="上传图片" class="cls-1" d="M16.433,27.944H6.758A2.846,2.846,0,0,1,3.916,25.1V6.786A2.846,2.846,0,0,1,6.758,3.944H25.073a2.846,2.846,0,0,1,2.842,2.842v9.578a.947.947,0,0,1-1.895,0V6.786a.95.95,0,0,0-.947-.947H6.758a.95.95,0,0,0-.947.947V25.1a.95.95,0,0,0,.947.947h9.676a.947.947,0,1,1,0,1.895Zm10.288-3.878H19.44a.947.947,0,1,1,0-1.895h7.285a.947.947,0,1,1,0,1.895Zm-3.641,3.641a.946.946,0,0,1-.947-.947V19.478a.947.947,0,1,1,1.895,0v7.285A.945.945,0,0,1,23.081,27.707ZM10.351,13.55a2.58,2.58,0,1,1,2.58-2.58,2.583,2.583,0,0,1-2.58,2.58Zm0-3.707a1.127,1.127,0,1,0,1.127,1.127A1.128,1.128,0,0,0,10.351,9.843ZM4.958,21.417a.947.947,0,0,1-.584-1.693l5.135-4.033a.947.947,0,1,1,1.168,1.491L5.542,21.214A.944.944,0,0,1,4.958,21.417Zm10.405-.426A.947.947,0,0,1,14.8,20.8L9.736,17.037a.948.948,0,1,1,1.131-1.522l5.062,3.767a.947.947,0,0,1-.565,1.708Zm0,0a.947.947,0,0,1-.6-1.677l11.605-9.6a.947.947,0,0,1,1.206,1.459l-11.605,9.6a.921.921,0,0,1-.6.218Z" transform="translate(172.084 280.056)"/>
  </g>
</svg>
