<svg xmlns="http://www.w3.org/2000/svg" xmlns:xlink="http://www.w3.org/1999/xlink" width="138" height="22" viewBox="0 0 138 22">
  <defs>
    <linearGradient id="linear-gradient" x1="0.5" x2="0.5" y2="1" gradientUnits="objectBoundingBox">
      <stop offset="0" stop-color="#ffc86e"/>
      <stop offset="1" stop-color="#feb338"/>
    </linearGradient>
  </defs>
  <g id="logo_nos_w" transform="translate(-40 -41)">
    <text id="NFTonShow" transform="translate(76 59)" fill="#feb338" font-size="18" font-family="Ubuntu-Bold, Ubuntu" font-weight="700"><tspan x="0" y="0">NFT</tspan><tspan y="0" fill="#fff">onShow</tspan></text>
    <g id="logo_nos" transform="translate(40 41)">
      <path id="shape_1" data-name="shape 1" d="M0,22H0V0L6.677,1.883l2.26,7.651V2.521L13,3.667V18.333l-5.15,1.453L5.687,12.467V20.4L0,22Z" transform="translate(13 0)" fill="url(#linear-gradient)"/>
      <g id="shape_2" data-name="shape 2" fill="none">
        <path d="M13,22h0L6.906,20.281V1.719L13,0V22ZM5.281,19.823h0L0,18.334V3.667l5.281-1.49V19.822Z" stroke="none"/>
        <path d="M 11 19.35793685913086 L 11 2.642203330993652 L 8.905839920043945 3.232916831970215 L 8.905839920043945 18.7673282623291 L 11 19.35793685913086 M 3.281019926071167 17.18098068237305 L 3.281019926071167 4.819549560546875 L 2 5.18089485168457 L 2 16.81969833374023 L 3.281019926071167 17.18098068237305 M 13 22 L 12.99894046783447 21.99970054626465 L 6.905839920043945 20.28129005432129 L 6.905839920043945 1.719020962715149 L 13 9.5367431640625e-07 L 13 22 Z M 5.281020164489746 19.82305145263672 L 5.279960155487061 19.82275009155273 L -8.881784197001252e-16 18.33366012573242 L -8.881784197001252e-16 3.667001008987427 L 5.281020164489746 2.177350997924805 L 5.281020164489746 19.82305145263672 Z" stroke="none" fill="#feb338"/>
      </g>
    </g>
  </g>
</svg>
