<svg xmlns="http://www.w3.org/2000/svg" xmlns:xlink="http://www.w3.org/1999/xlink" version="1.1" viewBox="0 0 28.499998092651367 36.5"><defs><linearGradient x1="1" y1="0.5" x2="0" y2="0.5" id="master_svg0_9_280"><stop offset="0%" stop-color="#2AF598" stop-opacity="1"/><stop offset="100%" stop-color="#009EFD" stop-opacity="1"/></linearGradient><linearGradient x1="1" y1="0.5" x2="0" y2="0.5" id="master_svg1_9_280"><stop offset="0%" stop-color="#2AF598" stop-opacity="1"/><stop offset="100%" stop-color="#009EFD" stop-opacity="1"/></linearGradient></defs><g style="mix-blend-mode:passthrough"><path d="M23.875,7.96428L23.875,23.8214L24.75,23.8214L24.75,24.25L25.625,24.25L25.625,24.6786L26.5,24.6786L26.5,25.1071L27.375,25.1071L27.375,25.9643L26.5,25.9643L26.5,25.5357L25.625,25.5357L25.625,25.1071L24.75,25.1071L24.75,24.6786L23.875,24.6786L23.875,24.25L23,24.25L23,24.6786L22.125,24.6786L22.125,25.1071L20.375,25.1071L20.375,25.5357L19.5,25.5357L19.5,27.25L18.625,27.25L18.625,27.6786L16.875,27.6786L16.875,28.1071L15.125,28.1071L15.125,28.5357L13.375,28.5357L13.375,28.1071L12.5,28.1071L12.5,27.25L11.625,27.25L11.625,27.6786L9.875,27.6786L9.875,28.1071L8.125,28.1071L8.125,27.6786L7.25,27.6786L7.25,27.25L5.5,27.25L5.5,27.6786L3.75,27.6786L3.75,28.1071L2,28.1071L2,28.5357L1.125,28.5357L1.125,27.6786L2,27.6786L2,27.25L3.75,27.25L3.75,26.8214L5.5,26.8214L5.5,26.3929L4.625,26.3929L4.625,25.9643L3.75,25.9643L3.75,25.1071L4.625,25.1071L4.625,25.5357L5.5,25.5357L5.5,25.9643L6.375,25.9643L6.375,26.3929L7.25,26.3929L7.25,26.8214L8.125,26.8214L8.125,13.1071L7.25,13.1071L7.25,12.6786L6.375,12.6786L6.375,12.25L5.5,12.25L5.5,11.8214L4.625,11.8214L4.625,11.3929L3.75,11.3929L3.75,25.1071L2.875,25.1071L2.875,9.25L3.3125,9.25L3.3125,8.39286L3.75,8.39286L3.75,7.53572L4.1875,7.53572L4.1875,6.67857L4.625,6.67857L4.625,5.82143L5.0625,5.82143L5.0625,4.96429L5.5,4.96429L5.5,4.107139999999999L5.9375,4.107139999999999L5.9375,3.25L6.375,3.25L6.375,2.39286L7.25,2.39286L7.25,3.25L6.8125,3.25L6.8125,4.107139999999999L6.375,4.107139999999999L6.375,4.96429L5.9375,4.96429L5.9375,5.82143L5.5,5.82143L5.5,6.67857L5.0625,6.67857L5.0625,7.53572L4.625,7.53572L4.625,8.39286L4.1875,8.39286L4.1875,9.25L3.75,9.25L3.75,10.5357L4.625,10.5357L4.625,10.9643L5.5,10.9643L5.5,11.3929L6.375,11.3929L6.375,11.8214L7.25,11.8214L7.25,12.25L8.125,12.25L8.125,12.6786L9.875,12.6786L9.875,12.25L11.625,12.25L11.625,11.8214L13.375,11.8214L13.375,11.3929L15.125,11.3929L15.125,10.9643L16.875,10.9643L16.875,10.5357L18.625,10.5357L18.625,10.10714L20.375,10.10714L20.375,9.67857L22.125,9.67857L22.125,9.25L23,9.25L23,7.96428L22.5625,7.96428L22.5625,7.10714L23.4375,7.10714L23.4375,7.96428L23.875,7.96428ZM21.6875,6.25L22.5625,6.25L22.5625,7.10714L21.6875,7.10714L21.6875,6.25ZM20.8125,5.39286L21.6875,5.39286L21.6875,6.25L20.8125,6.25L20.8125,5.39286ZM19.9375,4.53571L20.8125,4.53571L20.8125,5.39286L19.9375,5.39286L19.9375,4.53571ZM19.0625,3.67857L19.9375,3.67857L19.9375,4.53571L19.0625,4.53571L19.0625,3.67857ZM18.1875,2.82143L19.0625,2.82143L19.0625,3.67857L18.1875,3.67857L18.1875,2.82143ZM17.3125,1.96428L18.1875,1.96428L18.1875,2.82143L17.3125,2.82143L17.3125,1.96428ZM15.125,2.39286L16,2.39286L16,1.96428L16.4375,1.96428L16.4375,1.107144L17.3125,1.107144L17.3125,1.96428L16.875,1.96428L16.875,2.82143L16,2.82143L16,3.25L15.125,3.25L15.125,2.39286ZM13.375,1.107144L14.25,1.107144L14.25,1.53571L15.125,1.53571L15.125,2.39286L14.25,2.39286L14.25,1.96428L13.375,1.96428L13.375,1.107144ZM12.5,1.107144L12.5,0.25L13.375,0.25L13.375,1.107144L12.5,1.107144ZM10.75,3.67857L10.75,2.82143L11.1875,2.82143L11.1875,1.96428L11.625,1.96428L11.625,1.107144L12.5,1.107144L12.5,1.96428L12.0625,1.96428L12.0625,2.82143L11.625,2.82143L11.625,3.67857L10.75,3.67857ZM9.875,4.53571L9.875,3.67857L10.75,3.67857L10.75,4.53571L9.875,4.53571ZM9.875,4.53571L9,4.53571L9,4.96429L8.5625,4.96429L8.5625,4.107139999999999L8.125,4.107139999999999L8.125,3.25L7.25,3.25L7.25,4.107139999999999L7.6875,4.107139999999999L7.6875,4.96429L8.125,4.96429L8.125,5.82143L9,5.82143L9,5.39286L9.875,5.39286L9.875,4.53571ZM15.125,30.25L14.25,30.25L14.25,31.9643L14.5781,31.9643L14.5781,32.8214L14.9062,32.8214L14.9062,33.6786L16.2187,33.6786L16.2187,34.5357L17.0938,34.5357L17.0938,34.9643L17.9688,34.9643L17.9688,34.5357L18.8438,34.5357L18.8438,33.6786L19.7188,33.6786L19.7188,32.3929L20.5938,32.3929L20.5938,31.5357L20.9219,31.5357L20.9219,30.6786L21.25,30.6786L21.25,28.5357L22.125,28.5357L22.125,28.1071L23.875,28.1071L23.875,27.6786L25.625,27.6786L25.625,27.25L27.375,27.25L27.375,36.25L28.25,36.25L28.25,25.9643L27.375,25.9643L27.375,26.3929L25.625,26.3929L25.625,26.8214L23.875,26.8214L23.875,27.25L22.125,27.25L22.125,27.6786L20.375,27.6786L20.375,28.1071L18.625,28.1071L18.625,28.5357L16.875,28.5357L16.875,28.9643L15.125,28.9643L15.125,29.3929L13.375,29.3929L13.375,29.8214L11.625,29.8214L11.625,30.25L9.875,30.25L9.875,30.6786L8.125,30.6786L8.125,31.1071L7.25,31.1071L7.25,31.5357L6.375,31.5357L6.375,31.1071L5.5,31.1071L5.5,30.6786L4.625,30.6786L4.625,30.25L3.75,30.25L3.75,29.8214L2.875,29.8214L2.875,29.3929L2,29.3929L2,28.9643L1.125,28.9643L1.125,28.5357L0.25,28.5357L0.25,36.25L1.125,36.25L1.125,29.8214L2,29.8214L2,30.25L2.875,30.25L2.875,30.6786L3.75,30.6786L3.75,31.1071L4.625,31.1071L4.625,31.5357L5.5,31.5357L5.5,31.9643L6.375,31.9643L6.375,36.25L7.25,36.25L7.25,31.9643L8.125,31.9643L8.125,31.5357L9.875,31.5357L9.875,31.1071L11.625,31.1071L11.625,30.6786L13.375,30.6786L13.375,30.25L15.125,30.25ZM15.125,30.25L15.125,31.9643L15.4531,31.9643L15.4531,32.8214L16.2187,32.8214L16.2187,31.9643L17.0938,31.9643L17.0938,31.1071L17.9688,31.1071L17.9688,30.6786L18.8438,30.6786L18.8438,31.1071L19.7188,31.1071L19.7188,31.5357L20.0469,31.5357L20.0469,30.6786L20.375,30.6786L20.375,28.9643L18.625,28.9643L18.625,29.3929L16.875,29.3929L16.875,29.8214L15.125,29.8214L15.125,30.25ZM12.5,3.67857L12.5,2.82143L13.375,2.82143L13.375,3.67857L12.9375,3.67857L12.9375,4.53571L12.5,4.53571L12.5,5.39286L12.0625,5.39286L12.0625,6.25L11.625,6.25L11.625,7.10714L11.1875,7.10714L11.1875,7.96428L10.3125,7.96428L10.3125,7.10714L10.75,7.10714L10.75,6.25L11.1875,6.25L11.1875,5.39286L11.625,5.39286L11.625,4.53571L12.0625,4.53571L12.0625,3.67857L12.5,3.67857ZM22.125,10.10714L23,10.10714L23,23.8214L22.125,23.8214L22.125,24.25L20.375,24.25L20.375,24.6786L18.625,24.6786L18.625,25.1071L16.875,25.1071L16.875,25.5357L15.125,25.5357L15.125,25.9643L13.375,25.9643L13.375,26.3929L11.625,26.3929L11.625,26.8214L9.875,26.8214L9.875,27.25L9,27.25L9,13.5357L9.875,13.5357L9.875,13.1071L11.625,13.1071L11.625,12.6786L13.375,12.6786L13.375,12.25L15.125,12.25L15.125,11.8214L16.875,11.8214L16.875,11.3929L18.625,11.3929L18.625,10.9643L20.375,10.9643L20.375,10.5357L22.125,10.5357L22.125,10.10714ZM19.1132,14.938L20.2921,14.938L20.2921,16.09L20.7342,16.09L20.7342,18.394L19.5553,18.394L19.5553,16.09L19.1132,16.09L19.1132,14.938ZM15.5763,15.802L16.7553,15.802L16.7553,16.954L17.1974,16.954L17.1974,19.258L16.0184,19.258L16.0184,16.954L15.5763,16.954L15.5763,15.802ZM14.25,22.2109L15.125,22.2109L15.125,23.068L16,23.068L16,23.3894L17.75,23.3894L17.75,23.068L19.5,23.068L19.5,22.5323L20.375,22.5323L20.375,21.6751L19.5,21.6751L19.5,22.2109L17.75,22.2109L17.75,22.5323L16,22.5323L16,22.2109L15.125,22.2109L15.125,21.3537L14.25,21.3537L14.25,22.2109ZM13.375,26.8214L15.125,26.8214L15.125,26.3929L16.875,26.3929L16.875,25.9643L18.625,25.9643L18.625,26.8214L16.875,26.8214L16.875,27.25L15.125,27.25L15.125,27.6786L13.375,27.6786L13.375,26.8214ZM17.9688,31.9643L18.8438,31.9643L18.8438,33.25L17.9688,33.25L17.9688,33.6786L17.0938,33.6786L17.0938,32.3929L17.9688,32.3929L17.9688,31.9643Z" fill-rule="evenodd" fill="url(#master_svg0_9_280)" fill-opacity="1"/><path d="M10.5,3.67857L10.5,2.57143L11.1875,2.57143L11.1875,2.82143L10.9375,2.82143L10.9375,1.71428L11.625,1.71428L11.625,1.96428L11.375,1.96428L11.375,0.857144L12.5,0.857144L13.375,0.857144L13.375,1.35714L12.5,1.35714L11.625,1.35714L11.625,1.107144L11.875,1.107144L11.875,2.21428L11.1875,2.21428L11.1875,1.96428L11.4375,1.96428L11.4375,3.07143L10.75,3.07143L10.75,2.82143L11,2.82143L11,3.67857L10.5,3.67857ZM11,3.67857L11,4.78571L9.875,4.78571L9,4.78571L9,4.53571L9.25,4.53571L9.25,5.39286L9,5.39286L9,5.14286L9.875,5.14286L9.875,5.39286L9.625,5.39286L9.625,4.53571L10.125,4.53571L10.125,5.64286L8.75,5.64286L8.75,4.28571L9.875,4.28571L10.75,4.28571L10.75,4.53571L10.5,4.53571L10.5,3.67857L11,3.67857ZM9.625,4.53571L9.625,3.42857L10.75,3.42857L11.625,3.42857L11.625,3.67857L11.375,3.67857L11.375,2.57143L12.0625,2.57143L12.0625,2.82143L11.8125,2.82143L11.8125,1.71428L12.5,1.71428L12.5,1.96428L12.25,1.96428L12.25,1.107144L12.75,1.107144L12.75,2.21428L12.0625,2.21428L12.0625,1.96428L12.3125,1.96428L12.3125,3.07143L11.625,3.07143L11.625,2.82143L11.875,2.82143L11.875,3.92857L10.75,3.92857L9.875,3.92857L9.875,3.67857L10.125,3.67857L10.125,4.53571L9.625,4.53571ZM12.25,1.107144L12.25,0L13.625,0L13.625,1.107144L13.625,1.96428L13.375,1.96428L13.375,1.71428L14.5,1.71428L14.5,2.39286L14.25,2.39286L14.25,2.1428599999999998L15.125,2.1428599999999998L15.125,2.64286L14,2.64286L14,1.96428L14.25,1.96428L14.25,2.21428L13.125,2.21428L13.125,1.107144L13.125,0.25L13.375,0.25L13.375,0.5L12.5,0.5L12.5,0.25L12.75,0.25L12.75,1.107144L12.25,1.107144ZM13.375,0.857144L14.5,0.857144L14.5,1.53571L14.25,1.53571L14.25,1.28571L15.375,1.28571L15.375,2.39286L15.375,3.25L15.125,3.25L15.125,3L16,3L16,3.25L15.75,3.25L15.75,2.57143L16.875,2.57143L16.875,2.82143L16.625,2.82143L16.625,1.71428L17.3125,1.71428L17.3125,2.21428L16.875,2.21428L16.875,1.96428L17.125,1.96428L17.125,3.07143L16,3.07143L16,2.82143L16.25,2.82143L16.25,3.5L14.875,3.5L14.875,2.39286L14.875,1.53571L15.125,1.53571L15.125,1.78571L14,1.78571L14,1.107144L14.25,1.107144L14.25,1.35714L13.375,1.35714L13.375,0.857144ZM15.125,2.1428599999999998L16,2.1428599999999998L16,2.39286L15.75,2.39286L15.75,1.71428L16.4375,1.71428L16.4375,1.96428L16.1875,1.96428L16.1875,0.857144L17.5625,0.857144L17.5625,1.96428L17.5625,2.82143L17.3125,2.82143L17.3125,2.57143L18.1875,2.57143L18.1875,3.07143L17.0625,3.07143L17.0625,1.96428L17.0625,1.107144L17.3125,1.107144L17.3125,1.35714L16.4375,1.35714L16.4375,1.107144L16.6875,1.107144L16.6875,2.21428L16,2.21428L16,1.96428L16.25,1.96428L16.25,2.64286L15.125,2.64286L15.125,2.1428599999999998ZM17.3125,1.71428L18.4375,1.71428L18.4375,2.82143L18.4375,3.67857L18.1875,3.67857L18.1875,3.42857L19.0625,3.42857L19.0625,3.92857L17.9375,3.92857L17.9375,2.82143L17.9375,1.96428L18.1875,1.96428L18.1875,2.21428L17.3125,2.21428L17.3125,1.71428ZM18.1875,2.57143L19.3125,2.57143L19.3125,3.67857L19.3125,4.53571L19.0625,4.53571L19.0625,4.28571L19.9375,4.28571L19.9375,4.78571L18.8125,4.78571L18.8125,3.67857L18.8125,2.82143L19.0625,2.82143L19.0625,3.07143L18.1875,3.07143L18.1875,2.57143ZM19.0625,3.42857L20.1875,3.42857L20.1875,4.53571L20.1875,5.39286L19.9375,5.39286L19.9375,5.14286L20.8125,5.14286L20.8125,5.64286L19.6875,5.64286L19.6875,4.53571L19.6875,3.67857L19.9375,3.67857L19.9375,3.92857L19.0625,3.92857L19.0625,3.42857ZM19.9375,4.28571L21.0625,4.28571L21.0625,5.39286L21.0625,6.25L20.8125,6.25L20.8125,6L21.6875,6L21.6875,6.5L20.5625,6.5L20.5625,5.39286L20.5625,4.53571L20.8125,4.53571L20.8125,4.78571L19.9375,4.78571L19.9375,4.28571ZM20.8125,5.14286L21.9375,5.14286L21.9375,6.25L21.9375,7.10714L21.6875,7.10714L21.6875,6.85714L22.5625,6.85714L22.5625,7.35714L21.4375,7.35714L21.4375,6.25L21.4375,5.39286L21.6875,5.39286L21.6875,5.64286L20.8125,5.64286L20.8125,5.14286ZM21.6875,6L22.8125,6L22.8125,7.10714L22.8125,7.96428L22.5625,7.96428L22.5625,7.71428L23.25,7.71428L23.25,9.25L22.75,9.25L22.75,7.96428L23,7.96428L23,8.214279999999999L22.3125,8.214279999999999L22.3125,7.10714L22.3125,6.25L22.5625,6.25L22.5625,6.5L21.6875,6.5L21.6875,6ZM22.5625,6.85714L23.6875,6.85714L23.6875,7.96428L23.4375,7.96428L23.4375,7.71428L24.125,7.71428L24.125,10.3571L21.875,10.3571L21.875,9L23,9L23,9.25L22.75,9.25L22.75,8.57143L24.125,8.57143L24.125,23.8214L23.625,23.8214L23.625,8.82143L23.875,8.82143L23.875,9.07143L23,9.07143L23,8.82143L23.25,8.82143L23.25,9.5L22.125,9.5L22.125,9.25L22.375,9.25L22.375,10.10714L22.125,10.10714L22.125,9.85714L23.875,9.85714L23.875,10.10714L23.625,10.10714L23.625,7.96428L23.875,7.96428L23.875,8.214279999999999L23.1875,8.214279999999999L23.1875,7.10714L23.4375,7.10714L23.4375,7.35714L22.5625,7.35714L22.5625,6.85714ZM7.25,3L8.375,3L8.375,4.107139999999999L8.125,4.107139999999999L8.125,3.85714L8.8125,3.85714L8.8125,4.96429L8.5625,4.96429L8.5625,4.71429L9.25,4.71429L9.25,6.07143L7.875,6.07143L7.875,4.96429L8.125,4.96429L8.125,5.21429L7.4375,5.21429L7.4375,4.107139999999999L7.6875,4.107139999999999L7.6875,4.35714L7,4.35714L7,3.25L7,2.39286L7.25,2.39286L7.25,2.64286L6.375,2.64286L6.375,2.39286L6.625,2.39286L6.625,3.5L5.9375,3.5L5.9375,3.25L6.1875,3.25L6.1875,4.35714L5.5,4.35714L5.5,4.107139999999999L5.75,4.107139999999999L5.75,5.21429L5.0625,5.21429L5.0625,4.96429L5.3125,4.96429L5.3125,6.07143L4.625,6.07143L4.625,5.82143L4.875,5.82143L4.875,6.92857L4.1875,6.92857L4.1875,6.67857L4.4375,6.67857L4.4375,7.78572L3.75,7.78572L3.75,7.53572L4,7.53572L4,8.64286L3.3125,8.64286L3.3125,8.39286L3.5625,8.39286L3.5625,9.5L2.875,9.5L2.875,9.25L3.125,9.25L3.125,10.5357L2.875,10.5357L2.875,10.2857L3.75,10.2857L3.75,10.7857L2.625,10.7857L2.625,9L3.3125,9L3.3125,9.25L3.0625,9.25L3.0625,8.142859999999999L3.75,8.142859999999999L3.75,8.39286L3.5,8.39286L3.5,7.28572L4.1875,7.28572L4.1875,7.53572L3.9375,7.53572L3.9375,6.42857L4.625,6.42857L4.625,6.67857L4.375,6.67857L4.375,5.57143L5.0625,5.57143L5.0625,5.82143L4.8125,5.82143L4.8125,4.71429L5.5,4.71429L5.5,4.96429L5.25,4.96429L5.25,3.85714L5.9375,3.85714L5.9375,4.107139999999999L5.6875,4.107139999999999L5.6875,3L6.375,3L6.375,3.25L6.125,3.25L6.125,2.1428599999999998L7.5,2.1428599999999998L7.5,3.25L7.5,4.107139999999999L7.25,4.107139999999999L7.25,3.85714L7.9375,3.85714L7.9375,4.96429L7.6875,4.96429L7.6875,4.71429L8.375,4.71429L8.375,5.82143L8.125,5.82143L8.125,5.57143L9,5.57143L9,5.82143L8.75,5.82143L8.75,4.96429L9,4.96429L9,5.21429L8.3125,5.21429L8.3125,4.107139999999999L8.5625,4.107139999999999L8.5625,4.35714L7.875,4.35714L7.875,3.25L8.125,3.25L8.125,3.5L7.25,3.5L7.25,3ZM7.25,3.5L6.8125,3.5L6.8125,3.25L7.0625,3.25L7.0625,4.35714L6.375,4.35714L6.375,4.107139999999999L6.625,4.107139999999999L6.625,5.21429L5.9375,5.21429L5.9375,4.96429L6.1875,4.96429L6.1875,6.07143L5.5,6.07143L5.5,5.82143L5.75,5.82143L5.75,6.92857L5.0625,6.92857L5.0625,6.67857L5.3125,6.67857L5.3125,7.78572L4.625,7.78572L4.625,7.53572L4.875,7.53572L4.875,8.64286L4.1875,8.64286L4.1875,8.39286L4.4375,8.39286L4.4375,9.5L3.75,9.5L3.75,9.25L4,9.25L4,10.5357L3.5,10.5357L3.5,9L4.1875,9L4.1875,9.25L3.9375,9.25L3.9375,8.142859999999999L4.625,8.142859999999999L4.625,8.39286L4.375,8.39286L4.375,7.28572L5.0625,7.28572L5.0625,7.53572L4.8125,7.53572L4.8125,6.42857L5.5,6.42857L5.5,6.67857L5.25,6.67857L5.25,5.57143L5.9375,5.57143L5.9375,5.82143L5.6875,5.82143L5.6875,4.71429L6.375,4.71429L6.375,4.96429L6.125,4.96429L6.125,3.85714L6.8125,3.85714L6.8125,4.107139999999999L6.5625,4.107139999999999L6.5625,3L7.25,3L7.25,3.5ZM15.125,22.4609L14,22.4609L14,21.1037L15.375,21.1037L15.375,22.2109L15.375,23.068L15.125,23.068L15.125,22.818L16.25,22.818L16.25,23.3894L16,23.3894L16,23.1394L17.75,23.1394L17.75,23.3894L17.5,23.3894L17.5,22.818L19.5,22.818L19.5,23.068L19.25,23.068L19.25,22.2109L19.5,22.2109L19.5,22.4609L17.75,22.4609L17.75,22.2109L18,22.2109L18,22.7823L15.75,22.7823L15.75,22.2109L16,22.2109L16,22.4609L15.125,22.4609L15.125,21.9609L16.25,21.9609L16.25,22.5323L16,22.5323L16,22.2823L17.75,22.2823L17.75,22.5323L17.5,22.5323L17.5,21.9609L19.75,21.9609L19.75,23.318L17.75,23.318L17.75,23.068L18,23.068L18,23.6394L15.75,23.6394L15.75,23.068L16,23.068L16,23.318L14.875,23.318L14.875,22.2109L14.875,21.3537L15.125,21.3537L15.125,21.6037L14.25,21.6037L14.25,21.3537L14.5,21.3537L14.5,22.2109L14.25,22.2109L14.25,21.9609L15.125,21.9609L15.125,22.4609ZM9.875,13.7857L7.875,13.7857L7.875,13.1071L8.375,13.1071L8.375,13.5357L8.125,13.5357L8.125,13.2857L9.875,13.2857L9.875,13.7857ZM9.875,12.9286L8.125,12.9286L8.125,12.4286L9.875,12.4286L9.875,12.9286ZM9.25,12.6786L9.25,13.5357L9,13.5357L9,13.2857L9.875,13.2857L9.875,13.5357L9.625,13.5357L9.625,12.6786L9.875,12.6786L9.875,12.9286L9,12.9286L7.875,12.9286L7.875,12.25L8.125,12.25L8.125,12.5L7,12.5L7,11.8214L7.25,11.8214L7.25,12.0714L6.125,12.0714L6.125,11.3929L6.375,11.3929L6.375,11.6429L5.25,11.6429L5.25,10.9643L5.5,10.9643L5.5,11.2143L4.375,11.2143L4.375,10.5357L4.625,10.5357L4.625,10.7857L3.75,10.7857L3.75,10.2857L4.875,10.2857L4.875,10.9643L4.625,10.9643L4.625,10.7143L5.75,10.7143L5.75,11.3929L5.5,11.3929L5.5,11.1429L6.625,11.1429L6.625,11.8214L6.375,11.8214L6.375,11.5714L7.5,11.5714L7.5,12.25L7.25,12.25L7.25,12L8.375,12L8.375,12.6786L8.125,12.6786L8.125,12.4286L9,12.4286L10.125,12.4286L10.125,13.7857L8.75,13.7857L8.75,12.6786L9.25,12.6786ZM9.25,12.6786L9.25,28.1071L8.75,28.1071L8.75,12.6786L9.25,12.6786ZM3.75,11.1429L4.875,11.1429L4.875,11.8214L4.625,11.8214L4.625,11.5714L5.75,11.5714L5.75,12.25L5.5,12.25L5.5,12L6.625,12L6.625,12.6786L6.375,12.6786L6.375,12.4286L7.5,12.4286L7.5,13.1071L7.25,13.1071L7.25,12.8571L8.375,12.8571L8.375,27.0714L7,27.0714L7,26.3929L7.5,26.3929L7.5,26.8214L7.25,26.8214L7.25,26.5714L8.125,26.5714L8.125,26.8214L7.875,26.8214L7.875,13.1071L8.125,13.1071L8.125,13.3571L7,13.3571L7,12.6786L7.25,12.6786L7.25,12.9286L6.125,12.9286L6.125,12.25L6.375,12.25L6.375,12.5L5.25,12.5L5.25,11.8214L5.5,11.8214L5.5,12.0714L4.375,12.0714L4.375,11.3929L4.625,11.3929L4.625,11.6429L3.75,11.6429L3.75,11.1429ZM3.75,25.3571L2.625,25.3571L2.625,9.85714L4,9.85714L4,10.5357L4,11.3929L4,25.1071L4,25.9643L3.75,25.9643L3.75,25.7143L4.875,25.7143L4.875,26.3929L4.625,26.3929L4.625,26.1429L5.5,26.1429L7.5,26.1429L7.5,27.25L7.5,27.6786L7.25,27.6786L7.25,27.4286L8.375,27.4286L8.375,28.1071L8.125,28.1071L8.125,27.8571L9,27.8571L9.875,27.8571L9.875,28.1071L9.625,28.1071L9.625,27.4286L11.625,27.4286L11.625,27.6786L11.375,27.6786L11.375,27L13.375,27L13.375,27.5L11.625,27.5L11.625,27.25L11.875,27.25L11.875,27.9286L9.875,27.9286L9.875,27.6786L10.125,27.6786L10.125,28.3571L9,28.3571L7.875,28.3571L7.875,27.6786L8.125,27.6786L8.125,27.9286L7,27.9286L7,27.25L7,26.3929L7.25,26.3929L7.25,26.6429L5.5,26.6429L4.375,26.6429L4.375,25.9643L4.625,25.9643L4.625,26.2143L3.5,26.2143L3.5,25.1071L3.5,11.3929L3.5,10.5357L3.5,10.10714L3.75,10.10714L3.75,10.3571L2.875,10.3571L2.875,10.10714L3.125,10.10714L3.125,25.1071L2.875,25.1071L2.875,24.8571L3.75,24.8571L3.75,25.3571ZM3.75,24.8571L4.875,24.8571L4.875,25.5357L4.625,25.5357L4.625,25.2857L5.75,25.2857L5.75,25.9643L5.5,25.9643L5.5,25.7143L6.625,25.7143L6.625,26.3929L6.375,26.3929L6.375,26.1429L7.25,26.1429L7.25,26.6429L6.125,26.6429L6.125,25.9643L6.375,25.9643L6.375,26.2143L5.25,26.2143L5.25,25.5357L5.5,25.5357L5.5,25.7857L4.375,25.7857L4.375,25.1071L4.625,25.1071L4.625,25.3571L3.75,25.3571L3.75,24.8571ZM22.125,9.85714L23.25,9.85714L23.25,23.8214L22.75,23.8214L22.75,10.10714L23,10.10714L23,10.3571L22.125,10.3571L22.125,9.85714ZM23.25,23.8214L23.25,24.9286L22.125,24.9286L22.125,24.6786L22.375,24.6786L22.375,25.3571L20.375,25.3571L20.375,25.1071L20.625,25.1071L20.625,25.7857L18.625,25.7857L18.625,25.2857L20.375,25.2857L20.375,25.5357L20.125,25.5357L20.125,24.8571L22.125,24.8571L22.125,25.1071L21.875,25.1071L21.875,24.4286L23,24.4286L23,24.6786L22.75,24.6786L22.75,23.8214L23.25,23.8214ZM8.75,28.1071L8.75,27L9.875,27L9.875,27.25L9.625,27.25L9.625,26.5714L11.625,26.5714L11.625,26.8214L11.375,26.8214L11.375,26.1429L13.375,26.1429L13.375,26.3929L13.125,26.3929L13.125,25.7143L15.125,25.7143L15.125,25.9643L14.875,25.9643L14.875,25.2857L16.875,25.2857L16.875,25.5357L16.625,25.5357L16.625,24.8571L18.625,24.8571L18.625,25.1071L18.375,25.1071L18.375,24.4286L20.375,24.4286L20.375,24.6786L20.125,24.6786L20.125,24L22.125,24L22.125,24.25L21.875,24.25L21.875,23.5714L23,23.5714L23.875,23.5714L25,23.5714L25,24.25L24.75,24.25L24.75,24L25.875,24L25.875,24.6786L25.625,24.6786L25.625,24.4286L26.75,24.4286L26.75,25.1071L26.5,25.1071L26.5,24.8571L27.625,24.8571L27.625,25.9643L27.625,36.25L27.375,36.25L27.375,36L28.25,36L28.25,36.25L28,36.25L28,25.9643L28.25,25.9643L28.25,26.2143L27.375,26.2143L27.375,25.7143L28.5,25.7143L28.5,36.5L27.125,36.5L27.125,25.9643L27.125,25.1071L27.375,25.1071L27.375,25.3571L26.25,25.3571L26.25,24.6786L26.5,24.6786L26.5,24.9286L25.375,24.9286L25.375,24.25L25.625,24.25L25.625,24.5L24.5,24.5L24.5,23.8214L24.75,23.8214L24.75,24.0714L23.875,24.0714L23,24.0714L22.125,24.0714L22.125,23.8214L22.375,23.8214L22.375,24.5L20.375,24.5L20.375,24.25L20.625,24.25L20.625,24.9286L18.625,24.9286L18.625,24.6786L18.875,24.6786L18.875,25.3571L16.875,25.3571L16.875,25.1071L17.125,25.1071L17.125,25.7857L15.125,25.7857L15.125,25.5357L15.375,25.5357L15.375,26.2143L13.375,26.2143L13.375,25.9643L13.625,25.9643L13.625,26.6429L11.625,26.6429L11.625,26.3929L11.875,26.3929L11.875,27.0714L9.875,27.0714L9.875,26.8214L10.125,26.8214L10.125,27.5L9,27.5L9,27.25L9.25,27.25L9.25,28.1071L8.75,28.1071ZM18.875,25.5357L18.875,26.2143L16.875,26.2143L16.875,25.9643L17.125,25.9643L17.125,26.6429L15.125,26.6429L15.125,26.3929L15.375,26.3929L15.375,27.0714L13.375,27.0714L13.375,26.8214L13.625,26.8214L13.625,27.25L13.625,27.6786L13.375,27.6786L13.375,27.4286L15.375,27.4286L15.375,28.7857L13.125,28.7857L13.125,28.1071L13.375,28.1071L13.375,28.3571L12.25,28.3571L12.25,27L13.375,27L13.375,27.5L12.5,27.5L12.5,27.25L12.75,27.25L12.75,28.1071L12.5,28.1071L12.5,27.8571L13.625,27.8571L13.625,28.5357L13.375,28.5357L13.375,28.2857L15.125,28.2857L15.125,28.5357L14.875,28.5357L14.875,27.6786L15.125,27.6786L15.125,27.9286L13.125,27.9286L13.125,27.25L13.125,26.5714L15.125,26.5714L15.125,26.8214L14.875,26.8214L14.875,26.1429L16.875,26.1429L16.875,26.3929L16.625,26.3929L16.625,25.7143L18.625,25.7143L18.625,25.9643L18.375,25.9643L18.375,25.5357L18.875,25.5357ZM23.625,23.8214L23.625,23.3929L23.875,23.3929L23.875,23.6429L23,23.6429L23,23.3929L23.25,23.3929L23.25,24.25L23,24.25L23,24L24.125,24L24.125,24.6786L23.875,24.6786L23.875,24.4286L25,24.4286L25,25.1071L24.75,25.1071L24.75,24.8571L25.875,24.8571L25.875,25.5357L25.625,25.5357L25.625,25.2857L26.75,25.2857L26.75,25.9643L26.5,25.9643L26.5,25.7143L27.375,25.7143L27.375,26.2143L26.25,26.2143L26.25,25.5357L26.5,25.5357L26.5,25.7857L25.375,25.7857L25.375,25.1071L25.625,25.1071L25.625,25.3571L24.5,25.3571L24.5,24.6786L24.75,24.6786L24.75,24.9286L23.625,24.9286L23.625,24.25L23.875,24.25L23.875,24.5L22.75,24.5L22.75,23.1429L24.125,23.1429L24.125,23.8214L23.625,23.8214ZM7.25,27.5L6.125,27.5L6.125,26.8214L6.375,26.8214L6.375,27.0714L5.5,27.0714L3.75,27.0714L3.75,26.8214L4,26.8214L4,27.6786L3.75,27.6786L3.75,27.4286L5.5,27.4286L5.5,27.6786L5.25,27.6786L5.25,26.8214L5.75,26.8214L5.75,27.9286L3.5,27.9286L3.5,26.5714L5.5,26.5714L6.625,26.5714L6.625,27.25L6.375,27.25L6.375,27L7.25,27L7.25,27.5ZM7.25,27.5L5.25,27.5L5.25,26.3929L5.75,26.3929L5.75,27.25L5.5,27.25L5.5,27L7.25,27L7.25,27.5ZM5.75,26.3929L5.75,26.8214L5.25,26.8214L5.25,26.3929L5.75,26.3929ZM20.625,28.5357L20.625,30.6786L20.375,30.6786L20.375,30.4286L21.25,30.4286L21.25,30.6786L21,30.6786L21,28.5357L21.25,28.5357L21.25,28.7857L20.375,28.7857L20.375,28.2857L21.5,28.2857L21.5,30.9286L20.125,30.9286L20.125,28.5357L20.625,28.5357ZM15.125,30.5L14.25,30.5L14.25,30.25L14.5,30.25L14.5,31.9643L14.25,31.9643L14.25,31.7143L15.125,31.7143L15.125,31.9643L14.875,31.9643L14.875,30.25L14.875,29.3929L15.125,29.3929L15.125,29.6429L13.375,29.6429L13.375,29.3929L13.625,29.3929L13.625,30.0714L11.625,30.0714L11.625,29.8214L11.875,29.8214L11.875,30.6786L11.625,30.6786L11.625,30.4286L13.375,30.4286L13.375,30.6786L13.125,30.6786L13.125,30L15.125,30L15.125,30.5L13.375,30.5L13.375,30.25L13.625,30.25L13.625,30.9286L11.375,30.9286L11.375,29.5714L13.375,29.5714L13.375,29.8214L13.125,29.8214L13.125,29.1429L15.375,29.1429L15.375,30.25L15.375,32.2143L14,32.2143L14,30L15.125,30L15.125,30.5ZM0.875,28.5357L0.875,27.4286L2.25,27.4286L2.25,28.7857L1.125,28.7857L0.25,28.7857L0.25,28.5357L0.5,28.5357L0.5,36.25L0.25,36.25L0.25,36L1.125,36L1.125,36.25L0.875,36.25L0.875,28.5357L1.375,28.5357L1.375,36.5L0,36.5L0,28.2857L1.125,28.2857L2,28.2857L2,28.5357L1.75,28.5357L1.75,27.6786L2,27.6786L2,27.9286L1.125,27.9286L1.125,27.6786L1.375,27.6786L1.375,28.5357L0.875,28.5357ZM16.5053,16.954L16.5053,15.802L16.7553,15.802L16.7553,16.052L15.5763,16.052L15.5763,15.802L15.8263,15.802L15.8263,16.954L15.5763,16.954L15.5763,16.704L16.2684,16.704L16.2684,19.258L16.0184,19.258L16.0184,19.008L17.1974,19.008L17.1974,19.258L16.9474,19.258L16.9474,16.954L17.1974,16.954L17.1974,17.204L16.5053,17.204L16.5053,16.954ZM17.0053,16.954L16.7553,16.954L16.7553,16.704L17.4474,16.704L17.4474,19.508L15.7684,19.508L15.7684,16.954L16.0184,16.954L16.0184,17.204L15.3263,17.204L15.3263,15.552L17.0053,15.552L17.0053,16.954ZM20.0421,16.09L20.0421,14.938L20.2921,14.938L20.2921,15.188L19.1132,15.188L19.1132,14.938L19.3632,14.938L19.3632,16.09L19.1132,16.09L19.1132,15.84L19.8053,15.84L19.8053,18.394L19.5553,18.394L19.5553,18.144L20.7342,18.144L20.7342,18.394L20.4842,18.394L20.4842,16.09L20.7342,16.09L20.7342,16.34L20.0421,16.34L20.0421,16.09ZM20.5421,16.09L20.2921,16.09L20.2921,15.84L20.9842,15.84L20.9842,18.644L19.3053,18.644L19.3053,16.09L19.5553,16.09L19.5553,16.34L18.8632,16.34L18.8632,14.688L20.5421,14.688L20.5421,16.09ZM13.375,3.92857L12.25,3.92857L12.25,2.57143L13.625,2.57143L13.625,3.92857L13.375,3.92857ZM13.375,3.42857L13.375,3.67857L13.125,3.67857L13.125,2.82143L13.375,2.82143L13.375,3.07143L12.5,3.07143L12.5,2.82143L12.75,2.82143L12.75,3.67857L12.5,3.67857L12.5,3.42857L13.375,3.42857ZM12.9375,4.78571L11.8125,4.78571L11.8125,3.42857L13.1875,3.42857L13.1875,4.78571L12.9375,4.78571ZM12.9375,4.28571L12.9375,4.53571L12.6875,4.53571L12.6875,3.67857L12.9375,3.67857L12.9375,3.92857L12.0625,3.92857L12.0625,3.67857L12.3125,3.67857L12.3125,4.53571L12.0625,4.53571L12.0625,4.28571L12.9375,4.28571ZM12.5,5.64286L11.375,5.64286L11.375,4.28571L12.75,4.28571L12.75,5.64286L12.5,5.64286ZM12.5,5.14286L12.5,5.39286L12.25,5.39286L12.25,4.53571L12.5,4.53571L12.5,4.78571L11.625,4.78571L11.625,4.53571L11.875,4.53571L11.875,5.39286L11.625,5.39286L11.625,5.14286L12.5,5.14286ZM12.0625,6.5L10.9375,6.5L10.9375,5.14286L12.3125,5.14286L12.3125,6.5L12.0625,6.5ZM12.0625,6L12.0625,6.25L11.8125,6.25L11.8125,5.39286L12.0625,5.39286L12.0625,5.64286L11.1875,5.64286L11.1875,5.39286L11.4375,5.39286L11.4375,6.25L11.1875,6.25L11.1875,6L12.0625,6ZM11.625,7.35714L10.5,7.35714L10.5,6L11.875,6L11.875,7.35714L11.625,7.35714ZM11.625,6.85714L11.625,7.10714L11.375,7.10714L11.375,6.25L11.625,6.25L11.625,6.5L10.75,6.5L10.75,6.25L11,6.25L11,7.10714L10.75,7.10714L10.75,6.85714L11.625,6.85714ZM11.1875,8.214279999999999L10.0625,8.214279999999999L10.0625,6.85714L11.4375,6.85714L11.4375,8.214279999999999L11.1875,8.214279999999999ZM11.1875,7.71428L11.1875,7.96428L10.9375,7.96428L10.9375,7.10714L11.1875,7.10714L11.1875,7.35714L10.3125,7.35714L10.3125,7.10714L10.5625,7.10714L10.5625,7.96428L10.3125,7.96428L10.3125,7.71428L11.1875,7.71428ZM20.375,22.7823L19.25,22.7823L19.25,21.4251L20.625,21.4251L20.625,22.7823L20.375,22.7823ZM20.375,22.2823L20.375,22.5323L20.125,22.5323L20.125,21.6751L20.375,21.6751L20.375,21.9251L19.5,21.9251L19.5,21.6751L19.75,21.6751L19.75,22.5323L19.5,22.5323L19.5,22.2823L20.375,22.2823ZM20.5938,32.6429L19.4688,32.6429L19.4688,31.2857L20.0469,31.2857L20.0469,31.5357L19.7969,31.5357L19.7969,30.4286L21.1719,30.4286L21.1719,31.7857L20.5938,31.7857L20.5938,31.5357L20.8438,31.5357L20.8438,32.6429L20.5938,32.6429ZM20.5938,32.1429L20.5938,32.3929L20.3438,32.3929L20.3438,31.2857L20.9219,31.2857L20.9219,31.5357L20.6719,31.5357L20.6719,30.6786L20.9219,30.6786L20.9219,30.9286L20.0469,30.9286L20.0469,30.6786L20.2969,30.6786L20.2969,31.7857L19.7188,31.7857L19.7188,31.5357L19.9688,31.5357L19.9688,32.3929L19.7188,32.3929L19.7188,32.1429L20.5938,32.1429ZM16.6562,33.9286L14.6562,33.9286L14.6562,32.8214L14.9062,32.8214L14.9062,33.0714L14.3281,33.0714L14.3281,31.7143L15.7031,31.7143L15.7031,32.8214L15.4531,32.8214L15.4531,32.5714L16.9062,32.5714L16.9062,33.9286L16.6562,33.9286ZM16.6562,33.4286L16.6562,33.6786L16.4062,33.6786L16.4062,32.8214L16.6562,32.8214L16.6562,33.0714L15.2031,33.0714L15.2031,31.9643L15.4531,31.9643L15.4531,32.2143L14.5781,32.2143L14.5781,31.9643L14.8281,31.9643L14.8281,32.8214L14.5781,32.8214L14.5781,32.5714L15.1562,32.5714L15.1562,33.6786L14.9062,33.6786L14.9062,33.4286L16.6562,33.4286ZM18.8438,32.2143L17.7188,32.2143L17.7188,30.4286L19.0938,30.4286L19.0938,32.2143L18.8438,32.2143ZM18.8438,31.7143L18.8438,31.9643L18.5938,31.9643L18.5938,30.6786L18.8438,30.6786L18.8438,30.9286L17.9688,30.9286L17.9688,30.6786L18.2188,30.6786L18.2188,31.9643L17.9688,31.9643L17.9688,31.7143L18.8438,31.7143ZM17.9688,32.6429L16.8438,32.6429L16.8438,30.8571L18.2188,30.8571L18.2188,32.6429L17.9688,32.6429ZM17.9688,32.1429L17.9688,32.3929L17.7188,32.3929L17.7188,31.1071L17.9688,31.1071L17.9688,31.3571L17.0938,31.3571L17.0938,31.1071L17.3438,31.1071L17.3438,32.3929L17.0938,32.3929L17.0938,32.1429L17.9688,32.1429ZM19.7188,33.9286L18.5938,33.9286L18.5938,30.8571L19.9688,30.8571L19.9688,33.9286L19.7188,33.9286ZM19.7188,33.4286L19.7188,33.6786L19.4688,33.6786L19.4688,31.1071L19.7188,31.1071L19.7188,31.3571L18.8438,31.3571L18.8438,31.1071L19.0938,31.1071L19.0938,33.6786L18.8438,33.6786L18.8438,33.4286L19.7188,33.4286ZM17.0938,34.7857L15.9687,34.7857L15.9687,31.7143L17.3438,31.7143L17.3438,34.7857L17.0938,34.7857ZM17.0938,34.2857L17.0938,34.5357L16.8438,34.5357L16.8438,31.9643L17.0938,31.9643L17.0938,32.2143L16.2187,32.2143L16.2187,31.9643L16.4688,31.9643L16.4688,34.5357L16.2187,34.5357L16.2187,34.2857L17.0938,34.2857ZM18.8438,34.7857L17.7188,34.7857L17.7188,33L19.0938,33L19.0938,34.7857L18.8438,34.7857ZM18.8438,34.2857L18.8438,34.5357L18.5938,34.5357L18.5938,33.25L18.8438,33.25L18.8438,33.5L17.9688,33.5L17.9688,33.25L18.2188,33.25L18.2188,34.5357L17.9688,34.5357L17.9688,34.2857L18.8438,34.2857ZM17.9688,35.2143L16.8438,35.2143L16.8438,33.4286L18.2188,33.4286L18.2188,35.2143L17.9688,35.2143ZM17.9688,34.7143L17.9688,34.9643L17.7188,34.9643L17.7188,33.6786L17.9688,33.6786L17.9688,33.9286L17.0938,33.9286L17.0938,33.6786L17.3438,33.6786L17.3438,34.9643L17.0938,34.9643L17.0938,34.7143L17.9688,34.7143ZM22.125,10.7857L20.125,10.7857L20.125,9.42857L22.375,9.42857L22.375,10.7857L22.125,10.7857ZM22.125,10.2857L22.125,10.5357L21.875,10.5357L21.875,9.67857L22.125,9.67857L22.125,9.92857L20.375,9.92857L20.375,9.67857L20.625,9.67857L20.625,10.5357L20.375,10.5357L20.375,10.2857L22.125,10.2857ZM20.375,11.2143L18.375,11.2143L18.375,9.85714L20.625,9.85714L20.625,11.2143L20.375,11.2143ZM20.375,10.7143L20.375,10.9643L20.125,10.9643L20.125,10.10714L20.375,10.10714L20.375,10.3571L18.625,10.3571L18.625,10.10714L18.875,10.10714L18.875,10.9643L18.625,10.9643L18.625,10.7143L20.375,10.7143ZM18.625,11.6429L16.625,11.6429L16.625,10.2857L18.875,10.2857L18.875,11.6429L18.625,11.6429ZM18.625,11.1429L18.625,11.3929L18.375,11.3929L18.375,10.5357L18.625,10.5357L18.625,10.7857L16.875,10.7857L16.875,10.5357L17.125,10.5357L17.125,11.3929L16.875,11.3929L16.875,11.1429L18.625,11.1429ZM16.875,12.0714L14.875,12.0714L14.875,10.7143L17.125,10.7143L17.125,12.0714L16.875,12.0714ZM16.875,11.5714L16.875,11.8214L16.625,11.8214L16.625,10.9643L16.875,10.9643L16.875,11.2143L15.125,11.2143L15.125,10.9643L15.375,10.9643L15.375,11.8214L15.125,11.8214L15.125,11.5714L16.875,11.5714ZM15.125,12.5L13.125,12.5L13.125,11.1429L15.375,11.1429L15.375,12.5L15.125,12.5ZM15.125,12L15.125,12.25L14.875,12.25L14.875,11.3929L15.125,11.3929L15.125,11.6429L13.375,11.6429L13.375,11.3929L13.625,11.3929L13.625,12.25L13.375,12.25L13.375,12L15.125,12ZM13.375,12.9286L11.375,12.9286L11.375,11.5714L13.625,11.5714L13.625,12.9286L13.375,12.9286ZM13.375,12.4286L13.375,12.6786L13.125,12.6786L13.125,11.8214L13.375,11.8214L13.375,12.0714L11.625,12.0714L11.625,11.8214L11.875,11.8214L11.875,12.6786L11.625,12.6786L11.625,12.4286L13.375,12.4286ZM11.625,13.3571L9.625,13.3571L9.625,12L11.875,12L11.875,13.3571L11.625,13.3571ZM11.625,12.8571L11.625,13.1071L11.375,13.1071L11.375,12.25L11.625,12.25L11.625,12.5L9.875,12.5L9.875,12.25L10.125,12.25L10.125,13.1071L9.875,13.1071L9.875,12.8571L11.625,12.8571ZM19.5,27.5L18.375,27.5L18.375,25.2857L19.75,25.2857L19.75,27.5L19.5,27.5ZM19.5,27L19.5,27.25L19.25,27.25L19.25,25.5357L19.5,25.5357L19.5,25.7857L18.625,25.7857L18.625,25.5357L18.875,25.5357L18.875,27.25L18.625,27.25L18.625,27L19.5,27ZM18.625,27.9286L16.625,27.9286L16.625,26.5714L18.875,26.5714L18.875,27.9286L18.625,27.9286ZM18.625,27.4286L18.625,27.6786L18.375,27.6786L18.375,26.8214L18.625,26.8214L18.625,27.0714L16.875,27.0714L16.875,26.8214L17.125,26.8214L17.125,27.6786L16.875,27.6786L16.875,27.4286L18.625,27.4286ZM16.875,28.3571L14.875,28.3571L14.875,27L17.125,27L17.125,28.3571L16.875,28.3571ZM16.875,27.8571L16.875,28.1071L16.625,28.1071L16.625,27.25L16.875,27.25L16.875,27.5L15.125,27.5L15.125,27.25L15.375,27.25L15.375,28.1071L15.125,28.1071L15.125,27.8571L16.875,27.8571ZM27.375,27.5L25.375,27.5L25.375,26.1429L27.625,26.1429L27.625,27.5L27.375,27.5ZM27.375,27L27.375,27.25L27.125,27.25L27.125,26.3929L27.375,26.3929L27.375,26.6429L25.625,26.6429L25.625,26.3929L25.875,26.3929L25.875,27.25L25.625,27.25L25.625,27L27.375,27ZM25.625,27.9286L23.625,27.9286L23.625,26.5714L25.875,26.5714L25.875,27.9286L25.625,27.9286ZM25.625,27.4286L25.625,27.6786L25.375,27.6786L25.375,26.8214L25.625,26.8214L25.625,27.0714L23.875,27.0714L23.875,26.8214L24.125,26.8214L24.125,27.6786L23.875,27.6786L23.875,27.4286L25.625,27.4286ZM3.75,28.3571L1.75,28.3571L1.75,27L4,27L4,28.3571L3.75,28.3571ZM3.75,27.8571L3.75,28.1071L3.5,28.1071L3.5,27.25L3.75,27.25L3.75,27.5L2,27.5L2,27.25L2.25,27.25L2.25,28.1071L2,28.1071L2,27.8571L3.75,27.8571ZM23.875,28.3571L21.875,28.3571L21.875,27L24.125,27L24.125,28.3571L23.875,28.3571ZM23.875,27.8571L23.875,28.1071L23.625,28.1071L23.625,27.25L23.875,27.25L23.875,27.5L22.125,27.5L22.125,27.25L22.375,27.25L22.375,28.1071L22.125,28.1071L22.125,27.8571L23.875,27.8571ZM20.375,29.2143L18.375,29.2143L18.375,27.8571L20.375,27.8571L20.375,28.1071L20.125,28.1071L20.125,27.4286L22.375,27.4286L22.375,28.7857L20.375,28.7857L20.375,28.5357L20.625,28.5357L20.625,29.2143L20.375,29.2143ZM20.375,28.7143L20.375,28.9643L20.125,28.9643L20.125,28.2857L22.125,28.2857L22.125,28.5357L21.875,28.5357L21.875,27.6786L22.125,27.6786L22.125,27.9286L20.375,27.9286L20.375,27.6786L20.625,27.6786L20.625,28.3571L18.625,28.3571L18.625,28.1071L18.875,28.1071L18.875,28.9643L18.625,28.9643L18.625,28.7143L20.375,28.7143ZM18.625,29.6429L16.625,29.6429L16.625,28.2857L18.875,28.2857L18.875,29.6429L18.625,29.6429ZM18.625,29.1429L18.625,29.3929L18.375,29.3929L18.375,28.5357L18.625,28.5357L18.625,28.7857L16.875,28.7857L16.875,28.5357L17.125,28.5357L17.125,29.3929L16.875,29.3929L16.875,29.1429L18.625,29.1429ZM16.875,30.0714L14.875,30.0714L14.875,28.7143L17.125,28.7143L17.125,30.0714L16.875,30.0714ZM16.875,29.5714L16.875,29.8214L16.625,29.8214L16.625,28.9643L16.875,28.9643L16.875,29.2143L15.125,29.2143L15.125,28.9643L15.375,28.9643L15.375,29.8214L15.125,29.8214L15.125,29.5714L16.875,29.5714ZM11.625,31.3571L9.625,31.3571L9.625,30L11.875,30L11.875,31.3571L11.625,31.3571ZM11.625,30.8571L11.625,31.1071L11.375,31.1071L11.375,30.25L11.625,30.25L11.625,30.5L9.875,30.5L9.875,30.25L10.125,30.25L10.125,31.1071L9.875,31.1071L9.875,30.8571L11.625,30.8571ZM9.875,31.7857L7.875,31.7857L7.875,30.4286L10.125,30.4286L10.125,31.7857L9.875,31.7857ZM9.875,31.2857L9.875,31.5357L9.625,31.5357L9.625,30.6786L9.875,30.6786L9.875,30.9286L8.125,30.9286L8.125,30.6786L8.375,30.6786L8.375,31.5357L8.125,31.5357L8.125,31.2857L9.875,31.2857ZM6.375,32.2143L5.25,32.2143L5.25,31.5357L5.5,31.5357L5.5,31.7857L4.375,31.7857L4.375,31.1071L4.625,31.1071L4.625,31.3571L3.5,31.3571L3.5,30.6786L3.75,30.6786L3.75,30.9286L2.625,30.9286L2.625,30.25L2.875,30.25L2.875,30.5L1.75,30.5L1.75,29.8214L2,29.8214L2,30.0714L0.875,30.0714L0.875,28.7143L2.25,28.7143L2.25,29.3929L2,29.3929L2,29.1429L3.125,29.1429L3.125,29.8214L2.875,29.8214L2.875,29.5714L4,29.5714L4,30.25L3.75,30.25L3.75,30L4.875,30L4.875,30.6786L4.625,30.6786L4.625,30.4286L5.75,30.4286L5.75,31.1071L5.5,31.1071L5.5,30.8571L6.625,30.8571L6.625,32.2143L6.375,32.2143ZM6.375,31.7143L6.375,31.9643L6.125,31.9643L6.125,31.1071L6.375,31.1071L6.375,31.3571L5.25,31.3571L5.25,30.6786L5.5,30.6786L5.5,30.9286L4.375,30.9286L4.375,30.25L4.625,30.25L4.625,30.5L3.5,30.5L3.5,29.8214L3.75,29.8214L3.75,30.0714L2.625,30.0714L2.625,29.3929L2.875,29.3929L2.875,29.6429L1.75,29.6429L1.75,28.9643L2,28.9643L2,29.2143L1.125,29.2143L1.125,28.9643L1.375,28.9643L1.375,29.8214L1.125,29.8214L1.125,29.5714L2.25,29.5714L2.25,30.25L2,30.25L2,30L3.125,30L3.125,30.6786L2.875,30.6786L2.875,30.4286L4,30.4286L4,31.1071L3.75,31.1071L3.75,30.8571L4.875,30.8571L4.875,31.5357L4.625,31.5357L4.625,31.2857L5.75,31.2857L5.75,31.9643L5.5,31.9643L5.5,31.7143L6.375,31.7143ZM8.125,32.2143L7,32.2143L7,30.8571L8.375,30.8571L8.375,32.2143L8.125,32.2143ZM8.125,31.7143L8.125,31.9643L7.875,31.9643L7.875,31.1071L8.125,31.1071L8.125,31.3571L7.25,31.3571L7.25,31.1071L7.5,31.1071L7.5,31.9643L7.25,31.9643L7.25,31.7143L8.125,31.7143ZM7.25,36.5L6.125,36.5L6.125,31.2857L7.5,31.2857L7.5,36.5L7.25,36.5ZM7.25,36L7.25,36.25L7,36.25L7,31.5357L7.25,31.5357L7.25,31.7857L6.375,31.7857L6.375,31.5357L6.625,31.5357L6.625,36.25L6.375,36.25L6.375,36L7.25,36Z" fill="url(#master_svg1_9_280)" fill-opacity="1"/></g></svg>