<?xml version="1.0" standalone="no"?><!DOCTYPE svg PUBLIC "-//W3C//DTD SVG 1.1//EN" "http://www.w3.org/Graphics/SVG/1.1/DTD/svg11.dtd"><svg t="1690177986447" class="icon" viewBox="0 0 1024 1024" version="1.1" xmlns="http://www.w3.org/2000/svg" p-id="11288" xmlns:xlink="http://www.w3.org/1999/xlink" width="40" height="40"><path d="M851.968 245.76h-25.6V113.664l-2.048-5.632c-5.632-15.872-17.408-28.672-33.28-36.352-15.36-7.168-32.256-8.192-47.616-2.56L164.352 242.176l-2.048 0.512c-4.608 1.536-8.704 4.096-12.8 6.656-26.112 9.216-44.544 33.792-44.544 62.976v578.048c0 36.864 29.696 66.56 66.56 66.56h680.448c36.864 0 66.56-29.696 66.56-66.56V312.32c0.512-36.864-29.696-66.56-66.56-66.56z m-92.16-111.616V245.76h-373.76l373.76-111.616z m92.16 756.736h-680.96V312.32h680.96v578.56z" fill="#3E3A39" p-id="11289"></path><path d="M395.264 804.864c5.632 5.632 12.8 8.192 19.968 8.192s14.336-2.56 19.968-8.192c10.752-10.752 10.752-28.672 0-39.936l-39.936-39.936h181.76c80.896 0 146.944-66.048 146.944-146.944s-66.048-146.944-146.944-146.944H344.576c-15.36 0-28.16 12.8-28.16 28.16s12.8 28.16 28.16 28.16h232.448c50.176 0 90.624 40.96 90.624 90.624s-40.96 90.624-90.624 90.624H395.264l39.936-39.936c10.752-10.752 10.752-28.672 0-39.936-10.752-10.752-28.672-10.752-39.936 0l-87.552 87.552c-10.752 10.752-10.752 28.672 0 39.936l87.552 88.576z" fill="#FA7268" p-id="11290"></path></svg>