<svg xmlns="http://www.w3.org/2000/svg" xmlns:xlink="http://www.w3.org/1999/xlink" width="26" height="26" viewBox="0 0 26 26"><defs><style>.a{fill:#999;stroke:#707070;}.b{clip-path:url(#a);}.c{fill:#303133;}</style><clipPath id="a"><rect class="a" width="26" height="26" transform="translate(466 91)"/></clipPath></defs><g class="b" transform="translate(-466 -91)"><g transform="translate(463.376 88.14)"><path class="c" d="M14.424,26.459a11.8,11.8,0,1,1,11.8-11.8,11.812,11.812,0,0,1-11.8,11.8Zm0-21.92A10.121,10.121,0,1,0,24.545,14.66,10.132,10.132,0,0,0,14.424,4.539Z" transform="translate(1.201 1.201)"/><path class="c" d="M14.008,19.989A1.913,1.913,0,0,1,12.1,18.079V12.7a1.906,1.906,0,0,1,2.859-1.65l4.655,2.687a1.906,1.906,0,0,1,0,3.3L14.962,19.73a1.9,1.9,0,0,1-.954.259Zm0-7.512a.236.236,0,0,0-.115.032.216.216,0,0,0-.113.2v5.375a.227.227,0,0,0,.341.2l4.655-2.688a.228.228,0,0,0,0-.394l-4.655-2.687a.219.219,0,0,0-.113-.032Z" transform="translate(0.325 0.468)"/></g></g></svg>