<svg xmlns="http://www.w3.org/2000/svg" xmlns:xlink="http://www.w3.org/1999/xlink" width="18" height="18" viewBox="0 0 18 18"><defs><style>.a,.c{fill:none;}.b{clip-path:url(#a);}.c{stroke:#ff4e19;stroke-linejoin:round;stroke-width:1.2px;}</style><clipPath id="a"><rect class="a" width="18" height="18" transform="translate(223 152)"/></clipPath></defs><g class="b" transform="translate(-223 -152)"><g transform="translate(224.286 152)"><rect class="a" width="15.429" height="15.429"/><path class="c" d="M12.657,17.085a5.119,5.119,0,0,0,5.157-5.123,7.56,7.56,0,0,0-.428-2.643A8.3,8.3,0,0,0,16.5,7.262,3.14,3.14,0,0,1,15.136,9.55a11.637,11.637,0,0,0-1.442-3.592A12.414,12.414,0,0,0,11,3.333a8.785,8.785,0,0,1-.722,3.424A5.046,5.046,0,0,1,9.244,8.181a8.47,8.47,0,0,0-1.219,1.5,4.714,4.714,0,0,0-.525,2.39A5.027,5.027,0,0,0,12.657,17.085Z" transform="translate(-4.943 -2.495)"/></g></g></svg>