<svg xmlns="http://www.w3.org/2000/svg" width="26" height="26" viewBox="0 0 26 26"><defs><style>.a,.b{fill:none;}.b{opacity:0;}.c{fill:#fc6d5e;font-size:8px;font-family:PingFang-SC-Bold, PingFang SC;font-weight:700;}.d,.e{stroke:none;}.e{fill:#fc6d5e;}</style></defs><g transform="translate(-467 -91)"><g class="a" transform="translate(470 92)"><path class="d" d="M4,0H16a4,4,0,0,1,4,4V20a4,4,0,0,1-4,4H4a4,4,0,0,1-4-4V4A4,4,0,0,1,4,0Z"/><path class="e" d="M 4 1.5 C 2.621500015258789 1.5 1.5 2.621500015258789 1.5 4 L 1.5 20 C 1.5 21.37849998474121 2.621500015258789 22.5 4 22.5 L 16 22.5 C 17.37849998474121 22.5 18.5 21.37849998474121 18.5 20 L 18.5 4 C 18.5 2.621500015258789 17.37849998474121 1.5 16 1.5 L 4 1.5 M 4 0 L 16 0 C 18.20914077758789 0 20 1.790859222412109 20 4 L 20 20 C 20 22.20914077758789 18.20914077758789 24 16 24 L 4 24 C 1.790859222412109 24 0 22.20914077758789 0 20 L 0 4 C 0 1.790859222412109 1.790859222412109 0 4 0 Z"/></g><path class="b" d="M0,0H26V26H0Z" transform="translate(467 91)"/><text class="c" transform="translate(480 107)"><tspan x="-7.704" y="0">NFT</tspan></text></g></svg>