<?xml version="1.0" standalone="no"?><!DOCTYPE svg PUBLIC "-//W3C//DTD SVG 1.1//EN" "http://www.w3.org/Graphics/SVG/1.1/DTD/svg11.dtd"><svg t="1690511176844" class="icon" viewBox="0 0 1024 1024" version="1.1" xmlns="http://www.w3.org/2000/svg" p-id="4608" xmlns:xlink="http://www.w3.org/1999/xlink" width="40" height="40"><path d="M901.162667 192h20.437333c56.405333 0 102.4 44.458667 102.4 99.541333v547.584C1024 894.293333 978.005333 938.666667 921.6 938.666667H154.496l229.034667-228.992a228.650667 228.650667 0 0 0 128.469333 39.381333 231.978667 231.978667 0 0 0 201.557333-118.528 240.853333 240.853333 0 0 0 0-237.056l-5.205333-8.661333L901.162667 192zM597.162667 85.333333c25.728 0 63.146667 12.672 84.138666 28.586667l65.152 49.493333 1.322667 0.938667L613.461333 298.666667A229.034667 229.034667 0 0 0 512 274.944c-128.512 0-232.746667 106.154667-232.746667 237.056 0 35.541333 7.68 69.248 21.461334 99.498667l-283.306667 283.306666A97.365333 97.365333 0 0 1 0 839.082667V291.541333C0 236.373333 45.781333 192 102.4 192h102.4c19.413333 0 51.754667-12.672 72.746667-28.586667l65.152-49.493333C363.52 98.133333 400.981333 85.333333 426.837333 85.333333h170.325334z m54.485333 426.666667c0 78.506667-62.549333 142.208-139.648 142.208a136.96 136.96 0 0 1-59.477333-13.482667l186.922666-186.922666c7.850667 17.749333 12.202667 37.461333 12.202667 58.197333zM512 369.792c9.429333 0 18.688 0.938667 27.605333 2.773333L374.613333 537.557333A145.621333 145.621333 0 0 1 372.352 512c0-78.506667 62.549333-142.208 139.648-142.208z" fill="#3A486C" p-id="4609"></path><path d="M13.312 947.712L918.4 42.666667l45.226667 45.226666L58.624 993.024z" fill="#FF4D4F" p-id="4610"></path></svg>