<svg xmlns="http://www.w3.org/2000/svg" xmlns:xlink="http://www.w3.org/1999/xlink" fill="none" version="1.1" width="30" height="30" viewBox="0 0 30 30"><path d="M25.5,30L4.5,30C2.01472,30,0,27.9853,0,25.5L0,1.5C0,0.671573,0.671573,0,1.5,0L22.5,0C23.3284,0,24,0.671573,24,1.5L24,19.5L30,19.5L30,25.5C30,27.9853,27.9853,30,25.5,30ZM24,22.5L24,25.5C24,26.3284,24.6716,27,25.5,27C26.3284,27,27,26.3284,27,25.5L27,22.5L24,22.5ZM6,7.5L6,10.5L18,10.5L18,7.5L6,7.5ZM6,13.5L6,16.5L18,16.5L18,13.5L6,13.5ZM6,19.5L6,22.5L13.5,22.5L13.5,19.5L6,19.5Z" fill="#303133" fill-opacity="1"/></svg>