<svg xmlns="http://www.w3.org/2000/svg" xmlns:xlink="http://www.w3.org/1999/xlink" width="22" height="22" viewBox="0 0 22 22"><defs><style>.a{fill:#fff;stroke:#707070;}.b{clip-path:url(#a);}.c{fill:rgba(255,255,255,0.01);}.d,.e,.f{fill:none;stroke:#333;stroke-width:1.5px;}.d,.f{stroke-linecap:round;}.d,.e{stroke-linejoin:round;}.d{fill-rule:evenodd;}</style><clipPath id="a"><rect class="a" width="22" height="22" transform="translate(11340 619)"/></clipPath></defs><g class="b" transform="translate(-11340 -619)"><g transform="translate(11341.1 620.1)"><rect class="c" width="18" height="18" transform="translate(0.9 0.9)"/><path class="d" d="M8.242,5.128l5.707-3.295,1.907,3.3Z" transform="translate(-0.83 -0.202)"/><path class="e" d="M1.833,6.327A.827.827,0,0,1,2.66,5.5H17.545a.827.827,0,0,1,.827.827V17.9a.827.827,0,0,1-.827.827H2.66a.827.827,0,0,1-.827-.827Z" transform="translate(-0.202 -0.561)"/><path class="e" d="M15.921,14.676h3.618V10.542H15.921a2.07,2.07,0,1,0,0,4.135Z" transform="translate(-1.369 -1.055)"/><path class="f" d="M20.167,7.563v9.923" transform="translate(-1.997 -0.763)"/></g></g></svg>