<svg xmlns="http://www.w3.org/2000/svg" xmlns:xlink="http://www.w3.org/1999/xlink" width="60" height="60" viewBox="0 0 60 60"><defs><style>.a{fill:#fca63d;}.b{clip-path:url(#a);}</style><clipPath id="a"><rect class="a" width="60" height="60" transform="translate(889 551)"/></clipPath></defs><g class="b" transform="translate(-889 -551)"><path class="a" d="M51,48H5a5.006,5.006,0,0,1-5-5V5A5.006,5.006,0,0,1,5,0H51a5.006,5.006,0,0,1,5,5V43A5.005,5.005,0,0,1,51,48ZM8,11a2,2,0,0,0-2,2v2a2,2,0,0,0,2,2H48a2,2,0,0,0,2-2V13a2,2,0,0,0-2-2Z" transform="translate(890.999 556.999)"/></g></svg>