<svg xmlns="http://www.w3.org/2000/svg" xmlns:xlink="http://www.w3.org/1999/xlink" version="1.1" viewBox="0 0 44 44"><g style="mix-blend-mode:passthrough"><g><g style="mix-blend-mode:passthrough"><ellipse cx="22" cy="22" rx="22" ry="22" fill="#000000" fill-opacity="0.4000000059604645"/><ellipse cx="22" cy="22" rx="21.5" ry="21.5" fill-opacity="0" stroke-opacity="0.20000000298023224" stroke="#FFFFFF" stroke-width="1" fill="none" stroke-dasharray=""/></g><g style="mix-blend-mode:passthrough"><path d="M16.2282255859375,27.541643505859376C17.6546655859375,27.541643505859376,18.8896855859375,26.999343505859375,19.6006255859375,26.297533505859377L19.6006255859375,21.475923505859374L15.9046655859375,21.475923505859374L15.9046655859375,23.166673505859375L17.741255585937502,23.166673505859375L17.741255585937502,25.335943505859376C17.458695585937498,25.604823505859375,16.9437255859375,25.750663505859375,16.4515355859375,25.750663505859375C14.409875585937499,25.750663505859375,13.384485585937501,24.310553505859374,13.384485585937501,21.990893505859376C13.384485585937501,19.662123505859377,14.5602655859375,18.240243505859375,16.2965855859375,18.240243505859375C17.2217155859375,18.240243505859375,17.8096155859375,18.641283505859374,18.3291455859375,19.160813505859373L19.4365655859375,17.789073505859374C18.7620855859375,17.105478505859374,17.7275755859375,16.458343505859375,16.2282255859375,16.458343505859375C13.4710655859375,16.458343505859375,11.2562255859375,18.477223505859374,11.2562255859375,22.063813505859375C11.2562255859375,25.664073505859378,13.4163855859375,27.541643505859376,16.2282255859375,27.541643505859376ZM21.6924255859375,27.250043505859374L23.7660255859375,27.250043505859374L23.7660255859375,16.750009505859374L21.6924255859375,16.750009505859374L21.6924255859375,27.250043505859374ZM26.359125585937498,27.250043505859374L28.4326255859375,27.250043505859374L28.4326255859375,22.875013505859375L32.1149255859375,22.875013505859375L32.1149255859375,21.143243505859374L28.4326255859375,21.143243505859374L28.4326255859375,18.486333505859374L32.7438255859375,18.486333505859374L32.7438255859375,16.750009505859374L26.359125585937498,16.750009505859374L26.359125585937498,27.250043505859374Z" fill="#FFFFFF" fill-opacity="1"/></g></g></g></svg>