<svg xmlns="http://www.w3.org/2000/svg" xmlns:xlink="http://www.w3.org/1999/xlink" fill="none" version="1.1" width="44" height="44" viewBox="0 0 44 44"><g style="mix-blend-mode:passthrough"><g><g style="mix-blend-mode:passthrough"><ellipse cx="22" cy="22" rx="22" ry="22" fill="#000000" fill-opacity="0.4000000059604645"/><ellipse cx="22" cy="22" rx="21.5" ry="21.5" fill-opacity="0" stroke-opacity="0.20000000298023224" stroke="#FFFFFF" stroke-width="1" fill="none" stroke-dasharray=""/></g><path d="M17.120359375,32.33751181640625C13.554439375000001,30.65821181640625,11.002929375,27.19051181640625,10.610349375,23.09051181640625L8.974609375,23.09051181640625C9.530761375,29.80761181640625,15.146489375,35.08541181640625,22.005409375,35.08541181640625L22.725109375000002,35.05271181640625L18.570559375000002,30.89811181640625L17.120359375,32.33751181640625ZM18.090819375000002,25.22771181640625C17.883549375,25.22771181640625,17.687259375,25.19501181640625,17.523679375,25.14051181640625C17.349369375000002,25.07511181640625,17.207519375,24.99871181640625,17.087649374999998,24.878811816406248C16.967529374999998,24.76971181640625,16.869389375,24.63891181640625,16.803959374999998,24.47531181640625C16.738529375,24.322711816406247,16.705809375,24.14821181640625,16.705809375,23.96281181640625L15.288329375,23.96281181640625C15.288329375,24.35541181640625,15.364749374999999,24.70431181640625,15.517329375,24.99871181640625C15.669919375,25.29321181640625,15.877199375,25.54401181640625,16.127929375,25.75111181640625C16.389649375,25.94741181640625,16.684079375,26.10011181640625,17.022219375,26.19821181640625C17.349369375000002,26.30721181640625,17.698239375,26.36181181640625,18.068849375,26.36181181640625C18.472409374999998,26.36181181640625,18.853999375,26.30721181640625,19.192109375,26.19821181640625C19.541009375,26.08921181640625,19.846409375,25.92561181640625,20.097209375,25.71841181640625C20.347909375,25.51121181640625,20.555209375,25.24951181640625,20.697009375,24.93331181640625C20.838609375,24.61711181640625,20.915009375,24.26811181640625,20.915009375,23.875511816406252C20.915009375,23.66841181640625,20.893309375,23.461211816406248,20.838609375,23.26491181640625C20.784209375,23.06861181640625,20.707809375,22.883211816406252,20.587909375000002,22.70881181640625C20.478809375,22.53431181640625,20.326209374999998,22.38161181640625,20.151609375,22.23991181640625C19.966309375,22.098111816406252,19.748309374999998,21.98911181640625,19.486609375,21.90181181640625C19.704609375,21.80371181640625,19.889909375000002,21.68371181640625,20.053509375,21.54201181640625C20.217009375,21.400211816406248,20.347909375,21.247511816406252,20.457009375,21.08401181640625C20.566209375,20.92041181640625,20.642309375,20.75691181640625,20.697009375,20.58241181640625C20.751509374999998,20.407911816406248,20.773209375,20.23341181640625,20.773209375,20.05891181640625C20.773209375,19.66641181640625,20.707809375,19.31741181640625,20.576909375,19.01211181640625C20.446009375,18.70682181640625,20.260709374999998,18.45599181640625,20.020709375,18.25973181640625C19.802709375,18.05255181640625,19.508309375,17.89987181640625,19.181109375,17.79083181640625C18.843259375000002,17.692721816406248,18.472409374999998,17.638181816406252,18.069089375,17.638181816406252C17.676509375000002,17.638181816406252,17.316649375,17.692721816406248,16.978519374999998,17.81268181640625C16.651369375,17.93262181640625,16.356929375,18.09619181640625,16.116939375,18.303371816406248C15.888179375,18.510561816406252,15.702639375,18.75046181640625,15.561039375,19.03401181640625C15.430179375,19.317511816406252,15.364749374999999,19.622811816406248,15.364749374999999,19.960911816406252L16.782229375,19.960911816406252C16.782229375,19.77551181640625,16.814939375,19.61191181640625,16.880369375,19.470111816406252C16.945799375,19.328411816406252,17.032959375,19.197511816406248,17.153079375,19.09941181640625C17.272949375,19.00121181640625,17.403809375,18.91403181640625,17.567379375,18.85950181640625C17.730959374999998,18.804961816406248,17.894529374999998,18.77225181640625,18.090819375000002,18.77225181640625C18.526859375,18.77225181640625,18.853999375,18.88128181640625,19.061309375,19.110311816406252C19.268509375,19.328411816406252,19.377409375,19.64461181640625,19.377409375,20.048111816406248C19.377409375,20.24441181640625,19.344709375,20.41881181640625,19.290309375,20.58241181640625C19.235809375000002,20.746011816406252,19.137709375,20.87681181640625,19.017609375,20.98591181640625C18.897709374999998,21.094911816406253,18.745119375,21.18221181640625,18.570559375000002,21.24761181640625C18.395999375000002,21.31311181640625,18.177979375,21.34581181640625,17.938229375,21.34581181640625L17.098389375,21.34581181640625L17.098389375,22.468911816406248L17.938229375,22.468911816406248C18.177979375,22.468911816406248,18.396239375,22.49071181640625,18.592529374999998,22.54521181640625C18.788569375,22.599811816406252,18.952149374999998,22.687011816406248,19.083009375,22.796111816406253C19.213909375,22.91601181640625,19.323009374999998,23.05781181640625,19.399409374999998,23.23221181640625C19.475609374999998,23.40671181640625,19.508309375,23.61391181640625,19.508309375,23.85381181640625C19.508309375,24.30091181640625,19.377409375,24.63891181640625,19.126709375,24.86791181640625C18.875979375,25.11871181640625,18.526859375,25.22771181640625,18.090819375000002,25.22771181640625ZM27.414109375,18.77228181640625C27.065209375,18.41244181640625,26.650909375,18.12893181640625,26.170909375,17.93265181640625C25.702109375,17.73636181640625,25.167709375,17.638211816406248,24.578809375,17.638211816406248L22.005409375,17.638211816406248L22.005409375,26.36181181640625L24.513409375000002,26.36181181640625C25.113309375,26.36181181640625,25.669409375,26.26371181640625,26.160109375,26.06741181640625C26.650909375,25.87111181640625,27.076209375,25.59851181640625,27.425009375,25.23871181640625C27.773909375,24.878811816406248,28.046609375,24.44261181640625,28.231909375,23.941011816406252C28.417209375,23.42851181640625,28.515409375,22.86151181640625,28.515409375,22.22901181640625L28.515409375,21.79281181640625C28.515409375,21.16041181640625,28.417209375,20.59331181640625,28.231909375,20.08081181640625C28.035609375,19.56831181640625,27.763209375,19.13211181640625,27.414109375,18.77228181640625ZM26.988809375,22.21811181640625C26.988809375,22.676111816406248,26.934309375,23.07961181640625,26.836209375,23.45031181640625C26.727009375,23.81021181640625,26.574509375,24.12641181640625,26.367409375,24.377211816406252C26.160109375,24.62801181640625,25.898409375,24.82431181640625,25.593009375,24.95521181640625C25.276809375,25.08601181640625,24.917009375,25.15141181640625,24.513709374999998,25.15141181640625L23.521209374999998,25.15141181640625L23.521209374999998,18.85953181640625L24.579109375,18.85953181640625C25.364209375,18.85953181640625,25.963909375,19.110311816406252,26.367409375,19.61191181640625C26.781709375,20.113511816406252,26.989009375,20.833211816406248,26.989009375,21.78191181640625L26.988809375,22.21811181640625L26.988809375,22.21811181640625ZM22.005409375,8.91461181640625L21.285909375,8.94732661640625L25.440409375,13.10193181640625L26.890609375,11.65164181640625C30.456509375,13.34183181640625,33.008009375,16.798581816406248,33.389909375,20.89861181640625L35.025409374999995,20.89861181640625C34.480209375,14.19238181640625,28.864509375,8.91461181640625,22.005409375,8.91461181640625Z" fill="#FFFFFF" fill-opacity="1"/></g></g></svg>