<svg xmlns="http://www.w3.org/2000/svg" xmlns:xlink="http://www.w3.org/1999/xlink" width="26" height="26" viewBox="0 0 26 26"><defs><style>.a{fill:#fff;stroke:#707070;}.b{clip-path:url(#a);}.c{fill:#303133;}</style><clipPath id="a"><rect class="a" width="26" height="26" transform="translate(466 91)"/></clipPath></defs><g class="b" transform="translate(-466 -91)"><g transform="translate(463.38 88.37)"><path class="c" d="M21.055,25.7h-6.9a11.541,11.541,0,1,1,8.3-3.533v2.129a1.4,1.4,0,0,1-1.4,1.4Zm-6.9-21.421a9.886,9.886,0,0,0,0,19.772H20.81V21.824a.82.82,0,0,1,.248-.589,9.884,9.884,0,0,0-6.9-16.958Z" transform="translate(1.466 1.466)"/><path class="c" d="M14.948,19.66a5.292,5.292,0,0,1-5.286-5.286.824.824,0,1,1,1.647,0,3.639,3.639,0,1,0,7.278,0,.824.824,0,1,1,1.647,0,5.292,5.292,0,0,1-5.286,5.286Z" transform="translate(0.672 0.235)"/></g></g></svg>