<svg xmlns="http://www.w3.org/2000/svg" xmlns:xlink="http://www.w3.org/1999/xlink" width="20" height="20" viewBox="0 0 20 20"><defs><style>.a,.c{fill:#707070;}.a{stroke:#707070;}.b{clip-path:url(#a);}</style><clipPath id="a"><rect class="a" width="20" height="20" transform="translate(273 168)"/></clipPath></defs><g class="b" transform="translate(-273 -168)"><path class="c" d="M10.241,11.675h1.338l.18-1.35H10.421l-.18,1.35Zm-.18,1.35-.192,1.439a.675.675,0,0,1-1.338-.178L8.7,13.025H7.625a.675.675,0,1,1,0-1.35H8.879l.18-1.35H7.625a.675.675,0,1,1,0-1.35H9.239l.192-1.439a.675.675,0,1,1,1.338.178L10.6,8.975h1.338l.192-1.439a.675.675,0,1,1,1.338.178L13.3,8.975h1.074a.675.675,0,0,1,0,1.35H13.121l-.18,1.35h1.434a.675.675,0,0,1,0,1.35H12.761l-.192,1.439a.675.675,0,1,1-1.338-.178l.168-1.261H10.061ZM3.524,16.048c-.232-.394-.384-.659-.46-.8a9,9,0,1,1,3.314,3.476l-.423-.248-2.2.6a.675.675,0,0,1-.829-.829l.6-2.2Zm1.377.08-.364,1.335L5.872,17.1a.675.675,0,0,1,.517.068q.342.2.682.4A7.643,7.643,0,1,0,4.253,14.61c.078.146.273.481.577,1a.675.675,0,0,1,.07.521Z" transform="translate(272 167)"/></g></svg>