<svg xmlns="http://www.w3.org/2000/svg" xmlns:xlink="http://www.w3.org/1999/xlink"  version="1.1" viewBox="0 0 16.228500366210938 15.910499572753906"><path d="M2.50425,3.40575L0.159,1.06125L1.22025,0L16.0695,14.85L15.0083,15.9105L12.5258,13.428C11.2067,14.2647,9.6763,14.7077,8.11425,14.7053C4.07025,14.7053,0.70575,11.7952,0,7.95525C0.322522,6.20829,1.20122,4.61242,2.505,3.40575L2.50425,3.40575ZM10.182,11.0843L9.084,9.98625C8.22335,10.398,7.19655,10.2222,6.5219,9.5476C5.84726,8.87295,5.67146,7.84616,6.08325,6.9855L4.98525,5.8875C4.0014,7.3742,4.20023,9.34806,5.46084,10.6087C6.72145,11.8693,8.6953,12.0681,10.182,11.0843ZM5.09475,1.77525C6.03,1.40775,7.04925,1.20525,8.11425,1.20525C12.1583,1.20525,15.5228,4.11525,16.2285,7.95525C15.9987,9.20452,15.4821,10.3834,14.7195,11.3993L11.8245,8.50425C12.1941,6.0144,10.0543,3.87463,7.5645,4.24425L5.09475,1.776L5.09475,1.77525Z" fill="#606266" fill-opacity="1"/></svg>