<svg xmlns="http://www.w3.org/2000/svg" xmlns:xlink="http://www.w3.org/1999/xlink" version="1.1" viewBox="0 0 16.228500366210938 13.5"><path d="M0,6.75C0.705,2.91,4.07025,0,8.11425,0C12.1583,0,15.5228,2.91,16.2285,6.75C15.5235,10.59,12.1583,13.5,8.11425,13.5C4.07025,13.5,0.70575,10.59,0,6.75ZM8.11425,10.5C10.1853,10.5,11.8643,8.82107,11.8643,6.75C11.8643,4.67893,10.1853,3,8.11425,3C6.04318,3,4.36425,4.67893,4.36425,6.75C4.36425,8.82107,6.04318,10.5,8.11425,10.5ZM8.11425,9C6.87161,9,5.86425,7.99264,5.86425,6.75C5.86425,5.50736,6.87161,4.5,8.11425,4.5C9.35689,4.5,10.3643,5.50736,10.3643,6.75C10.3643,7.99264,9.35689,9,8.11425,9Z" fill="#606266" fill-opacity="1"/></svg>