<svg xmlns="http://www.w3.org/2000/svg" xmlns:xlink="http://www.w3.org/1999/xlink" width="30" height="30" viewBox="0 0 30 30"><defs><style>.a{fill:#5fb337;}.b{clip-path:url(#a);}</style><clipPath id="a"><rect class="a" width="30" height="30" transform="translate(864 549)"/></clipPath></defs><g class="b" transform="translate(-864 -549)"><path class="a" d="M13.543,20.117a1,1,0,0,1-1.322-.4l-.066-.144L9.424,13.577a.522.522,0,0,1-.048-.21.5.5,0,0,1,.8-.4L13.4,15.26a1.487,1.487,0,0,0,1.332.152L29.884,8.668A16.038,16.038,0,0,0,17.632,3.374c-8.284,0-15,5.6-15,12.5a11.767,11.767,0,0,0,5.183,9.448,1,1,0,0,1,.42.814,1.2,1.2,0,0,1-.053.319l-.676,2.521a1.468,1.468,0,0,0-.081.366.5.5,0,0,0,.5.5.564.564,0,0,0,.289-.093l3.284-1.9a1.571,1.571,0,0,1,.8-.231,1.507,1.507,0,0,1,.441.066,17.745,17.745,0,0,0,4.9.686c8.284,0,15-5.6,15-12.5a10.821,10.821,0,0,0-1.709-5.792L13.652,20.053Z" transform="translate(861.368 547.392)"/></g></svg>