<svg xmlns="http://www.w3.org/2000/svg" xmlns:xlink="http://www.w3.org/1999/xlink" width="26" height="26" viewBox="0 0 26 26"><defs><style>.a{fill:#fff;}.b{clip-path:url(#a);}.c{fill:#303133;}</style><clipPath id="a"><rect class="a" width="26" height="26" transform="translate(466 91)"/></clipPath></defs><g class="b" transform="translate(-466 -91)"><g transform="translate(462.997 88.415)"><path class="c" d="M21.392,26.751H11.84a7.414,7.414,0,0,1-7.405-7.405V7.133A4.552,4.552,0,0,1,8.982,2.585h9.553A7.414,7.414,0,0,1,25.94,9.991V22.205A4.552,4.552,0,0,1,21.392,26.751ZM8.982,4.33a2.806,2.806,0,0,0-2.8,2.8V19.347a5.668,5.668,0,0,0,5.661,5.661h9.553a2.806,2.806,0,0,0,2.8-2.8V9.991A5.668,5.668,0,0,0,18.534,4.33H8.982Z" transform="translate(0.816 0.917)"/><path class="c" d="M20.275,11.869h-9.39a.872.872,0,1,1,0-1.745h9.39a.872.872,0,0,1,0,1.745ZM17.263,18.42H10.886a.872.872,0,1,1,0-1.745h6.376a.872.872,0,0,1,0,1.745Z" transform="translate(0.423 0.385)"/></g></g></svg>