<svg xmlns="http://www.w3.org/2000/svg" xmlns:xlink="http://www.w3.org/1999/xlink"  version="1.1"  viewBox="0 0 20 20"><defs><mask id="master_svg0_1924_5233"><g><rect x="0" y="0" width="20" height="20" rx="0" fill="#FFFFFF" fill-opacity="1"/></g></mask></defs><g style="mix-blend-mode:passthrough" mask="url(#master_svg0_1924_5233)"><g style="mix-blend-mode:passthrough"><g><path d="M19.809087051789504,2.3861408963928223C20.013587051789504,2.6336658963928223,20.057687051789504,2.9766318963928224,19.922487051789503,3.2678198963928224C19.922487051789503,3.2678198963928224,13.964087051789503,16.064139896392824,13.964087051789503,16.064139896392824C13.860087051789503,16.287539896392822,13.662587051789503,16.453439896392823,13.424587051789503,16.517339896392823C13.186587051789504,16.581239896392823,12.932587051789504,16.536539896392824,12.730687051789504,16.395239896392823C12.730687051789504,16.395239896392823,8.147297051789502,13.196339896392823,8.147297051789502,13.196339896392823C7.7698770517895035,12.932939896392822,7.677477051789503,12.413439896392822,7.940887051789503,12.035999896392822C8.204307051789502,11.658589896392822,8.723797051789504,11.566179896392823,9.101207051789503,11.829599896392823C9.101207051789503,11.829599896392823,12.871287051789503,14.461339896392822,12.871287051789503,14.461339896392822C12.871287051789503,14.461339896392822,17.674087051789503,4.146719896392822,17.674087051789503,4.146719896392822C17.674087051789503,4.146719896392822,2.8672170517895035,7.838439896392822,2.8672170517895035,7.838439896392822C2.8672170517895035,7.838439896392822,5.930037051789503,9.874579896392822,5.930037051789503,9.874579896392822C6.194467051789504,10.050169896392823,6.535687051789504,10.060299896392822,6.810057051789503,9.900689896392823C6.810057051789503,9.900689896392823,11.413987051789503,7.2234298963928225,11.413987051789503,7.2234298963928225C11.811787051789503,6.991929896392822,12.321987051789502,7.126739896392822,12.553487051789503,7.524549896392823C12.784987051789503,7.922349896392822,12.650187051789503,8.432509896392823,12.252387051789503,8.664009896392823C12.252387051789503,8.664009896392823,7.6483970517895035,11.341829896392822,7.6483970517895035,11.341829896392822C6.824767051789503,11.821159896392823,5.800257051789504,11.790569896392823,5.006697051789503,11.262939896392822C5.006697051789503,11.262939896392822,0.3721820517895033,8.180669896392821,0.3721820517895033,8.180669896392821C0.0971030517895033,7.9978998963928225,-0.04408674821049669,7.669929896392822,0.012216551789503313,7.344499896392822C0.06851985178950332,7.019069896392822,0.3116910517895033,6.757599896392822,0.6321860517895033,6.6778698963928225C0.6321860517895033,6.6778698963928225,18.965787051789505,2.1078038963928223,18.965787051789505,2.1078038963928223C19.277187051789504,2.030354096392822,19.605487051789503,2.1386112963928223,19.809687051789503,2.3861408963928223C19.809687051789503,2.3861408963928223,19.8085870517895,2.3861408963928223,19.8085870517895,2.3861408963928223C19.8085870517895,2.3861408963928223,19.809087051789504,2.3861408963928223,19.809087051789504,2.3861408963928223Z" fill="#303133" fill-opacity="1"/></g><g><path d="M9.401761590821486,13.276300726715087C9.737381590821485,13.591130726715088,9.754291590821484,14.118404726715088,9.439531590821485,14.454094726715088C9.439531590821485,14.454094726715088,6.441161590821485,17.653034726715088,6.441161590821485,17.653034726715088C6.207321590821486,17.902794726715086,5.844587590821486,17.984254726715086,5.526412590821486,17.858454726715088C5.2082375908214855,17.73265472671509,4.999282047821485,17.42516472671509,4.999472186867486,17.083024726715088C4.999472186867486,17.083024726715088,4.999471590821486,13.883530726715088,4.999471590821486,13.883530726715088C4.999472186867486,13.423285726715088,5.372573590821486,13.050184726715091,5.832817590821485,13.050184726715091C6.293061590821486,13.050184726715091,6.666161590821486,13.423285726715088,6.666161590821486,13.883530726715088C6.666161590821486,13.883530726715088,6.666161590821486,14.975214726715087,6.666161590821486,14.975214726715087C6.666161590821486,14.975214726715087,8.224521590821485,13.314076726715088,8.224521590821485,13.314076726715088C8.539351590821486,12.978455326715087,9.066621590821486,12.961543126715087,9.402311590821487,13.276299726715088C9.402311590821487,13.276299726715088,9.401761590821486,13.276300726715087,9.401761590821486,13.276300726715087Z"  fill-opacity="1"/></g></g></g></svg>