<svg xmlns="http://www.w3.org/2000/svg" xmlns:xlink="http://www.w3.org/1999/xlink"  version="1.1"  viewBox="0 0 36 30"><defs><clipPath id="master_svg0_1924_3471"><rect x="0" y="0" width="36" height="30" rx="0"/></clipPath></defs><g style="mix-blend-mode:passthrough" clip-path="url(#master_svg0_1924_3471)"><g style="mix-blend-mode:passthrough"><path d="M1,24L3.68515,24L3.68515,17.189700000000002C3.68515,15.20486,3.4371,13.065100000000001,3.32548,11.22049L3.4185,11.22049L4.8509899999999995,14.88021L8.90663,24L11.784,24L11.784,7L9.11747,7L9.11747,13.7513C9.11747,15.75825,9.34692,18.0161,9.49575,19.7869L9.40273,19.7869L7.97644,16.105040000000002L3.87739,7L1,7L1,24ZM15.2878,24L18.1094,24L18.1094,16.91667L23.1199,16.91667L23.1199,14.11285L18.1094,14.11285L18.1094,9.8112L23.9758,9.8112L23.9758,7L15.2878,7L15.2878,24ZM29.2034,24L32.0188,24L32.0188,9.8112L36,9.8112L36,7L25.2408,7L25.2408,9.8112L29.2034,9.8112L29.2034,24Z"  fill-opacity="1"/></g></g></svg>