<svg xmlns="http://www.w3.org/2000/svg" xmlns:xlink="http://www.w3.org/1999/xlink" version="1.1" viewBox="0 0 22 22"><defs><clipPath id="master_svg0_3726_01901"><rect x="0" y="0" width="22" height="22" rx="0"/></clipPath></defs><g clip-path="url(#master_svg0_3726_01901)"><g><path d="M19.84423837890625,1.98844925C19.51053837890625,1.82155855,19.17673837890625,1.82155855,19.00983837890625,1.98844925L2.32246737890625,10.33212125C1.9887293789062501,10.33212125,1.82183837890625,10.66588125,1.82183837890625,10.99962125C1.82183837890625,11.33336125,1.9887293789062501,11.66711125,2.15559837890625,11.66711125L6.16056837890625,14.17028125C6.49432837890625,14.33708125,6.82808837890625,14.33708125,7.16181837890625,14.00338125L16.00613837890625,5.99342125L16.33983837890625,6.16028125L8.32992837890625,14.67088125C8.16305837890625,14.83778125,8.16305837890625,15.00458125,8.16305837890625,15.17148125L8.16305837890625,18.84268125C8.16305837890625,19.17648125,8.32992837890625,19.51018125,8.66368837890625,19.67708125C8.99742837890625,19.84398125,9.331188378906251,19.67708125,9.49805837890625,19.51018125L11.50054837890625,17.507681249999997L15.50553837890625,20.17768125C15.67233837890625,20.34458125,15.83923837890625,20.34458125,16.00613837890625,20.34458125L16.33983837890625,20.34458125C16.67363837890625,20.17768125,16.840538378906253,20.01088125,16.840538378906253,19.67708125L20.17803837890625,2.9896812500000003C20.17803837890625,2.48905625,20.17803837890625,2.15531725,19.84423837890625,1.98844925Z"  fill-opacity="1"/></g></g></svg>