<svg xmlns="http://www.w3.org/2000/svg" xmlns:xlink="http://www.w3.org/1999/xlink" version="1.1"  viewBox="0 0 30 30"><defs><clipPath id="master_svg0_1924_3467"><rect x="0" y="0" width="30" height="30" rx="0"/></clipPath></defs><g clip-path="url(#master_svg0_1924_3467)"><g><path d="M24.6,7.22222L5.4,7.22222L5.4,22.7778L16.5504,12.45111C17.019,12.01735,17.7786,12.01735,18.2472,12.45111L24.6,18.3444L24.6,7.22222ZM3,6.10333C3.00456963,5.496173,3.534672,5.00484255,4.1904,5L25.8096,5C26.4672,5,27,5.494444,27,6.10333L27,23.8967C26.9954,24.5038,26.4653,24.9952,25.8096,25L4.1904,25C3.532766,24.9994,2.999999856949,24.5056,3,23.8967L3,6.10333ZM10.2,13.88889C8.87452,13.88889,7.8,12.89397,7.8,11.66667C7.8,10.43937,8.87452,9.44444,10.2,9.44444C11.52548,9.44444,12.6,10.43937,12.6,11.66667C12.6,12.89397,11.52548,13.88889,10.2,13.88889Z"  fill-opacity="1"/></g></g></svg>