<svg xmlns="http://www.w3.org/2000/svg" xmlns:xlink="http://www.w3.org/1999/xlink"  version="1.1"  viewBox="0 0 28 28"><defs><clipPath id="master_svg0_3726_01897"><rect x="0" y="0" width="28" height="28" rx="0"/></clipPath></defs><g clip-path="url(#master_svg0_3726_01897)"><g><path d="M20.1161,20.13388L13.116119999999999,13.133883L14,12.25L14.883880000000001,13.133883L7.883883,20.13388Q7.840461,20.17731,7.792992,20.21626Q7.745522,20.25522,7.694463,20.28934Q7.643403,20.32345,7.589246,20.3524Q7.535088,20.381349999999998,7.478354,20.40485Q7.42162,20.428350000000002,7.362856,20.44618Q7.304091,20.464,7.243863,20.47598Q7.183634,20.48796,7.122521,20.49398Q7.0614086,20.5,7,20.5Q6.9385914,20.5,6.877479,20.49398Q6.816366,20.48796,6.756137,20.47598Q6.695909,20.464,6.637144,20.44618Q6.57838,20.428350000000002,6.521646,20.40485Q6.464912,20.381349999999998,6.410754,20.3524Q6.356597,20.32345,6.305537,20.28934Q6.254478,20.25522,6.207008,20.21626Q6.159539,20.17731,6.116117,20.13388Q6.072694,20.09046,6.033737,20.04299Q5.99478,19.99552,5.96066,19.94446Q5.92655,19.8934,5.8976,19.83925Q5.86865,19.78509,5.84515,19.72835Q5.82165,19.67162,5.80382,19.61286Q5.786,19.554090000000002,5.77402,19.493859999999998Q5.76204,19.43363,5.7560199999999995,19.37252Q5.75,19.311410000000002,5.75,19.25Q5.75,19.188589999999998,5.7560199999999995,19.12748Q5.76204,19.06637,5.77402,19.006140000000002Q5.786,18.945909999999998,5.80382,18.88714Q5.82165,18.82838,5.84515,18.771639999999998Q5.86865,18.71491,5.8976,18.66075Q5.92655,18.6066,5.96066,18.55554Q5.99478,18.50448,6.033737,18.45701Q6.072694,18.40954,6.116117,18.36612L13.116119999999999,11.366117Q13.15954,11.322694,13.20701,11.283737Q13.254480000000001,11.24478,13.30554,11.21066Q13.3566,11.17655,13.41075,11.1476Q13.46491,11.11865,13.521650000000001,11.09515Q13.57838,11.07165,13.637139999999999,11.05382Q13.69591,11.036,13.75614,11.02402Q13.81637,11.01204,13.87748,11.00602Q13.93859,11,14,11Q14.06141,11,14.12252,11.00602Q14.18363,11.01204,14.24386,11.02402Q14.30409,11.036,14.362860000000001,11.05382Q14.42162,11.07165,14.478349999999999,11.09515Q14.53509,11.11865,14.58925,11.1476Q14.6434,11.17655,14.69446,11.21066Q14.745519999999999,11.24478,14.79299,11.283737Q14.84046,11.322694,14.883880000000001,11.366117L21.8839,18.36612Q21.927300000000002,18.40954,21.9663,18.45701Q22.005200000000002,18.50448,22.0393,18.55554Q22.0735,18.6066,22.1024,18.66075Q22.1313,18.71491,22.1548,18.77165Q22.1783,18.82838,22.196199999999997,18.88714Q22.214,18.945909999999998,22.226,19.006140000000002Q22.238,19.06637,22.244,19.12748Q22.25,19.188589999999998,22.25,19.25Q22.25,19.311410000000002,22.244,19.37252Q22.238,19.43363,22.226,19.493859999999998Q22.214,19.554090000000002,22.196199999999997,19.61286Q22.1783,19.67162,22.1548,19.72835Q22.1313,19.78509,22.1024,19.83925Q22.0735,19.8934,22.0393,19.94446Q22.005200000000002,19.99552,21.9663,20.04299Q21.927300000000002,20.09046,21.8839,20.13388Q21.8405,20.17731,21.793,20.21626Q21.7455,20.25522,21.694499999999998,20.28934Q21.6434,20.32345,21.589199999999998,20.3524Q21.5351,20.381349999999998,21.4784,20.40485Q21.421599999999998,20.428350000000002,21.3629,20.44618Q21.3041,20.464,21.2439,20.47598Q21.1836,20.48796,21.122500000000002,20.49398Q21.0614,20.5,21,20.5Q20.9386,20.5,20.877499999999998,20.49398Q20.8164,20.48796,20.7561,20.47598Q20.6959,20.464,20.6371,20.44618Q20.578400000000002,20.428350000000002,20.5216,20.40485Q20.4649,20.381349999999998,20.410800000000002,20.3524Q20.3566,20.32345,20.305500000000002,20.28934Q20.2545,20.25522,20.207,20.21626Q20.1595,20.17731,20.1161,20.13388ZM22.25,19.25Q22.25,19.311410000000002,22.244,19.37252Q22.238,19.43363,22.226,19.493859999999998Q22.214,19.554090000000002,22.196199999999997,19.61286Q22.1783,19.67162,22.1548,19.72835Q22.1313,19.78509,22.1024,19.83925Q22.0735,19.8934,22.0393,19.94446Q22.005200000000002,19.99552,21.9663,20.04299Q21.927300000000002,20.09046,21.8839,20.13388Q21.8405,20.17731,21.793,20.21626Q21.7455,20.25522,21.694499999999998,20.28934Q21.6434,20.32345,21.589199999999998,20.3524Q21.5351,20.381349999999998,21.4784,20.40485Q21.421599999999998,20.428350000000002,21.3629,20.44618Q21.3041,20.464,21.2439,20.47598Q21.1836,20.48796,21.122500000000002,20.49398Q21.0614,20.5,21,20.5Q20.9386,20.5,20.877499999999998,20.49398Q20.8164,20.48796,20.7561,20.47598Q20.6959,20.464,20.6371,20.44618Q20.578400000000002,20.428350000000002,20.5216,20.40485Q20.4649,20.381349999999998,20.410800000000002,20.3524Q20.3566,20.32345,20.305500000000002,20.28934Q20.2545,20.25522,20.207,20.21626Q20.1595,20.17731,20.1161,20.13388Q20.072699999999998,20.09046,20.0337,20.04299Q19.994799999999998,19.99552,19.9607,19.94446Q19.9265,19.8934,19.8976,19.83925Q19.8686,19.78509,19.845100000000002,19.72835Q19.8216,19.67162,19.803800000000003,19.61286Q19.786,19.554090000000002,19.774,19.493859999999998Q19.762,19.43363,19.756,19.37252Q19.75,19.311410000000002,19.75,19.25Q19.75,19.188589999999998,19.756,19.12748Q19.762,19.06637,19.774,19.006140000000002Q19.786,18.945909999999998,19.803800000000003,18.88714Q19.8217,18.82838,19.845100000000002,18.771639999999998Q19.8687,18.71491,19.8976,18.66075Q19.9265,18.6066,19.9607,18.55554Q19.994799999999998,18.50448,20.0337,18.45701Q20.072699999999998,18.40954,20.1161,18.36612Q20.1595,18.32269,20.207,18.28374Q20.2545,18.24478,20.305500000000002,18.21066Q20.3566,18.17655,20.410800000000002,18.1476Q20.4649,18.11865,20.5216,18.09515Q20.578400000000002,18.071649999999998,20.6371,18.05382Q20.6959,18.036,20.7561,18.02402Q20.8164,18.01204,20.877499999999998,18.00602Q20.9386,18,21,18Q21.0614,18,21.122500000000002,18.00602Q21.1836,18.01204,21.2439,18.02402Q21.3041,18.036,21.3629,18.05382Q21.421599999999998,18.071649999999998,21.4784,18.09515Q21.5351,18.11865,21.589199999999998,18.1476Q21.6434,18.17655,21.694499999999998,18.21066Q21.7455,18.24478,21.793,18.28374Q21.8405,18.32269,21.8839,18.36612Q21.927300000000002,18.40954,21.9663,18.45701Q22.005200000000002,18.50448,22.0393,18.55554Q22.0735,18.6066,22.1024,18.66075Q22.1313,18.71491,22.1548,18.77165Q22.1783,18.82838,22.196199999999997,18.88714Q22.214,18.945909999999998,22.226,19.006140000000002Q22.238,19.06637,22.244,19.12748Q22.25,19.188589999999998,22.25,19.25ZM8.25,19.25Q8.25,19.311410000000002,8.24398,19.37252Q8.23796,19.43363,8.22598,19.493859999999998Q8.214,19.554090000000002,8.19618,19.61286Q8.17835,19.67162,8.15485,19.72835Q8.13135,19.78509,8.1024,19.83925Q8.07345,19.8934,8.03934,19.94446Q8.00522,19.99552,7.966263,20.04299Q7.927306,20.09046,7.883883,20.13388Q7.840461,20.17731,7.792992,20.21626Q7.745522,20.25522,7.694463,20.28934Q7.643403,20.32345,7.589246,20.3524Q7.535088,20.381349999999998,7.478354,20.40485Q7.42162,20.428350000000002,7.362856,20.44618Q7.304091,20.464,7.243863,20.47598Q7.183634,20.48796,7.122521,20.49398Q7.0614086,20.5,7,20.5Q6.9385914,20.5,6.877479,20.49398Q6.816366,20.48796,6.756137,20.47598Q6.695909,20.464,6.637144,20.44618Q6.57838,20.428350000000002,6.521646,20.40485Q6.464912,20.381349999999998,6.410754,20.3524Q6.356597,20.32345,6.305537,20.28934Q6.254478,20.25522,6.207008,20.21626Q6.159539,20.17731,6.116117,20.13388Q6.072694,20.09046,6.033737,20.04299Q5.99478,19.99552,5.96066,19.94446Q5.92655,19.8934,5.8976,19.83925Q5.86865,19.78509,5.84515,19.72835Q5.82165,19.67162,5.80382,19.61286Q5.786,19.554090000000002,5.77402,19.493859999999998Q5.76204,19.43363,5.7560199999999995,19.37252Q5.75,19.311410000000002,5.75,19.25Q5.75,19.188589999999998,5.7560199999999995,19.12748Q5.76204,19.06637,5.77402,19.006140000000002Q5.786,18.945909999999998,5.80382,18.88714Q5.82165,18.82838,5.84515,18.771639999999998Q5.86865,18.71491,5.8976,18.66075Q5.92655,18.6066,5.96066,18.55554Q5.99478,18.50448,6.033737,18.45701Q6.072694,18.40954,6.116117,18.36612Q6.159539,18.32269,6.207008,18.28374Q6.254478,18.24478,6.305537,18.21066Q6.356597,18.17655,6.410754,18.1476Q6.464912,18.11865,6.521646,18.09515Q6.57838,18.071649999999998,6.637144,18.05382Q6.695909,18.036,6.756137,18.02402Q6.816366,18.01204,6.877479,18.00602Q6.9385914,18,7,18Q7.0614086,18,7.122521,18.00602Q7.183634,18.01204,7.243863,18.02402Q7.304091,18.036,7.362856,18.05382Q7.42162,18.071649999999998,7.478354,18.09515Q7.535088,18.11865,7.589246,18.1476Q7.643403,18.17655,7.694463,18.21066Q7.745522,18.24478,7.792992,18.28374Q7.840461,18.32269,7.883883,18.36612Q7.927306,18.40954,7.966263,18.45701Q8.00522,18.50448,8.03934,18.55554Q8.07345,18.6066,8.1024,18.66075Q8.13135,18.71491,8.15485,18.77165Q8.17835,18.82838,8.19618,18.88714Q8.214,18.945909999999998,8.22598,19.006140000000002Q8.23796,19.06637,8.24398,19.12748Q8.25,19.188589999999998,8.25,19.25Z"  fill-opacity="1"/></g><g><path d="M21,8.8330078125L7,8.8330078125Q6.9385914,8.8330078125,6.877479,8.8269878125Q6.816366,8.8209678125,6.756137,8.8089878125Q6.695909,8.7970078125,6.637144,8.7791878125Q6.57838,8.7613578125,6.521646,8.7378578125Q6.464912,8.7143578125,6.410754,8.6854078125Q6.356597,8.6564578125,6.305537,8.6223478125Q6.254478,8.5882278125,6.207008,8.5492708125Q6.159539,8.5103138125,6.116117,8.4668908125Q6.072694,8.4234688125,6.033737,8.3759998125Q5.99478,8.3285298125,5.96066,8.2774708125Q5.92655,8.2264108125,5.8976,8.1722538125Q5.86865,8.1180958125,5.84515,8.0613618125Q5.82165,8.0046278125,5.80382,7.9458638125Q5.786,7.8870988125,5.77402,7.8268708125Q5.76204,7.7666418125,5.7560199999999995,7.7055288125Q5.75,7.6444164125,5.75,7.5830078125Q5.75,7.5215992125,5.7560199999999995,7.4604868125Q5.76204,7.3993738125,5.77402,7.3391448125Q5.786,7.2789168125,5.80382,7.2201518125Q5.82165,7.1613878125,5.84515,7.1046538125Q5.86865,7.0479198125,5.8976,6.9937618125Q5.92655,6.9396048125,5.96066,6.8885448125Q5.99478,6.8374858125,6.033737,6.7900158125Q6.072694,6.7425468125,6.116117,6.6991248125Q6.159539,6.6557018125,6.207008,6.6167448125Q6.254478,6.5777878125,6.305537,6.5436678125Q6.356597,6.5095578125,6.410754,6.4806078125Q6.464912,6.4516578125,6.521646,6.4281578125Q6.57838,6.4046578125,6.637144,6.3868278125Q6.695909,6.3690078125,6.756137,6.3570278125Q6.816366,6.3450478125,6.877479,6.3390278124999995Q6.9385914,6.3330078125,7,6.3330078125L21,6.3330078125Q21.0614,6.3330078125,21.122500000000002,6.3390278124999995Q21.1836,6.3450478125,21.2439,6.3570278125Q21.3041,6.3690078125,21.3629,6.3868278125Q21.421599999999998,6.4046578125,21.4784,6.4281578125Q21.5351,6.4516578125,21.589199999999998,6.4806078125Q21.6434,6.5095578125,21.694499999999998,6.5436678125Q21.7455,6.5777878125,21.793,6.6167448125Q21.8405,6.6557018125,21.8839,6.6991248125Q21.927300000000002,6.7425468125,21.9663,6.7900158125Q22.005200000000002,6.8374858125,22.0393,6.8885448125Q22.0735,6.9396048125,22.1024,6.9937618125Q22.1313,7.0479198125,22.1548,7.1046538125Q22.1783,7.1613878125,22.196199999999997,7.2201518125Q22.214,7.2789168125,22.226,7.3391448125Q22.238,7.3993738125,22.244,7.4604868125Q22.25,7.5215992125,22.25,7.5830078125Q22.25,7.6444164125,22.244,7.7055288125Q22.238,7.7666418125,22.226,7.8268708125Q22.214,7.8870988125,22.196199999999997,7.9458638125Q22.1783,8.0046278125,22.1548,8.0613618125Q22.1313,8.1180958125,22.1024,8.1722538125Q22.0735,8.2264108125,22.0393,8.2774708125Q22.005200000000002,8.3285298125,21.9663,8.3759998125Q21.927300000000002,8.4234688125,21.8839,8.4668908125Q21.8405,8.5103138125,21.793,8.5492708125Q21.7455,8.5882278125,21.694499999999998,8.6223478125Q21.6434,8.6564578125,21.589199999999998,8.6854078125Q21.5351,8.7143578125,21.4784,8.7378578125Q21.421599999999998,8.7613578125,21.3629,8.7791878125Q21.3041,8.7970078125,21.2439,8.8089878125Q21.1836,8.8209678125,21.122500000000002,8.8269878125Q21.0614,8.8330078125,21,8.8330078125ZM22.25,7.5830078125Q22.25,7.6444164125,22.244,7.7055288125Q22.238,7.7666418125,22.226,7.8268708125Q22.214,7.8870988125,22.196199999999997,7.9458638125Q22.1783,8.0046278125,22.1548,8.0613618125Q22.1313,8.1180958125,22.1024,8.1722538125Q22.0735,8.2264108125,22.0393,8.2774708125Q22.005200000000002,8.3285298125,21.9663,8.3759998125Q21.927300000000002,8.4234688125,21.8839,8.4668908125Q21.8405,8.5103138125,21.793,8.5492708125Q21.7455,8.5882278125,21.694499999999998,8.6223478125Q21.6434,8.6564578125,21.589199999999998,8.6854078125Q21.5351,8.7143578125,21.4784,8.7378578125Q21.421599999999998,8.7613578125,21.3629,8.7791878125Q21.3041,8.7970078125,21.2439,8.8089878125Q21.1836,8.8209678125,21.122500000000002,8.8269878125Q21.0614,8.8330078125,21,8.8330078125Q20.9386,8.8330078125,20.877499999999998,8.8269878125Q20.8164,8.8209678125,20.7561,8.8089878125Q20.6959,8.7970078125,20.6371,8.7791878125Q20.578400000000002,8.7613578125,20.5216,8.7378578125Q20.4649,8.7143578125,20.410800000000002,8.6854078125Q20.3566,8.6564578125,20.305500000000002,8.6223478125Q20.2545,8.5882278125,20.207,8.5492708125Q20.1595,8.5103138125,20.1161,8.4668908125Q20.072699999999998,8.4234688125,20.0337,8.3759998125Q19.994799999999998,8.3285298125,19.9607,8.2774708125Q19.9265,8.2264108125,19.8976,8.1722538125Q19.8686,8.1180958125,19.845100000000002,8.0613618125Q19.8216,8.0046278125,19.803800000000003,7.9458638125Q19.786,7.8870988125,19.774,7.8268708125Q19.762,7.7666418125,19.756,7.7055288125Q19.75,7.6444164125,19.75,7.5830078125Q19.75,7.5215992125,19.756,7.4604868125Q19.762,7.3993738125,19.774,7.3391448125Q19.786,7.2789168125,19.803800000000003,7.2201518125Q19.8217,7.1613878125,19.845100000000002,7.1046538125Q19.8687,7.0479198125,19.8976,6.9937618125Q19.9265,6.9396048125,19.9607,6.8885448125Q19.994799999999998,6.8374858125,20.0337,6.7900158125Q20.072699999999998,6.7425468125,20.1161,6.6991248125Q20.1595,6.6557018125,20.207,6.6167448125Q20.2545,6.5777878125,20.305500000000002,6.5436678125Q20.3566,6.5095578125,20.410800000000002,6.4806078125Q20.4649,6.4516578125,20.5216,6.4281578125Q20.578400000000002,6.4046578125,20.6371,6.3868278125Q20.6959,6.3690078125,20.7561,6.3570278125Q20.8164,6.3450478125,20.877499999999998,6.3390278124999995Q20.9386,6.3330078125,21,6.3330078125Q21.0614,6.3330078125,21.122500000000002,6.3390278124999995Q21.1836,6.3450478125,21.2439,6.3570278125Q21.3041,6.3690078125,21.3629,6.3868278125Q21.421599999999998,6.4046578125,21.4784,6.4281578125Q21.5351,6.4516578125,21.589199999999998,6.4806078125Q21.6434,6.5095578125,21.694499999999998,6.5436678125Q21.7455,6.5777878125,21.793,6.6167448125Q21.8405,6.6557018125,21.8839,6.6991248125Q21.927300000000002,6.7425468125,21.9663,6.7900158125Q22.005200000000002,6.8374858125,22.0393,6.8885448125Q22.0735,6.9396048125,22.1024,6.9937618125Q22.1313,7.0479198125,22.1548,7.1046538125Q22.1783,7.1613878125,22.196199999999997,7.2201518125Q22.214,7.2789168125,22.226,7.3391448125Q22.238,7.3993738125,22.244,7.4604868125Q22.25,7.5215992125,22.25,7.5830078125ZM8.25,7.5830078125Q8.25,7.6444164125,8.24398,7.7055288125Q8.23796,7.7666418125,8.22598,7.8268708125Q8.214,7.8870988125,8.19618,7.9458638125Q8.17835,8.0046278125,8.15485,8.0613618125Q8.13135,8.1180958125,8.1024,8.1722538125Q8.07345,8.2264108125,8.03934,8.2774708125Q8.00522,8.3285298125,7.966263,8.3759998125Q7.927306,8.4234688125,7.883883,8.4668908125Q7.840461,8.5103138125,7.792992,8.5492708125Q7.745522,8.5882278125,7.694463,8.6223478125Q7.643403,8.6564578125,7.589246,8.6854078125Q7.535088,8.7143578125,7.478354,8.7378578125Q7.42162,8.7613578125,7.362856,8.7791878125Q7.304091,8.7970078125,7.243863,8.8089878125Q7.183634,8.8209678125,7.122521,8.8269878125Q7.0614086,8.8330078125,7,8.8330078125Q6.9385914,8.8330078125,6.877479,8.8269878125Q6.816366,8.8209678125,6.756137,8.8089878125Q6.695909,8.7970078125,6.637144,8.7791878125Q6.57838,8.7613578125,6.521646,8.7378578125Q6.464912,8.7143578125,6.410754,8.6854078125Q6.356597,8.6564578125,6.305537,8.6223478125Q6.254478,8.5882278125,6.207008,8.5492708125Q6.159539,8.5103138125,6.116117,8.4668908125Q6.072694,8.4234688125,6.033737,8.3759998125Q5.99478,8.3285298125,5.96066,8.2774708125Q5.92655,8.2264108125,5.8976,8.1722538125Q5.86865,8.1180958125,5.84515,8.0613618125Q5.82165,8.0046278125,5.80382,7.9458638125Q5.786,7.8870988125,5.77402,7.8268708125Q5.76204,7.7666418125,5.7560199999999995,7.7055288125Q5.75,7.6444164125,5.75,7.5830078125Q5.75,7.5215992125,5.7560199999999995,7.4604868125Q5.76204,7.3993738125,5.77402,7.3391448125Q5.786,7.2789168125,5.80382,7.2201518125Q5.82165,7.1613878125,5.84515,7.1046538125Q5.86865,7.0479198125,5.8976,6.9937618125Q5.92655,6.9396048125,5.96066,6.8885448125Q5.99478,6.8374858125,6.033737,6.7900158125Q6.072694,6.7425468125,6.116117,6.6991248125Q6.159539,6.6557018125,6.207008,6.6167448125Q6.254478,6.5777878125,6.305537,6.5436678125Q6.356597,6.5095578125,6.410754,6.4806078125Q6.464912,6.4516578125,6.521646,6.4281578125Q6.57838,6.4046578125,6.637144,6.3868278125Q6.695909,6.3690078125,6.756137,6.3570278125Q6.816366,6.3450478125,6.877479,6.3390278124999995Q6.9385914,6.3330078125,7,6.3330078125Q7.0614086,6.3330078125,7.122521,6.3390278124999995Q7.183634,6.3450478125,7.243863,6.3570278125Q7.304091,6.3690078125,7.362856,6.3868278125Q7.42162,6.4046578125,7.478354,6.4281578125Q7.535088,6.4516578125,7.589246,6.4806078125Q7.643403,6.5095578125,7.694463,6.5436678125Q7.745522,6.5777878125,7.792992,6.6167448125Q7.840461,6.6557018125,7.883883,6.6991248125Q7.927306,6.7425468125,7.966263,6.7900158125Q8.00522,6.8374858125,8.03934,6.8885448125Q8.07345,6.9396048125,8.1024,6.9937618125Q8.13135,7.0479198125,8.15485,7.1046538125Q8.17835,7.1613878125,8.19618,7.2201518125Q8.214,7.2789168125,8.22598,7.3391448125Q8.23796,7.3993738125,8.24398,7.4604868125Q8.25,7.5215992125,8.25,7.5830078125Z" fill-opacity="1"/></g></g></svg>