<svg xmlns="http://www.w3.org/2000/svg" xmlns:xlink="http://www.w3.org/1999/xlink"  version="1.1"  viewBox="0 0 30 30"><defs><clipPath id="master_svg0_1924_3465"><rect x="0" y="0" width="30" height="30" rx="0"/></clipPath></defs><g clip-path="url(#master_svg0_1924_3465)"><g><path d="M9.493500000000001,17.8333L9.99225,13.16667L5,13.16667L5,10.83333L10.24281,10.83333L10.86625,5L13.25431,5L12.63087,10.83333L17.367800000000003,10.83333L17.9912,5L20.3793,5L19.7559,10.83333L24,10.83333L24,13.16667L19.506500000000003,13.16667L19.0078,17.8333L24,17.8333L24,20.1667L18.757199999999997,20.1667L18.1338,26L15.7457,26L16.3691,20.1667L11.63219,20.1667L11.00875,26L8.62069,26L9.244119999999999,20.1667L5,20.1667L5,17.8333L9.493500000000001,17.8333ZM11.88156,17.8333L16.6197,17.8333L17.1184,13.16667L12.38031,13.16667L11.88156,17.8333Z"  fill-opacity="1"/></g></g></svg>