<svg xmlns="http://www.w3.org/2000/svg" xmlns:xlink="http://www.w3.org/1999/xlink"  version="1.1" viewBox="0 0 30 30"><defs><clipPath id="master_svg0_1924_3469"><rect x="0" y="0" width="30" height="30" rx="0"/></clipPath></defs><g clip-path="url(#master_svg0_1924_3469)"><g><path d="M15,27C8.372399999999999,27,3,21.6276,3,15C3,8.372399999999999,8.372399999999999,3,15,3C21.6276,3,27,8.372399999999999,27,15C27,21.6276,21.6276,27,15,27ZM9,16.2C9,19.5137,11.68629,22.2,15,22.2C18.3137,22.2,21,19.5137,21,16.2L18.6,16.2C18.6,18.188200000000002,16.9882,19.8,15,19.8C13.0118,19.8,11.4,18.188200000000002,11.4,16.2L9,16.2ZM10.2,13.8C11.19411,13.8,12,12.99411,12,12C12,11.00589,11.19411,10.2,10.2,10.2C9.20589,10.2,8.4,11.00589,8.4,12C8.4,12.99411,9.20589,13.8,10.2,13.8ZM19.8,13.8C20.7941,13.8,21.6,12.99411,21.6,12C21.6,11.00589,20.7941,10.2,19.8,10.2C18.8059,10.2,18,11.00589,18,12C18,12.99411,18.8059,13.8,19.8,13.8Z" fill-opacity="1"/></g></g></svg>