<svg xmlns="http://www.w3.org/2000/svg" xmlns:xlink="http://www.w3.org/1999/xlink" fill="none" version="1.1" width="24" height="24" viewBox="0 0 24 24"><g style="mix-blend-mode:passthrough"><g style="mix-blend-mode:passthrough" transform="matrix(-1,0,0,1,48,0)"><path d="M39.0364,4.86206Q39.1665,5.07046,39.343199999999996,5.24116Q39.5199,5.41187,39.7327,5.53472Q39.945499999999996,5.65757,40.1817,5.72527Q40.4179,5.79296,40.6635,5.80147L43.1917,5.88908Q43.2549,5.89127,43.3179,5.89746Q43.3809,5.90365,43.4434,5.91382Q43.5059,5.92398,43.5676,5.93807Q43.6293,5.95216,43.69,5.97013Q43.750699999999995,5.9881,43.810199999999995,6.00987Q43.8696,6.03164,43.9276,6.05713Q43.9855,6.08261,44.0417,6.11171Q44.098,6.14081,44.1522,6.17341Q44.2065,6.20601,44.2586,6.24197Q44.3107,6.27794,44.3604,6.31713Q44.4101,6.35631,44.457300000000004,6.39857Q44.504400000000004,6.44082,44.5488,6.48597Q44.593199999999996,6.53112,44.6346,6.57899Q44.676,6.62685,44.7144,6.67724Q44.752700000000004,6.72763,44.7877,6.78035Q44.8228,6.83306,44.8544,6.88788Q44.8861,6.94271,44.9142,6.99942Q44.9423,7.05614,44.9668,7.11452Q44.991299999999995,7.1729,45.012,7.23272Q45.0328,7.29253,45.0497,7.35353Q45.0666,7.41454,45.0796,7.47649Q45.092600000000004,7.53844,45.1017,7.6011Q45.1108,7.66375,45.115899999999996,7.72685Q45.120999999999995,7.78995,45.1221,7.85325Q45.1232,7.91654,45.1203,7.97978Q45.1174,8.04302,45.1105,8.10595Q45.1036,8.16888,45.0927,8.23124Q45.0818,8.29361,45.067,8.35516Q45.0522,8.41672,45.0336,8.47721Q45.0149,8.53771,44.9925,8.5969Q44.9701,8.6561,44.9439,8.71375Q44.9178,8.77141,44.888000000000005,8.8273L43.699799999999996,11.0606Q43.5844,11.2775,43.5249,11.5159Q43.4655,11.7543,43.4655,12Q43.4655,12.2457,43.5249,12.4841Q43.5844,12.7225,43.699799999999996,12.9394L44.888000000000005,15.1727Q44.9178,15.2286,44.9439,15.2862Q44.9701,15.3439,44.9925,15.4031Q45.0149,15.4623,45.0336,15.5228Q45.0522,15.5833,45.067,15.6448Q45.0818,15.7064,45.0927,15.7688Q45.1036,15.8311,45.1105,15.8941Q45.1174,15.957,45.1203,16.0202Q45.1232,16.0835,45.1221,16.1468Q45.120999999999995,16.2101,45.115899999999996,16.2732Q45.1108,16.3363,45.1017,16.3989Q45.092600000000004,16.4616,45.0796,16.5235Q45.0666,16.5855,45.0497,16.6465Q45.0328,16.7075,45.012,16.7673Q44.991299999999995,16.8271,44.9668,16.8855Q44.9423,16.9439,44.9142,17.0006Q44.8861,17.0573,44.8544,17.1121Q44.8228,17.1669,44.7877,17.2197Q44.752700000000004,17.2724,44.7144,17.3228Q44.676,17.3731,44.6346,17.421Q44.593199999999996,17.4689,44.5488,17.514Q44.504400000000004,17.5592,44.457300000000004,17.6014Q44.4101,17.6437,44.3604,17.6829Q44.3107,17.7221,44.2586,17.758Q44.2065,17.794,44.1522,17.8266Q44.098,17.8592,44.0417,17.8883Q43.9855,17.9174,43.9276,17.9429Q43.8696,17.9684,43.810199999999995,17.9901Q43.750699999999995,18.0119,43.69,18.0299Q43.6293,18.0478,43.5676,18.0619Q43.5059,18.076,43.4434,18.0862Q43.3809,18.0963,43.3179,18.1025Q43.2549,18.1087,43.1917,18.1109L40.6635,18.1985Q40.4179,18.207,40.1817,18.2747Q39.945499999999996,18.3424,39.7327,18.4653Q39.5199,18.5881,39.343199999999996,18.7588Q39.1665,18.9295,39.0364,19.1379L37.6964,21.2836Q37.662800000000004,21.3373,37.626,21.3888Q37.5891,21.4402,37.549099999999996,21.4893Q37.509,21.5383,37.466,21.5847Q37.4229,21.6311,37.377,21.6747Q37.3311,21.7183,37.2825,21.7589Q37.2339,21.7995,37.182900000000004,21.8369Q37.1318,21.8744,37.0785,21.9085Q37.0252,21.9426,36.9699,21.9733Q36.914500000000004,22.004,36.8573,22.0312Q36.8001,22.0583,36.7413,22.0818Q36.6825,22.1052,36.622299999999996,22.1249Q36.562200000000004,22.1446,36.5009,22.1605Q36.4396,22.1763,36.3774,22.1883Q36.3153,22.2002,36.2525,22.2082Q36.1897,22.2162,36.1265,22.2202Q36.0633,22.2242,36,22.2242Q35.9367,22.2242,35.8735,22.2202Q35.8103,22.2162,35.7475,22.2082Q35.6847,22.2002,35.6226,22.1883Q35.5604,22.1763,35.4991,22.1605Q35.437799999999996,22.1446,35.377700000000004,22.1249Q35.3175,22.1052,35.2587,22.0818Q35.1999,22.0583,35.1427,22.0312Q35.085499999999996,22.004,35.0301,21.9733Q34.9748,21.9426,34.9215,21.9085Q34.8682,21.8744,34.817099999999996,21.8369Q34.7661,21.7995,34.7175,21.7589Q34.6689,21.7183,34.623,21.6747Q34.5771,21.6311,34.534,21.5847Q34.491,21.5383,34.450900000000004,21.4893Q34.4109,21.4402,34.374,21.3888Q34.337199999999996,21.3373,34.3036,21.2836L32.96365,19.1379Q32.8335,18.9295,32.65678,18.7588Q32.48005,18.5881,32.267269999999996,18.4653Q32.05448,18.3424,31.81829,18.2747Q31.58209,18.207,31.33654,18.1985L28.80834,18.1109Q28.74507,18.1087,28.68207,18.1025Q28.61906,18.0963,28.55658,18.0862Q28.49409,18.076,28.432380000000002,18.0619Q28.37066,18.0478,28.30996,18.0299Q28.24925,18.0119,28.18981,17.9901Q28.13036,17.9684,28.07242,17.9429Q28.01447,17.9174,27.95825,17.8883Q27.90203,17.8592,27.84776,17.8266Q27.79349,17.794,27.74139,17.758Q27.68929,17.7221,27.63957,17.6829Q27.58985,17.6437,27.54271,17.6014Q27.49557,17.5592,27.4512,17.514Q27.40682,17.4689,27.36539,17.421Q27.32396,17.3731,27.28564,17.3228Q27.247320000000002,17.2724,27.21226,17.2197Q27.17721,17.1669,27.14555,17.1121Q27.1139,17.0573,27.08578,17.0006Q27.05766,16.9439,27.03318,16.8855Q27.0087,16.8271,26.98796,16.7673Q26.96722,16.7075,26.95031,16.6465Q26.9334,16.5855,26.92037,16.5235Q26.90735,16.4616,26.89827,16.3989Q26.8892,16.3363,26.8841,16.2731Q26.879,16.21,26.87791,16.1468Q26.87681,16.0835,26.87972,16.0202Q26.88263,15.957,26.88953,15.8941Q26.89643,15.8311,26.9073,15.7688Q26.91817,15.7064,26.93296,15.6448Q26.94775,15.5833,26.9664,15.5228Q26.98506,15.4623,27.0075,15.4031Q27.02994,15.3439,27.05608,15.2862Q27.08222,15.2286,27.11196,15.1727L28.30018,12.9394Q28.41559,12.7225,28.47507,12.4841Q28.53454,12.2457,28.53454,12Q28.53454,11.7543,28.47507,11.5159Q28.41559,11.2775,28.30018,11.0606L27.11196,8.8273Q27.08223,8.77141,27.05608,8.71375Q27.02994,8.6561,27.0075,8.5969Q26.98506,8.53771,26.9664,8.47721Q26.94775,8.41672,26.93296,8.35516Q26.91817,8.29361,26.9073,8.23124Q26.89643,8.16888,26.88953,8.10595Q26.88263,8.04302,26.87972,7.97978Q26.87681,7.91654,26.87791,7.85325Q26.879,7.78995,26.8841,7.72685Q26.8892,7.66375,26.89827,7.6011Q26.90735,7.53844,26.92037,7.47649Q26.9334,7.41454,26.95031,7.35354Q26.96722,7.29253,26.98796,7.23272Q27.0087,7.1729,27.03318,7.11452Q27.05766,7.05614,27.08578,6.99942Q27.1139,6.94271,27.14555,6.88788Q27.17721,6.83306,27.21226,6.78035Q27.247320000000002,6.72763,27.28564,6.67724Q27.32396,6.62685,27.36539,6.57899Q27.40682,6.53112,27.4512,6.48597Q27.49557,6.44082,27.54271,6.39857Q27.58985,6.35631,27.63957,6.31713Q27.68929,6.27794,27.74139,6.24197Q27.79349,6.20601,27.84776,6.17341Q27.90203,6.14081,27.95825,6.11171Q28.01447,6.08261,28.07242,6.05713Q28.13037,6.03164,28.18981,6.00987Q28.24925,5.9881,28.30996,5.97013Q28.37066,5.95216,28.432380000000002,5.93807Q28.49409,5.92398,28.55658,5.91382Q28.61906,5.90365,28.68207,5.89746Q28.74507,5.89128,28.80834,5.88908L31.33654,5.80147Q31.58209,5.79296,31.81829,5.72527Q32.05448,5.65757,32.267269999999996,5.53472Q32.48005,5.41187,32.65678,5.24117Q32.8335,5.07046,32.96365,4.86206L34.3036,2.71638Q34.337199999999996,2.66268,34.374,2.61122Q34.4109,2.55975,34.450900000000004,2.51072Q34.491,2.46168,34.534,2.41528Q34.5771,2.36888,34.623,2.32529Q34.6689,2.28171,34.7175,2.24111Q34.7661,2.20052,34.817099999999996,2.16307Q34.8682,2.12563,34.9215,2.09149Q34.9748,2.05736,35.0301,2.02666Q35.085499999999996,1.99596,35.1427,1.96882Q35.1999,1.94169,35.2587,1.91822Q35.3175,1.89476,35.377700000000004,1.87506Q35.437799999999996,1.85536,35.4991,1.83951Q35.5604,1.82365,35.6226,1.8117Q35.6847,1.79976,35.7475,1.79177Q35.8103,1.78377,35.8735,1.77977Q35.9367,1.77577,36,1.77577Q36.0633,1.77577,36.1265,1.77977Q36.1897,1.78377,36.2525,1.79177Q36.3153,1.79976,36.3774,1.8117Q36.4396,1.82365,36.5009,1.83951Q36.562200000000004,1.85536,36.622299999999996,1.87506Q36.6825,1.89476,36.7413,1.91822Q36.8001,1.94169,36.8573,1.96882Q36.914500000000004,1.99596,36.9699,2.02666Q37.0252,2.05736,37.0785,2.09149Q37.1318,2.12563,37.182900000000004,2.16307Q37.2339,2.20052,37.2825,2.24111Q37.3311,2.28171,37.377,2.32529Q37.4229,2.36888,37.466,2.41528Q37.509,2.46168,37.549099999999996,2.51072Q37.5891,2.55975,37.626,2.61122Q37.662800000000004,2.66268,37.6964,2.71638L39.0364,4.86206Z" fill="#FFC051" fill-opacity="1"/></g><g style="mix-blend-mode:passthrough"><path d="M11.554120000000001,15.57327L15.68506,10.56484C15.85951,10.35333,15.8311,10.04079,15.621369999999999,9.864211L14.98132,9.325313C14.76856,9.146183,14.450520000000001,9.175094,14.27356,9.389651L11.07925,13.26249L9.64865,11.81709C9.45298,11.61939,9.13358,11.61939,8.937914,11.81709L8.348126,12.412980000000001C8.155284,12.60781,8.155284,12.9216,8.348126,13.116430000000001L10.81303,15.60685C11.02129,15.817260000000001,11.36575,15.80165,11.554120000000001,15.57327" fill-rule="evenodd" fill="#FFFFFF" fill-opacity="1"/></g></g></svg>