<svg xmlns="http://www.w3.org/2000/svg" xmlns:xlink="http://www.w3.org/1999/xlink"  version="1.1"  viewBox="0 0 24 24"><defs><clipPath id="master_svg0_1_01047"><rect x="0" y="0" width="24" height="24" rx="0"/></clipPath></defs><g style="mix-blend-mode:passthrough" clip-path="url(#master_svg0_1_01047)"><g style="mix-blend-mode:passthrough"><path d="M15.662993801116944,3.773290625C13.890193801116943,2.983400625,11.909593801116943,2.787710625,10.016563801116943,3.215420625C8.123503801116943,3.643140625,6.419413801116943,4.6713306249999995,5.158443801116944,6.146660625C3.8974838011169433,7.621990625,3.147203801116943,9.465400625,3.0195038011169433,11.401940625C2.8918038011169434,13.338540625,3.393533801116943,15.264540625,4.449863801116944,16.892640625C5.5061838011169435,18.520740625,7.060503801116943,19.763840625,8.881013801116943,20.436440625C10.701523801116943,21.109040625,12.690693801116943,21.175040625,14.551793801116943,20.624840625C16.412993801116944,20.074540625,18.046393801116942,18.937340625,19.208393801116944,17.382940625C20.370493801116943,15.828540625,20.998893801116942,13.940040625,20.999993801116943,11.999340625C20.999993801116943,11.999340625,20.999993801116943,11.079840625,20.999993801116943,11.079840625C20.999993801116943,10.527580625,21.447693801116944,10.079860625,21.999993801116943,10.079860625C22.552293801116942,10.079860625,22.999993801116943,10.527580625,22.999993801116943,11.079840625C22.999993801116943,11.079840625,22.999993801116943,11.999840625,22.999993801116943,11.999840625C22.998593801116943,14.371940625,22.230593801116942,16.680540625,20.810293801116945,18.580440625C19.389993801116944,20.480340625,17.393593801116943,21.870140625,15.118893801116943,22.542740625C12.844193801116944,23.215240625,10.412983801116944,23.134540625,8.187913801116943,22.312440625C5.962843801116944,21.490440625,4.063113801116943,19.971140625,2.772053801116943,17.981240625C1.4809868011169434,15.991240625,0.8677638011169434,13.637340625,1.0238383011169434,11.270340625C1.1799128011169433,8.903460625000001,2.0969238011169433,6.650390625,3.6381038011169435,4.847220625C5.179283801116943,3.044040625,7.262053801116943,1.7873576249999998,9.575803801116944,1.264597625C11.889593801116943,0.7418376250000001,14.310293801116943,0.981007425,16.476993801116944,1.946437625C16.981493801116944,2.171220625,17.208193801116945,2.762390625,16.983393801116943,3.266860625C16.75869380111694,3.771340625,16.167493801116944,3.998070625,15.662993801116944,3.773290625C15.662993801116944,3.773290625,15.662993801116944,3.773290625,15.662993801116944,3.773290625ZM22.706793801116945,3.292400625C23.097493801116944,3.682730625,23.097793801116943,4.315900624999999,22.707493801116943,4.706620624999999C22.707493801116943,4.706620624999999,12.707493801116943,14.716640625,12.707493801116943,14.716640625C12.519993801116943,14.904340625,12.265593801116943,15.009840625,12.000293801116943,15.009840625C11.734993801116943,15.009940625,11.480493801116943,14.904540625,11.292893801116943,14.716940625C11.292893801116943,14.716940625,8.292893801116943,11.716940625,8.292893801116943,11.716940625C7.902373801116943,11.326440625,7.902373801116943,10.693280625,8.292893801116943,10.302760625C8.683413801116943,9.912230625,9.316583801116943,9.912230625,9.707103801116943,10.302760625C9.707103801116943,10.302760625,11.999693801116944,12.595340625,11.999693801116944,12.595340625C11.999693801116944,12.595340625,21.292493801116944,3.293110625,21.292493801116944,3.293110625C21.682893801116943,2.902390625,22.315993801116942,2.902080625,22.706793801116945,3.292400625C22.706793801116945,3.292400625,22.706793801116945,3.292400625,22.706793801116945,3.292400625Z" fill-rule="evenodd" fill-opacity="1"/></g></g></svg>