<svg xmlns="http://www.w3.org/2000/svg" xmlns:xlink="http://www.w3.org/1999/xlink"  version="1.1" width="21.623199462890625" height="18" viewBox="0 0 21.623199462890625 18"><g><path d="M19.6547,5.95663C18.3063,5.73102,17.0666,6.82202,16.9366,6.73441C15.5005,5.77615,13.6317,5.14172,11.5612,4.99838C11.4683,4.99307,11.4179,2.82437,12.3655,2.15012C13.2707,1.50775,15.3571,2.22977,15.5483,2.29877C15.543,2.35983,15.543,2.4209,15.543,2.48193C15.543,3.85431,16.6393,4.96387,17.993,4.96387C19.3468,4.96387,20.4431,3.85165,20.4431,2.48193C20.4431,1.10956,19.3468,0,17.993,0C17.0162,0,16.1747,0.578674,15.7792,1.41748C15.7845,1.38034,15.7872,1.35645,15.7819,1.35645C15.7553,1.35645,13.2548,0.371643,11.7577,1.35645C10.2606,2.34125,10.5021,4.96652,10.4304,4.96652C8.23518,5.00104,6.2284,5.58502,4.67288,6.53C4.63041,6.55655,3.56331,5.95663,2.6077,5.95663C1.65208,5.95663,0.940689,6.26721,0.367317,7.18036C0.00630148,7.75107,-0.155617,8.74649,0.194778,9.5455C0.563743,10.3843,1.49016,10.9258,1.49016,10.9471C1.46893,11.1249,1.45831,11.3028,1.45831,11.4833C1.45831,15.0827,5.57009,18,10.6428,18C15.7155,18,19.8273,15.0827,19.8273,11.4833C19.8273,11.3691,19.822,11.255,19.814,11.1408C19.7848,10.7294,21.12,10.302,21.5261,8.89249C21.9349,7.48828,21.0032,6.18494,19.6547,5.95663C19.6547,5.95663,19.6547,5.95663,19.6547,5.95663ZM17.9904,1.24231C18.6673,1.24231,19.2141,1.79709,19.2141,2.48459C19.2141,3.16943,18.6646,3.7269,17.9904,3.7269C17.3135,3.7269,16.7667,3.17212,16.7667,2.48459C16.7667,1.79709,17.3135,1.24231,17.9904,1.24231C17.9904,1.24231,17.9904,1.24231,17.9904,1.24231ZM5.74529,9.93304C5.74529,9.2482,6.29476,8.69077,6.969,8.69077C7.64589,8.69077,8.19272,9.24554,8.19272,9.93304C8.19272,10.6179,7.64324,11.1754,6.969,11.1754C6.29211,11.1727,5.74529,10.6179,5.74529,9.93304C5.74529,9.93304,5.74529,9.93304,5.74529,9.93304ZM14.7811,13.9758C14.7811,13.9758,13.7618,15.173,10.9507,15.173C8.13963,15.173,7.05129,14.0581,7.05129,14.0581C6.95839,13.9838,6.93184,13.8325,6.98493,13.7289C6.98493,13.7289,7.2026,13.3069,7.2026,13.3069C7.25568,13.2034,7.38045,13.1689,7.47867,13.2326C7.47867,13.2326,8.7422,14.1669,10.9507,14.1669C13.1592,14.1669,14.2316,13.2458,14.2316,13.2458C14.3352,13.1742,14.4652,13.1954,14.5343,13.291C14.5343,13.291,14.805,13.6626,14.805,13.6626C14.874,13.7555,14.8634,13.8962,14.7811,13.9758C14.7811,13.9758,14.7811,13.9758,14.7811,13.9758ZM14.3166,11.1727C13.6397,11.1727,13.0929,10.6179,13.0929,9.93039C13.0929,9.24554,13.6423,8.68811,14.3166,8.68811C14.9935,8.68811,15.5403,9.24289,15.5403,9.93039C15.543,10.6179,14.9935,11.1727,14.3166,11.1727C14.3166,11.1727,14.3166,11.1727,14.3166,11.1727Z"  fill-opacity="1"/></g></svg>