<svg xmlns="http://www.w3.org/2000/svg" xmlns:xlink="http://www.w3.org/1999/xlink"  version="1.1"  viewBox="0 0 30 30"><g style="mix-blend-mode:passthrough"><g><path d="M25.6111,4.38889C19.7603,-1.46296,10.2397,-1.46296,4.38886,4.38889C-1.46295,10.2397,-1.46295,19.7603,4.38886,25.6111C10.2397,31.463,19.7604,31.463,25.6111,25.6111C31.463,19.7603,31.463,10.2397,25.6111,4.38889C25.6111,4.38889,25.6111,4.38889,25.6111,4.38889ZM24.0881,24.0881C19.077,29.1003,10.922,29.0992,5.91194,24.0881C0.899691,19.0769,0.899691,10.923,5.91194,5.91135C10.922,0.9007,19.077,0.899644,24.0881,5.91135C29.0992,10.922,29.0992,19.078,24.0881,24.0881C24.0881,24.0881,24.0881,24.0881,24.0881,24.0881Z" fill="#FFFFFF" fill-opacity="1"/></g><g><path d="M22.454607505187987,15.337957394104004C22.454607505187987,15.337957394104004,15.121157505187988,15.337957394104004,15.121157505187988,15.337957394104004C15.121157505187988,15.337957394104004,15.122177505187988,7.225003394104004,15.122177505187988,7.225003394104004C15.122177505187988,6.686706394104004,14.682177505187989,6.247727394104004,14.143372505187989,6.247727394104004C13.604565505187988,6.247727394104004,13.166643810187988,6.686706394104004,13.166643810187988,7.225003394104004C13.166643810187988,7.225003394104004,13.166643810187988,15.593047394104003,13.166643810187988,15.593047394104003C13.166643810187988,15.622767394104004,13.130587305187989,16.322227394104004,13.597099505187987,16.819527394104004C13.893635505187989,17.133027394104005,14.310287505187988,17.292427394104003,14.848077505187987,17.292427394104003C14.848077505187987,17.292427394104003,22.45463750518799,17.293627394104004,22.45463750518799,17.293627394104004C22.993517505187988,17.293627394104004,23.43239750518799,16.855727394104004,23.43239750518799,16.315727394104C23.43239750518799,15.779017394104004,22.99450750518799,15.341127394104005,22.454607505187987,15.337957394104004C22.454607505187987,15.337957394104004,22.454607505187987,15.337957394104004,22.454607505187987,15.337957394104004Z"  fill-opacity="1"/></g></g></svg>