<svg xmlns="http://www.w3.org/2000/svg" xmlns:xlink="http://www.w3.org/1999/xlink" fill="none" version="1.1" width="22" height="22" viewBox="0 0 22 22"><defs><clipPath id="master_svg0_4538_01974"><rect x="0" y="0" width="22" height="22" rx="0"/></clipPath></defs><g clip-path="url(#master_svg0_4538_01974)"><g><path d="M7.25,6.5L7.25,4.249999C7.25,3.835786,7.58578,3.5,8,3.5L17,3.5C17.4142,3.5,17.75,3.835786,17.75,4.249999L17.75,14.75C17.75,15.1642,17.4142,15.5,17,15.5L14.75,15.5L14.75,17.75C14.75,18.164,14.4125,18.5,13.99474,18.5L5.005249,18.5C4.589159,18.502499999999998,4.250408768,18.1661,4.25,17.75L4.25225001,7.25C4.25225001,6.836,4.58975,6.5,5.007499,6.5L7.25,6.5ZM8.75,6.5L14.75,6.5L14.75,14L16.25,14L16.25,5L8.75,5L8.75,6.5Z" fill="currentColor" fill-opacity="1"/></g></g></svg>