<svg xmlns="http://www.w3.org/2000/svg" xmlns:xlink="http://www.w3.org/1999/xlink"  version="1.1"  viewBox="0 0 44 44"><defs><linearGradient x1="1" y1="0.5" x2="0" y2="0.5" id="master_svg0_1_0499"><stop offset="0%" stop-color="#2AF598" stop-opacity="1"/><stop offset="100%" stop-color="#009EFD" stop-opacity="1"/></linearGradient></defs><g style="mix-blend-mode:passthrough"><g><g style="mix-blend-mode:passthrough"><ellipse cx="22" cy="22" rx="22" ry="22" fill="url(#master_svg0_1_0499)" fill-opacity="1"/></g><g style="mix-blend-mode:passthrough" transform="matrix(0.7071067690849304,-0.7071067690849304,0.7071067690849304,0.7071067690849304,-15.385531731430092,13.602621866084519)"><path d="M31.91715078125,31.408741015625L27.44895078125,26.087221015625C27.06895078125,25.634642015625,26.50825078125,25.373291015625,25.91725078125,25.373291015625L10.72705078125,25.373291015625C9.62248178125,25.373291015625,8.72705078125,26.268722015625,8.72705078125,27.373291015625L8.72705078125,37.373291015625C8.72705078125,38.477891015625,9.62248178125,39.373291015625,10.72705078125,39.373291015625L25.91725078125,39.373291015625C26.50825078125,39.373291015625,27.06895078125,39.111891015625,27.44895078125,38.659391015625L31.91715078125,33.337841015625C32.38545078125,32.780081015625,32.38545078125,31.966501015625,31.91715078125,31.408741015625ZM24.72705078125,34.373291015625Q24.82535078125,34.373291015625,24.92305078125,34.363661015625Q25.02085078125,34.354031015625,25.11725078125,34.334861015625Q25.21355078125,34.315691015625,25.30765078125,34.287171015625Q25.40165078125,34.258651015625,25.49245078125,34.221051015625Q25.58315078125,34.183451015624996,25.66985078125,34.137131015625Q25.75645078125,34.090821015625,25.83815078125,34.036231015625Q25.91985078125,33.981641015625,25.99585078125,33.919311015625Q26.07175078125,33.856981015624996,26.14125078125,33.787501015625Q26.21075078125,33.718031015625,26.27305078125,33.642081015624996Q26.33545078125,33.566121015625,26.38995078125,33.484431015625Q26.44455078125,33.402731015625,26.49085078125,33.316081015625Q26.53725078125,33.229431015624996,26.57485078125,33.138661015625Q26.61245078125,33.047881015625,26.64095078125,32.953861015625Q26.66945078125,32.859841015625,26.68865078125,32.763471015625Q26.70775078125,32.667101015625,26.71745078125,32.569321015625Q26.72705078125,32.471541015625,26.72705078125,32.373291015625Q26.72705078125,32.275041015625,26.71745078125,32.177261015625Q26.70775078125,32.079481015625,26.68865078125,31.983111015625Q26.66945078125,31.886741015625,26.64095078125,31.792721015625Q26.61245078125,31.698701015624998,26.57485078125,31.607921015625Q26.53725078125,31.517151015625,26.49085078125,31.430501015625Q26.44455078125,31.343841015625,26.38995078125,31.262151015625Q26.33545078125,31.180451015625,26.27305078125,31.104501015625Q26.21075078125,31.028551015625,26.14125078125,30.959081015625Q26.07175078125,30.889601015625,25.99585078125,30.827271015625Q25.91985078125,30.764941015625,25.83815078125,30.710351015625Q25.75645078125,30.655761015625,25.66985078125,30.609451015624998Q25.58315078125,30.563131015625,25.49245078125,30.525531015625Q25.40165078125,30.487931015625,25.30765078125,30.459411015625Q25.21355078125,30.430891015625,25.11725078125,30.411721015624998Q25.02085078125,30.392551015625,24.92305078125,30.382921015625Q24.82535078125,30.373291015625,24.72705078125,30.373291015625Q24.628750781249998,30.373291015625,24.531050781250002,30.382921015625Q24.433250781250003,30.392551015625,24.33685078125,30.411721015624998Q24.24055078125,30.430891015625,24.14645078125,30.459411015625Q24.052450781250002,30.487931015625,23.96165078125,30.525531015625Q23.870950781250002,30.563131015625,23.78425078125,30.609451015624998Q23.697650781249997,30.655761015625,23.61595078125,30.710351015625Q23.53425078125,30.764941015625,23.45825078125,30.827271015625Q23.38235078125,30.889601015625,23.31285078125,30.959081015625Q23.24335078125,31.028551015625,23.18105078125,31.104501015625Q23.11865078125,31.180451015625,23.06415078125,31.262151015625Q23.00955078125,31.343841015625,22.96325078125,31.430501015625Q22.916850781249998,31.517151015625,22.87925078125,31.607921015625Q22.84165078125,31.698701015624998,22.813150781250002,31.792721015625Q22.78465078125,31.886741015625,22.76545078125,31.983111015625Q22.74635078125,32.079481015625,22.73665078125,32.177261015625Q22.72705078125,32.275041015625,22.72705078125,32.373291015625Q22.72705078125,32.471541015625,22.73665078125,32.569321015625Q22.74635078125,32.667101015625,22.76545078125,32.763471015625Q22.78465078125,32.859841015625,22.813150781250002,32.953861015625Q22.84165078125,33.047881015625,22.87925078125,33.138661015625Q22.916850781249998,33.229431015624996,22.96325078125,33.316081015625Q23.00955078125,33.402731015625,23.06415078125,33.484431015625Q23.11865078125,33.566121015625,23.18105078125,33.642081015624996Q23.24335078125,33.718031015625,23.31285078125,33.787501015625Q23.38235078125,33.856981015624996,23.45825078125,33.919311015625Q23.53425078125,33.981641015625,23.61595078125,34.036231015625Q23.697650781249997,34.090821015625,23.78425078125,34.137131015625Q23.870950781250002,34.183451015624996,23.96165078125,34.221051015625Q24.052450781250002,34.258651015625,24.14645078125,34.287171015625Q24.24055078125,34.315691015625,24.33685078125,34.334861015625Q24.433250781250003,34.354031015625,24.531050781250002,34.363661015625Q24.628750781249998,34.373291015625,24.72705078125,34.373291015625Z" fill-rule="evenodd" fill="#FFFFFF" fill-opacity="1"/></g></g></g></svg>