<svg xmlns="http://www.w3.org/2000/svg" xmlns:xlink="http://www.w3.org/1999/xlink"  version="1.1"  viewBox="0 0 23 17.52383041381836"><g><path d="M19.5004,1.48001C19.494,1.46763,19.4834,1.45792,19.4705,1.45263C17.9793,0.768443,16.4057,0.280563,14.7889,0.00120088C14.7588,-0.00440014,14.7285,0.00994893,14.7137,0.0367962C14.4994,0.42572,14.3049,0.825209,14.1309,1.23374C12.3881,0.969193,10.6155,0.969193,8.87271,1.23374C8.69754,0.824172,8.4999,0.424583,8.28069,0.0367962C8.2653,0.0105915,8.23545,-0.00352882,8.20543,0.00120088C6.58853,0.279976,5.01477,0.767892,3.52374,1.45267C3.51098,1.45808,3.50021,1.46732,3.49292,1.47911C0.511159,5.93198,-0.305656,10.2754,0.0950456,14.5649C0.0973231,14.5862,0.108121,14.6056,0.124969,14.6187C1.86122,15.9043,3.80324,16.8856,5.86814,17.5207C5.89793,17.5296,5.93012,17.5191,5.94884,17.4942C6.39234,16.8908,6.78531,16.2518,7.12376,15.5838C7.14348,15.5449,7.12483,15.4975,7.0839,15.4825C6.46421,15.2454,5.86428,14.9596,5.28974,14.6277C5.24452,14.6011,5.24073,14.5372,5.2825,14.5055C5.4034,14.4151,5.5222,14.3221,5.63881,14.2263C5.65967,14.2091,5.68846,14.2052,5.71313,14.2163C9.4772,15.9341,13.5523,15.9341,17.2718,14.2163C17.2966,14.2045,17.3259,14.2081,17.3471,14.2254C17.4638,14.3217,17.5829,14.4151,17.7043,14.5055C17.7463,14.5369,17.743,14.6008,17.698,14.6277C17.1247,14.9624,16.5243,15.248,15.9029,15.4816C15.8621,15.4972,15.8438,15.5449,15.8638,15.5838C16.2079,16.2481,16.6003,16.8863,17.0379,17.4932C17.0561,17.5187,17.0886,17.5298,17.1185,17.5206C19.1872,16.8876,21.1326,15.9062,22.871,14.6187C22.8881,14.6062,22.899,14.587,22.9009,14.5658C23.3806,9.60663,22.0978,5.29885,19.5004,1.48001ZM7.68589,11.953C6.55263,11.953,5.61886,10.9131,5.61886,9.63585C5.61886,8.35864,6.53452,7.31859,7.68589,7.31859C8.84626,7.31859,9.771,8.36768,9.75289,9.63577C9.75289,10.9131,8.83719,11.953,7.68589,11.953ZM15.3283,11.953C14.1951,11.953,13.2613,10.9131,13.2613,9.63585C13.2613,8.35864,14.177,7.31859,15.3283,7.31859C16.4888,7.31859,17.4135,8.36768,17.3954,9.63577C17.3954,10.9131,16.4888,11.953,15.3283,11.953Z" fill-opacity="1"/></g></svg>