<svg xmlns="http://www.w3.org/2000/svg" xmlns:xlink="http://www.w3.org/1999/xlink" version="1.1" viewBox="0 0 26 26"><defs><mask id="master_svg0_0_74"><g><rect x="0" y="0" width="26" height="26" rx="0" fill="#FFFFFF" fill-opacity="1"/></g></mask></defs><g style="mix-blend-mode:passthrough" mask="url(#master_svg0_0_74)"><g><path d="M12.999894374603173,20.291030764007566C12.638594374603173,20.291030764007566,12.292394374603173,20.145530764007567,12.039394374603173,19.88743076400757C12.039394374603173,19.88743076400757,0.3842693746031728,7.995310764007568,0.3842693746031728,7.995310764007568C-0.13564262539682723,7.464890764007569,-0.12702362539682724,6.6134247640075685,0.4034363746031728,6.093557764007568C0.9338493746031727,5.573734764007568,1.7853643746031727,5.5822637640075685,2.3051843746031726,6.112722764007568C2.3051843746031726,6.112722764007568,12.999894374603173,17.024930764007568,12.999894374603173,17.024930764007568C12.999894374603173,17.024930764007568,23.694594374603174,6.112724764007568,23.694594374603174,6.112724764007568C24.214394374603174,5.5822187640075684,25.065794374603172,5.573553764007569,25.596294374603172,6.093559764007568C26.126794374603172,6.613471764007568,26.135394374603173,7.464890764007569,25.615494374603173,7.995310764007568C25.615494374603173,7.995310764007568,13.960394374603172,19.88743076400757,13.960394374603172,19.88743076400757C13.707394374603172,20.145530764007567,13.361294374603172,20.291030764007566,12.999894374603173,20.291030764007566C12.999894374603173,20.291030764007566,12.999894374603173,20.291030764007566,12.999894374603173,20.291030764007566Z"  fill-opacity="1"/></g></g></svg>