<svg xmlns="http://www.w3.org/2000/svg" xmlns:xlink="http://www.w3.org/1999/xlink" version="1.1"  viewBox="0 0 24 25"><defs><clipPath id="master_svg0_1135_2657"><rect x="0" y="24.70370101928711" width="23.999998092651367" height="23.70370101928711" rx="0"/></clipPath></defs><g style="mix-blend-mode:passthrough"><g style="mix-blend-mode:passthrough" transform="matrix(1,0,0,-1,0,49.40740203857422)" clip-path="url(#master_svg0_1135_2657)"><g style="mix-blend-mode:passthrough"><path d="M11.292645859375,28.943661613037108C11.683175859375,28.55795881303711,12.316335859375,28.55795881303711,12.706865859375,28.943661613037108C12.706865859375,28.943661613037108,19.706855859375,35.85723461303711,19.706855859375,35.85723461303711C20.097355859375,36.24294461303711,20.097355859375,36.86829461303711,19.706855859375,37.25399461303711C19.316355859375,37.63969461303711,18.683155859375,37.63969461303711,18.292655859375,37.25399461303711C18.292655859375,37.25399461303711,12.999755859375,32.02644461303711,12.999755859375,32.02644461303711C12.999755859375,32.02644461303711,12.999755859375,43.46918461303711,12.999755859375,43.46918461303711C12.999755859375,44.01468461303711,12.552035859375,44.45688461303711,11.999755859375,44.45688461303711C11.447475859375,44.45688461303711,10.999755859375,44.01468461303711,10.999755859375,43.46918461303711C10.999755859375,43.46918461303711,10.999755859375,32.02644461303711,10.999755859375,32.02644461303711C10.999755859375,32.02644461303711,5.706865859375,37.25399461303711,5.706865859375,37.25399461303711C5.316335859375,37.63969461303711,4.683172859375,37.63969461303711,4.292648859375,37.25399461303711C3.902124759375,36.86829461303711,3.902124759375,36.24294461303711,4.292648859375,35.85723461303711C4.292648859375,35.85723461303711,11.292645859375,28.943661613037108,11.292645859375,28.943661613037108C11.292645859375,28.943661613037108,11.292645859375,28.943661613037108,11.292645859375,28.943661613037108Z" fill-rule="evenodd"  fill-opacity="1"/></g></g><g style="mix-blend-mode:passthrough"><rect x="2.999999761581421" y="23.22222137451172" width="18" height="1.7777776718139648" rx="0.8888888359069824"  fill-opacity="1"/></g></g></svg>