<svg xmlns="http://www.w3.org/2000/svg" xmlns:xlink="http://www.w3.org/1999/xlink" version="1.1" viewBox="0 0 16 18"><g style="mix-blend-mode:passthrough"><g style="mix-blend-mode:passthrough" transform="matrix(0.9953296780586243,0.09653455018997192,-0.09653455018997192,0.9953296780586243,0.7320738561531499,-0.517256300277424)"><path d="M15.222921726608277,8.807168061218261Q9.368441726608276,8.850688061218262,7.079011726608276,13.924178061218262L4.344531726608277,12.690238061218261Q7.424411726608277,5.865048061218261,15.200621726608276,5.807248061218262L15.222921726608277,8.807168061218261Z" fill="#303133" fill-opacity="1"/></g><g style="mix-blend-mode:passthrough" transform="matrix(0.9957522749900818,-0.09207304567098618,0.09207304567098618,0.9957522749900818,-0.22651531438492967,0.19498814717152868)"><path d="M8.66687,3.896048259124756Q4.57419,5.927348259124756,3.42873,9.509328259124755L0.57127,8.595548259124756Q2.103393,3.804478259124756,7.33313,1.2088282591247559L8.66687,3.896048259124756Z" fill="#303133" fill-opacity="1"/></g><g style="mix-blend-mode:passthrough" transform="matrix(0.9953296780586243,0.09653455018997192,-0.09653455018997192,0.9953296780586243,1.368729281233584,-0.8637990117765071)"><path d="M15.602874609069824,15.213612120361327Q12.391704609069825,15.195052120361328,10.626814609069823,16.817832120361327L8.596274609069825,14.609457120361329Q11.229484609069825,12.188282120361329,15.620214609069825,12.213672120361329L15.602874609069824,15.213612120361327Z" fill-opacity="1"/></g></g></svg>