<svg xmlns="http://www.w3.org/2000/svg" xmlns:xlink="http://www.w3.org/1999/xlink" fill="none" version="1.1" width="20" height="20" viewBox="0 0 20 20"><g><path d="M10,20C4.477,20,0,15.523,0,10C0,4.477,4.477,0,10,0C15.523,0,20,4.477,20,10C20,15.523,15.523,20,10,20ZM6,11C6,13.2091,7.79086,15,10,15C12.2091,15,14,13.2091,14,11L6,11ZM6,9C6.82843,9,7.5,8.32843,7.5,7.5C7.5,6.67157,6.82843,6,6,6C5.17157,6,4.5,6.67157,4.5,7.5C4.5,8.32843,5.17157,9,6,9ZM14,9C14.8284,9,15.5,8.32843,15.5,7.5C15.5,6.67157,14.8284,6,14,6C13.1716,6,12.5,6.67157,12.5,7.5C12.5,8.32843,13.1716,9,14,9Z" fill="#303133" fill-opacity="1"/></g></svg>