<svg xmlns="http://www.w3.org/2000/svg" xmlns:xlink="http://www.w3.org/1999/xlink"  version="1.1"  viewBox="0 0 18 18"><defs><clipPath id="master_svg0_954_1865"><rect x="0" y="0" width="18" height="18" rx="0"/></clipPath></defs><g clip-path="url(#master_svg0_954_1865)"><g><path d="M4.0298720703125,3.38251C5.3999020703125,2.167042,7.1686420703125,1.49712288,9.0001220703125,1.50000911951C13.1423220703125,1.50000911951,16.5001220703125,4.85776,16.5001220703125,9.00001C16.5025220703125,10.53294,16.033022070312498,12.0295,15.1554220703125,13.2863L13.1251220703125,9.00001L15.0001220703125,9.00001C15.0001220703125,6.55978,13.5223220703125,4.3626000000000005,11.2621420703125,3.4426300000000003C9.001972070312501,2.52265,6.4097720703125,3.06316,4.7056220703125,4.80976L4.0306220703125,3.38326L4.0298720703125,3.38251ZM13.9703220703125,14.6175C12.6003220703125,15.833,10.8316020703125,16.5029,9.0001220703125,16.5C4.857872070312499,16.5,1.5001220703125,13.1423,1.5001220703125,9.00001C1.5001220703125,7.40626,1.9973720703125,5.92876,2.8448720703125,4.713760000000001L4.8751220703125,9.00001L3.0001220703125,9.00001C3.0000820703124997,11.44024,4.4779320703125,13.6374,6.7381020703125,14.5574C8.998272070312499,15.4774,11.5904220703125,14.9369,13.2946220703125,13.1903L13.9696220703125,14.6168L13.9703220703125,14.6175Z"  fill-opacity="1"/></g></g></svg>