<svg xmlns="http://www.w3.org/2000/svg" xmlns:xlink="http://www.w3.org/1999/xlink"  version="1.1" width="9.280426025390625" height="20.00000762939453" viewBox="0 0 9.280426025390625 20.00000762939453"><g><path d="M6.112,0C5.48312,0,4.87848,0.0749817,4.17462,0.355545C2.74033,0.938438,2.01233,2.30742,2.01233,4.43584C2.01233,4.43584,2.01233,6.51349,2.01233,6.51349C2.01233,6.51349,0,6.51349,0,6.51349C0,6.51349,0,9.98669,0,9.98669C0,9.98669,2.01233,9.98669,2.01233,9.98669C2.01233,9.98669,2.01233,20,2.01233,20C2.01233,20,6.112,20,6.112,20C6.112,20,6.112,9.9867,6.112,9.9867C6.112,9.9867,8.90314,9.9867,8.90314,9.9867C8.90314,9.9867,9.28043,6.51349,9.28043,6.51349C9.28043,6.51349,6.112,6.51349,6.112,6.51349C6.112,6.51349,6.112,4.94135,6.112,4.94135C6.112,4.46002,6.16278,4.10448,6.28851,3.90131C6.46512,3.59657,6.8158,3.44419,7.36972,3.44419C7.36972,3.44419,9.22968,3.44419,9.22968,3.44419C9.22968,3.44419,9.22968,0,9.22968,0C9.22968,0,6.112,0,6.112,0C6.112,0,6.112,0,6.112,0Z" fill-opacity="1"/></g></svg>