<svg xmlns="http://www.w3.org/2000/svg" xmlns:xlink="http://www.w3.org/1999/xlink" version="1.1" viewBox="0 0 22.40000009536743 14.400000095367432"><g style="mix-blend-mode:passthrough"><path d="M21.200000047683716,8.400000047683715L15.815400047683715,8.400000047683715L15.815400047683715,7.200000047683716L16.935400047683714,7.630780047683716L14.627700047683716,13.630800047683715Q14.606500047683715,13.685800047683715,14.580100047683716,13.738500047683717Q14.553600047683716,13.791200047683716,14.522100047683717,13.841000047683716Q14.490700047683715,13.890800047683715,14.454400047683716,13.937300047683715Q14.418200047683715,13.983900047683715,14.377600047683716,14.026600047683715Q14.337000047683716,14.069300047683717,14.292400047683715,14.107900047683716Q14.247800047683716,14.146400047683716,14.199600047683715,14.180400047683715Q14.151500047683715,14.214400047683716,14.100200047683716,14.243500047683716Q14.048900047683716,14.272600047683715,13.995100047683716,14.296600047683716Q13.941200047683715,14.320500047683716,13.885200047683716,14.339100047683715Q13.829300047683716,14.357600047683716,13.771800047683715,14.370600047683716Q13.714300047683716,14.383600047683716,13.655800047683716,14.390800047683715Q13.597300047683715,14.398100047683716,13.538300047683716,14.399600047683716Q13.479400047683717,14.401100047683716,13.420600047683715,14.396800047683715Q13.361800047683715,14.392600047683716,13.303700047683716,14.382500047683715Q13.245600047683716,14.372500047683715,13.188800047683715,14.356800047683716Q13.131900047683716,14.341200047683715,13.076900047683715,14.320000047683715Q12.959400047683715,14.274800047683716,12.853800047683716,14.206200047683716Q12.748200047683715,14.137600047683716,12.659200047683715,14.048500047683715Q12.570100047683717,13.959500047683715,12.501500047683717,13.853900047683716Q12.432900047683717,13.748300047683715,12.387700047683715,13.630800047683715L7.772290047683716,1.630775047683716L8.892310047683715,1.2000000476837158L10.012320047683716,1.630775047683716L7.7046300476837155,7.630770047683716Q7.6721600476837155,7.715190047683715,7.627410047683716,7.793780047683716Q7.582660047683715,7.872380047683716,7.526630047683716,7.943380047683716Q7.470610047683715,8.014370047683716,7.404570047683716,8.076170047683716Q7.338530047683716,8.137970047683716,7.263980047683716,8.189170047683715Q7.189430047683715,8.240380047683715,7.108040047683716,8.279830047683717Q7.026660047683716,8.319280047683716,6.940280047683716,8.346080047683717Q6.853900047683716,8.372890047683715,6.7644800476837155,8.386440047683717Q6.675060047683716,8.400000047683715,6.584620047683716,8.400000047683715L1.2000000476837158,8.400000047683715L1.2000000476837158,6.000000047683716L6.584620047683716,6.000000047683716L6.584620047683716,7.200000047683716L5.4646000476837155,6.769230047683716L7.772290047683716,0.7692250476837158Q7.8175000476837155,0.6516920476837158,7.886120047683716,0.5461040476837158Q7.954740047683716,0.44051504768371585,8.043780047683715,0.35147204768371587Q8.132820047683715,0.26242804768371586,8.238410047683715,0.1938100476837159Q8.344000047683716,0.12519004768371578,8.461530047683716,0.07999004768371587Q8.516560047683715,0.05882004768371574,8.573390047683716,0.04316004768371573Q8.630220047683716,0.02749004768371588,8.688310047683716,0.01747004768371574Q8.746410047683716,0.007440047683715756,8.805210047683715,0.00317004768371576Q8.864000047683716,-0.0011099523162840796,8.922930047683716,0.00039004768371575516Q8.981870047683715,0.0019000476837158775,9.040370047683716,0.009170047683715765Q9.098870047683715,0.016440047683715875,9.156380047683715,0.029420047683715866Q9.213890047683716,0.04239004768371579,9.269850047683716,0.06094004768371586Q9.325800047683716,0.07948004768371586,9.379670047683716,0.10343004768371578Q9.433550047683715,0.12737004768371585,9.484810047683716,0.15648004768371582Q9.536070047683715,0.18558004768371572,9.584240047683716,0.21957704768371578Q9.632400047683715,0.2535690476837158,9.677010047683716,0.29211904768371577Q9.721610047683717,0.33066904768371586,9.762210047683716,0.37340504768371585Q9.802820047683715,0.41614104768371585,9.839050047683715,0.4626510476837158Q9.875270047683715,0.5091610476837158,9.906760047683715,0.5589980476837159Q9.938250047683717,0.6088350476837158,9.964710047683715,0.6615190476837158Q9.991160047683715,0.7142020476837159,10.012320047683716,0.7692250476837158L14.627700047683716,12.769200047683716L13.507700047683716,13.200000047683716L12.387700047683715,12.769200047683716L14.695400047683716,6.769220047683715Q14.727800047683715,6.684810047683716,14.772600047683715,6.606220047683716Q14.817300047683716,6.527620047683715,14.873400047683717,6.456630047683716Q14.929400047683716,6.385630047683716,14.995400047683717,6.323830047683716Q15.061500047683715,6.262030047683716,15.136000047683716,6.210830047683716Q15.210600047683716,6.159620047683716,15.292000047683716,6.1201700476837155Q15.373300047683715,6.080720047683716,15.459700047683716,6.053920047683715Q15.546100047683716,6.027110047683716,15.635500047683715,6.013560047683716Q15.724900047683716,6.000000047683716,15.815400047683715,6.000000047683716L21.200000047683716,6.000000047683716L21.200000047683716,8.400000047683715ZM22.400000047683715,7.200000047683716Q22.400000047683715,7.258950047683716,22.394200047683714,7.317620047683715Q22.388400047683717,7.376290047683716,22.376900047683716,7.434110047683716Q22.365400047683718,7.491930047683716,22.348300047683715,7.548340047683716Q22.331200047683716,7.604750047683716,22.308700047683715,7.659220047683716Q22.286100047683714,7.713680047683716,22.258300047683715,7.765670047683716Q22.230500047683716,7.817670047683716,22.197800047683717,7.866680047683716Q22.165000047683716,7.915700047683716,22.127600047683718,7.9612700476837155Q22.090200047683716,8.006840047683717,22.048500047683717,8.048530047683716Q22.006800047683715,8.090210047683716,21.961300047683714,8.127610047683715Q21.915700047683714,8.165010047683715,21.866700047683715,8.197760047683715Q21.817700047683715,8.230510047683715,21.765700047683715,8.258300047683715Q21.713700047683716,8.286090047683716,21.659200047683715,8.308650047683717Q21.604800047683717,8.331210047683715,21.548300047683714,8.348330047683715Q21.491900047683714,8.365440047683716,21.434100047683717,8.376940047683716Q21.376300047683717,8.388440047683716,21.317600047683715,8.394220047683715Q21.259000047683717,8.400000047683715,21.200000047683716,8.400000047683715Q21.141000047683715,8.400000047683715,21.082400047683716,8.394220047683715Q21.023700047683715,8.388440047683716,20.965900047683714,8.376940047683716Q20.908100047683718,8.365440047683716,20.851700047683718,8.348330047683715Q20.795200047683714,8.331210047683715,20.740800047683717,8.308650047683717Q20.686300047683716,8.286090047683716,20.634300047683716,8.258310047683715Q20.582300047683717,8.230510047683715,20.533300047683717,8.197760047683715Q20.484300047683718,8.165010047683715,20.438700047683717,8.127610047683715Q20.393200047683717,8.090210047683716,20.351500047683714,8.048530047683716Q20.309800047683716,8.006840047683717,20.272400047683714,7.9612700476837155Q20.235000047683716,7.915700047683716,20.202200047683714,7.866680047683716Q20.169500047683716,7.817670047683716,20.141700047683717,7.765680047683716Q20.113900047683718,7.713680047683716,20.091300047683717,7.659220047683716Q20.068800047683716,7.604750047683716,20.051700047683717,7.548340047683716Q20.034600047683714,7.491930047683716,20.023100047683716,7.434110047683716Q20.011600047683714,7.376290047683716,20.005800047683717,7.317620047683715Q20.000000047683717,7.258950047683716,20.000000047683717,7.200000047683716Q20.000000047683717,7.1410500476837155,20.005800047683717,7.082380047683716Q20.011600047683714,7.023710047683716,20.023100047683716,6.965890047683716Q20.034600047683714,6.908070047683716,20.051700047683717,6.8516600476837155Q20.068800047683716,6.795240047683716,20.091300047683717,6.740780047683716Q20.113900047683718,6.686310047683715,20.141700047683717,6.634320047683715Q20.169500047683716,6.582330047683715,20.202200047683714,6.533320047683715Q20.235000047683716,6.484300047683716,20.272400047683714,6.438730047683716Q20.309800047683716,6.393160047683716,20.351500047683714,6.351470047683716Q20.393200047683717,6.309790047683716,20.438700047683717,6.272390047683716Q20.484300047683718,6.2349900476837155,20.533300047683717,6.202240047683715Q20.582300047683717,6.169480047683716,20.634300047683716,6.141690047683716Q20.686300047683716,6.113910047683715,20.740800047683717,6.091340047683715Q20.795200047683714,6.068780047683716,20.851700047683718,6.051670047683716Q20.908100047683718,6.034560047683716,20.965900047683714,6.023060047683716Q21.023700047683715,6.011560047683716,21.082400047683716,6.005780047683716Q21.141000047683715,6.000000047683716,21.200000047683716,6.000000047683716Q21.259000047683717,6.000000047683716,21.317600047683715,6.005780047683716Q21.376300047683717,6.011560047683716,21.434100047683717,6.023060047683716Q21.491900047683714,6.034560047683716,21.548300047683714,6.051670047683716Q21.604800047683717,6.068780047683716,21.659200047683715,6.091340047683715Q21.713700047683716,6.113910047683715,21.765700047683715,6.141690047683716Q21.817700047683715,6.169480047683716,21.866700047683715,6.202240047683715Q21.915700047683714,6.2349900476837155,21.961300047683714,6.272390047683716Q22.006800047683715,6.309790047683716,22.048500047683717,6.351470047683716Q22.090200047683716,6.393160047683716,22.127600047683718,6.438730047683716Q22.165000047683716,6.484300047683716,22.197800047683717,6.533320047683715Q22.230500047683716,6.582330047683715,22.258300047683715,6.634320047683715Q22.286100047683714,6.686310047683715,22.308700047683715,6.740780047683716Q22.331200047683716,6.795240047683716,22.348300047683715,6.8516600476837155Q22.365400047683718,6.908070047683716,22.376900047683716,6.965890047683716Q22.388400047683717,7.023710047683716,22.394200047683714,7.082380047683716Q22.400000047683715,7.1410500476837155,22.400000047683715,7.200000047683716ZM2.400000047683716,7.200000047683716Q2.400000047683716,7.258950047683716,2.394220047683716,7.317620047683715Q2.3884400476837158,7.376290047683716,2.376940047683716,7.434110047683716Q2.365440047683716,7.491930047683716,2.348330047683716,7.548340047683716Q2.3312200476837157,7.604750047683716,2.308660047683716,7.659220047683716Q2.286100047683716,7.713680047683716,2.258310047683716,7.765670047683716Q2.230520047683716,7.817670047683716,2.197764047683716,7.866680047683716Q2.165011047683716,7.915700047683716,2.127613047683716,7.9612700476837155Q2.0902140476837157,8.006840047683717,2.0485280476837158,8.048530047683716Q2.0068430476837156,8.090210047683716,1.9612720476837158,8.127610047683715Q1.915701047683716,8.165010047683715,1.8666840476837159,8.197760047683715Q1.8176670476837158,8.230510047683715,1.7656760476837157,8.258300047683715Q1.7136850476837158,8.286090047683716,1.6592200476837158,8.308650047683717Q1.6047550476837158,8.331210047683715,1.5483420476837157,8.348330047683715Q1.4919280476837158,8.365440047683716,1.4341080476837158,8.376940047683716Q1.3762890476837157,8.388440047683716,1.3176210476837158,8.394220047683715Q1.2589522476837158,8.400000047683715,1.2000000476837158,8.400000047683715Q1.1410478476837158,8.400000047683715,1.0823790476837158,8.394220047683715Q1.023711047683716,8.388440047683716,0.9658920476837158,8.376940047683716Q0.9080720476837159,8.365440047683716,0.8516580476837159,8.348330047683715Q0.7952450476837158,8.331210047683715,0.7407800476837159,8.308650047683717Q0.6863150476837159,8.286090047683716,0.6343240476837159,8.258310047683715Q0.5823330476837159,8.230510047683715,0.5333160476837158,8.197760047683715Q0.4842990476837158,8.165010047683715,0.43872804768371587,8.127610047683715Q0.39315704768371584,8.090210047683716,0.35147204768371587,8.048530047683716Q0.30978604768371587,8.006840047683717,0.2723870476837158,7.9612700476837155Q0.23498904768371587,7.915700047683716,0.20223604768371584,7.866680047683716Q0.16948004768371572,7.817670047683716,0.14169004768371574,7.765680047683716Q0.11390004768371575,7.713680047683716,0.09134004768371584,7.659220047683716Q0.06878004768371593,7.604750047683716,0.05167004768371575,7.548340047683716Q0.03456004768371579,7.491930047683716,0.023060047683715723,7.434110047683716Q0.01156004768371588,7.376290047683716,0.005780047683715761,7.317620047683715Q4.768371586472142e-8,7.258950047683716,4.768371586472142e-8,7.200000047683716Q4.768371586472142e-8,7.1410500476837155,0.005780047683715761,7.082380047683716Q0.01156004768371588,7.023710047683716,0.023060047683715723,6.965890047683716Q0.03456004768371579,6.908070047683716,0.05167004768371575,6.8516600476837155Q0.06878004768371593,6.795240047683716,0.09134004768371584,6.740780047683716Q0.11390004768371575,6.686310047683715,0.14169004768371574,6.634320047683715Q0.16948004768371572,6.582330047683715,0.20223604768371584,6.533320047683715Q0.23498904768371587,6.484300047683716,0.2723870476837158,6.438730047683716Q0.30978604768371587,6.393160047683716,0.35147204768371587,6.351470047683716Q0.39315704768371584,6.309790047683716,0.43872804768371587,6.272390047683716Q0.4842990476837158,6.2349900476837155,0.5333160476837158,6.202240047683715Q0.5823330476837159,6.169480047683716,0.6343240476837159,6.141690047683716Q0.6863150476837159,6.113910047683715,0.7407800476837159,6.091340047683715Q0.7952450476837158,6.068780047683716,0.8516580476837159,6.051670047683716Q0.9080720476837159,6.034560047683716,0.9658920476837158,6.023060047683716Q1.023711047683716,6.011560047683716,1.0823790476837158,6.005780047683716Q1.1410478476837158,6.000000047683716,1.2000000476837158,6.000000047683716Q1.2589522476837158,6.000000047683716,1.3176210476837158,6.005780047683716Q1.3762890476837157,6.011560047683716,1.4341080476837158,6.023060047683716Q1.4919280476837158,6.034560047683716,1.5483420476837157,6.051670047683716Q1.6047550476837158,6.068780047683716,1.6592200476837158,6.091340047683715Q1.7136850476837158,6.113910047683715,1.7656760476837157,6.141690047683716Q1.8176670476837158,6.169480047683716,1.8666840476837159,6.202240047683715Q1.915701047683716,6.2349900476837155,1.9612720476837158,6.272390047683716Q2.0068430476837156,6.309790047683716,2.0485280476837158,6.351470047683716Q2.0902140476837157,6.393160047683716,2.127613047683716,6.438730047683716Q2.165011047683716,6.484300047683716,2.197764047683716,6.533320047683715Q2.230520047683716,6.582330047683715,2.258310047683716,6.634320047683715Q2.286100047683716,6.686310047683715,2.308660047683716,6.740780047683716Q2.3312200476837157,6.795240047683716,2.348330047683716,6.8516600476837155Q2.365440047683716,6.908070047683716,2.376940047683716,6.965890047683716Q2.3884400476837158,7.023710047683716,2.394220047683716,7.082380047683716Q2.400000047683716,7.1410500476837155,2.400000047683716,7.200000047683716Z" fill-opacity="1"/></g></svg>