<svg xmlns="http://www.w3.org/2000/svg" xmlns:xlink="http://www.w3.org/1999/xlink" version="1.1"  viewBox="0 0 14 14"><defs><clipPath id="master_svg0_1464_3245"><rect x="0" y="0" width="14" height="14" rx="0"/></clipPath></defs><g clip-path="url(#master_svg0_1464_3245)"><g><path d="M2.25,1.75L7.22283,1.75C7.44372,1.75011766,7.6456,1.874991,7.74433,2.072583L8.16667,2.91667L11.66667,2.91667C11.9888,2.91667,12.25,3.17783,12.25,3.5L12.25,9.91667C12.25,10.23883,11.9888,10.5,11.66667,10.5L7.94383,10.5C7.72295,10.49988,7.52107,10.37501,7.42233,10.17742L7,9.33333L3.41667,9.33333C3.14052,9.33333,2.91667,9.55719,2.91667,9.83333L2.91667,12.25C2.91667,12.5722,2.6555,12.8333,2.333333,12.8333C2.011167,12.8333,1.75,12.5722,1.75,12.25L1.75,2.25C1.75,1.973858,1.973858,1.75,2.25,1.75" fill-opacity="1"/></g></g></svg>