<svg xmlns="http://www.w3.org/2000/svg" xmlns:xlink="http://www.w3.org/1999/xlink" fill="none" version="1.1" width="20" height="20" viewBox="0 0 20 20"><defs><clipPath id="master_svg0_4038_22043"><rect x="0" y="0" width="20" height="20" rx="0"/></clipPath></defs><g clip-path="url(#master_svg0_4038_22043)"><g><path d="M12.50001298828125,1.66602039337C13.69111298828125,1.665878534,14.79181298828125,2.301333625,15.38731298828125,3.332935625C15.98271298828125,4.364525625000001,15.98251298828125,5.635475625,15.38661298828125,6.666855625L19.16661298828125,6.666015625L19.16661298828125,8.332685625L17.50001298828125,8.332685625L17.50001298828125,16.666015625C17.50001298828125,17.126215625,17.12691298828125,17.499315625,16.66661298828125,17.499315625L3.33331298828125,17.499315625C2.87307298828125,17.499315625,2.49998298828125,17.126215625,2.49998298828125,16.666015625L2.49998298828125,8.332685625L0.83331298828125,8.332685625L0.83331298828125,6.666015625L4.613312988281249,6.666855625C3.75678298828125,5.183675624999999,4.16365298828125,3.292755625,5.55442298828125,2.293146625C6.94519298828125,1.293531625,8.86717298828125,1.510582625,9.99998298828125,2.7951856250000002C10.63152298828125,2.0759366249999998,11.54281298828125,1.664334275,12.50001298828125,1.66602039337ZM10.83331298828125,8.332685625L9.16664298828125,8.332685625L9.16664298828125,16.666015625L10.83331298828125,16.666015625L10.83331298828125,8.332685625ZM7.49998298828125,3.332685625C6.60095298828125,3.328665625,5.86076298828125,4.038405625,5.82703298828125,4.936805625C5.79330298828125,5.835205625,6.47818298828125,6.598445625,7.37498298828125,6.661855625L7.49998298828125,6.666015625L9.16664298828125,6.666015625L9.16664298828125,4.999355625C9.16668298828125,4.176355624999999,8.565982988281249,3.476535625,7.75248298828125,3.351855625L7.62414298828125,3.336855625L7.49998298828125,3.332685625ZM12.50001298828125,3.332685625C11.62781298828125,3.3324156250000003,10.90291298828125,4.004625625,10.83751298828125,4.874355625L10.83331298828125,4.999355625L10.83331298828125,6.666015625L12.50001298828125,6.666015625C13.37221298828125,6.666295625,14.09711298828125,5.994085625,14.16251298828125,5.124355625L14.16661298828125,4.999355625C14.16661298828125,4.078875625,13.42041298828125,3.332685625,12.50001298828125,3.332685625Z" fill="currentColor" fill-opacity="1"/></g></g></svg>