<svg xmlns="http://www.w3.org/2000/svg" xmlns:xlink="http://www.w3.org/1999/xlink"  version="1.1"  viewBox="0 0 20.939453125 20.939453125"><g style="mix-blend-mode:passthrough"><g><path d="M10.4696,9.51856C15.5459,9.51856,20.9393,7.85237,20.9393,4.75928C20.9393,1.6662,15.5459,0,10.4696,0C5.39336,0,0,1.6662,0,4.75928C0,7.85237,5.39336,9.51856,10.4696,9.51856C10.4696,9.51856,10.4696,9.51856,10.4696,9.51856ZM10.4696,1.90252C15.6985,1.90252,19.0368,3.59264,19.0368,4.75928C19.0368,5.92592,15.6985,7.61305,10.4696,7.61305C5.24081,7.61305,1.90248,5.92293,1.90248,4.75928C1.90248,3.59564,5.24081,1.90252,10.4696,1.90252C10.4696,1.90252,10.4696,1.90252,10.4696,1.90252Z" fill="#CDCDCD" fill-opacity="1"/></g><g><path d="M1.898983125,8.75845561730957C1.474213125,8.44734981730957,0.878939125,8.54307391730957,0.570833125,8.96784961730957C0.181961125,9.50031661730957,-0.009484075,10.06867961730957,0.002481156,10.654989617309571C0.026411725,12.08785961730957,1.252853125,13.335259617309571,3.448493125,14.16985961730957C5.264223125,14.860869617309572,7.618393125,15.23179961730957,10.116153125,15.23179961730957C10.259753125,15.23179961730957,10.406353125,15.22880961730957,10.552853125,15.22880961730957C15.629153125,15.13905961730957,20.992653125,13.37713961730957,20.938753125,10.29003961730957C20.932753125,9.84133961730957,20.807153125,9.40459261730957,20.561853125,8.98879061730957C20.295653125,8.53410171730957,19.706353125,8.38453161730957,19.260653125,8.650764617309571C18.805953125,8.91699861730957,18.653453125,9.50031661730957,18.922653125,9.955009617309571C18.997453125,10.08363961730957,19.033353125,10.20029961730957,19.036253125,10.31995961730957C19.057253125,11.48359961730957,15.748853125,13.23056961730957,10.519953125,13.32628961730957C8.085043125,13.35619961730957,5.826593125,13.03612961730957,4.127523125,12.38998961730957C2.787403125,11.88145961730957,1.916933125,11.18744961730957,1.907953125,10.61909961730957C1.904963125,10.45755961730957,1.973763125,10.27807961730957,2.108373125,10.08961961730957C2.416483125,9.66184961730957,2.323753125,9.06656461730957,1.898983125,8.75845561730957C1.898983125,8.75845561730957,1.898983125,8.75845561730957,1.898983125,8.75845561730957Z" fill="#CDCDCD" fill-opacity="1"/></g><g><path d="M19.1265,14.394318368469238C18.6928,14.687474368469239,18.5731,15.279762368469239,18.8693,15.716512368469239C18.983,15.884022368469239,19.0368,16.03659236846924,19.0368,16.18017236846924C19.0368,17.343822368469237,15.6985,19.036942368469237,10.4696,19.036942368469237C5.2408,19.036942368469237,1.90248,17.343822368469237,1.90248,16.18017236846924C1.90248,16.039572368469237,1.95334,15.893002368469238,2.05504,15.737442368469239C2.34221,15.297712368469238,2.22256,14.708413368469238,1.78283,14.418251368469239C1.34311,14.131077368469239,0.753815,14.253727768469238,0.463655,14.690464368469238C0.155549,15.160111368469238,0,15.659672368469238,0,16.17718236846924C0,19.273252368469237,5.39336,20.93945236846924,10.4696,20.93945236846924C15.5459,20.93945236846924,20.9393,19.273252368469237,20.9393,16.18017236846924C20.9393,15.650692368469239,20.7748,15.136181368469238,20.4487,14.651577368469239C20.1556,14.214836968469239,19.5633,14.101162368469238,19.1265,14.394318368469238C19.1265,14.394318368469238,19.1265,14.394318368469238,19.1265,14.394318368469238Z"  fill-opacity="1"/></g></g></svg>