<svg xmlns="http://www.w3.org/2000/svg" xmlns:xlink="http://www.w3.org/1999/xlink" version="1.1" viewBox="0 0 24 24"><defs><clipPath id="master_svg0_6813_17229"><rect x="0" y="0" width="24" height="24" rx="0"/></clipPath></defs><g clip-path="url(#master_svg0_6813_17229)"><g><path d="M14,10L14,14L10,14L10,10L14,10ZM16,10L21,10L21,14L16,14L16,10ZM14,21L10,21L10,16L14,16L14,21ZM16,21L16,16L21,16L21,20C21,20.5523,20.5523,21,20,21L16,21ZM14,3L14,8L10,8L10,3L14,3ZM16,3L20,3C20.5523,3,21,3.447715,21,4L21,8L16,8L16,3ZM8,10L8,14L3,14L3,10L8,10ZM8,21L4,21C3.447715,21,3,20.5523,3,20L3,16L8,16L8,21ZM8,3L8,8L3,8L3,4C3,3.447715,3.447715,3,4,3L8,3Z"  fill-opacity="1"/></g></g></svg>