<svg xmlns="http://www.w3.org/2000/svg" xmlns:xlink="http://www.w3.org/1999/xlink" fill="none" version="1.1" width="18" height="18" viewBox="0 0 18 18"><g><path d="M11,7L11,11L7,11L7,7L11,7ZM13,7L18,7L18,11L13,11L13,7ZM11,18L7,18L7,13L11,13L11,18ZM13,18L13,13L18,13L18,17C18,17.5523,17.5523,18,17,18L13,18ZM11,0L11,5L7,5L7,0L11,0ZM13,0L17,0C17.5523,0,18,0.447715,18,1L18,5L13,5L13,0ZM5,7L5,11L0,11L0,7L5,7ZM5,18L1,18C0.447715,18,0,17.5523,0,17L0,13L5,13L5,18ZM5,0L5,5L0,5L0,1C0,0.447715,0.447715,0,1,0L5,0Z" fill="#909399" fill-opacity="1"/></g></svg>