<svg xmlns="http://www.w3.org/2000/svg" xmlns:xlink="http://www.w3.org/1999/xlink"  version="1.1"  viewBox="0 0 19.799999237060547 19.799999237060547"><defs><clipPath id="master_svg0_5147_03583"><rect x="0" y="0" width="19.799999237060547" height="19.799999237060547" rx="0"/></clipPath></defs><g clip-path="url(#master_svg0_5147_03583)"><g><path d="M3.0625,9.899989999999999Q3.0625,12.7322,5.0651600000000006,14.7348Q7.06782,16.7375,9.90001,16.7375Q12.7322,16.7375,14.7349,14.7348Q16.7375,12.7322,16.7375,9.899989999999999Q16.7375,7.06781,14.7349,5.06515Q12.7322,3.0625,9.90001,3.0625Q7.06782,3.0625,5.0651600000000006,5.06515Q3.0625,7.0678,3.0625,9.899989999999999L3.0625,9.899989999999999ZM1.0625,9.899989999999999Q1.0625,6.23938,3.65095,3.6509400000000003Q6.23939,1.0625,9.90001,1.0625010000000001Q13.5606,1.0625,16.1491,3.6509400000000003Q18.7375,6.23938,18.7375,9.899989999999999Q18.7375,13.5606,16.1491,16.1491Q13.5606,18.7375,9.90001,18.7375Q6.23939,18.7375,3.65095,16.1491Q1.0625,13.5606,1.0625,9.899989999999999L1.0625,9.899989999999999Z"  fill-opacity="1"/></g><g><path d="M12.11918244140625,3.310737375Q12.57929244140625,3.178561375,12.71057244140625,2.757103375L12.72672244140625,2.7231653749999998Q12.72672244140625,2.974070375,12.82728244140625,3.5330893750000003Q12.85535244140625,3.688999375,13.07755244140625,3.8211193750000003Q14.28065244140625,4.536569375,14.06225244140625,5.933509375Q13.81655244140625,7.505029375,12.02493244140625,7.630969375Q11.50034244140625,7.667839375,11.35061244140625,7.798039375Q11.32094244140625,7.823839375,11.41413244140625,8.566809375Q11.69097244140625,10.773859375,10.368182441406251,11.512329375Q9.10272244140625,12.218749375,7.12916244140625,10.941939375Q6.63918244140625,10.624939375,6.46836244140625,10.556649375Q6.47495244140625,10.559279375,6.59823244140625,10.492089375Q6.5481924414062505,10.519359375,6.47526244140625,11.345689375Q6.34414244140625,12.831309375,5.747452441406249,13.375409375Q4.60354244140625,14.418609375,2.47406144140625,13.564709375Q2.38264644140625,13.528009375,2.30013944140625,13.474209375Q2.21763144140625,13.420409375,2.14720344140625,13.351609375Q2.07677444140625,13.282709375,2.02113144140625,13.201509375Q1.96548844140625,13.120209375,1.92676844140625,13.029609375Q1.8880484414062502,12.939109375,1.86774044140625,12.842709375Q1.84743244140625,12.746309375,1.84631644140625,12.647809375Q1.84520244140625,12.549409375,1.86331944140625,12.452609375Q1.88143844140625,12.355709375,1.91809644140625,12.264339375Q1.95475444140625,12.172919375,2.00854144140625,12.090419375Q2.06232944140625,12.007909375,2.13117944140625,11.937479375Q2.20002944140625,11.867049375,2.28129744140625,11.811409375Q2.36256444140625,11.755769375,2.45312644140625,11.717049375Q2.54368744140625,11.678329375,2.64006244140625,11.658019375Q2.73643744140625,11.637709375,2.83492254140625,11.636589375Q2.93340764140625,11.635479375,3.03021844140625,11.653599375Q3.12702844140625,11.671719375,3.21844444140625,11.708379375Q4.18315244140625,12.095219375,4.39981244140625,11.897629375Q4.42043244140625,11.878839375,4.48300244140625,11.169849375Q4.6501524414062505,9.276069374999999,5.641092441406251,8.735989374999999Q6.59648244140625,8.215259374999999,8.21554244140625,9.262719375Q9.178682441406249,9.885829375,9.39327244140625,9.766029374999999Q9.538702441406251,9.684849374999999,9.42968244140625,8.815729375Q9.20375244140625,7.014509375,10.038222441406251,6.2888593749999995Q10.69276244140625,5.7196693750000005,11.88470244140625,5.635889375Q12.18070244140625,5.6150793750000005,12.18130244140625,5.614749375000001L12.08623244140625,5.624619375Q12.09568244140625,5.564179375,12.05526244140625,5.540139375Q11.04847244140625,4.941429375,10.85888244140625,3.887179375Q10.46628244140625,1.704681375,11.56698244140625,1.388481375Q11.66164244140625,1.361288375,11.75979244140625,1.353084375Q11.85793244140625,1.344879375,11.95580244140625,1.355982375Q12.05366244140625,1.3670843750000001,12.14748244140625,1.397065375Q12.24130244140625,1.427046375,12.32746244140625,1.4747543749999998Q12.41363244140625,1.522461375,12.48883244140625,1.586062375Q12.56403244140625,1.649664375,12.62538244140625,1.726714375Q12.68673244140625,1.803764375,12.73187244140625,1.8913033750000001Q12.77701244140625,1.978841375,12.80421244140625,2.073504375Q12.83140244140625,2.168167375,12.83960244140625,2.266316475Q12.84785244140625,2.364465575,12.83671244140625,2.462329375Q12.82560244140625,2.560193375,12.79562244140625,2.654010375Q12.76564244140625,2.747827375,12.71793244140625,2.833993375Q12.67023244140625,2.920159375,12.60663244140625,2.995362375Q12.54302244140625,3.070564375,12.46597244140625,3.131914375Q12.38892244140625,3.193264375,12.30138244140625,3.238403375Q12.21385244140625,3.283542375,12.11918244140625,3.310737375ZM12.84308244140625,2.349609375Q12.84308244140625,2.448100775,12.82386244140625,2.544699375Q12.80465244140625,2.641298375,12.76696244140625,2.732292375Q12.72927244140625,2.823287375,12.67455244140625,2.905179375Q12.61983244140625,2.987072375,12.55019244140625,3.056716375Q12.48054244140625,3.126360375,12.39865244140625,3.181079375Q12.31676244140625,3.2357973749999998,12.22576244140625,3.273488375Q12.13477244140625,3.311179375,12.03817244140625,3.330394375Q11.94157244140625,3.349609375,11.84308244140625,3.349609375Q11.74459244140625,3.349609375,11.64799244140625,3.330394375Q11.55139244140625,3.311179375,11.46040244140625,3.273488375Q11.36940244140625,3.2357973749999998,11.28751244140625,3.181079375Q11.20562244140625,3.126360375,11.13597244140625,3.056716375Q11.06633244140625,2.987072375,11.01161244140625,2.905179375Q10.95689244140625,2.823287375,10.91920244140625,2.732292375Q10.88151244140625,2.641298375,10.86229244140625,2.544699375Q10.84308244140625,2.448100775,10.84308244140625,2.349609375Q10.84308244140625,2.251117975,10.86229244140625,2.154519375Q10.88151244140625,2.057920375,10.91920244140625,1.966926375Q10.95689244140625,1.875931375,11.01161244140625,1.794039375Q11.06633244140625,1.712146375,11.13597244140625,1.6425023749999998Q11.20562244140625,1.572858375,11.28751244140625,1.518139375Q11.36940244140625,1.463421375,11.46040244140625,1.425730375Q11.55139244140625,1.388039375,11.64799244140625,1.368824375Q11.74459244140625,1.349609375,11.84308244140625,1.349609375Q11.94157244140625,1.349609375,12.03817244140625,1.368824375Q12.13477244140625,1.388039375,12.22576244140625,1.425730375Q12.31676244140625,1.463421375,12.39865244140625,1.518139375Q12.48054244140625,1.572858375,12.55019244140625,1.6425023749999998Q12.61983244140625,1.712146375,12.67455244140625,1.794039375Q12.72927244140625,1.875931375,12.76696244140625,1.966926375Q12.80465244140625,2.057920375,12.82386244140625,2.154519375Q12.84308244140625,2.251117975,12.84308244140625,2.349609375ZM3.84625244140625,12.636509375Q3.84625244140625,12.735009375,3.82703744140625,12.831609375Q3.80782244140625,12.928209375,3.77013144140625,13.019209375Q3.7324404414062498,13.110209375,3.67772244140625,13.192109375Q3.62300344140625,13.274009375,3.55335944140625,13.343609375Q3.48371544140625,13.413309375,3.40182244140625,13.468009375Q3.31993044140625,13.522709375,3.22893544140625,13.560409375Q3.13794144140625,13.598109375,3.04134244140625,13.617309375Q2.94474384140625,13.636509375,2.84625244140625,13.636509375Q2.74776104140625,13.636509375,2.65116244140625,13.617309375Q2.55456344140625,13.598109375,2.46356944140625,13.560409375Q2.37257444140625,13.522709375,2.29068244140625,13.468009375Q2.20878944140625,13.413309375,2.13914544140625,13.343609375Q2.06950144140625,13.274009375,2.01478244140625,13.192109375Q1.96006444140625,13.110209375,1.92237344140625,13.019209375Q1.88468244140625,12.928209375,1.86546744140625,12.831609375Q1.84625244140625,12.735009375,1.84625244140625,12.636509375Q1.84625244140625,12.538009375,1.86546744140625,12.441409375Q1.88468244140625,12.344839375,1.92237344140625,12.253849375Q1.96006444140625,12.162849375,2.01478244140625,12.080959375Q2.06950144140625,11.999069375,2.13914544140625,11.929419375Q2.20878944140625,11.859779375,2.29068244140625,11.805059375Q2.37257444140625,11.750339375,2.46356944140625,11.712649375Q2.55456344140625,11.674959375,2.65116244140625,11.655749375Q2.74776104140625,11.636529375,2.84625244140625,11.636529375Q2.94474384140625,11.636529375,3.04134244140625,11.655749375Q3.13794144140625,11.674959375,3.22893544140625,11.712649375Q3.31993044140625,11.750339375,3.40182244140625,11.805059375Q3.48371544140625,11.859779375,3.55335944140625,11.929419375Q3.62300344140625,11.999069375,3.67772244140625,12.080959375Q3.7324404414062498,12.162849375,3.77013144140625,12.253849375Q3.80782244140625,12.344839375,3.82703744140625,12.441409375Q3.84625244140625,12.538009375,3.84625244140625,12.636509375Z"  fill-opacity="1"/></g><g><path d="M16.2185580078125,14.09515375Q14.3051080078125,12.19317475,13.5637980078125,12.58187375Q13.142818007812501,12.802613749999999,13.1612680078125,13.25163375Q13.1862780078125,13.86047375,13.0513880078125,14.22461375Q12.8712880078125,14.71073375,12.3792980078125,15.15985375Q12.1214480078125,15.39524375,12.0272780078125,15.69091375Q11.9011650078125,16.08690375,12.5828380078125,16.78454375Q12.6516780078125,16.85499375,12.7054480078125,16.93751375Q12.7592080078125,17.02003375,12.7958480078125,17.11145375Q12.832478007812501,17.202883749999998,12.8505780078125,17.29969375Q12.8686680078125,17.39650375,12.8675280078125,17.49499375Q12.8663880078125,17.59347375,12.8460580078125,17.68984375Q12.8257280078125,17.78621375,12.7869880078125,17.876773749999998Q12.7482480078125,17.96732375,12.6925780078125,18.04857375Q12.6369180078125,18.12983375,12.5664680078125,18.19866375Q12.4960280078125,18.26749375,12.4135080078125,18.32126375Q12.3309880078125,18.37503375,12.2395580078125,18.41166375Q12.1481380078125,18.44830375,12.0513180078125,18.46639375Q11.9545070078125,18.48449375,11.8560230078125,18.48335375Q11.7575380078125,18.48221375,11.661168007812499,18.46187375Q11.5647980078125,18.44154375,11.4742460078125,18.40280375Q11.3836940078125,18.36406375,11.3024400078125,18.30840375Q11.2211870078125,18.25273375,11.1523540078125,18.18229375Q9.6307780078125,16.62507375,10.1216030078125,15.08395375Q10.3780720078125,14.27871375,11.0308900078125,13.68276375Q11.1644680078125,13.56082375,11.1759200078125,13.52991375L11.1669070078125,13.54640375Q11.1695650078125,13.49479375,11.1629490078125,13.33371375Q11.0925291078125,11.61939495,12.6350380078125,10.81060575Q14.6750480078125,9.74093375,17.6285180078125,12.67670375Q17.6983680078125,12.74613375,17.7533280078125,12.82786375Q17.8082980078125,12.909593749999999,17.8462580078125,13.00047375Q17.8842280078125,13.09135375,17.9037280078125,13.18789375Q17.9232280078125,13.28443375,17.9235280078125,13.38292375Q17.9238280078125,13.48141375,17.9048980078125,13.57807375Q17.8859780078125,13.67473375,17.8485580078125,13.76583375Q17.8111380078125,13.85694375,17.7566680078125,13.93900375Q17.7021980078125,14.02105375,17.632758007812498,14.09091375Q17.5633280078125,14.160763750000001,17.4815980078125,14.21572375Q17.3998680078125,14.27069375,17.308988007812502,14.30865375Q17.2181080078125,14.34662375,17.1215680078125,14.36612375Q17.0250280078125,14.38563375,16.9265380078125,14.38592375Q16.828048007812498,14.38622375,16.731388007812498,14.36729375Q16.6347380078125,14.34837375,16.5436280078125,14.31095375Q16.4525180078125,14.27353375,16.370458007812502,14.21906375Q16.2884080078125,14.16459375,16.2185580078125,14.09515375ZM17.9235380078125,13.38593375Q17.9235380078125,13.48442375,17.9043180078125,13.58102375Q17.885108007812498,13.67762375,17.8474080078125,13.76861375Q17.8097180078125,13.85960375,17.7549980078125,13.941503749999999Q17.7002880078125,14.02339375,17.6306380078125,14.09303375Q17.5609980078125,14.16268375,17.4791080078125,14.217403749999999Q17.3972080078125,14.27212375,17.3062180078125,14.30981375Q17.2152180078125,14.34750375,17.1186280078125,14.36671375Q17.0220280078125,14.38593375,16.9235380078125,14.38593375Q16.825038007812502,14.38593375,16.7284480078125,14.36671375Q16.6318480078125,14.34750375,16.5408480078125,14.30981375Q16.4498580078125,14.27212375,16.3679580078125,14.217403749999999Q16.2860680078125,14.16268375,16.2164280078125,14.09303375Q16.1467780078125,14.02339375,16.0920680078125,13.941503749999999Q16.0373480078125,13.85960375,15.9996580078125,13.76861375Q15.9619580078125,13.67762375,15.9427480078125,13.58102375Q15.9235380078125,13.48442375,15.9235380078125,13.38593375Q15.9235380078125,13.28744375,15.9427480078125,13.190843749999999Q15.9619580078125,13.09424375,15.9996580078125,13.00324375Q16.0373480078125,12.91225375,16.0920680078125,12.83036375Q16.1467780078125,12.748463749999999,16.2164280078125,12.67882375Q16.2860680078125,12.60918375,16.3679580078125,12.55446375Q16.4498580078125,12.49974275,16.5408480078125,12.46205175Q16.6318480078125,12.42436075,16.7284480078125,12.405145749999999Q16.825038007812502,12.38593075,16.9235380078125,12.38593075Q17.0220280078125,12.38593075,17.1186280078125,12.405145749999999Q17.2152180078125,12.42436075,17.3062180078125,12.46205175Q17.3972080078125,12.49974275,17.4791080078125,12.55446375Q17.5609980078125,12.60918375,17.6306380078125,12.67882375Q17.7002880078125,12.748463749999999,17.7549980078125,12.83036375Q17.8097180078125,12.91225375,17.8474080078125,13.00324375Q17.885108007812498,13.09424375,17.9043180078125,13.190843749999999Q17.9235380078125,13.28744375,17.9235380078125,13.38593375ZM12.8675980078125,17.48341375Q12.8675980078125,17.58191375,12.848388007812499,17.67850375Q12.8291680078125,17.77510375,12.7914780078125,17.86610375Q12.7537880078125,17.95709375,12.6990680078125,18.03898375Q12.6443480078125,18.12088375,12.5747080078125,18.19052375Q12.5050580078125,18.26016375,12.4231680078125,18.31488375Q12.3412780078125,18.36960375,12.2502780078125,18.40729375Q12.1592880078125,18.44498375,12.0626880078125,18.46420375Q11.9660900078125,18.48341375,11.8675980078125,18.48341375Q11.7691070078125,18.48341375,11.6725080078125,18.46420375Q11.5759090078125,18.44498375,11.4849150078125,18.40729375Q11.3939210078125,18.36960375,11.3120280078125,18.31488375Q11.2301350078125,18.26016375,11.1604910078125,18.19052375Q11.0908474078125,18.12088375,11.0361286078125,18.03898375Q10.9814097078125,17.95709375,10.9437186078125,17.86610375Q10.9060280078125,17.77510375,10.8868130078125,17.67850375Q10.8675980078125,17.58191375,10.8675980078125,17.48341375Q10.8675980078125,17.38492375,10.8868130078125,17.28832375Q10.9060280078125,17.19172375,10.9437186078125,17.10073375Q10.9814097078125,17.00974375,11.0361286078125,16.92784375Q11.0908474078125,16.84595375,11.1604910078125,16.77631375Q11.2301350078125,16.70666375,11.3120280078125,16.65194375Q11.3939210078125,16.59723375,11.4849150078125,16.55953375Q11.5759090078125,16.521843750000002,11.6725080078125,16.50263375Q11.7691070078125,16.48341375,11.8675980078125,16.48341375Q11.9660900078125,16.48341375,12.0626880078125,16.50263375Q12.1592880078125,16.521843750000002,12.2502780078125,16.55953375Q12.3412780078125,16.59723375,12.4231680078125,16.65194375Q12.5050580078125,16.70666375,12.5747080078125,16.77631375Q12.6443480078125,16.84595375,12.6990680078125,16.92784375Q12.7537880078125,17.00974375,12.7914780078125,17.10073375Q12.8291680078125,17.19172375,12.848388007812499,17.28832375Q12.8675980078125,17.38492375,12.8675980078125,17.48341375Z"  fill-opacity="1"/></g></g></svg>