<svg xmlns="http://www.w3.org/2000/svg" xmlns:xlink="http://www.w3.org/1999/xlink" version="1.1"  viewBox="0 0 25 22.5"><g><path d="M22.5,2.5L2.5,2.5L2.5,20L14.115,8.3825C14.6031,7.89452,15.3944,7.89452,15.8825,8.3825L22.5,15.0125L22.5,2.5ZM0,1.24125C0.00476003,0.558195,0.55695,0.00544786,1.24,0L23.76,0C24.445,0,25,0.55625,25,1.24125L25,21.2588C24.9952,21.9418,24.4431,22.4946,23.76,22.5L1.24,22.5C0.554965,22.4993,-1.49012e-7,21.9438,0,21.2588L0,1.24125ZM7.5,10C6.11929,10,5,8.88071,5,7.5C5,6.11929,6.11929,5,7.5,5C8.88071,5,10,6.11929,10,7.5C10,8.88071,8.88071,10,7.5,10Z" fill="inherit" fill-opacity="1"/></g></svg>