<svg xmlns="http://www.w3.org/2000/svg" xmlns:xlink="http://www.w3.org/1999/xlink" version="1.1" viewBox="0 0 24 24"><defs><clipPath id="master_svg0_6813_17227"><rect x="0" y="0" width="24" height="24" rx="0"/></clipPath></defs><g clip-path="url(#master_svg0_6813_17227)"><g><path d="M22,12.999L22,20C22,20.5523,21.5523,21,21,21L13,21L13,12.999L22,12.999ZM11,12.999L11,21L3,21C2.447715,21,2,20.5523,2,20L2,12.999L11,12.999ZM11,3L11,10.998999999999999L2,10.998999999999999L2,4C2,3.447715,2.447715,3,3,3L11,3ZM21,3C21.5523,3,22,3.447715,22,4L22,10.998999999999999L13,10.998999999999999L13,3L21,3Z" fill-opacity="1"/></g></g></svg>