<svg xmlns="http://www.w3.org/2000/svg" xmlns:xlink="http://www.w3.org/1999/xlink"  version="1.1" viewBox="0 0 24 24" fill="currentColor"><defs><clipPath id="master_svg0_1135_7905"><rect x="0" y="0" width="24" height="24" rx="0"/></clipPath></defs><g clip-path="url(#master_svg0_1135_7905)"><g><path d="M16.7499259765625,6.5C19.281625976562502,6.5,21.3333259765625,8.52703,21.3333259765625,11.36486C21.3333259765625,16.29561,16.6162259765625,19.3905,14.0120559765625,20.915399999999998C13.3895159765625,21.28,12.6104059765625,21.28,11.9878659765625,20.915399999999998C9.3836659765625,19.3905,4.6666259765625,16.29561,4.6666259765625,11.36486C4.6666259765625,8.52703,6.7499559765625,6.5,9.2499559765625,6.5C10.7999559765625,6.5,12.1666259765625,7.310811,12.9999559765625,8.12162C13.8332959765625,7.310811,15.1999259765625,6.5,16.7499259765625,6.5Z"  fill-opacity="1"/></g><g><path d="M15.7499259765625,4.5C18.281625976562502,4.5,20.3333259765625,6.52703,20.3333259765625,9.36486C20.3333259765625,14.29561,15.6162259765625,17.3905,13.0120559765625,18.915399999999998C12.3895159765625,19.28,11.6104059765625,19.28,10.9878659765625,18.915399999999998C8.3836659765625,17.3905,3.6666259765625,14.29561,3.6666259765625,9.36486C3.6666259765625,6.52703,5.7499559765625,4.5,8.2499559765625,4.5C9.7999559765625,4.5,11.1666259765625,5.310811,11.9999559765625,6.12162C12.8332959765625,5.310811,14.1999259765625,4.5,15.7499259765625,4.5Z" fill="#FFFFFF" fill-opacity="1"/><path d="M11.4769459765625,5.58408Q12.2718259765625,4.810679,13.2841959765625,4.329402Q14.5030259765625,3.75,15.7499259765625,3.75Q17.9928259765625,3.75,19.5313259765625,5.348079Q21.0833259765625,6.9601500000000005,21.0833259765625,9.36486Q21.0833259765625,12.89782,18.1924259765625,15.9345Q16.4357259765625,17.7798,13.3910259765625,19.5626Q12.7485759765625,19.9388,11.9999559765625,19.9388Q11.251335976562501,19.9388,10.608885976562501,19.5626Q7.5641559765625,17.7798,5.807455976562499,15.9345Q2.9166259765625,12.89782,2.9166259765625,9.36487Q2.9166259765625,6.96477,4.4817279765624995,5.346794Q6.0263359765625,3.75,8.2499559765625,3.75Q9.4969359765625,3.75,10.7157159765625,4.329402Q11.7280959765625,4.810679,12.5229759765625,5.58408L11.9999559765625,6.12162L11.4769459765625,5.58408ZM12.5229759765625,6.65917L11.9999559765625,7.16805L11.4769459765625,6.65917Q10.0286359765625,5.25,8.2499559765625,5.25Q6.6623059765625,5.25,5.5598559765625,6.38969Q4.4166259765625,7.57155,4.4166259765625,9.36487Q4.4166259765625,12.298,6.893885976562499,14.9002Q8.5046959765625,16.5923,11.3668459765625,18.2682Q11.9999559765625,18.639,12.6330759765625,18.2682Q15.4952259765625,16.5923,17.1060259765625,14.9002Q19.5833259765625,12.298,19.5833259765625,9.36486Q19.5833259765625,7.5648599999999995,18.450725976562502,6.38841Q17.3547259765625,5.25,15.7499259765625,5.25Q13.9713259765625,5.25,12.5229759765625,6.65917Z"  fill-opacity="1"/></g></g></svg>