<svg xmlns="http://www.w3.org/2000/svg" xmlns:xlink="http://www.w3.org/1999/xlink" fill="currentColor" version="1.1" viewBox="0 0 21 21"><defs><clipPath id="master_svg0_8353_24665"><rect x="0" y="0" width="21" height="21" rx="0"/></clipPath></defs><g clip-path="url(#master_svg0_8353_24665)"><g><ellipse cx="10.5" cy="4.8125" rx="3.0625" ry="3.0625" fill-opacity="0" stroke-opacity="1" stroke="currentColor" fill="none" stroke-width="2" stroke-linecap="ROUND" stroke-linejoin="round"/></g><g><path d="M9.625,11.9375Q6.74327,11.9375,4.7209,13.73516Q2.75,15.48706,2.75,17.9375Q2.75,18.035989999999998,2.730786,18.13259Q2.711571,18.22919,2.67388,18.32018Q2.636189,18.41118,2.58147,18.49307Q2.526751,18.57496,2.457107,18.64461Q2.387463,18.71425,2.30557,18.76897Q2.223678,18.82369,2.132683,18.86138Q2.041689,18.899070000000002,1.94509,18.91828Q1.8484914,18.9375,1.75,18.9375Q1.6515086,18.9375,1.55491,18.91828Q1.4583110000000001,18.899070000000002,1.367317,18.86138Q1.276322,18.82369,1.19443,18.76897Q1.112537,18.71425,1.0428929999999998,18.64461Q0.973249,18.57496,0.918531,18.49307Q0.863812,18.41118,0.826121,18.32018Q0.78843,18.22919,0.769215,18.13259Q0.75,18.035989999999998,0.75,17.9375Q0.75,16.28756,1.465873,14.783100000000001Q2.150723,13.34385,3.3921799999999998,12.24033Q5.98287,9.9375,9.625,9.9375Q9.72349,9.9375,9.82009,9.956714999999999Q9.91669,9.97593,10.00768,10.013621Q10.09868,10.051312,10.18057,10.10603Q10.26246,10.160749,10.33211,10.230393Q10.40175,10.300037,10.45647,10.38193Q10.51119,10.463822,10.54888,10.554817Q10.58657,10.645811,10.60578,10.74241Q10.625,10.8390086,10.625,10.9375Q10.625,11.0359914,10.60578,11.13259Q10.58657,11.229189,10.54888,11.320183Q10.51119,11.411178,10.45647,11.49307Q10.40175,11.574963,10.33211,11.644607Q10.26246,11.714251,10.18057,11.76897Q10.09868,11.823688,10.00768,11.861379Q9.91669,11.89907,9.82009,11.918285000000001Q9.72349,11.9375,9.625,11.9375ZM10.625,10.9375Q10.625,11.0359914,10.60578,11.13259Q10.58657,11.229189,10.54888,11.320183Q10.51119,11.411178,10.45647,11.49307Q10.40175,11.574963,10.33211,11.644607Q10.26246,11.714251,10.18057,11.76897Q10.09868,11.823688,10.00768,11.861379Q9.91669,11.89907,9.82009,11.918285000000001Q9.72349,11.9375,9.625,11.9375Q9.52651,11.9375,9.42991,11.918285000000001Q9.33331,11.89907,9.24232,11.861379Q9.15132,11.823688,9.06943,11.76897Q8.98754,11.714251,8.91789,11.644607Q8.84825,11.574963,8.79353,11.49307Q8.73881,11.411178,8.70112,11.320183Q8.66343,11.229189,8.644210000000001,11.13259Q8.625,11.0359914,8.625,10.9375Q8.625,10.8390086,8.644210000000001,10.74241Q8.66343,10.645811,8.70112,10.554817Q8.73881,10.463822,8.79353,10.38193Q8.84825,10.300037,8.91789,10.230393Q8.98754,10.160749,9.06943,10.10603Q9.15132,10.051312,9.24232,10.013621Q9.33331,9.97593,9.42991,9.956714999999999Q9.52651,9.9375,9.625,9.9375Q9.72349,9.9375,9.82009,9.956714999999999Q9.91669,9.97593,10.00768,10.013621Q10.09868,10.051312,10.18057,10.10603Q10.26246,10.160749,10.33211,10.230393Q10.40175,10.300037,10.45647,10.38193Q10.51119,10.463822,10.54888,10.554817Q10.58657,10.645811,10.60578,10.74241Q10.625,10.8390086,10.625,10.9375ZM2.75,17.9375Q2.75,18.035989999999998,2.730785,18.13259Q2.71157,18.22919,2.673879,18.32018Q2.6361879999999998,18.41118,2.58147,18.49307Q2.526751,18.57496,2.457107,18.64461Q2.387463,18.71425,2.30557,18.76897Q2.223678,18.82369,2.132683,18.86138Q2.041689,18.899070000000002,1.94509,18.91828Q1.8484914,18.9375,1.75,18.9375Q1.6515086,18.9375,1.55491,18.91828Q1.4583110000000001,18.899070000000002,1.367317,18.86138Q1.276322,18.82369,1.19443,18.76897Q1.112537,18.71425,1.0428929999999998,18.64461Q0.973249,18.57496,0.91853,18.49307Q0.863812,18.41118,0.826121,18.32018Q0.78843,18.22919,0.769215,18.13259Q0.75,18.035989999999998,0.75,17.9375Q0.75,17.839010000000002,0.769215,17.74241Q0.78843,17.64581,0.826121,17.55482Q0.863812,17.46382,0.91853,17.38193Q0.973249,17.30004,1.0428929999999998,17.23039Q1.112537,17.16075,1.19443,17.10603Q1.276322,17.05131,1.367317,17.01362Q1.4583110000000001,16.975929999999998,1.55491,16.95671Q1.6515086,16.9375,1.75,16.9375Q1.8484914,16.9375,1.94509,16.95671Q2.041689,16.975929999999998,2.132683,17.01362Q2.223678,17.05131,2.30557,17.10603Q2.387463,17.16075,2.457107,17.23039Q2.526751,17.30004,2.58147,17.38193Q2.6361879999999998,17.46382,2.673879,17.55482Q2.71157,17.64581,2.730785,17.74241Q2.75,17.839010000000002,2.75,17.9375Z"  fill-opacity="1"/></g><g><path d="M10.8125,17.9375L10.8125,13.5625Q10.8125,13.4640086,10.831714999999999,13.36741Q10.85093,13.270811,10.888621,13.179817Q10.926312,13.088822,10.98103,13.00693Q11.035749,12.925037,11.105393,12.855393Q11.175037,12.785749,11.25693,12.73103Q11.338822,12.676312,11.429817,12.638621Q11.520811,12.60093,11.61741,12.581714999999999Q11.7140086,12.5625,11.8125,12.5625L17.9375,12.5625Q18.035989999999998,12.5625,18.13259,12.581714999999999Q18.22919,12.60093,18.32018,12.638621Q18.41118,12.676312,18.49307,12.73103Q18.57496,12.785749,18.64461,12.855393Q18.71425,12.925037,18.76897,13.00693Q18.82369,13.088822,18.86138,13.179817Q18.899070000000002,13.270811,18.91828,13.36741Q18.9375,13.4640086,18.9375,13.5625L18.9375,17.9375Q18.9375,18.035989999999998,18.91828,18.13259Q18.899070000000002,18.22919,18.86138,18.32018Q18.82369,18.41118,18.76897,18.49307Q18.71425,18.57496,18.64461,18.64461Q18.57496,18.71425,18.49307,18.76897Q18.41118,18.82369,18.32018,18.86138Q18.22919,18.899070000000002,18.13259,18.91828Q18.035989999999998,18.9375,17.9375,18.9375L11.8125,18.9375Q11.7140086,18.9375,11.61741,18.91828Q11.520811,18.899070000000002,11.429817,18.86138Q11.338822,18.82369,11.25693,18.76897Q11.175037,18.71425,11.105393,18.64461Q11.035749,18.57496,10.98103,18.49307Q10.926312,18.41118,10.888621,18.32018Q10.85093,18.22919,10.831714999999999,18.13259Q10.8125,18.035989999999998,10.8125,17.9375ZM12.8125,14.5625L12.8125,16.9375L16.9375,16.9375L16.9375,14.5625L12.8125,14.5625Z" fill-opacity="1"/></g><g><path d="M11.9305419921875,13.41667L11.9305419921875,12.44444Q11.9305419921875,11.224793,12.7929389921875,10.362396Q13.6553359921875,9.5,14.8749819921875,9.5Q16.0946319921875,9.5,16.9570319921875,10.362396Q17.8194319921875,11.224793,17.8194319921875,12.44444L17.8194319921875,13.41667Q17.8194319921875,13.51516,17.8002119921875,13.61176Q17.781001992187498,13.708359999999999,17.7433119921875,13.79935Q17.7056219921875,13.89034,17.6509019921875,13.97224Q17.5961819921875,14.05413,17.5265419921875,14.12377Q17.4568919921875,14.19342,17.3750019921875,14.24814Q17.293111992187498,14.30285,17.2021119921875,14.34055Q17.1111219921875,14.37824,17.0145219921875,14.39745Q16.9179219921875,14.41667,16.8194319921875,14.41667Q16.720941992187498,14.41667,16.6243419921875,14.39745Q16.5277419921875,14.37824,16.4367519921875,14.34055Q16.345751992187502,14.30285,16.2638619921875,14.24814Q16.1819719921875,14.19342,16.1123219921875,14.12377Q16.0426819921875,14.05413,15.9879619921875,13.97224Q15.9332419921875,13.89034,15.8955519921875,13.79935Q15.8578619921875,13.708359999999999,15.838641992187501,13.61176Q15.8194319921875,13.51516,15.8194319921875,13.41667L15.8194319921875,12.44444Q15.8194319921875,12.05322,15.5428219921875,11.77661Q15.2662119921875,11.5,14.8749819921875,11.5Q14.4837619921875,11.5,14.2071519921875,11.77661Q13.9305419921875,12.05322,13.9305419921875,12.44444L13.9305419921875,13.41667Q13.9305419921875,13.51516,13.911326992187501,13.61176Q13.8921119921875,13.708359999999999,13.8544209921875,13.79935Q13.8167299921875,13.89034,13.7620119921875,13.97224Q13.7072929921875,14.05413,13.6376489921875,14.12377Q13.5680049921875,14.19342,13.4861119921875,14.24814Q13.4042199921875,14.30285,13.3132249921875,14.34055Q13.2222309921875,14.37824,13.1256319921875,14.39745Q13.0290333921875,14.41667,12.9305419921875,14.41667Q12.8320505921875,14.41667,12.7354519921875,14.39745Q12.6388529921875,14.37824,12.5478589921875,14.34055Q12.4568639921875,14.30285,12.3749719921875,14.24814Q12.2930789921875,14.19342,12.2234349921875,14.12377Q12.1537909921875,14.05413,12.0990719921875,13.97224Q12.0443539921875,13.89034,12.0066629921875,13.79935Q11.9689719921875,13.708359999999999,11.949756992187499,13.61176Q11.9305419921875,13.51516,11.9305419921875,13.41667ZM13.9305419921875,13.41667Q13.9305419921875,13.51516,13.911326992187501,13.61176Q13.8921119921875,13.708359999999999,13.8544209921875,13.79935Q13.8167299921875,13.89034,13.7620119921875,13.97224Q13.7072929921875,14.05413,13.6376489921875,14.12377Q13.5680049921875,14.19342,13.4861119921875,14.24814Q13.4042199921875,14.30285,13.3132249921875,14.34055Q13.2222309921875,14.37824,13.1256319921875,14.39745Q13.0290333921875,14.41667,12.9305419921875,14.41667Q12.8320505921875,14.41667,12.7354519921875,14.39745Q12.6388529921875,14.37824,12.5478589921875,14.34055Q12.4568639921875,14.30285,12.3749719921875,14.24814Q12.2930789921875,14.19342,12.2234349921875,14.12377Q12.1537909921875,14.05413,12.0990719921875,13.97224Q12.0443539921875,13.89034,12.0066629921875,13.79935Q11.9689719921875,13.708359999999999,11.949756992187499,13.61176Q11.9305419921875,13.51516,11.9305419921875,13.41667Q11.9305419921875,13.31817,11.949756992187499,13.22158Q11.9689719921875,13.12498,12.0066629921875,13.03398Q12.0443539921875,12.94299,12.0990719921875,12.8611Q12.1537909921875,12.7792,12.2234349921875,12.70956Q12.2930789921875,12.63992,12.3749719921875,12.5852Q12.4568639921875,12.53048,12.5478589921875,12.49279Q12.6388529921875,12.4551,12.7354519921875,12.435880000000001Q12.8320505921875,12.41667,12.9305419921875,12.41667Q13.0290333921875,12.41667,13.1256319921875,12.435880000000001Q13.2222309921875,12.4551,13.3132249921875,12.49279Q13.4042199921875,12.53048,13.4861119921875,12.5852Q13.5680049921875,12.63992,13.6376489921875,12.70956Q13.7072929921875,12.7792,13.7620119921875,12.8611Q13.8167299921875,12.94299,13.8544209921875,13.03398Q13.8921119921875,13.12498,13.911326992187501,13.22158Q13.9305419921875,13.31817,13.9305419921875,13.41667ZM17.8194319921875,13.41667Q17.8194319921875,13.51516,17.8002119921875,13.61176Q17.781001992187498,13.708359999999999,17.7433119921875,13.79935Q17.7056219921875,13.89034,17.6509019921875,13.97224Q17.5961819921875,14.05413,17.5265419921875,14.12377Q17.4568919921875,14.19342,17.3750019921875,14.24814Q17.293111992187498,14.30285,17.2021119921875,14.34055Q17.1111219921875,14.37824,17.0145219921875,14.39745Q16.9179219921875,14.41667,16.8194319921875,14.41667Q16.720941992187498,14.41667,16.6243419921875,14.39745Q16.5277419921875,14.37824,16.4367519921875,14.34055Q16.345751992187502,14.30285,16.2638619921875,14.24814Q16.1819719921875,14.19342,16.1123219921875,14.12377Q16.0426819921875,14.05413,15.9879619921875,13.97224Q15.9332419921875,13.89034,15.8955519921875,13.79935Q15.8578619921875,13.708359999999999,15.838641992187501,13.61176Q15.8194319921875,13.51516,15.8194319921875,13.41667Q15.8194319921875,13.31817,15.838641992187501,13.22158Q15.8578619921875,13.12498,15.8955519921875,13.03398Q15.9332419921875,12.94299,15.9879619921875,12.8611Q16.0426819921875,12.7792,16.1123219921875,12.70956Q16.1819719921875,12.63992,16.2638619921875,12.5852Q16.345751992187502,12.53048,16.4367519921875,12.49279Q16.5277419921875,12.4551,16.6243419921875,12.435880000000001Q16.720941992187498,12.41667,16.8194319921875,12.41667Q16.9179219921875,12.41667,17.0145219921875,12.435880000000001Q17.1111219921875,12.4551,17.2021119921875,12.49279Q17.293111992187498,12.53048,17.3750019921875,12.5852Q17.4568919921875,12.63992,17.5265419921875,12.70956Q17.5961819921875,12.7792,17.6509019921875,12.8611Q17.7056219921875,12.94299,17.7433119921875,13.03398Q17.781001992187498,13.12498,17.8002119921875,13.22158Q17.8194319921875,13.31817,17.8194319921875,13.41667Z"  fill-opacity="1"/></g></g></svg>