<svg xmlns="http://www.w3.org/2000/svg" xmlns:xlink="http://www.w3.org/1999/xlink" fill="none" version="1.1" width="24" height="24" viewBox="0 0 24 24"><defs><clipPath id="master_svg0_1705_3507"><rect x="0" y="0" width="24" height="24" rx="0"/></clipPath></defs><g clip-path="url(#master_svg0_1705_3507)"><g><path d="M9.06038,8.47459L6.6360399999999995,6.05025Q6.56639,5.98061,6.5116700000000005,5.8987099999999995Q6.45695,5.81682,6.4192599999999995,5.72583Q6.38157,5.63483,6.36236,5.53823Q6.34314,5.44163,6.34314,5.34314Q6.34314,5.24465,6.36236,5.14805Q6.38157,5.05145,6.4192599999999995,4.96046Q6.45695,4.86946,6.5116700000000005,4.7875700000000005Q6.56639,4.70568,6.6360399999999995,4.6360399999999995Q6.70568,4.56639,6.7875700000000005,4.5116700000000005Q6.86946,4.45695,6.96046,4.4192599999999995Q7.05145,4.38157,7.14805,4.36236Q7.24465,4.34314,7.34314,4.34314Q7.44163,4.34314,7.53823,4.36236Q7.63483,4.38157,7.72583,4.4192599999999995Q7.81682,4.45695,7.8987099999999995,4.5116700000000005Q7.98061,4.56639,8.05025,4.6360399999999995L10.47459,7.06038Q10.54424,7.13002,10.59895,7.21192Q10.65367,7.29381,10.69136,7.3848Q10.72905,7.4758,10.74827,7.57239Q10.767479999999999,7.66899,10.767479999999999,7.76749Q10.767479999999999,7.86598,10.74827,7.96257Q10.72905,8.05917,10.69136,8.15017Q10.65367,8.24116,10.59895,8.32306Q10.54424,8.40495,10.47459,8.47459Q10.40495,8.54424,10.32306,8.59895Q10.24116,8.65367,10.15017,8.69136Q10.05917,8.72905,9.96257,8.74827Q9.86598,8.767479999999999,9.767489999999999,8.767479999999999Q9.66899,8.767479999999999,9.57239,8.74827Q9.4758,8.72905,9.3848,8.69136Q9.29381,8.65367,9.21192,8.59895Q9.13002,8.54424,9.06038,8.47459ZM8.42857,12L5,12L5,11L5,10L8.42857,10L8.42857,11L8.42857,12ZM8.42857,10Q8.52706,10,8.623660000000001,10.01922Q8.72026,10.03843,8.81125,10.07612Q8.90225,10.11381,8.98414,10.16853Q9.06603,10.22325,9.13568,10.29289Q9.20532,10.36254,9.26004,10.44443Q9.31476,10.52632,9.352450000000001,10.61732Q9.390139999999999,10.70831,9.40936,10.80491Q9.42857,10.90151,9.42857,11Q9.42857,11.09849,9.40936,11.19509Q9.390139999999999,11.29169,9.352450000000001,11.38268Q9.31476,11.47368,9.26004,11.55557Q9.20532,11.63746,9.13568,11.70711Q9.06603,11.77675,8.98414,11.83147Q8.90225,11.88619,8.81125,11.92388Q8.72026,11.96157,8.623660000000001,11.98078Q8.52706,12,8.42857,12L5,12Q4.9015086,12,4.80491,11.98078Q4.708311,11.96157,4.617317,11.92388Q4.526322,11.88619,4.44443,11.83147Q4.362537,11.77675,4.292893,11.70711Q4.223249,11.63746,4.16853,11.55557Q4.113812,11.47368,4.076121,11.38268Q4.03843,11.29169,4.019215,11.19509Q4,11.09849,4,11Q4,10.90151,4.019215,10.80491Q4.03843,10.70831,4.076121,10.61732Q4.113812,10.52632,4.16853,10.44443Q4.223249,10.36254,4.292893,10.29289Q4.362537,10.22325,4.44443,10.16853Q4.526322,10.11381,4.617317,10.07612Q4.708311,10.03843,4.80491,10.019210000000001Q4.9015086,10,5,10L8.42857,10ZM10.47459,14.9396L8.05025,17.364L7.34314,16.6569L6.6360399999999995,15.9498L9.06038,13.5254L9.767489999999999,14.2325L10.47459,14.9396ZM9.06038,13.5254Q9.13002,13.4558,9.21192,13.401Q9.29381,13.3463,9.3848,13.3086Q9.4758,13.2709,9.57239,13.2517Q9.66899,13.2325,9.767489999999999,13.2325Q9.86598,13.2325,9.96257,13.2517Q10.05917,13.2709,10.15017,13.3086Q10.24116,13.3463,10.32306,13.401Q10.40495,13.4558,10.47459,13.5254Q10.54424,13.5951,10.59895,13.6769Q10.65367,13.7588,10.69136,13.8498Q10.72906,13.9408,10.74827,14.0374Q10.767489999999999,14.134,10.767489999999999,14.2325Q10.767489999999999,14.331,10.74827,14.4276Q10.72906,14.5242,10.69136,14.6152Q10.65367,14.7062,10.59895,14.7881Q10.54424,14.87,10.47459,14.9396L8.05025,17.364Q7.98061,17.4336,7.8987099999999995,17.488300000000002Q7.81682,17.543,7.72583,17.5807Q7.63483,17.6184,7.53823,17.6376Q7.44163,17.6569,7.34314,17.6569Q7.24465,17.6569,7.14805,17.6376Q7.05145,17.6184,6.96046,17.5807Q6.86946,17.543,6.7875700000000005,17.488300000000002Q6.70568,17.4336,6.6360399999999995,17.364Q6.56639,17.2943,6.5116700000000005,17.212400000000002Q6.45695,17.130499999999998,6.4192599999999995,17.0395Q6.38157,16.9485,6.36236,16.8519Q6.34314,16.7553,6.34314,16.6569Q6.34314,16.5584,6.36236,16.4618Q6.38157,16.3652,6.4192599999999995,16.2742Q6.45695,16.1832,6.5116700000000005,16.101300000000002Q6.56639,16.019399999999997,6.6360399999999995,15.9498L9.06038,13.5254ZM14,15.5714L14,19L13,19L12,19L12,15.5714L13,15.5714L14,15.5714ZM12,15.5714Q12,15.4729,12.019210000000001,15.3763Q12.03843,15.2797,12.07612,15.1887Q12.11381,15.0978,12.16853,15.0159Q12.22325,14.934,12.29289,14.8643Q12.36254,14.7947,12.44443,14.74Q12.52632,14.6852,12.61732,14.6475Q12.70831,14.6099,12.80491,14.5906Q12.90151,14.5714,13,14.5714Q13.09849,14.5714,13.19509,14.5906Q13.29169,14.6099,13.38268,14.6475Q13.47368,14.6852,13.55557,14.74Q13.63746,14.7947,13.70711,14.8643Q13.77675,14.934,13.83147,15.0159Q13.88619,15.0978,13.92388,15.1887Q13.96157,15.2797,13.98078,15.3763Q14,15.4729,14,15.5714L14,19Q14,19.0985,13.98078,19.1951Q13.96157,19.2917,13.92388,19.3827Q13.88619,19.4737,13.83147,19.5556Q13.77675,19.6375,13.70711,19.7071Q13.63746,19.7767,13.55557,19.8315Q13.47368,19.8862,13.38268,19.9239Q13.29169,19.9616,13.19509,19.9808Q13.09849,20,13,20Q12.90151,20,12.80491,19.9808Q12.70831,19.9616,12.61732,19.9239Q12.52632,19.8862,12.44443,19.8315Q12.36254,19.7767,12.29289,19.7071Q12.22325,19.6375,12.16853,19.5556Q12.11381,19.4737,12.07612,19.3827Q12.03843,19.2917,12.019210000000001,19.1951Q12,19.0985,12,19L12,15.5714ZM16.9396,13.5254L19.364,15.9498L18.6569,16.6569L17.9498,17.364L15.5254,14.9396L16.2325,14.2325L16.9396,13.5254ZM15.5254,14.9396Q15.4558,14.87,15.401,14.7881Q15.3463,14.7062,15.3086,14.6152Q15.2709,14.5242,15.2517,14.4276Q15.2325,14.331,15.2325,14.2325Q15.2325,14.134,15.2517,14.0374Q15.2709,13.9408,15.3086,13.8498Q15.3463,13.7588,15.401,13.6769Q15.4558,13.5951,15.5254,13.5254Q15.5951,13.4558,15.6769,13.401Q15.7588,13.3463,15.8498,13.3086Q15.9408,13.2709,16.037399999999998,13.2517Q16.134,13.2325,16.2325,13.2325Q16.331,13.2325,16.427599999999998,13.2517Q16.5242,13.2709,16.6152,13.3086Q16.706200000000003,13.3463,16.7881,13.401Q16.869999999999997,13.4558,16.9396,13.5254L19.364,15.9498Q19.4336,16.019399999999997,19.488300000000002,16.101300000000002Q19.543,16.1832,19.5807,16.2742Q19.6184,16.3652,19.6376,16.4618Q19.6569,16.5584,19.6569,16.6569Q19.6569,16.7553,19.6376,16.8519Q19.6184,16.9485,19.5807,17.0395Q19.543,17.130499999999998,19.488300000000002,17.212400000000002Q19.4336,17.2943,19.364,17.364Q19.2943,17.4336,19.212400000000002,17.488300000000002Q19.130499999999998,17.543,19.0395,17.5807Q18.9485,17.6184,18.8519,17.6376Q18.7553,17.6569,18.6569,17.6569Q18.5584,17.6569,18.4618,17.6376Q18.3652,17.6184,18.2742,17.5807Q18.1832,17.543,18.101300000000002,17.488300000000002Q18.019399999999997,17.4336,17.9498,17.364L15.5254,14.9396ZM17.5714,10L21,10L21,11L21,12L17.5714,12L17.5714,11L17.5714,10ZM17.5714,12Q17.4729,12,17.3763,11.98078Q17.2797,11.96157,17.1887,11.92388Q17.0978,11.88619,17.015900000000002,11.83147Q16.933999999999997,11.77675,16.8643,11.70711Q16.7947,11.63746,16.740000000000002,11.55557Q16.685200000000002,11.47368,16.6475,11.38268Q16.6099,11.29169,16.590600000000002,11.19509Q16.5714,11.09849,16.5714,11Q16.5714,10.90151,16.590600000000002,10.80491Q16.6099,10.70831,16.6475,10.61732Q16.685200000000002,10.52632,16.740000000000002,10.44443Q16.7947,10.36254,16.8643,10.29289Q16.933999999999997,10.22325,17.015900000000002,10.16853Q17.0978,10.11381,17.1887,10.07612Q17.2797,10.03843,17.3763,10.019210000000001Q17.4729,10,17.5714,10L21,10Q21.0985,10,21.1951,10.01922Q21.2917,10.03843,21.3827,10.07612Q21.4737,10.11381,21.5556,10.16853Q21.6375,10.22325,21.7071,10.29289Q21.7767,10.36254,21.8315,10.44443Q21.8862,10.52632,21.9239,10.61732Q21.9616,10.70831,21.9808,10.80491Q22,10.90151,22,11Q22,11.09849,21.9808,11.19509Q21.9616,11.29169,21.9239,11.38268Q21.8862,11.47368,21.8315,11.55557Q21.7767,11.63746,21.7071,11.70711Q21.6375,11.77675,21.5556,11.83147Q21.4737,11.88619,21.3827,11.92388Q21.2917,11.96157,21.1951,11.98078Q21.0985,12,21,12L17.5714,12ZM15.5254,7.06038L17.9498,4.6360399999999995L18.6569,5.34314L19.364,6.05025L16.9396,8.47459L16.2325,7.76749L15.5254,7.06038ZM16.9396,8.47459Q16.869999999999997,8.54424,16.7881,8.59895Q16.706200000000003,8.65367,16.6152,8.69136Q16.5242,8.72906,16.427599999999998,8.74827Q16.331,8.767489999999999,16.2325,8.767489999999999Q16.134,8.767489999999999,16.037399999999998,8.74827Q15.9408,8.72906,15.8498,8.69136Q15.7588,8.65367,15.6769,8.59895Q15.5951,8.54424,15.5254,8.47459Q15.4558,8.40495,15.401,8.32306Q15.3463,8.24116,15.3086,8.15017Q15.2709,8.05917,15.2517,7.96257Q15.2325,7.86598,15.2325,7.76748Q15.2325,7.66899,15.2517,7.57239Q15.2709,7.4758,15.3086,7.3848Q15.3463,7.29381,15.401,7.21192Q15.4558,7.13002,15.5254,7.06038L17.9498,4.6360399999999995Q18.019399999999997,4.56639,18.101300000000002,4.5116700000000005Q18.1832,4.45695,18.2742,4.4192599999999995Q18.3652,4.38157,18.4618,4.36236Q18.5584,4.34314,18.6569,4.34314Q18.7553,4.34314,18.8519,4.36236Q18.9485,4.38157,19.0395,4.4192599999999995Q19.130499999999998,4.45695,19.212400000000002,4.5116700000000005Q19.2943,4.56639,19.364,4.6360399999999995Q19.4336,4.70568,19.488300000000002,4.7875700000000005Q19.543,4.86947,19.5807,4.96046Q19.6184,5.05145,19.6376,5.14805Q19.6569,5.24465,19.6569,5.34314Q19.6569,5.44163,19.6376,5.53823Q19.6184,5.63483,19.5807,5.72583Q19.543,5.81682,19.488300000000002,5.8987099999999995Q19.4336,5.98061,19.364,6.05025L16.9396,8.47459ZM12,6.428570000000001L12,3L13,3L14,3L14,6.428570000000001L13,6.428570000000001L12,6.428570000000001ZM14,6.428570000000001Q14,6.5270600000000005,13.98078,6.62366Q13.96157,6.72026,13.92388,6.811249999999999Q13.88619,6.90225,13.83147,6.98414Q13.77675,7.06603,13.70711,7.13568Q13.63746,7.20532,13.55557,7.26004Q13.47368,7.31476,13.38268,7.35245Q13.29169,7.39014,13.19509,7.40936Q13.09849,7.42857,13,7.42857Q12.90151,7.42857,12.80491,7.40936Q12.70831,7.39014,12.61732,7.35245Q12.52632,7.31476,12.44443,7.26004Q12.36254,7.20532,12.29289,7.13568Q12.22325,7.06603,12.16853,6.98414Q12.11381,6.90225,12.07612,6.811249999999999Q12.03843,6.72026,12.019210000000001,6.62366Q12,6.5270600000000005,12,6.428570000000001L12,3Q12,2.9015086,12.019210000000001,2.80491Q12.03843,2.708311,12.07612,2.617317Q12.11381,2.526322,12.16853,2.44443Q12.22325,2.362537,12.29289,2.292893Q12.36254,2.223249,12.44443,2.16853Q12.52632,2.1138120000000002,12.61732,2.076121Q12.70831,2.03843,12.80491,2.019215Q12.90151,2,13,2Q13.09849,2,13.19509,2.019215Q13.29169,2.03843,13.38268,2.076121Q13.47368,2.1138120000000002,13.55557,2.16853Q13.63746,2.223249,13.70711,2.292893Q13.77675,2.362537,13.83147,2.44443Q13.88619,2.526322,13.92388,2.617317Q13.96157,2.708311,13.98078,2.80491Q14,2.9015086,14,3L14,6.428570000000001ZM10.767489999999999,7.76749Q10.767489999999999,7.86598,10.74827,7.96258Q10.72906,8.05917,10.69136,8.15017Q10.65367,8.24116,10.59895,8.32306Q10.54424,8.40495,10.47459,8.47459Q10.40495,8.54424,10.32305,8.59895Q10.24116,8.65367,10.15017,8.69136Q10.05917,8.72906,9.962579999999999,8.74827Q9.86598,8.767489999999999,9.767489999999999,8.767489999999999Q9.66899,8.767489999999999,9.57239,8.74827Q9.4758,8.72906,9.3848,8.69136Q9.29381,8.65367,9.21192,8.59895Q9.13002,8.54424,9.06038,8.47459Q8.99073,8.40495,8.93602,8.32305Q8.8813,8.24116,8.84361,8.15017Q8.80591,8.05917,8.7867,7.96258Q8.76749,7.86598,8.76749,7.76749Q8.76749,7.66899,8.7867,7.57239Q8.80591,7.4758,8.84361,7.3848Q8.8813,7.29381,8.93602,7.21192Q8.99073,7.13002,9.06038,7.06038Q9.13002,6.99073,9.21192,6.93602Q9.29381,6.8812999999999995,9.3848,6.84361Q9.4758,6.80591,9.57239,6.7867Q9.66899,6.7674900000000004,9.767489999999999,6.7674900000000004Q9.86598,6.7674900000000004,9.962579999999999,6.7867Q10.05917,6.80591,10.15017,6.84361Q10.24116,6.8812999999999995,10.32306,6.93602Q10.40495,6.99073,10.47459,7.06038Q10.54424,7.13002,10.59895,7.21192Q10.65367,7.29381,10.69136,7.3848Q10.72906,7.4758,10.74827,7.57239Q10.767489999999999,7.66899,10.767489999999999,7.76749ZM8.34314,5.34314Q8.34314,5.44163,8.32393,5.53823Q8.30471,5.63483,8.26702,5.72583Q8.229330000000001,5.81682,8.17461,5.8987099999999995Q8.11989,5.98061,8.05025,6.05025Q7.98061,6.11989,7.8987099999999995,6.1746099999999995Q7.81682,6.22933,7.72583,6.2670200000000005Q7.63483,6.30471,7.53823,6.32393Q7.44163,6.34314,7.34314,6.34314Q7.24465,6.34314,7.14805,6.32393Q7.05145,6.30471,6.96046,6.2670200000000005Q6.86946,6.22933,6.7875700000000005,6.1746099999999995Q6.70568,6.11989,6.6360399999999995,6.05025Q6.56639,5.98061,6.5116700000000005,5.8987099999999995Q6.45695,5.81682,6.4192599999999995,5.72583Q6.38157,5.63483,6.36236,5.53823Q6.34314,5.44163,6.34314,5.34314Q6.34314,5.24465,6.36236,5.14805Q6.38157,5.05145,6.4192599999999995,4.96046Q6.45695,4.86946,6.5116700000000005,4.7875700000000005Q6.56639,4.70568,6.6360399999999995,4.6360399999999995Q6.70568,4.56639,6.7875700000000005,4.5116700000000005Q6.86946,4.45695,6.96046,4.4192599999999995Q7.05145,4.38157,7.14805,4.36236Q7.24465,4.34314,7.34314,4.34314Q7.44163,4.34314,7.53823,4.36236Q7.63483,4.38157,7.72583,4.4192599999999995Q7.81682,4.45695,7.8987099999999995,4.5116700000000005Q7.98061,4.56639,8.05025,4.6360399999999995Q8.11989,4.70568,8.17461,4.7875700000000005Q8.229330000000001,4.86946,8.26702,4.96046Q8.30471,5.05145,8.32393,5.14805Q8.34314,5.24465,8.34314,5.34314Z" fill="currentColor" fill-opacity="1"/></g><g><path d="M3.292886,19.29290125L12.08568,10.49993125Q12.15533,10.43028725,12.23722,10.37556725Q12.31911,10.32084725,12.4101,10.28315525Q12.5011,10.24546325,12.5977,10.22624825Q12.69429,10.20703225,12.79279,10.20703125Q12.89128,10.20703125,12.98788,10.22624425Q13.08448,10.24545825,13.17547,10.28314825Q13.26647,10.32083825,13.34836,10.37555625Q13.43025,10.43027425,13.4999,10.49991725Q13.56954,10.56956125,13.62426,10.65145325Q13.67898,10.73334525,13.71667,10.82433925Q13.75436,10.91533225,13.77358,11.01193125Q13.79279,11.10853005,13.7928,11.20702147363Q13.7928,11.30551285,13.77358,11.40211225Q13.75437,11.49871125,13.71668,11.58970525Q13.67899,11.68070025,13.62427,11.76259325Q13.56955,11.84448625,13.49991,11.91413125L4.707114,20.70710125Q4.63747,20.77674125,4.555578,20.83146125Q4.473686,20.88618125,4.382692,20.923871249999998Q4.291699,20.961561250000003,4.1951,20.98078125Q4.0985012,21.00000125,4.00000977637,21.00000125Q3.9015184,21.00000125,3.804919,20.98079125Q3.70832,20.96157125,3.617326,20.92388125Q3.526331,20.88619125,3.444438,20.83147125Q3.362545,20.77676125,3.2929,20.70711125Q3.223256,20.63747125,3.168536,20.55558125Q3.113816,20.47368125,3.076124,20.38269125Q3.0384320000000002,20.29170125,3.0192170000000003,20.19510125Q3.000001,20.098501249999998,3,20.00001125Q3,19.90151125,3.019213,19.80492125Q3.038427,19.708321249999997,3.076117,19.61732125Q3.113807,19.52633125,3.168525,19.44444125Q3.223243,19.36254125,3.292886,19.29290125ZM5,20.00000125Q5,20.098491250000002,4.980785,20.19509125Q4.96157,20.29169125,4.923879,20.382681249999997Q4.886188,20.47368125,4.83147,20.55557125Q4.776751,20.63746125,4.707107,20.70711125Q4.637463,20.77675125,4.55557,20.83147125Q4.473678,20.88619125,4.382683,20.92388125Q4.291689,20.96157125,4.19509,20.98078125Q4.0984914,21.00000125,4,21.00000125Q3.9015086,21.00000125,3.80491,20.98078125Q3.708311,20.96157125,3.617317,20.92388125Q3.526322,20.88619125,3.44443,20.83147125Q3.362537,20.77675125,3.292893,20.70711125Q3.223249,20.63746125,3.16853,20.55557125Q3.1138120000000002,20.47368125,3.076121,20.382681249999997Q3.03843,20.29169125,3.019215,20.19509125Q3,20.098491250000002,3,20.00000125Q3,19.90151125,3.019215,19.80491125Q3.03843,19.70831125,3.076121,19.61731125Q3.1138120000000002,19.526321250000002,3.16853,19.44443125Q3.223249,19.36254125,3.292893,19.29289125Q3.362537,19.22325125,3.44443,19.16853125Q3.526322,19.11381125,3.617317,19.07612125Q3.708311,19.038431250000002,3.80491,19.019211249999998Q3.9015086,19.00000125,4,19.00000125Q4.0984914,19.00000125,4.19509,19.019211249999998Q4.291689,19.038431250000002,4.382683,19.07612125Q4.473678,19.11381125,4.55557,19.16853125Q4.637463,19.22325125,4.707107,19.29289125Q4.776751,19.36254125,4.83147,19.44443125Q4.886188,19.526321250000002,4.923879,19.61731125Q4.96157,19.70831125,4.980785,19.80491125Q5,19.90151125,5,20.00000125ZM13.7928,11.20703125Q13.7928,11.30552265,13.77358,11.40212125Q13.75437,11.49872025,13.71667,11.58971425Q13.67898,11.68070925,13.62426,11.76260125Q13.56955,11.84449425,13.4999,11.91413825Q13.43026,11.98378225,13.34837,12.03850125Q13.26647,12.09321925,13.17548,12.13091025Q13.08449,12.16860125,12.98789,12.187816250000001Q12.89129,12.20703125,12.7928,12.20703125Q12.69431,12.20703125,12.59771,12.187816250000001Q12.50111,12.16860125,12.41011,12.13091025Q12.31912,12.09321925,12.23723,12.03850125Q12.15533,11.98378225,12.08569,11.91413825Q12.01605,11.84449425,11.96133,11.76260125Q11.90661,11.68070925,11.86892,11.58971425Q11.83123,11.49872025,11.81201,11.40212125Q11.7928,11.30552265,11.7928,11.20703125Q11.7928,11.10853985,11.81201,11.01194125Q11.83123,10.91534225,11.86892,10.82434825Q11.90661,10.73335325,11.96133,10.65146125Q12.01605,10.56956825,12.08569,10.49992425Q12.15533,10.43028025,12.23723,10.37556125Q12.31912,10.32084325,12.41011,10.28315225Q12.50111,10.24546125,12.59771,10.226246249999999Q12.69431,10.20703125,12.7928,10.20703125Q12.89129,10.20703125,12.98789,10.226246249999999Q13.08449,10.24546125,13.17548,10.28315225Q13.26647,10.32084325,13.34837,10.37556125Q13.43026,10.43028025,13.4999,10.49992425Q13.56955,10.56956825,13.62426,10.65146125Q13.67898,10.73335325,13.71667,10.82434825Q13.75437,10.91534225,13.77358,11.01194125Q13.7928,11.10853985,13.7928,11.20703125Z" fill="currentColor" fill-opacity="1"/></g></g></svg>