<svg xmlns="http://www.w3.org/2000/svg" xmlns:xlink="http://www.w3.org/1999/xlink" fill="none" version="1.1" width="58" height="14" viewBox="0 0 58 14"><defs><clipPath id="master_svg0_8353_28029"><rect x="0" y="0" width="58" height="14" rx="0"/></clipPath></defs><g clip-path="url(#master_svg0_8353_28029)"><g><g></g><g><g><path d="M4.14166640625,1.342559814453125Q4.445636406249999,1.880314814453125,4.84245640625,2.670729814453125Q5.23927640625,3.461139814453125,5.66988640625,4.381739814453125Q6.10036640625,5.302729814453125,6.52273640625,6.264019814453125Q6.94509640625,7.225309814453125,7.31650640625,8.072759814453125Q7.68791640625,7.225569814453125,8.11014640625,6.264019814453125Q8.53237640625,5.302469814453125,8.96285640625,4.381739814453125Q9.39373640625,3.461269814453125,9.79055640625,2.670729814453125Q10.18737640625,1.880190814453125,10.49134640625,1.342563807403125L12.88286640625,1.342563807403125Q13.05116640625,2.467009814453125,13.19456640625,3.860209814453125Q13.33796640625,5.253399814453125,13.44736640625,6.760949814453125Q13.55686640625,8.268499814453126,13.64956640625,9.783379814453125Q13.74226640625,11.298259814453125,13.80916640625,12.635759814453126L11.24916640625,12.635759814453126Q11.19846640625,10.989989814453125,11.11446640625,9.050659814453125Q11.03036640625,7.111329814453125,10.86166640625,5.139559814453126Q10.55732640625,5.824119814453125,10.18590640625,6.655219814453125Q9.81449640625,7.486319814453125,9.45093640625,8.316899814453125Q9.08776640625,9.147999814453126,8.74974640625,9.905709814453125Q8.41172640625,10.663409814453125,8.17533640625,11.201039814453125L6.33955640625,11.201039814453125Q6.10263640625,10.663139814453125,5.76500640625,9.905709814453125Q5.42738640625,9.148269814453126,5.06355640625,8.316899814453125Q4.70038640625,7.485799814453125,4.32883640625,6.655219814453125Q3.95729640625,5.824629814453125,3.65306640625,5.139559814453126Q3.48464640625,7.111599814453125,3.40031640625,9.050659814453125Q3.31597640625,10.989729814453124,3.26555640625,12.635759814453126L0.70556640625,12.635759814453126Q0.77274590625,11.299819814453125,0.86520140625,9.783379814453125Q0.9576564062499999,8.266929814453125,1.0674014062500001,6.760949814453125Q1.17661940625,5.253789814453125,1.32015240625,3.860209814453125Q1.46368640625,2.466619814453125,1.6318344062499999,1.342559814453125L4.14166640625,1.342559814453125Z" fill="#141414" fill-opacity="1"/></g><g><path d="M15.33675643875,7.628436064453125C15.32046491875,6.860526064453125,15.45675221875,6.0968760644531255,15.73796621875,5.380326064453125C15.97674021875,4.781096064453125,16.33521821875,4.235026064453125,16.79220921875,3.7743860644531253C17.21923921875,3.351613064453125,17.73063921875,3.020393064453125,18.29421921875,2.801579064453125C18.84963921875,2.583496064453125,19.44173921875,2.471462071503125,20.03887921875,2.471466064453125Q22.12847921875,2.471466064453125,23.34168921875,3.728586064453125Q24.554899218750002,4.985706064453125,24.55449921875,7.426676064453125Q24.55449921875,7.665326064453125,24.53600921875,7.950036064453125Q24.51751921875,8.234756064453125,24.49861921875,8.454696064453124L18.19178921875,8.454696064453124C18.241559218749998,8.996956064453125,18.53601921875,9.488656064453124,18.99407921875,9.794376064453125Q19.702989218749998,10.289866064453125,20.89730921875,10.289866064453125C21.40129921875,10.290416064453126,21.90422921875,10.244336064453126,22.39944921875,10.152226064453124C22.81212921875,10.083096064453125,23.21575921875,9.969226064453125,23.60294921875,9.812696064453124L23.97542921875,12.033326064453124C23.78295921875,12.122856064453124,23.58325921875,12.196516064453125,23.378399218749998,12.253536064453124C23.10537921875,12.332566064453125,22.82817921875,12.396906064453125,22.54803921875,12.446266064453125Q22.090559218750002,12.528866064453124,21.56841921875,12.583866064453124C21.22104921875,12.620566064453126,20.87223921875,12.638866064453126,20.52348921875,12.638866064453126C19.73741921875,12.655766064453125,18.95529921875,12.524966064453125,18.21905921875,12.253536064453124C17.60611921875,12.022776064453126,17.05210921875,11.662566064453125,16.59611921875,11.198296064453125C16.16297021875,10.745256064453125,15.83787121875,10.203006064453124,15.64443921875,9.610936064453124C15.43474491875,8.970536064453125,15.33086583875,8.301206064453126,15.33675643875,7.628436064453125ZM21.86746921875,6.582366064453125C21.855199218750002,6.352006064453125,21.81445921875,6.1239760644531245,21.74615921875,5.903296064453125C21.68072921875,5.688896064453125,21.57290921875,5.489296064453125,21.428879218749998,5.315946064453125C21.27990921875,5.140166064453124,21.09568921875,4.996476064453125,20.88772921875,4.893856064453125C20.63441921875,4.776186064453125,20.35624921875,4.719586064453125,20.07625921875,4.7287260644531255C19.800409218749998,4.721766064453125,19.52641921875,4.774976064453125,19.27396921875,4.884556064453125C19.05967921875,4.981546064453125,18.86885921875,5.122316064453125,18.71418921875,5.297496064453124C18.56227921875,5.473366064453125,18.44523921875,5.675696064453125,18.36911921875,5.894006064453125C18.28886921875,6.117636064453125,18.22950921875,6.347996064453125,18.19178921875,6.582226064453125L21.86746921875,6.582366064453125Z" fill="#141414" fill-opacity="1"/></g><g><path d="M26.2197912371875,1.194414064453125L28.8107644921875,0.783966064453125L28.8107644921875,3.434806064453125L31.9236144921875,3.434806064453125L31.9236144921875,5.555486064453125L28.8107644921875,5.555486064453125L28.8107644921875,8.719606064453124Q28.8107644921875,9.523496064453125,29.0975744921875,10.001856064453126Q29.3843844921875,10.480206064453125,30.2538544921875,10.480726064453124C30.5425244921875,10.479826064453125,30.8305644921875,10.454076064453124,31.1146744921875,10.403786064453126C31.3904444921875,10.357826064453125,31.661184492187502,10.286246064453126,31.9232144921875,10.189996064453124L32.2883744921875,12.173966064453126C31.9493144921875,12.307666064453125,31.6005644921875,12.416266064453126,31.2450344921875,12.498866064453125C30.7825544921875,12.598166064453125,30.3098544921875,12.644166064453126,29.8365444921875,12.635666064453124C29.2381844921875,12.654066064453126,28.6418744921875,12.558166064453125,28.080574492187502,12.353466064453125C27.648144492187498,12.187666064453126,27.2653144921875,11.917066064453126,26.9676654921875,11.566866064453125C26.6791924921875,11.209466064453125,26.4797404921875,10.790766064453125,26.3852714921875,10.343996064453124C26.2703504921875,9.821466064453125,26.2148952621875,9.287976064453124,26.2199211471875,8.753366064453125L26.2197912371875,1.194414064453125Z" fill="#141414" fill-opacity="1"/></g><g><path d="M44.12176513671875,2.957794189453125L46.33693513671875,2.957794189453125L46.33693513671875,12.636894189453125L44.12176513671875,12.636894189453125L44.12176513671875,2.957794189453125Z" fill="#FEB338" fill-opacity="1"/></g><g><path d="M57.228613613281254,7.664402939453125C57.24508361328125,8.414032939453126,57.10988361328125,9.159392939453124,56.83086361328125,9.857162939453126C56.58507361328125,10.454742939453125,56.19815361328125,10.986172939453125,55.70213361328125,11.407502939453124C55.180683613281246,11.834992939453125,54.57319361328125,12.149172939453125,53.91955361328125,12.329402939453125C53.15300361328125,12.542962939453124,52.35909361328125,12.646442939453125,51.562443613281246,12.636622939453124Q50.96594361328125,12.636622939453124,50.17084361328125,12.587822939453124C49.64599361328125,12.555872939453126,49.12403061328125,12.488202939453124,48.60870361328125,12.385282939453125L48.60870361328125,2.957516939453125C49.13678661328125,2.862532939453125,49.67030361328125,2.799567639453125,50.20622361328125,2.768973639453125Q51.03698361328125,2.720299551453125,51.63335361328125,2.720040009453125C52.40709361328125,2.711550989453125,53.17848361328125,2.805509139453125,53.926743613281246,2.999386939453125C54.57293361328125,3.1657579394531252,55.17559361328125,3.465775939453125,55.69454361328125,3.879422939453125C56.19578361328125,4.2919729394531245,56.58596361328125,4.819632939453125,56.83059361328125,5.415762939453125C57.11284361328125,6.132122939453125,57.24812361328125,6.896362939453125,57.228613613281254,7.664402939453125ZM50.82427361328125,10.737072939453125Q50.98044361328125,10.751332939453125,51.18637361328125,10.758142939453124Q51.39229361328125,10.764942939453125,51.67631361328125,10.765072939453125Q53.337693613281246,10.765072939453125,54.14011361328125,9.940772939453126Q54.94253361328125,9.116472939453125,54.94240361328125,7.664132939453125Q54.94240361328125,6.141932939453125,54.17549361328125,5.359632939453125Q53.40859361328125,4.577332939453125,51.74734361328125,4.577462939453125Q51.52013361328125,4.577462939453125,51.27869361328125,4.5845329394531245C51.12675361328125,4.588582939453125,50.97513361328125,4.600242939453125,50.82440361328125,4.619472939453125L50.82427361328125,10.737072939453125Z" fill="#FEB338" fill-opacity="1"/></g><g><path d="M33.3022418990625,7.664402939453125C33.2858408390625,8.414012939453125,33.4209960390625,9.159352939453125,33.6998630390625,9.857162939453126C33.9457900390625,10.454702939453124,34.3327350390625,10.986112939453125,34.8287350390625,11.407502939453124C35.3501950390625,11.834972939453126,35.9576750390625,12.149152939453124,36.6113050390625,12.329402939453125C37.3779050390625,12.542982939453125,38.1718650390625,12.646452939453125,38.9685550390625,12.636622939453124Q39.5650550390625,12.636622939453124,40.360285039062504,12.587822939453124C40.8850850390625,12.555852939453125,41.4070050390625,12.488182939453125,41.922295039062504,12.385282939453125L41.922295039062504,2.957516939453125C41.3942150390625,2.862540939453125,40.8606950390625,2.799571639453125,40.3247650390625,2.768973639453125Q39.4940150390625,2.720299551453125,38.897645039062496,2.720040009453125C38.1239050390625,2.711542999453125,37.3525150390625,2.805505239453125,36.6042550390625,2.999386939453125C35.9580550390625,3.165804939453125,35.3553450390625,3.465819939453125,34.8363250390625,3.879422939453125C34.3351250390625,4.292012939453125,33.9449460390625,4.819662939453125,33.7002690390625,5.415762939453125C33.4181130390625,6.132152939453125,33.2828447390625,6.896362939453125,33.3022418990625,7.664402939453125ZM39.7067150390625,10.737072939453125Q39.5505450390625,10.751332939453125,39.3444750390625,10.758142939453124Q39.1384150390625,10.764942939453125,38.8545450390625,10.765072939453125Q37.1930250390625,10.765072939453125,36.3907350390625,9.940772939453126Q35.5884450390625,9.116472939453125,35.5883150390625,7.664132939453125Q35.5883150390625,6.141932939453125,36.3553550390625,5.359632939453125Q37.122395039062496,4.577332939453125,38.7835050390625,4.577462939453125Q39.0109850390625,4.577462939453125,39.2522950390625,4.5845329394531245C39.4042750390625,4.588582939453125,39.5559450390625,4.600242939453125,39.7067150390625,4.619472939453125L39.7067150390625,10.737072939453125Z" fill="#141414" fill-opacity="1"/></g></g></g></g></svg>