<svg xmlns="http://www.w3.org/2000/svg" xmlns:xlink="http://www.w3.org/1999/xlink" version="1.1" viewBox="0 0 24 24"><defs><clipPath id="master_svg0_1741_8175"><rect x="0" y="0" width="24" height="24" rx="0"/></clipPath></defs><g clip-path="url(#master_svg0_1741_8175)"><g><path d="M12,21.5L3,21.5Q2.9015086,21.5,2.80491,21.4808Q2.708311,21.4616,2.617317,21.4239Q2.526322,21.3862,2.44443,21.3315Q2.362537,21.2767,2.292893,21.2071Q2.223249,21.1375,2.16853,21.0556Q2.1138120000000002,20.9737,2.076121,20.8827Q2.03843,20.7917,2.019215,20.6951Q2,20.5985,2,20.5L2,3.5Q2,3.4015086,2.019215,3.30491Q2.03843,3.208311,2.076121,3.117317Q2.1138120000000002,3.026322,2.16853,2.94443Q2.223249,2.862537,2.292893,2.792893Q2.362537,2.723249,2.44443,2.66853Q2.526322,2.6138120000000002,2.617317,2.576121Q2.708311,2.53843,2.80491,2.519215Q2.9015086,2.5,3,2.5L11.99585,2.5Q12.09434,2.5,12.19094,2.519215Q12.28754,2.53843,12.37853,2.576121Q12.46953,2.6138120000000002,12.55142,2.66853Q12.63331,2.723249,12.70296,2.792893Q12.7726,2.862537,12.82732,2.94443Q12.88204,3.026322,12.91973,3.117317Q12.95742,3.208311,12.97663,3.30491Q12.99585,3.4015086,12.99585,3.5Q12.99585,3.5984914,12.97663,3.69509Q12.95742,3.791689,12.91973,3.882683Q12.88204,3.973678,12.82732,4.05557Q12.7726,4.137463,12.70296,4.207107Q12.63331,4.276751,12.55142,4.33147Q12.46953,4.386188,12.37853,4.423879Q12.28754,4.46157,12.19094,4.480785Q12.09434,4.5,11.99585,4.5L3,4.5L3,3.5L4,3.5L4,20.5L3,20.5L3,19.5L12,19.5Q12.09849,19.5,12.19509,19.5192Q12.29169,19.5384,12.38268,19.5761Q12.47368,19.6138,12.55557,19.6685Q12.63746,19.7232,12.70711,19.7929Q12.77675,19.8625,12.83147,19.9444Q12.88619,20.0263,12.92388,20.1173Q12.96157,20.2083,12.98078,20.3049Q13,20.4015,13,20.5Q13,20.5985,12.98078,20.6951Q12.96157,20.7917,12.92388,20.8827Q12.88619,20.9737,12.83147,21.0556Q12.77675,21.1375,12.70711,21.2071Q12.63746,21.2767,12.55557,21.3315Q12.47368,21.3862,12.38268,21.4239Q12.29169,21.4616,12.19509,21.4808Q12.09849,21.5,12,21.5ZM13,20.5Q13,20.5985,12.98078,20.6951Q12.96157,20.7917,12.92388,20.8827Q12.88619,20.9737,12.83147,21.0556Q12.77675,21.1375,12.70711,21.2071Q12.63746,21.2767,12.55557,21.3315Q12.47368,21.3862,12.38268,21.4239Q12.29169,21.4616,12.19509,21.4808Q12.09849,21.5,12,21.5Q11.90151,21.5,11.80491,21.4808Q11.70831,21.4616,11.61732,21.4239Q11.52632,21.3862,11.44443,21.3315Q11.36254,21.2767,11.29289,21.2071Q11.22325,21.1375,11.16853,21.0556Q11.11381,20.9737,11.07612,20.8827Q11.03843,20.7917,11.01921,20.6951Q11,20.5985,11,20.5Q11,20.4015,11.01921,20.3049Q11.03843,20.2083,11.07612,20.1173Q11.11381,20.0263,11.16853,19.9444Q11.22325,19.8625,11.29289,19.7929Q11.36254,19.7232,11.44443,19.6685Q11.52632,19.6138,11.61732,19.5761Q11.70831,19.5384,11.80491,19.5192Q11.90151,19.5,12,19.5Q12.09849,19.5,12.19509,19.5192Q12.29169,19.5384,12.38268,19.5761Q12.47368,19.6138,12.55557,19.6685Q12.63746,19.7232,12.70711,19.7929Q12.77675,19.8625,12.83147,19.9444Q12.88619,20.0263,12.92388,20.1173Q12.96157,20.2083,12.98078,20.3049Q13,20.4015,13,20.5ZM12.99585,3.5Q12.99585,3.5984914,12.97663,3.69509Q12.95742,3.791689,12.91973,3.882683Q12.88204,3.973678,12.82732,4.05557Q12.7726,4.137463,12.70296,4.207107Q12.63331,4.276751,12.55142,4.33147Q12.46953,4.386188,12.37853,4.423879Q12.28754,4.46157,12.19094,4.480785Q12.09434,4.5,11.99585,4.5Q11.89736,4.5,11.80076,4.480785Q11.70416,4.46157,11.61316,4.423879Q11.52217,4.386188,11.44028,4.33147Q11.35839,4.276751,11.28874,4.207107Q11.2191,4.137463,11.16438,4.05557Q11.10966,3.973678,11.07197,3.882683Q11.03428,3.791689,11.01506,3.69509Q10.99585,3.5984914,10.99585,3.5Q10.99585,3.4015086,11.01506,3.30491Q11.03428,3.208311,11.07197,3.117317Q11.10966,3.026322,11.16438,2.94443Q11.2191,2.862537,11.28874,2.792893Q11.35839,2.723249,11.44028,2.66853Q11.52217,2.6138120000000002,11.61316,2.576121Q11.70416,2.53843,11.80076,2.519215Q11.89736,2.5,11.99585,2.5Q12.09434,2.5,12.19094,2.519215Q12.28754,2.53843,12.37853,2.576121Q12.46953,2.6138120000000002,12.55142,2.66853Q12.63331,2.723249,12.70296,2.792893Q12.7726,2.862537,12.82732,2.94443Q12.88204,3.026322,12.91973,3.117317Q12.95742,3.208311,12.97663,3.30491Q12.99585,3.4015086,12.99585,3.5Z" fill-opacity="1"/></g><g><path d="M17.207107,6.792893L21.70711,11.29289Q21.77675,11.36254,21.83147,11.44443Q21.88619,11.52632,21.92388,11.61732Q21.961570000000002,11.70831,21.98078,11.80491Q22,11.90151,22,12Q22,12.09849,21.98078,12.19509Q21.961570000000002,12.29169,21.92388,12.38268Q21.88619,12.47368,21.83147,12.55557Q21.77675,12.63746,21.70711,12.70711L17.207107,17.20711Q17.137463,17.27675,17.05557,17.33147Q16.973678,17.38619,16.882683,17.42388Q16.791689,17.461570000000002,16.69509,17.48078Q16.5984914,17.5,16.5,17.5Q16.4015086,17.5,16.30491,17.48078Q16.208311,17.461570000000002,16.117317,17.42388Q16.026322,17.38619,15.94443,17.33147Q15.862537,17.27675,15.792893,17.20711Q15.723249,17.13746,15.66853,17.05557Q15.613812,16.97368,15.576121,16.88268Q15.53843,16.79169,15.519214999999999,16.69509Q15.5,16.598489999999998,15.5,16.5Q15.5,16.401510000000002,15.519214999999999,16.30491Q15.53843,16.20831,15.576121,16.11732Q15.613812,16.02632,15.66853,15.94443Q15.723249,15.86254,15.792893,15.79289L20.29289,11.29289L21,12L20.29289,12.70711L15.792893,8.207107Q15.723249,8.137463,15.66853,8.05557Q15.613812,7.973678,15.576121,7.882683Q15.53843,7.791689,15.519214999999999,7.69509Q15.5,7.5984914,15.5,7.5Q15.5,7.4015086,15.519214999999999,7.30491Q15.53843,7.208311,15.576121,7.117317Q15.613812,7.026322,15.66853,6.94443Q15.723249,6.862537,15.792893,6.792893Q15.862537,6.723249,15.94443,6.66853Q16.026322,6.613812,16.117317,6.576121Q16.208311,6.53843,16.30491,6.519215Q16.4015086,6.5,16.5,6.5Q16.5984914,6.5,16.69509,6.519215Q16.791689,6.53843,16.882683,6.576121Q16.973678,6.613812,17.05557,6.66853Q17.137463,6.723249,17.207107,6.792893ZM17.5,7.5Q17.5,7.5984914,17.480785,7.69509Q17.461570000000002,7.791689,17.423879,7.882683Q17.386188,7.973678,17.33147,8.05557Q17.276751,8.137463,17.207107,8.207107Q17.137463,8.276751,17.05557,8.33147Q16.973678,8.386188,16.882683,8.423879Q16.791689,8.46157,16.69509,8.480785000000001Q16.5984914,8.5,16.5,8.5Q16.4015086,8.5,16.30491,8.480785000000001Q16.208311,8.46157,16.117317,8.423879Q16.026322,8.386188,15.94443,8.33147Q15.862537,8.276751,15.792893,8.207107Q15.723249,8.137463,15.66853,8.05557Q15.613812,7.973678,15.576121,7.882683Q15.53843,7.791689,15.519214999999999,7.69509Q15.5,7.5984914,15.5,7.5Q15.5,7.4015086,15.519214999999999,7.30491Q15.53843,7.208311,15.576121,7.117317Q15.613812,7.026322,15.66853,6.94443Q15.723249,6.862537,15.792893,6.792893Q15.862537,6.723249,15.94443,6.66853Q16.026322,6.613812,16.117317,6.576121Q16.208311,6.53843,16.30491,6.519215Q16.4015086,6.5,16.5,6.5Q16.5984914,6.5,16.69509,6.519215Q16.791689,6.53843,16.882683,6.576121Q16.973678,6.613812,17.05557,6.66853Q17.137463,6.723249,17.207107,6.792893Q17.276751,6.862537,17.33147,6.94443Q17.386188,7.026322,17.423879,7.117317Q17.461570000000002,7.208311,17.480785,7.30491Q17.5,7.4015086,17.5,7.5ZM17.5,16.5Q17.5,16.598489999999998,17.480785,16.69509Q17.461570000000002,16.79169,17.423879,16.88268Q17.386188,16.97368,17.33147,17.05557Q17.276751,17.13746,17.207107,17.20711Q17.137463,17.27675,17.05557,17.33147Q16.973678,17.38619,16.882683,17.42388Q16.791689,17.461570000000002,16.69509,17.48078Q16.5984914,17.5,16.5,17.5Q16.4015086,17.5,16.30491,17.48078Q16.208311,17.461570000000002,16.117317,17.42388Q16.026322,17.38619,15.94443,17.33147Q15.862537,17.27675,15.792893,17.20711Q15.723249,17.13746,15.66853,17.05557Q15.613812,16.97368,15.576121,16.88268Q15.53843,16.79169,15.519214999999999,16.69509Q15.5,16.598489999999998,15.5,16.5Q15.5,16.401510000000002,15.519214999999999,16.30491Q15.53843,16.20831,15.576121,16.11732Q15.613812,16.02632,15.66853,15.94443Q15.723249,15.86254,15.792893,15.79289Q15.862537,15.72325,15.94443,15.66853Q16.026322,15.61381,16.117317,15.57612Q16.208311,15.53843,16.30491,15.51921Q16.4015086,15.5,16.5,15.5Q16.5984914,15.5,16.69509,15.51921Q16.791689,15.53843,16.882683,15.57612Q16.973678,15.61381,17.05557,15.66853Q17.137463,15.72325,17.207107,15.79289Q17.276751,15.86254,17.33147,15.94443Q17.386188,16.02632,17.423879,16.11732Q17.461570000000002,16.20831,17.480785,16.30491Q17.5,16.401510000000002,17.5,16.5Z" fill-opacity="1"/></g><g><path d="M21,12.995849609375L8,12.995849609375Q7.9015086,12.995849609375,7.80491,12.976634609375001Q7.708311,12.957419609375,7.617317,12.919728609375Q7.526322,12.882037609375,7.44443,12.827319609375Q7.362537,12.772600609375,7.292893,12.702956609375Q7.223249,12.633312609375,7.16853,12.551419609375Q7.113812,12.469527609375,7.076121,12.378532609375Q7.03843,12.287538609375,7.019215,12.190939609375Q7,12.094341009375,7,11.995849609375Q7,11.897358209375,7.019215,11.800759609375Q7.03843,11.704160609375,7.076121,11.613166609375Q7.113812,11.522171609375,7.16853,11.440279609375Q7.223249,11.358386609375,7.292893,11.288742609375Q7.362537,11.219098609375,7.44443,11.164379609375Q7.526322,11.109661609375,7.617317,11.071970609375Q7.708311,11.034279609375,7.80491,11.015064609374999Q7.9015086,10.995849609375,8,10.995849609375L21,10.995849609375Q21.0985,10.995849609375,21.1951,11.015064609374999Q21.2917,11.034279609375,21.3827,11.071970609375Q21.4737,11.109661609375,21.5556,11.164379609375Q21.6375,11.219098609375,21.7071,11.288742609375Q21.776699999999998,11.358386609375,21.8315,11.440279609375Q21.886200000000002,11.522171609375,21.9239,11.613166609375Q21.9616,11.704160609375,21.980800000000002,11.800759609375Q22,11.897358209375,22,11.995849609375Q22,12.094341009375,21.980800000000002,12.190939609375Q21.9616,12.287538609375,21.9239,12.378532609375Q21.886200000000002,12.469527609375,21.8315,12.551419609375Q21.776699999999998,12.633312609375,21.7071,12.702956609375Q21.6375,12.772600609375,21.5556,12.827319609375Q21.4737,12.882037609375,21.3827,12.919728609375Q21.2917,12.957419609375,21.1951,12.976634609375001Q21.0985,12.995849609375,21,12.995849609375ZM22,11.995849609375Q22,12.094341009375,21.980800000000002,12.190939609375Q21.9616,12.287538609375,21.9239,12.378532609375Q21.886200000000002,12.469527609375,21.8315,12.551419609375Q21.776699999999998,12.633312609375,21.7071,12.702956609375Q21.6375,12.772600609375,21.5556,12.827319609375Q21.4737,12.882037609375,21.3827,12.919728609375Q21.2917,12.957419609375,21.1951,12.976634609375001Q21.0985,12.995849609375,21,12.995849609375Q20.9015,12.995849609375,20.8049,12.976634609375001Q20.7083,12.957419609375,20.6173,12.919728609375Q20.5263,12.882037609375,20.4444,12.827319609375Q20.3625,12.772600609375,20.2929,12.702956609375Q20.2232,12.633312609375,20.1685,12.551419609375Q20.113799999999998,12.469527609375,20.0761,12.378532609375Q20.0384,12.287538609375,20.019199999999998,12.190939609375Q20,12.094341009375,20,11.995849609375Q20,11.897358209375,20.019199999999998,11.800759609375Q20.0384,11.704160609375,20.0761,11.613166609375Q20.113799999999998,11.522171609375,20.1685,11.440279609375Q20.2232,11.358386609375,20.2929,11.288742609375Q20.3625,11.219098609375,20.4444,11.164379609375Q20.5263,11.109661609375,20.6173,11.071970609375Q20.7083,11.034279609375,20.8049,11.015064609374999Q20.9015,10.995849609375,21,10.995849609375Q21.0985,10.995849609375,21.1951,11.015064609374999Q21.2917,11.034279609375,21.3827,11.071970609375Q21.4737,11.109661609375,21.5556,11.164379609375Q21.6375,11.219098609375,21.7071,11.288742609375Q21.776699999999998,11.358386609375,21.8315,11.440279609375Q21.886200000000002,11.522171609375,21.9239,11.613166609375Q21.9616,11.704160609375,21.980800000000002,11.800759609375Q22,11.897358209375,22,11.995849609375ZM9,11.995849609375Q9,12.094341009375,8.980785000000001,12.190939609375Q8.96157,12.287538609375,8.923879,12.378532609375Q8.886188,12.469527609375,8.83147,12.551419609375Q8.776751,12.633312609375,8.707107,12.702956609375Q8.637463,12.772600609375,8.55557,12.827319609375Q8.473678,12.882037609375,8.382683,12.919728609375Q8.291689,12.957419609375,8.19509,12.976634609375001Q8.0984914,12.995849609375,8,12.995849609375Q7.9015086,12.995849609375,7.80491,12.976634609375001Q7.708311,12.957419609375,7.617317,12.919728609375Q7.526322,12.882037609375,7.44443,12.827319609375Q7.362537,12.772600609375,7.292893,12.702956609375Q7.223249,12.633312609375,7.16853,12.551419609375Q7.113812,12.469527609375,7.076121,12.378532609375Q7.03843,12.287538609375,7.019215,12.190939609375Q7,12.094341009375,7,11.995849609375Q7,11.897358209375,7.019215,11.800759609375Q7.03843,11.704160609375,7.076121,11.613166609375Q7.113812,11.522171609375,7.16853,11.440279609375Q7.223249,11.358386609375,7.292893,11.288742609375Q7.362537,11.219098609375,7.44443,11.164379609375Q7.526322,11.109661609375,7.617317,11.071970609375Q7.708311,11.034279609375,7.80491,11.015064609374999Q7.9015086,10.995849609375,8,10.995849609375Q8.0984914,10.995849609375,8.19509,11.015064609374999Q8.291689,11.034279609375,8.382683,11.071970609375Q8.473678,11.109661609375,8.55557,11.164379609375Q8.637463,11.219098609375,8.707107,11.288742609375Q8.776751,11.358386609375,8.83147,11.440279609375Q8.886188,11.522171609375,8.923879,11.613166609375Q8.96157,11.704160609375,8.980785000000001,11.800759609375Q9,11.897358209375,9,11.995849609375Z" fill-opacity="1"/></g></g></svg>