<svg xmlns="http://www.w3.org/2000/svg" xmlns:xlink="http://www.w3.org/1999/xlink" version="1.1" viewBox="0 0 24 21.621387481689453"><g><path d="M12.0026,0.00000109148C13.5392,-0.00127683,14.8466,1.11974,15.0797,2.63862C15.3129,4.1575,14.402,5.61904,12.9358,6.07877C12.9358,6.07877,12.9358,9.4401,12.9358,9.4401C14.019,9.69717,14.9485,10.3893,15.5052,11.3535C16.0619,12.3176,16.1967,13.4686,15.8778,14.5353C15.8778,14.5353,18.7893,16.215,18.7893,16.215C19.9218,15.1806,21.6391,15.1257,22.8354,16.0855C24.0317,17.0454,24.3502,18.7337,23.5859,20.0635C22.8187,21.3948,21.1943,21.9665,19.7623,21.4091C18.3304,20.8517,17.5201,19.3322,17.8549,17.8325C17.8549,17.8325,14.9433,16.1516,14.9433,16.1516C14.1801,16.962,13.1158,17.4209,12.0026,17.4195C10.8889,17.4207,9.82433,16.9614,9.06117,16.1503C9.06117,16.1503,6.14963,17.8319,6.14963,17.8319C6.48059,19.3302,5.66999,20.8461,4.24014,21.4029C2.81029,21.9597,1.18803,21.3911,0.418628,20.0635C-0.351288,18.7333,-0.0343105,17.0402,1.16467,16.0786C2.36364,15.117,4.08517,15.1753,5.21644,16.2156C5.21644,16.2156,8.12798,14.5353,8.12798,14.5353C7.80906,13.4687,7.94375,12.3178,8.50034,11.3536C9.05693,10.3895,9.98623,9.69731,11.0694,9.4401C11.0694,9.4401,11.0688,6.07877,11.0688,6.07877C9.60589,5.61594,8.69869,4.15591,8.93166,2.63936C9.16463,1.12281,10.4682,0.0024053,12.0026,0.00000109148C12.0026,0.00000109148,12.0026,0.00000109148,12.0026,0.00000109148ZM21.5148,17.4307C20.9197,17.087,20.1588,17.2909,19.8152,17.886C19.4716,18.4811,19.6755,19.2421,20.2706,19.5857C20.8657,19.9293,21.6266,19.7254,21.9702,19.1303C22.3138,18.5352,22.1099,17.7742,21.5148,17.4306C21.5148,17.4306,21.5148,17.4307,21.5148,17.4307ZM4.19056,17.886C3.84699,17.2909,3.08602,17.087,2.49091,17.4306C1.8958,17.7742,1.69191,18.5352,2.03551,19.1303C2.37909,19.7254,3.14006,19.9293,3.73517,19.5857C4.33028,19.2421,4.53417,18.4811,4.19057,17.886C4.19057,17.886,4.19056,17.886,4.19056,17.886ZM12.0026,11.1982C10.8,11.1982,9.82513,12.1731,9.82513,13.3757C9.82513,14.5782,10.8,15.5531,12.0026,15.5531C13.2051,15.5531,14.18,14.5782,14.18,13.3757C14.18,12.1731,13.2051,11.1982,12.0026,11.1982C12.0026,11.1982,12.0026,11.1982,12.0026,11.1982ZM12.0026,1.86637C11.3154,1.86637,10.7583,2.42344,10.7583,3.11062C10.7583,3.7978,11.3154,4.35487,12.0026,4.35487C12.6897,4.35487,13.2468,3.7978,13.2468,3.11062C13.2468,2.42344,12.6897,1.86637,12.0026,1.86637C12.0026,1.86637,12.0026,1.86637,12.0026,1.86637Z" fill-opacity="1"/></g></svg>