<svg xmlns="http://www.w3.org/2000/svg" xmlns:xlink="http://www.w3.org/1999/xlink"  version="1.1" viewBox="0 0 16.5 18.33333396911621"><g><path d="M3.20833,0L13.2917,0C13.5802,-1.09275e-7,13.8519,0.135845,14.025,0.366667L16.5,3.66667L16.5,17.4167C16.5,17.9229,16.0896,18.3333,15.5833,18.3333L0.916667,18.3333C0.410406,18.3333,0,17.9229,0,17.4167L0,3.66667L2.475,0.366667C2.64812,0.135845,2.91981,0,3.20833,0ZM14.2083,3.66667L12.8333,1.83333L3.66667,1.83333L2.29167,3.66667L14.2083,3.66667ZM5.5,7.33333L3.66667,7.33333L3.66667,9.16667C3.66667,11.698,5.71869,13.75,8.25,13.75C10.7813,13.75,12.8333,11.698,12.8333,9.16667L12.8333,7.33333L11,7.33333L11,9.16667C11,10.6855,9.76878,11.9167,8.25,11.9167C6.73122,11.9167,5.5,10.6855,5.5,9.16667L5.5,7.33333Z"  fill-opacity="1"/></g></svg>