<svg xmlns="http://www.w3.org/2000/svg" xmlns:xlink="http://www.w3.org/1999/xlink"  version="1.1" viewBox="0 0 20.001821517944336 26.31707763671875"><g><path d="M9.88413,6.5791C15.4528,6.51492,20.0018,10.952,20.0018,16.4477C20.0018,21.9435,15.4528,26.3806,9.88413,26.3164C4.4067,26.2533,0,21.8535,0,16.4477C5.72205e-7,11.042,4.4067,6.64222,9.88413,6.5791ZM11.0623,12.959C10.4122,12.3155,9.35605,12.3155,8.70595,12.959L6.34958,15.2844C5.69656,15.9261,5.69656,16.9694,6.34958,17.6111L8.70595,19.9365C9.35605,20.58,10.4122,20.58,11.0623,19.9365L13.4187,17.6111C14.0717,16.9694,14.0717,15.9261,13.4187,15.2844L11.0623,12.959ZM14.8846,0C15.8064,0,16.5509,0.736094,16.5509,1.64578L16.5509,4.93466L15.2419,6.22653C14.086,5.63815,12.8382,5.24558,11.5505,5.06519L11.5505,1.64578L8.21776,1.64578L8.21776,5.06385C6.9304,5.24523,5.68304,5.63871,4.52776,6.22787L3.21867,4.93466L3.21867,1.64578C3.21867,0.736095,3.96185,7.05845e-7,4.88367,7.05845e-7L14.8846,0Z" fill-opacity="1"/></g></svg>