<svg xmlns="http://www.w3.org/2000/svg" xmlns:xlink="http://www.w3.org/1999/xlink" fill="none" version="1.1" width="20" height="20" viewBox="0 0 20 20"><defs><clipPath id="master_svg0_3295_9509"><rect x="0" y="0" width="20" height="20" rx="0"/></clipPath></defs><g clip-path="url(#master_svg0_3295_9509)"><g><path d="M8.41023953125,2.25L11.58972953125,2.25C15.10166953125,2.25,17.948669531249998,5.09701,17.948669531249998,8.60897C17.948669531249998,11.64682,15.81846953125,14.1871,12.97036953125,14.8177C12.21446953125,14.985,11.58972953125,15.5955,11.58972953125,16.3697C11.58972953125,17.0308,10.92684953125,17.4866,10.31728953125,17.230600000000003C6.52694953125,15.6388,2.05126953125,13.2428,2.05126953125,8.60897C2.05126953125,5.09701,4.89827953125,2.25,8.41023953125,2.25Z" fill="#27CE4E" fill-opacity="1"/><path d="M1.30126953125,8.60897Q1.30126953125,5.66434,3.38343953125,3.58217Q5.46560953125,1.5,8.41023953125,1.5L11.58972953125,1.5Q14.53436953125,1.5,16.61656953125,3.58217Q18.69866953125,5.66434,18.69866953125,8.60897Q18.69866953125,11.13327,17.10966953125,13.089Q15.54396953125,15.0161,13.13246953125,15.5499Q12.33976953125,15.7254,12.33976953125,16.3697Q12.33976953125,17.2636,11.60397953125,17.764200000000002Q10.85849953125,18.2714,10.02688953125,17.9221Q1.30126953125,14.2577,1.30126953125,8.60897ZM2.80126953125,8.60897Q2.80126953125,13.2608,10.60768953125,16.539099999999998Q10.68823953125,16.573,10.76020953125,16.524Q10.83972953125,16.469900000000003,10.83972953125,16.3697Q10.83972953125,14.5212,12.80826953125,14.0854Q14.70936953125,13.6645,15.94546953125,12.14312Q17.198669531249998,10.60071,17.198669531249998,8.60897Q17.198669531249998,6.28566,15.55586953125,4.64283Q13.91306953125,3,11.58972953125,3L8.41023953125,3Q6.08692953125,3,4.44409953125,4.64283Q2.80126953125,6.28566,2.80126953125,8.60897Z" fill="#303133" fill-opacity="1"/></g></g></svg>