<svg xmlns="http://www.w3.org/2000/svg" xmlns:xlink="http://www.w3.org/1999/xlink" fill="none" version="1.1" width="20" height="20" viewBox="0 0 20 20"><defs><clipPath id="master_svg0_5731_9090"><rect x="0" y="0" width="20" height="20" rx="0"/></clipPath></defs><g clip-path="url(#master_svg0_5731_9090)"><g style="mix-blend-mode:passthrough"><path d="M13.2234,4.53427Q13.302,4.66925,13.4068,4.78514Q13.5115,4.90103,13.6379,4.99285Q13.7643,5.08467,13.9069,5.14847Q14.0495,5.21228,14.2021,5.24534L17.9446,6.05577Q17.9924,6.06612,18.0395,6.07957Q18.0865,6.09302,18.1326,6.1095Q18.1786,6.12599,18.2235,6.14544Q18.2684,6.16489,18.312,6.18723Q18.3555,6.20957,18.3975,6.23469Q18.4395,6.25982,18.4797,6.28763Q18.52,6.31543,18.5583,6.34581Q18.5967,6.37618,18.633,6.40899Q18.6693,6.44179,18.7034,6.47689Q18.7374,6.512,18.7692,6.54925Q18.8009,6.58649,18.8301,6.62573Q18.8593,6.66497,18.8859,6.70603Q18.9125,6.74708,18.9364,6.78979Q18.9603,6.83249,18.9813,6.87667Q19.0024,6.92084,19.0205,6.96628Q19.0386,7.01173,19.0537,7.058260000000001Q19.0689,7.1047899999999995,19.0809,7.15221Q19.093,7.199630000000001,19.1019,7.247730000000001Q19.1108,7.2958300000000005,19.1166,7.34441Q19.1224,7.393000000000001,19.125,7.4418500000000005Q19.1276,7.49071,19.1271,7.539630000000001Q19.1265,7.58855,19.1227,7.63733Q19.1189,7.686120000000001,19.112,7.7345500000000005Q19.1051,7.78298,19.095,7.83085Q19.0849,7.878729999999999,19.0717,7.9258500000000005Q19.0585,7.9729600000000005,19.0423,8.01912Q19.0261,8.06528,19.0069,8.11028Q18.9877,8.15529,18.9656,8.19895Q18.9435,8.2426,18.9186,8.28473Q18.8938,8.32685,18.8662,8.36726Q18.8386,8.40768,18.8084,8.44621Q18.7783,8.48474,18.7457,8.52122L16.1943,11.3767Q16.0902,11.4931,16.0124,11.6286Q15.9345,11.764,15.886299999999999,11.9126Q15.838000000000001,12.0611,15.8214,12.2165Q15.8047,12.3718,15.8205,12.5272L16.2062,16.3369Q16.2111,16.3856,16.2129,16.4345Q16.2146,16.4834,16.2132,16.5323Q16.2117,16.5812,16.2071,16.6299Q16.2025,16.6786,16.1947,16.7269Q16.1869,16.7752,16.176,16.8229Q16.1651,16.8706,16.1511,16.9175Q16.137,16.9644,16.12,17.0102Q16.103,17.0561,16.083,17.1008Q16.063,17.1454,16.0402,17.1887Q16.0173,17.2319,15.991700000000002,17.2736Q15.9661,17.3153,15.9378,17.3552Q15.909500000000001,17.3951,15.878699999999998,17.4331Q15.8478,17.4711,15.814599999999999,17.507Q15.781400000000001,17.5429,15.745899999999999,17.5766Q15.7103,17.6103,15.672699999999999,17.6415Q15.635100000000001,17.6728,15.595500000000001,17.7016Q15.555900000000001,17.7303,15.514600000000002,17.7564Q15.473199999999999,17.7826,15.4302,17.8059Q15.3872,17.8293,15.3428,17.8498Q15.2984,17.8703,15.2527,17.8879Q15.2071,17.9055,15.1604,17.92Q15.113700000000001,17.9346,15.066099999999999,17.9461Q15.0185,17.9576,14.9703,17.966Q14.9221,17.9743,14.8735,17.9795Q14.8248,17.9847,14.7759,17.9868Q14.7271,17.9888,14.6782,17.9876Q14.6292,17.9865,14.5805,17.9821Q14.5318,17.9778,14.4834,17.9702Q14.4351,17.9627,14.3873,17.9521Q14.3396,17.9414,14.2926,17.9277Q14.2457,17.914,14.1997,17.8972Q14.1537,17.8804,14.109,17.8607L10.6049,16.3165Q10.4619,16.2536,10.3091,16.2214Q10.1562,16.1892,10,16.1892Q9.8438,16.1892,9.6909,16.2214Q9.5381,16.2536,9.3951,16.3165L5.89103,17.8607Q5.84626,17.8804,5.8003,17.8972Q5.75434,17.914,5.70738,17.9277Q5.66042,17.9414,5.61267,17.9521Q5.56492,17.9627,5.51657,17.9702Q5.46822,17.9778,5.41949,17.9821Q5.37076,17.9865,5.32185,17.9876Q5.27294,17.9888,5.22405,17.9868Q5.17517,17.9847,5.12652,17.9795Q5.07787,17.9743,5.02967,17.966Q4.98146,17.9576,4.9339,17.9461Q4.88635,17.9346,4.83964,17.92Q4.79293,17.9055,4.74727,17.8879Q4.70161,17.8703,4.65719,17.8498Q4.61278,17.8293,4.56979,17.8059Q4.5268,17.7826,4.48543,17.7564Q4.44406,17.7303,4.40448,17.7016Q4.3649,17.6728,4.32727,17.6415Q4.28965,17.6103,4.25415,17.5766Q4.21864,17.5429,4.1854,17.507Q4.15217,17.4711,4.12134,17.4331Q4.09051,17.3951,4.06223,17.3552Q4.03394,17.3153,4.00832,17.2736Q3.9827000000000004,17.2319,3.95984,17.1887Q3.9369899999999998,17.1454,3.9170100000000003,17.1008Q3.8970200000000004,17.0561,3.8799900000000003,17.0102Q3.8629499999999997,16.9644,3.8489500000000003,16.9175Q3.8349399999999996,16.8706,3.82402,16.8229Q3.81309,16.7752,3.8053,16.7269Q3.79751,16.6786,3.7928800000000003,16.6299Q3.7882499999999997,16.5812,3.78681,16.5323Q3.7853700000000003,16.4834,3.78711,16.4345Q3.7888599999999997,16.3856,3.7937900000000004,16.3369L4.17952,12.5272Q4.19526,12.3718,4.17863,12.2165Q4.16201,12.0611,4.11374,11.9126Q4.06547,11.764,3.9876199999999997,11.6286Q3.90977,11.4931,3.8056900000000002,11.3767L1.2543099999999998,8.52122Q1.2217099999999999,8.48474,1.1915499999999999,8.44621Q1.1614,8.40768,1.13382,8.36727Q1.1062500000000002,8.32685,1.08136,8.28473Q1.05648,8.2426,1.0343900000000001,8.19895Q1.0123000000000002,8.15529,0.9931099999999999,8.11029Q0.97391,8.06528,0.9576899999999999,8.01912Q0.94147,7.97297,0.9282900000000001,7.9258500000000005Q0.9151100000000001,7.878729999999999,0.90503,7.83085Q0.8949499999999999,7.78298,0.88801,7.7345500000000005Q0.88107,7.686120000000001,0.8773,7.63734Q0.8735299999999999,7.58855,0.8729499999999999,7.539630000000001Q0.8723700000000001,7.49071,0.87497,7.4418500000000005Q0.87758,7.393000000000001,0.88337,7.34441Q0.8891500000000001,7.2958300000000005,0.89809,7.247730000000001Q0.90703,7.199630000000001,0.9190799999999999,7.15221Q0.9311400000000001,7.1047899999999995,0.9462600000000001,7.058260000000001Q0.9613799999999999,7.01173,0.9795,6.96628Q0.9976100000000001,6.92084,1.0186600000000001,6.87667Q1.0396999999999998,6.8325,1.06357,6.78979Q1.08745,6.74709,1.1140599999999998,6.70603Q1.14067,6.66497,1.16989,6.62573Q1.1991200000000002,6.58649,1.2308400000000002,6.54925Q1.2625600000000001,6.512,1.29664,6.47689Q1.33073,6.44179,1.3670200000000001,6.40899Q1.40332,6.37618,1.4416799999999999,6.34581Q1.4800300000000002,6.31543,1.5202900000000001,6.28763Q1.56054,6.25982,1.6025299999999998,6.23469Q1.64451,6.20957,1.68804,6.18723Q1.73157,6.16489,1.7764600000000002,6.14544Q1.8213499999999998,6.12599,1.86742,6.1095Q1.9134799999999998,6.09302,1.9605199999999998,6.07957Q2.00756,6.06612,2.05538,6.05577L5.79787,5.24534Q5.95055,5.21228,6.09313,5.14847Q6.23571,5.08467,6.36209,4.99285Q6.48847,4.90103,6.59321,4.78514Q6.69796,4.66925,6.77658,4.53427L8.70383,1.22538Q8.72846,1.1831,8.75578,1.1425200000000002Q8.78311,1.10194,8.81302,1.0632199999999998Q8.84294,1.0245099999999998,8.87531,0.9878199999999999Q8.90768,0.9511400000000001,8.94238,0.9166399999999999Q8.97707,0.8821399999999999,9.0139,0.84998Q9.0508,0.81782,9.0897,0.78813Q9.1286,0.75844,9.1693,0.7313400000000001Q9.2101,0.70425,9.2525,0.67987Q9.2949,0.6554800000000001,9.3388,0.63392Q9.3827,0.61235,9.428,0.59369Q9.4732,0.5750299999999999,9.5195,0.5593600000000001Q9.5659,0.54369,9.6132,0.5310699999999999Q9.6604,0.5184599999999999,9.7084,0.50894Q9.7564,0.49943000000000004,9.8049,0.4930699999999999Q9.8534,0.48671,9.9023,0.48351999999999995Q9.9511,0.4803299999999999,10,0.4803299999999999Q10.0489,0.4803299999999999,10.0977,0.48351999999999995Q10.1466,0.48671,10.1951,0.4930699999999999Q10.2436,0.49943000000000004,10.2916,0.50894Q10.3396,0.5184599999999999,10.3868,0.5310699999999999Q10.4341,0.54369,10.4805,0.5593600000000001Q10.5268,0.5750299999999999,10.572,0.59369Q10.6173,0.61235,10.6612,0.63392Q10.7051,0.6554800000000001,10.7475,0.67987Q10.7899,0.70425,10.8307,0.7313400000000001Q10.8714,0.75844,10.9103,0.78813Q10.9492,0.81782,10.9861,0.84998Q11.0229,0.8821399999999999,11.0576,0.9166399999999999Q11.0923,0.9511400000000001,11.1247,0.9878199999999999Q11.1571,1.0245099999999998,11.187,1.0632199999999998Q11.2169,1.10194,11.2442,1.1425200000000002Q11.2715,1.1831,11.2962,1.22538L13.2234,4.53427Z" fill="#FFDC51" fill-opacity="1"/><path d="M14.2021,5.24534Q14.0495,5.21228,13.9069,5.14847Q13.7643,5.08467,13.6379,4.99285Q13.5115,4.90103,13.4068,4.78514Q13.302,4.66925,13.2234,4.53427L11.2962,1.22538Q11.1971,1.05537,11.0576,0.9166399999999999Q10.9181,0.77792,10.7475,0.67987Q10.5769,0.58182,10.3868,0.5310699999999999Q10.1968,0.4803299999999999,10,0.4803299999999999Q9.8032,0.4803299999999999,9.6132,0.5310699999999999Q9.4231,0.58182,9.2525,0.67987Q9.0819,0.77792,8.94238,0.9166399999999999Q8.80286,1.05537,8.70383,1.22538L6.77658,4.53427Q6.69796,4.66925,6.59321,4.78514Q6.48847,4.90103,6.36209,4.99285Q6.23571,5.08467,6.09313,5.14847Q5.95055,5.21228,5.79787,5.24534L2.05538,6.05577Q1.8630900000000001,6.09741,1.68804,6.18723Q1.5129899999999998,6.27705,1.3670200000000001,6.40899Q1.22106,6.54092,1.1140599999999998,6.70603Q1.00706,6.87114,0.9462600000000001,7.058260000000001Q0.8854599999999999,7.245380000000001,0.87497,7.4418500000000005Q0.86449,7.63833,0.90503,7.8308599999999995Q0.94557,8.02338,1.0343900000000001,8.19895Q1.1232099999999998,8.37451,1.2543099999999998,8.52122L3.8056900000000002,11.3767Q3.90977,11.4931,3.9876199999999997,11.6286Q4.06547,11.764,4.11374,11.9126Q4.16201,12.0611,4.17863,12.2165Q4.19526,12.3718,4.17952,12.5272L3.7937900000000004,16.3369Q3.7739700000000003,16.5327,3.8053,16.7269Q3.83664,16.9212,3.9170100000000003,17.1008Q3.99737,17.2804,4.12134,17.4331Q4.2453,17.5859,4.40448,17.7016Q4.56365,17.8172,4.74727,17.8879Q4.93089,17.9586,5.12652,17.9795Q5.32215,18.0005,5.51657,17.9702Q5.71099,17.94,5.89103,17.8607L9.3951,16.3165Q9.5381,16.2536,9.6909,16.2214Q9.8438,16.1892,10,16.1892Q10.1562,16.1892,10.3091,16.2214Q10.4619,16.2536,10.6049,16.3165L14.109,17.8607Q14.289,17.94,14.4834,17.9702Q14.6778,18.0005,14.8735,17.9795Q15.069099999999999,17.9586,15.2527,17.8879Q15.4363,17.8172,15.595500000000001,17.7016Q15.7547,17.5859,15.878699999999998,17.4331Q16.0026,17.2804,16.083,17.1008Q16.1634,16.9212,16.1947,16.7269Q16.226,16.5327,16.2062,16.3369L15.8205,12.5272Q15.8047,12.3718,15.8214,12.2164Q15.838000000000001,12.0611,15.886299999999999,11.9126Q15.9345,11.764,16.0124,11.6286Q16.0902,11.4931,16.1943,11.3767L18.7457,8.52122Q18.8768,8.37451,18.9656,8.19895Q19.0544,8.02338,19.095,7.83085Q19.1355,7.63832,19.125,7.4418500000000005Q19.1145,7.245380000000001,19.0537,7.058260000000001Q18.9929,6.87114,18.8859,6.70603Q18.7789,6.54092,18.633,6.40898Q18.487,6.27705,18.312,6.18723Q18.1369,6.09741,17.9446,6.05577L14.2021,5.24534ZM10,1.98033L11.9273,5.28922Q12.5926,6.43157,13.8847,6.71136L17.6272,7.521789999999999L15.075800000000001,10.3772Q14.1949,11.363,14.3281,12.6783L14.7138,16.4881L11.2097,14.9439Q10,14.4108,8.79025,14.9439L5.28616,16.4881L5.67189,12.6783Q5.80506,11.363,4.92423,10.3772L2.37284,7.521789999999999L6.11533,6.71136Q7.4073899999999995,6.43157,8.07275,5.28922L10,1.98033Z" fill-rule="evenodd" fill="#303133" fill-opacity="1"/></g></g></svg>