<svg xmlns="http://www.w3.org/2000/svg" xmlns:xlink="http://www.w3.org/1999/xlink" fill="none" version="1.1" width="20" height="20" viewBox="0 0 20 20"><defs><clipPath id="master_svg0_3295_9405"><rect x="0" y="0" width="20" height="20" rx="0"/></clipPath></defs><g clip-path="url(#master_svg0_3295_9405)"><g><path d="M13.6250580078125,2.75C16.0722580078125,2.75,18.0555580078125,4.70946,18.0555580078125,7.4527C18.0555580078125,12.21909,13.4957580078125,15.2108,10.9783680078125,16.6849C10.3558380078125,17.049500000000002,9.6441980078125,17.049500000000002,9.021658007812501,16.6849C6.5042680078125,15.2108,1.9444580078125,12.21909,1.9444580078125,7.4527C1.9444580078125,4.70946,3.9583480078125,2.75,6.3750180078125,2.75C7.8733480078125,2.75,9.1944580078125,3.533784,10.0000180078125,4.31757C10.8055680078125,3.533784,12.1266580078125,2.75,13.6250580078125,2.75Z" fill="#FC6D5E" fill-opacity="1"/><path d="M9.476998007812501,3.78002Q11.3064680078125,2,13.6250580078125,2Q15.8037580078125,2,17.2983580078125,3.55247Q18.8055580078125,5.1180699999999995,18.8055580078125,7.4527Q18.8055580078125,12.9708,11.3573480078125,17.3321Q10.0000080078125,18.1269,8.6426780078125,17.3321Q1.1944580078125,12.9708,1.1944580078125,7.4527Q1.1944580078125,5.1225000000000005,2.7144210078124997,3.551187Q4.2149180078125,2,6.3750180078125,2Q8.6935580078125,2,10.5230280078125,3.78002L10.0000180078125,4.31757L9.476998007812501,3.78002ZM10.5230280078125,4.85511L10.0000180078125,5.363989999999999L9.476998007812501,4.85511Q8.0842480078125,3.5,6.3750180078125,3.5Q4.8508780078125,3.5,3.7925480078125,4.59408Q2.6944580078125,5.72928,2.6944580078125,7.4527Q2.6944580078125,12.11087,9.4006280078125,16.0377Q10.0000080078125,16.3887,10.5993980078125,16.0377Q17.3055580078125,12.11087,17.3055580078125,7.4527Q17.3055580078125,5.722770000000001,16.2177580078125,4.5928Q15.1656580078125,3.5,13.6250580078125,3.5Q11.9157880078125,3.5,10.5230280078125,4.85511Z" fill="#303133" fill-opacity="1"/></g></g></svg>