<svg xmlns="http://www.w3.org/2000/svg" xmlns:xlink="http://www.w3.org/1999/xlink" fill="none" version="1.1" width="20" height="20" viewBox="0 0 20 20"><defs><clipPath id="master_svg0_3295_9453"><rect x="0" y="0" width="20" height="20" rx="0"/></clipPath></defs><g clip-path="url(#master_svg0_3295_9453)"><g><path d="M9,12.625L8.25026,12.625C8.25009,12.625,8.250160000000001,12.625,8.24999,12.625C5.56047,12.62398,3.07425,13.9938,1.6326100000000001,16.2267C1.520993,16.3996,1.250059458,16.337899999999998,1.250000447908,16.1321C1.249999769626,16.1297,1.2500000375521,16.1274,1.2500012517,16.125C1.2500012517,11.62764,4.64269,7.92294,9.00843,7.43056C9.55723,7.36866,10,6.92728,10,6.375L10,5.08063C10,4.24212,10.96993,3.775945,11.6247,4.29976L17.2859,8.828700000000001C18.0365,9.429179999999999,18.0365,10.570820000000001,17.2859,11.1713L11.6247,15.7002C10.96993,16.2241,10,15.7579,10,14.9194L10,13.625C10,13.0727,9.55229,12.625,9,12.625" fill="#FFC051" fill-opacity="1"/><path d="M9.25,14.9194L9.25,13.625Q9.25,13.375,9,13.375L8.25026,13.375L8.24999,13.375Q4.36749,13.3735,2.2626999999999997,16.633499999999998Q1.890468,17.2101,1.2249407,17.050800000000002Q0.500214,16.8774,0.500001,16.1323L0.500001,16.1249Q0.500001,12.48125,2.9344099999999997,9.77439Q5.35004,7.08841,8.92438,6.68529Q9.25,6.64856,9.25,6.375L9.25,5.08063Q9.25,3.980086,10.24192,3.5033440000000002Q11.23384,3.0266029,12.0932,3.714104L17.7544,8.24304Q18.5988,8.9186,18.5988,10Q18.5988,11.08141,17.7544,11.75695L12.0932,16.285899999999998Q11.23384,16.973399999999998,10.24192,16.4967Q9.25,16.0199,9.25,14.9194ZM10.75,14.9194Q10.75,15.0766,10.89171,15.1447Q11.03341,15.2128,11.15618,15.1146L16.8174,10.585650000000001Q17.0988,10.36047,17.0988,10Q17.0988,9.63953,16.8174,9.414349999999999L11.15618,4.88541Q11.03341,4.78719,10.89171,4.8553Q10.75,4.9234100000000005,10.75,5.08063L10.75,6.375Q10.75,7.98889,9.09248,8.17584Q6.08434,8.51511,4.049720000000001,10.777429999999999Q2.000001,13.0565,2.000001,16.1251L2,16.1319Q1.9998749999999998,15.6939,1.574001,15.592Q1.2064622,15.5041,1.002524,15.8199Q3.55067,11.87321,8.24999,11.875L8.25026,11.875L9,11.875Q10.75,11.875,10.75,13.625L10.75,14.9194Z" fill="#303133" fill-opacity="1"/></g></g></svg>