<svg xmlns="http://www.w3.org/2000/svg" xmlns:xlink="http://www.w3.org/1999/xlink" fill="none" version="1.1" width="34.58085632324219" height="27.999988555908203" viewBox="0 0 34.58085632324219 27.999988555908203"><g style="mix-blend-mode:passthrough"><g style="mix-blend-mode:passthrough" transform="matrix(0.9999999403953552,0,0,0.9999999403953552,0,0)"><g style="mix-blend-mode:passthrough"><path d="M14.5958251953125,5.375994727539062L21.3323451953125,5.375994727539062L22.2305451953125,4.4799957275390625L15.4940221953125,4.4799957275390625L14.5958251953125,5.375994727539062Z" fill="#F0ADAD" fill-opacity="1"/></g><g style="mix-blend-mode:passthrough"><path d="M4.491020202636719,0.895999L12.350300202636719,0.895999L13.248500202636718,0L5.3892242026367185,0L4.491020202636719,0.895999Z" fill="#F0ADAD" fill-opacity="1"/></g><g style="mix-blend-mode:passthrough"><path d="M12.350296020507812,0.895999L14.595816020507812,5.37599L15.494006020507813,4.48L13.248500020507812,0L12.350296020507812,0.895999Z" fill="#EB4B4B" fill-opacity="1"/></g><g style="mix-blend-mode:passthrough"><path d="M23.577865600585938,0.895999L31.437145600585936,0.895999L32.33534560058594,0L24.476069600585937,0L23.577865600585938,0.895999Z" fill="#F0ADAD" fill-opacity="1"/></g><g style="mix-blend-mode:passthrough"><path d="M31.4371337890625,0.895999L33.6826537890625,5.37599L34.5808437890625,4.48L32.3353377890625,0L31.4371337890625,0.895999Z" fill="#EB4B4B" fill-opacity="1"/></g><g style="mix-blend-mode:passthrough"><path d="M33.682647705078125,9.855985727539062L34.580851705078125,8.735995727539063L34.580851705078125,4.4799957275390625L33.682647705078125,5.375994727539062L33.682647705078125,9.855985727539062Z" fill="#EB4B4B" fill-opacity="1"/></g><g style="mix-blend-mode:passthrough"><path d="M2.245513916015625,5.37599609375L14.595813916015626,5.37599609375L12.350313916015624,0.89599609375L4.4910239160156245,0.89599609375L2.245513916015625,5.37599609375ZM21.332313916015625,5.37599609375L33.682613916015626,5.37599609375L31.437113916015626,0.89599609375L23.577813916015625,0.89599609375L21.332313916015625,5.37599609375ZM6.736533916015625,5.37599609375L33.682613916015626,5.37599609375L33.682613916015626,9.85599609375L4.4910239160156245,9.85599609375L4.4910239160156245,7.61599609375L6.736533916015625,7.61599609375L6.736533916015625,5.37599609375ZM4.4910239160156245,5.37599609375L4.4910239160156245,7.61599609375L2.245513916015625,7.61599609375L2.245513916015625,5.37599609375L4.4910239160156245,5.37599609375Z" fill-rule="evenodd" fill="#F06A6A" fill-opacity="1"/></g><g style="mix-blend-mode:passthrough"><rect x="0" y="9.855987548828125" width="2.245509147644043" height="2.2399978637695312" rx="0" fill="#F06A6A" fill-opacity="1"/></g></g><g style="mix-blend-mode:passthrough" transform="matrix(0.9999999403953552,0,0,0.9999999403953552,2.141486987738972e-7,6.275169539549097e-7)"><g style="mix-blend-mode:passthrough"><path d="M30.538947820663452,15.903977480163574L31.437151820663452,14.783987480163574L31.437151820663452,10.527987480163574L30.538947820663452,11.423986480163574L30.538947820663452,15.903977480163574Z" fill="#EBBD05" fill-opacity="1"/></g><g style="mix-blend-mode:passthrough"><path d="M3.5928189754486084,11.423986480163574L30.53891897544861,11.423986480163574L31.43711897544861,10.527987480163574L4.491022975448608,10.527987480163574L3.5928189754486084,11.423986480163574Z" fill="#FAECB6" fill-opacity="1"/></g><g style="mix-blend-mode:passthrough"><rect x="3.5928189754486084" y="11.423991203308105" width="26.94611358642578" height="4.4799957275390625" rx="0" fill="#F9D33F" fill-opacity="1"/></g></g><g style="mix-blend-mode:passthrough" transform="matrix(0.9999999403953552,0,0,0.9999999403953552,3.7475808767339913e-7,9.880071729639894e-7)"><g style="mix-blend-mode:passthrough"><path d="M26.49701499938965,21.951999750366213L27.395218999389648,20.83200975036621L27.395218999389648,16.57600975036621L26.49701499938965,17.47200875036621L26.49701499938965,21.951999750366213Z" fill="#00C281" fill-opacity="1"/></g><g style="mix-blend-mode:passthrough"><path d="M6.287397384643555,17.47200875036621L26.496997384643553,17.47200875036621L27.395197384643556,16.57600975036621L7.1856013846435545,16.57600975036621L6.287397384643555,17.47200875036621Z" fill="#A4EBD3" fill-opacity="1"/></g><g style="mix-blend-mode:passthrough"><rect x="6.287397384643555" y="17.47200584411621" width="20.209579467773438" height="4.4799957275390625" rx="0" fill="#08DB94" fill-opacity="1"/></g></g><g style="mix-blend-mode:passthrough" transform="matrix(0.9999999403953552,0,0,0.9999999403953552,6.424451726161351e-7,0.0000013484950613928959)"><g style="mix-blend-mode:passthrough"><path d="M19.76048183441162,27.999982919921877L20.65868583441162,26.879992919921875L20.65868583441162,22.623992919921875L19.76048183441162,23.519991919921875L19.76048183441162,27.999982919921877Z" fill="#527AFF" fill-opacity="1"/></g><g style="mix-blend-mode:passthrough"><path d="M10.778441429138184,23.519991919921875L19.76048142913818,23.519991919921875L20.658691429138184,22.623992919921875L11.676645429138183,22.623992919921875L10.778441429138184,23.519991919921875Z" fill="#B2C4FF" fill-opacity="1"/></g><g style="mix-blend-mode:passthrough"><rect x="10.778441429138184" y="23.519989013671875" width="8.982036590576172" height="4.4799957275390625" rx="0" fill="#678AFF" fill-opacity="1"/></g></g></g></svg>