<svg xmlns="http://www.w3.org/2000/svg" xmlns:xlink="http://www.w3.org/1999/xlink"  version="1.1" width="80" height="18" viewBox="0 0 80 18"><g style="mix-blend-mode:passthrough"><path d="M3.08911,18C4.84048,18,6.16942,16.7568,6.16942,15.0043C6.16942,13.2,4.84048,12.0345,3.08911,12.0345C1.35534,12.0345,0,13.2,0,15.0043C0,16.7568,1.35534,18,3.08911,18ZM27.8988,2.5295C25.7866,2.5295,23.9736,3.35827,22.8119,4.79137C21.791,3.24604,20.0836,2.5295,18.0858,2.5295C16.352,2.5295,14.8119,3.11655,13.703,4.28201L13.703,3.08201L8.80968,3.08201L8.80968,17.4475L13.9494,17.4475L13.9494,10.3252C13.9494,7.81295,15.0319,6.80288,16.5457,6.80288C17.9186,6.80288,18.7635,7.70935,18.7635,9.83309L18.7635,17.4475L23.8944,17.4475L23.8944,10.1094C23.8944,7.81295,24.9769,6.80288,26.4643,6.80288C27.8196,6.80288,28.6821,7.70935,28.6821,9.83309L28.6821,17.4475L33.8218,17.4475L33.8218,8.98705C33.8218,4.47194,31.3047,2.5295,27.8988,2.5295ZM51.9516,10.1266C51.9516,5.24029,48.44,2.5295,44.11,2.5295C39.4896,2.5295,36.0484,5.61151,36.0484,10.0748C36.0484,14.8489,39.4279,18,44.6469,18C47.4367,18,49.4874,17.2058,50.8955,15.6691L48.1936,12.6561C47.1903,13.6748,46.2486,14.1583,44.8141,14.1583C42.9219,14.1583,41.6458,13.1309,41.2145,11.3698L51.8724,11.3698C51.8988,10.9727,51.9516,10.4978,51.9516,10.1266ZM44.1364,6.11223C45.7294,6.11223,46.8647,7.1223,47.1375,8.71942L41.1353,8.71942C41.4345,7.1223,42.5435,6.11223,44.1364,6.11223ZM63.2783,13.6403C62.8383,13.9424,62.275,14.1065,61.703,14.1065C60.7877,14.1065,60.1628,13.5022,60.1628,12.4144L60.1628,7.50216L63.516,7.50216L63.516,3.73813L60.1628,3.73813L60.1628,0L55.0231,0L55.0231,3.73813L52.8933,3.73813L52.8933,7.50216L55.0231,7.50216L55.0231,12.4662C55.0231,16.2043,57.2145,18,60.9725,18C62.3278,18,63.6568,17.741,64.5457,17.1799L63.2783,13.6403ZM72.5105,2.5295C70.2046,2.5295,67.7228,3.11655,66.0418,4.20432L67.7756,7.67482C68.7789,6.87194,70.3454,6.37986,71.7536,6.37986C73.7778,6.37986,74.7811,7.23453,74.8603,8.74532L71.9384,8.74532C67.3971,8.74532,65.4257,10.3942,65.4257,13.3468C65.4257,16.0662,67.3707,18,70.8823,18C73.0209,18,74.4819,17.2921,75.2123,15.9108L75.2123,17.4475L80,17.4475L80,9.25468C80,4.60144,77.2629,2.5295,72.5105,2.5295ZM72.3168,14.823C71.1023,14.823,70.3982,14.0978,70.3982,13.0964C70.3982,12.0604,70.9967,11.3698,72.6425,11.3698L74.8603,11.3698L74.8603,12.846C74.4554,14.1928,73.4522,14.823,72.3168,14.823Z"  fill-opacity="1"/></g></svg>