<svg xmlns="http://www.w3.org/2000/svg" xmlns:xlink="http://www.w3.org/1999/xlink"  version="1.1" viewBox="0 0 86 17.935792922973633"><g style="mix-blend-mode:passthrough"><path d="M2.47853,17.9358C3.88373,17.9358,4.95,16.919,4.95,15.4855C4.95,14.0097,3.88373,13.0564,2.47853,13.0564C1.08745,13.0564,0,14.0097,0,15.4855C0,16.919,1.08745,17.9358,2.47853,17.9358ZM22.3844,5.28188C20.6897,5.28188,19.2351,5.95977,18.303,7.13195C17.4839,5.86797,16.114,5.28188,14.511,5.28188C13.12,5.28188,11.8842,5.76205,10.9945,6.71533L10.9945,5.73381L7.0684,5.73381L7.0684,17.4839L11.1922,17.4839L11.1922,11.6583C11.1922,9.60342,12.0608,8.77724,13.2753,8.77724C14.3769,8.77724,15.0548,9.51868,15.0548,11.2558L15.0548,17.4839L19.1715,17.4839L19.1715,11.4817C19.1715,9.60342,20.0401,8.77724,21.2334,8.77724C22.3209,8.77724,23.0129,9.51868,23.0129,11.2558L23.0129,17.4839L27.1367,17.4839L27.1367,10.5638C27.1367,6.87068,25.1172,5.28188,22.3844,5.28188ZM41.6831,11.4959C41.6831,7.49914,38.8656,5.28188,35.3914,5.28188C31.6842,5.28188,28.9232,7.80278,28.9232,11.4535C28.9232,15.3584,31.6348,17.9358,35.8222,17.9358C38.0606,17.9358,39.7059,17.2861,40.8357,16.0292L38.6679,13.5648C37.8629,14.3981,37.1073,14.7935,35.9563,14.7935C34.4381,14.7935,33.4142,13.9532,33.0682,12.5127L41.6195,12.5127C41.6407,12.1879,41.6831,11.7995,41.6831,11.4959ZM35.4126,8.21233C36.6907,8.21233,37.6016,9.03851,37.8205,10.3449L33.0047,10.3449C33.2448,9.03851,34.1345,8.21233,35.4126,8.21233ZM50.771,14.3698C50.4179,14.617,49.966,14.7511,49.507,14.7511C48.7726,14.7511,48.2713,14.2568,48.2713,13.3671L48.2713,9.34921L50.9617,9.34921L50.9617,6.27047L48.2713,6.27047L48.2713,3.21291L44.1475,3.21291L44.1475,6.27047L42.4386,6.27047L42.4386,9.34921L44.1475,9.34921L44.1475,13.4095C44.1475,16.467,45.9057,17.9358,48.9209,17.9358C50.0084,17.9358,51.0746,17.724,51.7878,17.265L50.771,14.3698ZM58.1783,5.28188C56.3283,5.28188,54.337,5.76205,52.9883,6.65178L54.3793,9.49044C55.1843,8.83373,56.4413,8.43124,57.5711,8.43124C59.1952,8.43124,60.0002,9.13031,60.0637,10.366L57.7194,10.366C54.0757,10.366,52.494,11.7148,52.494,14.1297C52.494,16.3541,54.0545,17.9358,56.872,17.9358C58.5879,17.9358,59.7601,17.3568,60.3462,16.2269L60.3462,17.4839L64.1875,17.4839L64.1875,10.7827C64.1875,6.9766,61.9915,5.28188,58.1783,5.28188ZM58.023,15.3372C57.0485,15.3372,56.4836,14.7441,56.4836,13.925C56.4836,13.0776,56.9638,12.5127,58.2843,12.5127L60.0637,12.5127L60.0637,13.7202C59.7389,14.8217,58.9339,15.3372,58.023,15.3372ZM68.7845,4.37803C70.3027,4.37803,71.2983,3.42475,71.2983,2.12546C71.2983,0.889728,70.3027,0,68.7845,0C67.2663,0,66.2636,0.95328,66.2636,2.18901C66.2636,3.42475,67.2663,4.37803,68.7845,4.37803ZM66.7226,17.4839L70.8464,17.4839L70.8464,5.73381L66.7226,5.73381L66.7226,17.4839ZM81.8762,1.21455L81.8762,6.50349C81.0924,5.67731,79.9908,5.28188,78.6209,5.28188C75.408,5.28188,72.8306,7.60506,72.8306,11.5877C72.8306,15.5985,75.408,17.9358,78.6209,17.9358C80.1391,17.9358,81.2901,17.5051,82.0668,16.573L82.0668,17.4839L86,17.4839L86,1.21455L81.8762,1.21455ZM79.4895,14.6664C78.0772,14.6664,77.018,13.5507,77.018,11.5877C77.018,9.64579,78.0772,8.55834,79.4895,8.55834C80.8735,8.55834,81.9397,9.64579,81.9397,11.5877C81.9397,13.5507,80.8735,14.6664,79.4895,14.6664Z" fill-opacity="1"/></g></svg>