<?xml version="1.0" standalone="no"?><!DOCTYPE svg PUBLIC "-//W3C//DTD SVG 1.1//EN" "http://www.w3.org/Graphics/SVG/1.1/DTD/svg11.dtd"><svg t="1714040025705" class="icon" viewBox="0 0 1092 1024" version="1.1" xmlns="http://www.w3.org/2000/svg" p-id="1833" xmlns:xlink="http://www.w3.org/1999/xlink" width="213.28125" height="200"><path d="M733.554283 88.408073c5.683358 10.363771 4.37649 21.274603 0.243139 32.003082q-31.729551 82.059185-63.82381 164.118369c-19.998127 51.393363-40.087431 102.756334-59.872813 154.240875-9.907887 25.772662-32.276613 35.984472-57.98849 25.985408q-77.804264-30.392291-155.699705-60.51105c-25.803055-9.968671-35.802118-31.57759-25.833447-57.350252q45.041375-116.09855 90.295495-232.105924 16.624583-42.822737 33.279559-85.645474c9.907887-25.651093 31.881513-35.285449 57.745352-25.225602Q619.340055 30.419583 686.871725 56.587345c9.877494 3.859821 19.724597 7.841211 29.32856 12.156916a31.699159 31.699159 0 0 1 17.353998 19.663812zM552.294662 537.089459h178.493923c15.378499 0 20.879504 5.501005 20.909896 21.061857 0 27.353062-0.151961 54.706123 0 82.059185a20.484404 20.484404 0 0 1-11.062794 19.785381c-41.607046 24.891286-69.507169 60.966935-84.156252 107.224001-5.622574 17.597136-10.576517 21.274603-28.933461 21.274603h-291.066967c-17.77949 0-22.885395-5.166689-22.885395-23.158925v-166.397791c0-15.378499 3.738252-19.663812 18.934397-22.03441 11.093186-1.732361 17.688313-9.117687 19.268713-21.274604 1.884322-14.588299 6.50395-18.691259 21.274603-18.691259q89.596473 0.121569 179.223337 0.151962zM497.345401 833.049584h116.159335c14.223592 0 17.019683 2.765698 18.691258 16.958899 4.65002 39.509978 16.442229 76.193472 45.010983 105.430856a181.016483 181.016483 0 0 0 22.946179 18.539297c10.971617 8.145134 15.895168 31.699159 7.56768 42.549207a18.904005 18.904005 0 0 1-12.643192 6.747088c-33.157989 0.547061-66.315978 0.607846-99.473967 0a18.235374 18.235374 0 0 1-13.403001-7.993172c-21.700095-42.093322-58.322806-51.393363-101.236719-47.108051-25.104032 2.492168-46.013928 13.038293-60.966935 33.948189a26.806 26.806 0 0 0-3.586291 5.774535c-4.741197 12.430447-13.494177 16.472621-26.714823 16.077522-28.842284-0.850984-57.745352-0.212746-86.557244-0.273531-13.858884 0-19.086358-6.078458-20.210873-19.754989-1.306868-15.682422 4.528451-25.894232 17.718706-34.616819 27.109923-17.901059 42.974699-44.676667 52.031601-75.220919a390.723288 390.723288 0 0 0 9.543179-46.743343c1.762753-10.394163 4.953943-14.041238 15.895168-14.07163 39.753116-0.303923 79.47584-0.243138 119.228956-0.243139zM706.687499 342.85233c1.185299-7.142188 1.306868-13.494177 3.312759-19.147143 5.713751-15.955953 12.156916-31.57759 18.235375-47.411973s15.196145-20.30205 31.425628-13.980454q64.097341 24.769717 128.073112 49.691395l187.398864 72.941497c17.505959 6.838265 21.001073 14.709869 14.223592 32.398182q-9.117687 24.070694-18.630474 48.141388c-5.014728 12.947116-14.86183 17.505959-27.9913 12.400055q-160.28894-62.182627-320.486704-124.608391c-5.166689-2.218637-9.634356-6.473558-15.560852-10.424556zM135.37322 583.01221h111.600491c15.712814 0 21.639311 5.896104 21.669704 21.274603v113.910305c0 13.12947-7.172581 20.210873-19.967735 18.843221-64.431656-6.868658-125.793691-23.098141-180.226283-59.994382a242.68244 242.68244 0 0 1-62.820865-60.90615c-5.04512-7.111796-7.68925-14.527515-3.677467-22.642257s12.156916-10.576517 21.031465-10.546125c37.473694 0.182354 74.916996 0.060785 112.39069 0.060785z" p-id="1834"></path></svg>