<svg xmlns="http://www.w3.org/2000/svg" xmlns:xlink="http://www.w3.org/1999/xlink" fill="none" version="1.1" width="6.4000000059604645" height="6.4000000059604645" viewBox="0 0 6.4000000059604645 6.4000000059604645"><g style="mix-blend-mode:passthrough"><path d="M0.20000000298023224,0.20000000298023224L0.20000000298023224,6.200000002980232L1.3848200029802322,6.200000002980232L1.3848200029802322,1.8142300029802323L1.4244200029802323,1.8142300029802323L5.044880002980232,6.200000002980232L6.200000002980232,6.200000002980232L6.200000002980232,0.20000000298023224L5.005280002980232,0.20000000298023224L5.005280002980232,4.528320002980232L4.965680002980232,4.528320002980232L1.3848200029802322,0.20000000298023224L0.20000000298023224,0.20000000298023224Z" fill="#FFFFFF" fill-opacity="1"/><path d="M1.4789300029802321,2.980232227667301e-9L2.980232227667301e-9,2.980232227667301e-9L2.980232227667301e-9,6.400000002980232L1.5848200029802322,6.400000002980232L1.5848200029802322,2.322690002980232L4.950640002980232,6.400000002980232L6.400000002980232,6.400000002980232L6.400000002980232,2.980232227667301e-9L4.805280002980232,2.980232227667301e-9L4.805280002980232,4.020690002980232L1.4789300029802321,2.980232227667301e-9ZM5.005280002980232,4.262430002980232L5.005280002980232,4.528320002980232L4.965680002980232,4.528320002980232L4.805280002980232,4.334440002980232L1.3848200029802322,0.20000000298023224L0.20000000298023224,0.20000000298023224L0.20000000298023224,6.200000002980232L1.3848200029802322,6.200000002980232L1.3848200029802322,1.8142300029802323L1.4244200029802323,1.8142300029802323L1.5848200029802322,2.0085300029802324L5.044880002980232,6.200000002980232L6.200000002980232,6.200000002980232L6.200000002980232,0.20000000298023224L5.005280002980232,0.20000000298023224L5.005280002980232,4.262430002980232Z" fill-rule="evenodd" fill="#FFFFFF" fill-opacity="1"/></g></svg>