<svg xmlns="http://www.w3.org/2000/svg" xmlns:xlink="http://www.w3.org/1999/xlink"  version="1.1"  viewBox="0 0 22 11"><g><path d="M7.43359,2.00065L5.26367,2.00065L5.26367,6.1901L5.19922,6.1901L2.35612,2.00065L0.512044,2.00065L0.512044,10L2.68555,10L2.68555,5.7998L2.7321,5.7998L5.62175,10L7.43359,10L7.43359,2.00065ZM8.43388,10L10.6074,10L10.6074,6.8776L13.7155,6.8776L13.7155,5.12663L10.6074,5.12663L10.6074,3.75163L14.0592,3.75163L14.0592,2.00065L8.43388,2.00065L8.43388,10ZM14.5331,3.75163L16.9394,3.75163L16.9394,10L19.0806,10L19.0806,3.75163L21.4869,3.75163L21.4869,2.00065L14.5331,2.00065L14.5331,3.75163Z"  fill-opacity="1"/></g></svg>