<svg xmlns="http://www.w3.org/2000/svg" xmlns:xlink="http://www.w3.org/1999/xlink" fill="currentColor" version="1.1"  viewBox="0 0 17.000001907348633 16.89067840576172"><g><path d="M4.889,12.4453L1,12.4453C0.447715,12.4453,0,11.9976,0,11.4453L0,5.44534C0,4.89305,0.447715,4.44534,1,4.44534L4.889,4.44534L10.183,0.113339C10.3325,-0.0092411,10.5393,-0.0346315,10.714,0.0481365C10.8888,0.130904,11.0001,0.306995,11,0.500339L11,16.3903C11.0001,16.5837,10.8888,16.7598,10.714,16.8425C10.5393,16.9253,10.3325,16.8999,10.183,16.7773L4.89,12.4453L4.889,12.4453ZM14.863,13.0363L13.441,11.6143C14.425,10.8577,15.0011,9.68657,15,8.44534C15,7.01534,14.25,5.76034,13.12,5.05334L14.559,3.61434C16.0952,4.74438,17.0016,6.53828,17,8.44534C17,10.2873,16.17,11.9353,14.863,13.0363Z" fill="#303133" fill-opacity="1"/></g></svg>