<svg xmlns="http://www.w3.org/2000/svg" xmlns:xlink="http://www.w3.org/1999/xlink" version="1.1"  viewBox="0 0 16 16"><defs><clipPath id="master_svg0_2694_02468"><rect x="0" y="0" width="16" height="16" rx="0"/></clipPath></defs><g clip-path="url(#master_svg0_2694_02468)"><g><path d="M4.8,4.33333Q4.8,4.96846,5.2491,5.41756Q5.6982,5.86667,6.33333,5.86667Q6.96846,5.86667,7.41756,5.41756Q7.86667,4.96846,7.86667,4.33333Q7.86667,3.69821,7.41756,3.2491000000000003Q6.96846,2.8,6.33333,2.8Q5.6982099999999996,2.8,5.2491,3.2491000000000003Q4.8,3.69821,4.8,4.33333ZM3.2,4.33333Q3.2,3.03546,4.117731,2.117733Q5.0354600000000005,1.2,6.33333,1.2Q7.6312,1.2,8.54894,2.117733Q9.46667,3.03546,9.46667,4.33333Q9.46667,5.6312,8.54894,6.54894Q7.6312,7.46667,6.33333,7.46667Q5.0354600000000005,7.46667,4.117731,6.54894Q3.2,5.6312,3.2,4.33333Z"  fill-opacity="1"/></g><g><path d="M10.456342177734374,5.64809298828125Q11.200032177734375,5.1999729882812495,11.200032177734375,4.33331298828125Q11.200032177734375,3.46665298828125,10.456342177734374,3.0185299882812497Q10.388854177734375,2.97786398828125,10.330597177734376,2.92481298828125Q10.272339177734375,2.87176198828125,10.225551177734374,2.80836498828125Q10.178762177734376,2.74496798828125,10.145241177734375,2.67366098828125Q10.111719177734376,2.60235398828125,10.092753177734375,2.52587698828125Q10.073788177734375,2.44940098828125,10.070106177734376,2.37069358828125Q10.066424177734374,2.29198658828125,10.078168177734375,2.21407398828125Q10.089912177734375,2.13616098828125,10.116631177734375,2.06203598828125Q10.143349177734375,1.98791098828125,10.184015177734375,1.92042298828125Q10.224681177734375,1.85293498828125,10.277732177734375,1.79467798828125Q10.330783177734375,1.7364199882812499,10.394180177734375,1.68963098828125Q10.457578177734375,1.64284298828125,10.528885177734375,1.60932198828125Q10.600191177734375,1.5757999882812501,10.676668177734374,1.5568339882812499Q10.753144177734375,1.53786898828125,10.831851577734374,1.53418698828125Q10.910558677734375,1.53050498828125,10.988471177734375,1.54224898828125Q11.066384177734374,1.55399298828125,11.140509177734375,1.5807119882812501Q11.214634177734375,1.60742998828125,11.282122177734376,1.64809598828125Q12.800032177734375,2.56274098828125,12.800032177734375,4.33331298828125Q12.800032177734375,6.10388298828125,11.282122177734376,7.01853298828125Q11.214634177734375,7.05919298828125,11.140509177734375,7.08591298828125Q11.066384177734374,7.11263298828125,10.988471177734375,7.12437298828125Q10.910558277734374,7.13612298828125,10.831851277734375,7.13244298828125Q10.753144177734375,7.12875298828125,10.676668177734374,7.10979298828125Q10.600191177734375,7.09082298828125,10.528884177734374,7.05730298828125Q10.457577177734375,7.02378298828125,10.394180177734375,6.97699298828125Q10.330783177734375,6.93020298828125,10.277732177734375,6.87194298828125Q10.224681177734375,6.81369298828125,10.184015177734375,6.74620298828125Q10.143349177734375,6.67871298828125,10.116631177734375,6.60459298828125Q10.089912177734375,6.53046298828125,10.078168177734375,6.45255298828125Q10.066424177734374,6.37464298828125,10.070106177734376,6.295932988281249Q10.073788177734375,6.21722298828125,10.092753177734375,6.14075298828125Q10.111719177734376,6.06427298828125,10.145241177734375,5.99296298828125Q10.178762177734376,5.9216529882812505,10.225551177734374,5.8582629882812505Q10.272339177734375,5.79486298828125,10.330597177734376,5.74181298828125Q10.388854177734375,5.688762988281249,10.456342177734374,5.64809298828125ZM11.669232177734376,6.33331298828125Q11.669232177734376,6.41210298828125,11.653860177734375,6.48938298828125Q11.638488177734375,6.56666298828125,11.608336177734374,6.63946298828125Q11.578183177734376,6.71225298828125,11.534408177734376,6.77777298828125Q11.490633177734376,6.84328298828125,11.434917177734375,6.89900298828125Q11.379202177734374,6.95471298828125,11.313688177734376,6.99848298828125Q11.248174177734375,7.04226298828125,11.175379177734374,7.07241298828125Q11.102583177734376,7.10257298828125,11.025304177734375,7.11794298828125Q10.948025277734375,7.13331298828125,10.869232177734375,7.13331298828125Q10.790439077734375,7.13331298828125,10.713160177734375,7.11794298828125Q10.635881177734374,7.10257298828125,10.563085177734376,7.07241298828125Q10.490290177734375,7.04226298828125,10.424776177734374,6.99848298828125Q10.359262177734376,6.95471298828125,10.303547177734375,6.89900298828125Q10.247831177734374,6.84328298828125,10.204056177734374,6.77777298828125Q10.160281177734374,6.71225298828125,10.130128177734376,6.63946298828125Q10.099976177734375,6.56666298828125,10.084604177734375,6.48938298828125Q10.069232177734374,6.41210298828125,10.069232177734374,6.33331298828125Q10.069232177734374,6.25452298828125,10.084604177734375,6.17724298828125Q10.099976177734375,6.09996298828125,10.130128177734376,6.027162988281249Q10.160281177734374,5.95437298828125,10.204056177734374,5.888852988281251Q10.247831177734374,5.82334298828125,10.303547177734375,5.76762298828125Q10.359262177734376,5.7119129882812505,10.424776177734374,5.668132988281251Q10.490290177734375,5.62436298828125,10.563085177734376,5.5942129882812495Q10.635881177734374,5.56405298828125,10.713160177734375,5.54868298828125Q10.790439077734375,5.53331298828125,10.869232177734375,5.53331298828125Q10.948025277734375,5.53331298828125,11.025304177734375,5.54868298828125Q11.102583177734376,5.56405298828125,11.175379177734374,5.5942129882812495Q11.248174177734375,5.62436298828125,11.313688177734376,5.668132988281251Q11.379202177734374,5.7119129882812505,11.434917177734375,5.76762298828125Q11.490633177734376,5.82334298828125,11.534408177734376,5.888852988281251Q11.578183177734376,5.95437298828125,11.608336177734374,6.027162988281249Q11.638488177734375,6.09996298828125,11.653860177734375,6.17724298828125Q11.669232177734376,6.25452298828125,11.669232177734376,6.33331298828125ZM11.669232177734376,2.33331298828125Q11.669232177734376,2.41210608828125,11.653860177734375,2.48938498828125Q11.638488177734375,2.56666398828125,11.608336177734374,2.63945998828125Q11.578183177734376,2.71225498828125,11.534408177734376,2.77776898828125Q11.490633177734376,2.84328298828125,11.434917177734375,2.89899798828125Q11.379202177734374,2.95471398828125,11.313688177734376,2.9984889882812498Q11.248174177734375,3.04226398828125,11.175379177734374,3.07241698828125Q11.102583177734376,3.10256898828125,11.025304177734375,3.11794098828125Q10.948025277734375,3.13331298828125,10.869232177734375,3.13331298828125Q10.790439077734375,3.13331298828125,10.713160177734375,3.11794098828125Q10.635881177734374,3.10256898828125,10.563085177734376,3.07241698828125Q10.490290177734375,3.04226398828125,10.424776177734374,2.9984889882812498Q10.359262177734376,2.95471398828125,10.303547177734375,2.89899798828125Q10.247831177734374,2.84328298828125,10.204056177734374,2.77776898828125Q10.160281177734374,2.71225498828125,10.130128177734376,2.63945998828125Q10.099976177734375,2.56666398828125,10.084604177734375,2.48938498828125Q10.069232177734374,2.41210608828125,10.069232177734374,2.33331298828125Q10.069232177734374,2.25451988828125,10.084604177734375,2.17724098828125Q10.099976177734375,2.09996198828125,10.130128177734376,2.02716598828125Q10.160281177734374,1.95437098828125,10.204056177734374,1.88885698828125Q10.247831177734374,1.82334298828125,10.303547177734375,1.76762798828125Q10.359262177734376,1.71191198828125,10.424776177734374,1.66813698828125Q10.490290177734375,1.6243619882812501,10.563085177734376,1.59420898828125Q10.635881177734374,1.56405698828125,10.713160177734375,1.54868498828125Q10.790439077734375,1.53331298828125,10.869232177734375,1.53331298828125Q10.948025277734375,1.53331298828125,11.025304177734375,1.54868498828125Q11.102583177734376,1.56405698828125,11.175379177734374,1.59420898828125Q11.248174177734375,1.6243619882812501,11.313688177734376,1.66813698828125Q11.379202177734374,1.71191198828125,11.434917177734375,1.76762798828125Q11.490633177734376,1.82334298828125,11.534408177734376,1.88885698828125Q11.578183177734376,1.95437098828125,11.608336177734374,2.02716598828125Q11.638488177734375,2.09996198828125,11.653860177734375,2.17724098828125Q11.669232177734376,2.25451988828125,11.669232177734376,2.33331298828125Z"  fill-opacity="1"/></g><g><path d="M2.3367958764648438,11.15254298828125Q2.1333358764648436,11.55184298828125,2.1333358764648436,13.599982988281251L2.1333358764648436,13.99998298828125L1.3333358764648438,13.99998298828125L1.3333358764648438,13.19998298828125L11.333335876464844,13.19998298828125L11.333335876464844,13.99998298828125L10.533335876464843,13.99998298828125L10.533335876464843,13.599982988281251Q10.533335876464843,11.55183298828125,10.329885876464843,11.15252298828125Q10.054535876464843,10.61211298828125,9.514105876464845,10.33675298828125Q9.114815876464844,10.13331298828125,7.066665876464843,10.13331298828125L5.600005876464844,10.13331298828125Q3.5518558764648436,10.13331298828125,3.1525358764648437,10.33676298828125Q2.612155876464844,10.61210298828125,2.3367958764648438,11.15253298828125L2.3367958764648438,11.15254298828125ZM0.9111788764648437,10.42615298828125Q1.4225534764648438,9.42251728828125,2.426185876464844,8.91113098828125Q3.1677558764648435,8.53331298828125,5.600005876464844,8.53331298828125L7.066665876464843,8.53331298828125Q9.498925876464844,8.53331298828125,10.240495876464843,8.91114398828125Q11.244125876464844,9.42252288828125,11.755535876464844,10.42617298828125Q12.133335876464844,11.16772298828125,12.133335876464844,13.599982988281251L12.133335876464844,13.99998298828125Q12.133335876464844,14.07877298828125,12.117935876464843,14.15605298828125Q12.102635876464843,14.23333298828125,12.072435876464844,14.306122988281249Q12.042235876464844,14.37892298828125,11.998535876464844,14.44443298828125Q11.954735876464843,14.509952988281249,11.899035876464843,14.56566298828125Q11.843335876464844,14.621382988281251,11.777835876464843,14.66515298828125Q11.712235876464844,14.70893298828125,11.639435876464844,14.73908298828125Q11.566635876464844,14.76923298828125,11.489435876464844,14.78460298828125Q11.412135876464843,14.79998298828125,11.333335876464844,14.79998298828125L1.3333358764648438,14.79998298828125Q1.2545427764648438,14.79998298828125,1.1772638764648438,14.78460298828125Q1.0999848764648437,14.76923298828125,1.0271888764648438,14.73908298828125Q0.9543938764648437,14.70893298828125,0.8888798764648438,14.66515298828125Q0.8233658764648437,14.621382988281251,0.7676508764648438,14.56566298828125Q0.7119348764648438,14.509952988281249,0.6681598764648438,14.44443298828125Q0.6243848764648438,14.37892298828125,0.5942318764648438,14.306122988281249Q0.5640798764648437,14.23333298828125,0.5487078764648438,14.15605298828125Q0.5333358764648437,14.07877298828125,0.5333358764648437,13.99998298828125L0.5333358764648437,13.599982988281251Q0.5333358764648437,11.16771298828125,0.9111808764648437,10.42615298828125L0.9111788764648437,10.42615298828125Z"  fill-opacity="1"/></g><g><path d="M13.573797806640625,8.9112204375Q14.577451806640624,9.4226124375,15.088801806640625,10.4261934375Q15.466631806640624,11.1677734375,15.466631806640624,13.600023437499999L15.466631806640624,14.000023437500001Q15.466631806640624,14.0788134375,15.451261806640625,14.156093437500001Q15.435891806640626,14.2333734375,15.405741806640625,14.3061734375Q15.375581806640625,14.378963437500001,15.331811806640625,14.4444834375Q15.288031806640625,14.5099934375,15.232321806640625,14.5657034375Q15.176601806640624,14.621423437499999,15.111091806640625,14.665193437500001Q15.045581806640625,14.7089734375,14.972781806640626,14.7391234375Q14.899981806640625,14.7692834375,14.822711806640624,14.784653437500001Q14.745431806640624,14.8000234375,14.666631806640625,14.8000234375Q14.587841806640625,14.8000234375,14.510561806640625,14.784653437500001Q14.433281806640625,14.7692834375,14.360491806640624,14.7391234375Q14.287691806640625,14.7089734375,14.222181806640625,14.665193437500001Q14.156664806640626,14.621423437499999,14.100949806640624,14.5657034375Q14.045233806640624,14.5099934375,14.001458806640626,14.4444834375Q13.957683806640626,14.378963437500001,13.927530806640625,14.3061734375Q13.897378806640624,14.2333734375,13.882006806640625,14.156093437500001Q13.866634806640626,14.0788134375,13.866634806640626,14.000023437500001L13.866634806640626,13.600023437499999Q13.866634806640626,11.5518734375,13.663197806640625,11.1525834375Q13.387854806640625,10.6122034375,12.847405806640625,10.3368264375Q12.777200806640625,10.3010554375,12.715322806640625,10.2522744375Q12.653445806640626,10.2034934375,12.602273806640625,10.1435784375Q12.551102806640625,10.0836634375,12.512602806640626,10.0149164375Q12.474103806640626,9.9461694375,12.449755806640624,9.8712324375Q12.425407806640624,9.7962964375,12.416146806640626,9.7180490375Q12.406885806640625,9.6398019375,12.413067806640624,9.5612518375Q12.419250806640624,9.4827014375,12.440638806640624,9.4068664375Q12.462026806640624,9.3310324375,12.497798806640626,9.2608274375Q12.533569806640624,9.1906224375,12.582350806640624,9.1287444375Q12.631131806640624,9.066867437500001,12.691046806640625,9.0156954375Q12.750961806640625,8.9645244375,12.819708806640625,8.9260244375Q12.888455806640625,8.8875254375,12.963392806640625,8.8631774375Q13.038328806640624,8.8388294375,13.116576206640625,8.8295684375Q13.194823306640625,8.8203074375,13.273373406640625,8.8264894375Q13.351923806640626,8.8326724375,13.427758806640625,8.8540604375Q13.503592806640626,8.8754484375,13.573797806640625,8.9112204375ZM14.010601806640626,9.6240234375Q14.010601806640626,9.7028165375,13.995229806640625,9.7800954375Q13.979857806640625,9.8573744375,13.949705806640624,9.9301704375Q13.919552806640626,10.0029654375,13.875777806640626,10.0684794375Q13.832002806640626,10.1339934375,13.776286806640625,10.1897084375Q13.720571806640624,10.2454244375,13.655057806640626,10.2891994375Q13.589543806640625,10.3329744375,13.516748806640624,10.3631274375Q13.443952806640626,10.3932794375,13.366673806640625,10.4086514375Q13.289394906640625,10.4240234375,13.210601806640625,10.4240234375Q13.131808706640625,10.4240234375,13.054529806640625,10.4086514375Q12.977250806640624,10.3932794375,12.904454806640626,10.3631274375Q12.831659806640625,10.3329744375,12.766145806640624,10.2891994375Q12.700631806640626,10.2454244375,12.644916806640625,10.1897084375Q12.589200806640624,10.1339934375,12.545425806640624,10.0684794375Q12.501650806640624,10.0029654375,12.471497806640626,9.9301704375Q12.441345806640625,9.8573744375,12.425973806640625,9.7800954375Q12.410601806640624,9.7028165375,12.410601806640624,9.6240234375Q12.410601806640624,9.5452303375,12.425973806640625,9.4679514375Q12.441345806640625,9.3906724375,12.471497806640626,9.3178764375Q12.501650806640624,9.2450814375,12.545425806640624,9.1795674375Q12.589200806640624,9.1140534375,12.644916806640625,9.0583384375Q12.700631806640626,9.0026224375,12.766145806640624,8.9588474375Q12.831659806640625,8.9150724375,12.904454806640626,8.8849194375Q12.977250806640624,8.8547674375,13.054529806640625,8.8393954375Q13.131808706640625,8.8240234375,13.210601806640625,8.8240234375Q13.289394906640625,8.8240234375,13.366673806640625,8.8393954375Q13.443952806640626,8.8547674375,13.516748806640624,8.8849194375Q13.589543806640625,8.9150724375,13.655057806640626,8.9588474375Q13.720571806640624,9.0026224375,13.776286806640625,9.0583384375Q13.832002806640626,9.1140534375,13.875777806640626,9.1795674375Q13.919552806640626,9.2450814375,13.949705806640624,9.3178764375Q13.979857806640625,9.3906724375,13.995229806640625,9.4679514375Q14.010601806640626,9.5452303375,14.010601806640626,9.6240234375ZM15.466631806640624,14.000023437500001Q15.466631806640624,14.0788134375,15.451261806640625,14.156093437500001Q15.435891806640626,14.2333734375,15.405741806640625,14.3061734375Q15.375581806640625,14.378963437500001,15.331811806640625,14.4444834375Q15.288031806640625,14.5099934375,15.232321806640625,14.5657034375Q15.176601806640624,14.621423437499999,15.111091806640625,14.665193437500001Q15.045581806640625,14.7089734375,14.972781806640626,14.7391234375Q14.899981806640625,14.7692834375,14.822711806640624,14.784653437500001Q14.745431806640624,14.8000234375,14.666631806640625,14.8000234375Q14.587841806640625,14.8000234375,14.510561806640625,14.784653437500001Q14.433281806640625,14.7692834375,14.360491806640624,14.7391234375Q14.287691806640625,14.7089734375,14.222181806640625,14.665193437500001Q14.156664806640626,14.621423437499999,14.100949806640624,14.5657034375Q14.045233806640624,14.5099934375,14.001458806640626,14.4444834375Q13.957683806640626,14.378963437500001,13.927530806640625,14.3061734375Q13.897378806640624,14.2333734375,13.882006806640625,14.156093437500001Q13.866634806640626,14.0788134375,13.866634806640626,14.000023437500001Q13.866634806640626,13.9212334375,13.882006806640625,13.8439534375Q13.897378806640624,13.7666734375,13.927530806640625,13.693873437499999Q13.957683806640626,13.6210834375,14.001458806640626,13.5555634375Q14.045233806640624,13.4900534375,14.100949806640624,13.4343334375Q14.156664806640626,13.3786234375,14.222181806640625,13.3348434375Q14.287691806640625,13.2910734375,14.360491806640624,13.2609234375Q14.433281806640625,13.2307634375,14.510561806640625,13.2153934375Q14.587841806640625,13.2000234375,14.666631806640625,13.2000234375Q14.745431806640624,13.2000234375,14.822711806640624,13.2153934375Q14.899981806640625,13.2307634375,14.972781806640626,13.2609234375Q15.045581806640625,13.2910734375,15.111091806640625,13.3348434375Q15.176601806640624,13.3786234375,15.232321806640625,13.4343334375Q15.288031806640625,13.4900534375,15.331811806640625,13.5555634375Q15.375581806640625,13.6210834375,15.405741806640625,13.693873437499999Q15.435891806640626,13.7666734375,15.451261806640625,13.8439534375Q15.466631806640624,13.9212334375,15.466631806640624,14.000023437500001Z"  fill-opacity="1"/></g></g></svg>