<svg xmlns="http://www.w3.org/2000/svg" xmlns:xlink="http://www.w3.org/1999/xlink" fill="none" version="1.1" width="20.000001907348633" height="18" viewBox="0 0 20.000001907348633 18"><g><path d="M18,2L2,2L2,16L11.292,6.706C11.6825,6.31562,12.3155,6.31562,12.706,6.706L18,12.01L18,2ZM0,0.993C0.00380802,0.446556,0.44556,0.00435829,0.992,0L19.008,0C19.556,0,20,0.445,20,0.993L20,17.007C19.9962,17.5534,19.5544,17.9956,19.008,18L0.992,18C0.443972,17.9994,-1.19209e-7,17.555,0,17.007L0,0.993ZM6,8C4.89543,8,4,7.10457,4,6C4,4.89543,4.89543,4,6,4C7.10457,4,8,4.89543,8,6C8,7.10457,7.10457,8,6,8Z" fill="#303133" fill-opacity="1"/></g></svg>