<svg xmlns="http://www.w3.org/2000/svg" xmlns:xlink="http://www.w3.org/1999/xlink" fill="none" version="1.1" width="24" height="24" viewBox="0 0 24 24"><defs><clipPath id="master_svg0_1412_1942"><rect x="0" y="0" width="24" height="24" rx="0"/></clipPath></defs><g clip-path="url(#master_svg0_1412_1942)"><g><path d="M21,15.2L21,18L23.8,18C23.9105,18,24,18.0895,24,18.2L24,19.8C24,19.9105,23.9105,20,23.8,20L21,20L21,22.8C21,22.9105,20.9105,23,20.8,23L19.2,23C19.0895,23,19,22.9105,19,22.8L19,20L16.2,20C16.0895,20,16,19.9105,16,19.8L16,18.2C16,18.0895,16.0895,18,16.2,18L19,18L19,15.2C19,15.0895,19.0895,15,19.2,15L20.8,15C20.9105,15,21,15.0895,21,15.2M21.008,3C21.556,3,22,3.445,22,3.993L22,12.91787C22,13.1249,21.798,13.2709,21.5984,13.2158C21.0784,13.0723,20.5408,12.99955,20,13L20,5L4,5L4.0009999999999994,19L13.293,9.707C13.6488,9.35003,14.2148,9.31401,14.613,9.623000000000001L14.706,9.708L18.252,13.258C15.1164,14.2135,13.3518,17.4911,14.2158,20.6008C14.2712,20.8003,14.1248,21.001,13.9177,21.001L2.992,21C2.443972,20.9994,1.999999880791,20.555,2,20.007L2,3.993C2.00380802,3.446556,2.44556,3.00435829,2.992,3L21.008,3ZM8,7C9.104569999999999,7,10,7.89543,10,9C10,10.104569999999999,9.104569999999999,11,8,11C6.89543,11,6,10.104569999999999,6,9C6,7.89543,6.89543,7,8,7Z" fill="#303133" fill-opacity="1"/></g></g></svg>