<svg xmlns="http://www.w3.org/2000/svg" xmlns:xlink="http://www.w3.org/1999/xlink"  version="1.1" viewBox="0 0 15.000001907348633 15.000001907348633"><g style="mix-blend-mode:passthrough" transform="matrix(0,1,-1,0,15.000001907348633,-15.000001907348633)"><path d="M28.129201907348634,10.75Q28.195001907348633,10.636,28.229101907348635,10.5088Q28.263101907348634,10.3817,28.263101907348634,10.25Q28.263101907348634,10.1184,28.229101907348635,9.99118Q28.195001907348633,9.86402,28.129201907348634,9.75L23.366031907348635,1.5Q23.300201907348633,1.38599,23.207111907348633,1.29289Q23.114021907348633,1.1998,23.000001907348633,1.13397Q22.885991907348632,1.06815,22.758821907348633,1.03407Q22.631651907348633,1,22.500001907348633,1Q22.368351907348632,1,22.241181907348633,1.03407Q22.114021907348633,1.06815,22.000001907348633,1.13397Q21.885991907348632,1.1998,21.792891907348633,1.29289Q21.699801907348633,1.38599,21.633981907348634,1.5L16.870841907348634,9.75Q16.805011907348632,9.86402,16.770931907348633,9.99118Q16.736861907348633,10.1184,16.736861907348633,10.25Q16.736861907348633,10.3817,16.770931907348633,10.5088Q16.805011907348632,10.636,16.870841907348634,10.75Q16.936661907348633,10.864,17.029751907348633,10.9571Q17.122851907348632,11.0502,17.236861907348633,11.116Q17.350881907348633,11.1819,17.478041907348633,11.2159Q17.605211907348632,11.25,17.736861907348633,11.25L27.263101907348634,11.25Q27.394801907348633,11.25,27.52200190734863,11.2159Q27.649101907348633,11.1819,27.763101907348634,11.116Q27.877201907348635,11.0502,27.970301907348635,10.9571Q28.06330190734863,10.864,28.129201907348634,10.75ZM25.531101907348635,9.25L22.500001907348633,4L19.468911907348634,9.25L25.531101907348635,9.25Z" fill-rule="evenodd" fill-opacity="1"/></g></svg>