<svg xmlns="http://www.w3.org/2000/svg" xmlns:xlink="http://www.w3.org/1999/xlink" fill="none" version="1.1" width="12" height="12" viewBox="0 0 12 12"><g style="mix-blend-mode:passthrough"><path d="M5,7L5,11Q5,11.0985,5.01921,11.1951Q5.03843,11.2917,5.07612,11.3827Q5.11381,11.4737,5.16853,11.5556Q5.22325,11.6375,5.29289,11.7071Q5.36254,11.7767,5.44443,11.8315Q5.52632,11.8862,5.61732,11.9239Q5.70831,11.9616,5.80491,11.9808Q5.90151,12,6,12Q6.09849,12,6.19509,11.9808Q6.29169,11.9616,6.38268,11.9239Q6.47368,11.8862,6.55557,11.8315Q6.63746,11.7767,6.70711,11.7071Q6.77675,11.6375,6.83147,11.5556Q6.88619,11.4737,6.92388,11.3827Q6.96157,11.2917,6.98078,11.1951Q7,11.0985,7,11L7,7L11,7Q11.0985,7,11.1951,6.98078Q11.2917,6.96157,11.3827,6.92388Q11.4737,6.88619,11.5556,6.83147Q11.6375,6.77675,11.7071,6.70711Q11.7767,6.63746,11.8315,6.55557Q11.8862,6.47368,11.9239,6.38268Q11.9616,6.29169,11.9808,6.19509Q12,6.09849,12,6Q12,5.90151,11.9808,5.80491Q11.9616,5.70831,11.9239,5.61732Q11.8862,5.52632,11.8315,5.44443Q11.7767,5.36254,11.7071,5.29289Q11.6375,5.22325,11.5556,5.16853Q11.4737,5.11381,11.3827,5.07612Q11.2917,5.03843,11.1951,5.01921Q11.0985,5,11,5L7,5L7,1Q7,0.901509,6.98078,0.80491Q6.96157,0.708311,6.92388,0.617316Q6.88619,0.526322,6.83147,0.44443Q6.77675,0.362537,6.70711,0.292893Q6.63746,0.223249,6.55557,0.16853Q6.47368,0.113811,6.38268,0.0761205Q6.29169,0.0384294,6.19509,0.0192147Q6.09849,0,6,0Q5.90151,0,5.80491,0.0192147Q5.70831,0.0384294,5.61732,0.0761205Q5.52632,0.113811,5.44443,0.16853Q5.36254,0.223249,5.29289,0.292893Q5.22325,0.362537,5.16853,0.44443Q5.11381,0.526322,5.07612,0.617316Q5.03843,0.708311,5.01921,0.80491Q5,0.901509,5,1L5,5L1,5Q0.901509,5,0.80491,5.01921Q0.708311,5.03843,0.617316,5.07612Q0.526322,5.11381,0.44443,5.16853Q0.362537,5.22325,0.292893,5.29289Q0.223249,5.36254,0.16853,5.44443Q0.113811,5.52632,0.0761205,5.61732Q0.0384294,5.70831,0.0192147,5.80491Q0,5.90151,0,6Q0,6.09849,0.0192147,6.19509Q0.0384294,6.29169,0.0761205,6.38268Q0.113811,6.47368,0.16853,6.55557Q0.223249,6.63746,0.292893,6.70711Q0.362537,6.77675,0.44443,6.83147Q0.526322,6.88619,0.617316,6.92388Q0.708311,6.96157,0.80491,6.98078Q0.901509,7,1,7L5,7Z" fill-rule="evenodd" fill="#303133" fill-opacity="1"/></g></svg>