<svg xmlns="http://www.w3.org/2000/svg" xmlns:xlink="http://www.w3.org/1999/xlink" fill="none" version="1.1" viewBox="0 0 24 24"><defs><clipPath id="master_svg0_1616_8685"><rect x="0" y="0" width="24" height="24" rx="0"/></clipPath></defs><g clip-path="url(#master_svg0_1616_8685)"><g><path d="M3,12Q3,13.8317,3.70685,15.5029Q4.38991,17.117800000000003,5.6360399999999995,18.364Q6.88216,19.6101,8.4971,20.2931Q10.1683,21,12,21Q13.8317,21,15.5029,20.2931Q17.117800000000003,19.6101,18.364,18.364Q19.6101,17.117800000000003,20.2931,15.5029Q21,13.8317,21,12Q21,10.16829,20.2931,8.4971Q19.6101,6.88217,18.364,5.6360399999999995Q17.117800000000003,4.38991,15.5029,3.70685Q13.8317,3,12,3Q10.16829,3,8.4971,3.70685Q6.88216,4.38991,5.6360399999999995,5.6360399999999995Q4.38992,6.88216,3.70685,8.4971Q3,10.16829,3,12ZM1,12Q1,9.76272,1.864845,7.718Q2.6998670000000002,5.74378,4.22182,4.22182Q5.74378,2.699866,7.718,1.864845Q9.76272,1,12,1Q14.2373,1,16.282,1.864845Q18.2562,2.699866,19.7782,4.22182Q21.3001,5.74378,22.1352,7.718Q23,9.76272,23,12Q23,14.2373,22.1352,16.282Q21.3001,18.2562,19.7782,19.7782Q18.2562,21.3001,16.282,22.1352Q14.2373,23,12,23Q9.76272,23,7.718,22.1352Q5.74378,21.3001,4.22182,19.7782Q2.699865,18.2562,1.864845,16.282Q1,14.2373,1,12Z" fill="#303133" fill-opacity="1"/></g><g><path d="M11,16L11,8Q11,7.9015086,11.019214999999999,7.80491Q11.03843,7.708311,11.076121,7.617317Q11.113812,7.526322,11.16853,7.44443Q11.223249,7.362537,11.292893,7.292893Q11.362537,7.223249,11.44443,7.16853Q11.526322,7.113812,11.617317,7.076121Q11.708311,7.03843,11.80491,7.019215Q11.9015086,7,12,7Q12.0984914,7,12.19509,7.019215Q12.291689,7.03843,12.382683,7.076121Q12.473678,7.113812,12.55557,7.16853Q12.637463,7.223249,12.707107,7.292893Q12.776751,7.362537,12.83147,7.44443Q12.886188,7.526322,12.923879,7.617317Q12.96157,7.708311,12.980785000000001,7.80491Q13,7.9015086,13,8L13,16Q13,16.098489999999998,12.980785000000001,16.19509Q12.96157,16.29169,12.923879,16.38268Q12.886188,16.47368,12.83147,16.55557Q12.776751,16.63746,12.707107,16.70711Q12.637463,16.77675,12.55557,16.83147Q12.473678,16.88619,12.382683,16.92388Q12.291689,16.961570000000002,12.19509,16.98078Q12.0984914,17,12,17Q11.9015086,17,11.80491,16.98078Q11.708311,16.961570000000002,11.617317,16.92388Q11.526322,16.88619,11.44443,16.83147Q11.362537,16.77675,11.292893,16.70711Q11.223249,16.63746,11.16853,16.55557Q11.113812,16.47368,11.076121,16.38268Q11.03843,16.29169,11.019214999999999,16.19509Q11,16.098489999999998,11,16ZM13,16Q13,16.098489999999998,12.980785000000001,16.19509Q12.96157,16.29169,12.923879,16.38268Q12.886188,16.47368,12.83147,16.55557Q12.776751,16.63746,12.707107,16.70711Q12.637463,16.77675,12.55557,16.83147Q12.473678,16.88619,12.382683,16.92388Q12.291689,16.961570000000002,12.19509,16.98078Q12.0984914,17,12,17Q11.9015086,17,11.80491,16.98078Q11.708311,16.961570000000002,11.617317,16.92388Q11.526322,16.88619,11.44443,16.83147Q11.362537,16.77675,11.292893,16.70711Q11.223249,16.63746,11.16853,16.55557Q11.113812,16.47368,11.076121,16.38268Q11.03843,16.29169,11.019214999999999,16.19509Q11,16.098489999999998,11,16Q11,15.90151,11.019214999999999,15.80491Q11.03843,15.70831,11.076121,15.61732Q11.113812,15.52632,11.16853,15.44443Q11.223249,15.36254,11.292893,15.29289Q11.362537,15.22325,11.44443,15.16853Q11.526322,15.11381,11.617317,15.07612Q11.708311,15.03843,11.80491,15.019210000000001Q11.9015086,15,12,15Q12.0984914,15,12.19509,15.01922Q12.291689,15.03843,12.382683,15.07612Q12.473678,15.11381,12.55557,15.16853Q12.637463,15.22325,12.707107,15.29289Q12.776751,15.36254,12.83147,15.44443Q12.886188,15.52632,12.923879,15.61732Q12.96157,15.70831,12.980785000000001,15.80491Q13,15.90151,13,16ZM13,8Q13,8.0984914,12.980785000000001,8.19509Q12.96157,8.291689,12.923879,8.382683Q12.886188,8.473678,12.83147,8.55557Q12.776751,8.637463,12.707107,8.707107Q12.637463,8.776751,12.55557,8.83147Q12.473678,8.886188,12.382683,8.923879Q12.291689,8.96157,12.19509,8.980785000000001Q12.0984914,9,12,9Q11.9015086,9,11.80491,8.980785000000001Q11.708311,8.96157,11.617317,8.923879Q11.526322,8.886188,11.44443,8.83147Q11.362537,8.776751,11.292893,8.707107Q11.223249,8.637463,11.16853,8.55557Q11.113812,8.473678,11.076121,8.382683Q11.03843,8.291689,11.019214999999999,8.19509Q11,8.0984914,11,8Q11,7.9015086,11.019214999999999,7.80491Q11.03843,7.708311,11.076121,7.617317Q11.113812,7.526322,11.16853,7.44443Q11.223249,7.362537,11.292893,7.292893Q11.362537,7.223249,11.44443,7.16853Q11.526322,7.113812,11.617317,7.076121Q11.708311,7.03843,11.80491,7.019215Q11.9015086,7,12,7Q12.0984914,7,12.19509,7.019215Q12.291689,7.03843,12.382683,7.076121Q12.473678,7.113812,12.55557,7.16853Q12.637463,7.223249,12.707107,7.292893Q12.776751,7.362537,12.83147,7.44443Q12.886188,7.526322,12.923879,7.617317Q12.96157,7.708311,12.980785000000001,7.80491Q13,7.9015086,13,8Z" fill="#303133" fill-opacity="1"/></g><g><path d="M16,13L8,13Q7.9015086,13,7.80491,12.980785000000001Q7.708311,12.96157,7.617317,12.923879Q7.526322,12.886188,7.44443,12.83147Q7.362537,12.776751,7.292893,12.707107Q7.223249,12.637463,7.16853,12.55557Q7.113812,12.473678,7.076121,12.382683Q7.03843,12.291689,7.019215,12.19509Q7,12.0984914,7,12Q7,11.9015086,7.019215,11.80491Q7.03843,11.708311,7.076121,11.617317Q7.113812,11.526322,7.16853,11.44443Q7.223249,11.362537,7.292893,11.292893Q7.362537,11.223249,7.44443,11.16853Q7.526322,11.113812,7.617317,11.076121Q7.708311,11.03843,7.80491,11.019214999999999Q7.9015086,11,8,11L16,11Q16.098489999999998,11,16.19509,11.019214999999999Q16.29169,11.03843,16.38268,11.076121Q16.47368,11.113812,16.55557,11.16853Q16.63746,11.223249,16.70711,11.292893Q16.77675,11.362537,16.83147,11.44443Q16.88619,11.526322,16.92388,11.617317Q16.961570000000002,11.708311,16.98078,11.80491Q17,11.9015086,17,12Q17,12.0984914,16.98078,12.19509Q16.961570000000002,12.291689,16.92388,12.382683Q16.88619,12.473678,16.83147,12.55557Q16.77675,12.637463,16.70711,12.707107Q16.63746,12.776751,16.55557,12.83147Q16.47368,12.886188,16.38268,12.923879Q16.29169,12.96157,16.19509,12.980785000000001Q16.098489999999998,13,16,13ZM17,12Q17,12.0984914,16.98078,12.19509Q16.961570000000002,12.291689,16.92388,12.382683Q16.88619,12.473678,16.83147,12.55557Q16.77675,12.637463,16.70711,12.707107Q16.63746,12.776751,16.55557,12.83147Q16.47368,12.886188,16.38268,12.923879Q16.29169,12.96157,16.19509,12.980785000000001Q16.098489999999998,13,16,13Q15.90151,13,15.80491,12.980785000000001Q15.70831,12.96157,15.61732,12.923879Q15.52632,12.886188,15.44443,12.83147Q15.36254,12.776751,15.29289,12.707107Q15.22325,12.637463,15.16853,12.55557Q15.11381,12.473678,15.07612,12.382683Q15.03843,12.291689,15.019210000000001,12.19509Q15,12.0984914,15,12Q15,11.9015086,15.019210000000001,11.80491Q15.03843,11.708311,15.07612,11.617317Q15.11381,11.526322,15.16853,11.44443Q15.22325,11.362537,15.29289,11.292893Q15.36254,11.223249,15.44443,11.16853Q15.52632,11.113812,15.61732,11.076121Q15.70831,11.03843,15.80491,11.019214999999999Q15.90151,11,16,11Q16.098489999999998,11,16.19509,11.019214999999999Q16.29169,11.03843,16.38268,11.076121Q16.47368,11.113812,16.55557,11.16853Q16.63746,11.223249,16.70711,11.292893Q16.77675,11.362537,16.83147,11.44443Q16.88619,11.526322,16.92388,11.617317Q16.961570000000002,11.708311,16.98078,11.80491Q17,11.9015086,17,12ZM9,12Q9,12.0984914,8.980785000000001,12.19509Q8.96157,12.291689,8.923879,12.382683Q8.886188,12.473678,8.83147,12.55557Q8.776751,12.637463,8.707107,12.707107Q8.637463,12.776751,8.55557,12.83147Q8.473678,12.886188,8.382683,12.923879Q8.291689,12.96157,8.19509,12.980785000000001Q8.0984914,13,8,13Q7.9015086,13,7.80491,12.980785000000001Q7.708311,12.96157,7.617317,12.923879Q7.526322,12.886188,7.44443,12.83147Q7.362537,12.776751,7.292893,12.707107Q7.223249,12.637463,7.16853,12.55557Q7.113812,12.473678,7.076121,12.382683Q7.03843,12.291689,7.019215,12.19509Q7,12.0984914,7,12Q7,11.9015086,7.019215,11.80491Q7.03843,11.708311,7.076121,11.617317Q7.113812,11.526322,7.16853,11.44443Q7.223249,11.362537,7.292893,11.292893Q7.362537,11.223249,7.44443,11.16853Q7.526322,11.113812,7.617317,11.076121Q7.708311,11.03843,7.80491,11.019214999999999Q7.9015086,11,8,11Q8.0984914,11,8.19509,11.019214999999999Q8.291689,11.03843,8.382683,11.076121Q8.473678,11.113812,8.55557,11.16853Q8.637463,11.223249,8.707107,11.292893Q8.776751,11.362537,8.83147,11.44443Q8.886188,11.526322,8.923879,11.617317Q8.96157,11.708311,8.980785000000001,11.80491Q9,11.9015086,9,12Z"  fill-opacity="1"/></g></g></svg>