<svg xmlns="http://www.w3.org/2000/svg" xmlns:xlink="http://www.w3.org/1999/xlink" fill="none" version="1.1" viewBox="0 0 24 24"><defs><clipPath id="master_svg0_1616_8672"><rect x="0" y="0" width="24" height="24" rx="0"/></clipPath></defs><g clip-path="url(#master_svg0_1616_8672)"><g><path d="M5.63603,18.3639Q6.88218,19.6101,8.497119999999999,20.2931Q10.16831,21,12,21Q13.8317,21,15.5029,20.2931Q17.117800000000003,19.6101,18.3639,18.3639Q19.6101,17.117800000000003,20.2931,15.5029Q21,13.8317,21,12Q21,10.16831,20.2931,8.497119999999999Q19.6101,6.88218,18.3639,5.63603Q17.117800000000003,4.38992,15.5029,3.70685Q13.8317,3,12,3Q10.16831,3,8.497119999999999,3.70685Q6.88218,4.38992,5.63603,5.6360399999999995Q4.38992,6.88218,3.70685,8.497119999999999Q3,10.16831,3,12Q3,13.8317,3.70685,15.5029Q4.38991,17.117800000000003,5.6360399999999995,18.3639L5.63603,18.3639ZM4.22182,19.7782Q2.6998670000000002,18.2562,1.864846,16.282Q1,14.2373,1,12Q1,9.76274,1.864846,7.71801Q2.699864,5.74381,4.221830000000001,4.22182Q5.74381,2.699865,7.71801,1.864846Q9.76274,1,12,1Q14.2373,1,16.282,1.864846Q18.2562,2.6998670000000002,19.7782,4.221830000000001Q21.3001,5.74381,22.1351,7.71801Q23,9.76274,23,12Q23,14.2373,22.1351,16.282Q21.3001,18.2562,19.7782,19.7782Q18.2562,21.3001,16.282,22.1351Q14.2373,23,12,23Q9.76274,23,7.71801,22.1351Q5.74381,21.3001,4.221830000000001,19.7782L4.22182,19.7782Z" fill="#303133" fill-opacity="1"/></g><g><path d="M8,9.312399864196777Q8,7.655549864196777,9.171575,6.483973864196777Q10.34315,5.312399864196777,12,5.312399864196777Q13.65685,5.312399864196777,14.82843,6.483974864196777Q16,7.655549864196777,16,9.312399864196777Q16,10.969249864196778,14.82843,12.140829864196778Q13.65685,13.312399864196777,12,13.312399864196777L12,12.312399864196777L13,12.312399864196777L13,14.312399864196777Q13,14.410889864196777,12.98078,14.507489864196778Q12.96157,14.604089864196776,12.92388,14.695079864196778Q12.88619,14.786079864196777,12.83147,14.867969864196777Q12.77675,14.949859864196778,12.70711,15.019509864196777Q12.63746,15.089149864196777,12.55557,15.143869864196777Q12.47368,15.198589864196776,12.38268,15.236279864196778Q12.29169,15.273969864196777,12.19509,15.293179864196777Q12.09849,15.312399864196777,12,15.312399864196777Q11.90151,15.312399864196777,11.80491,15.293179864196777Q11.70831,15.273969864196777,11.61732,15.236279864196778Q11.52632,15.198589864196776,11.44443,15.143869864196777Q11.36254,15.089149864196777,11.29289,15.019509864196777Q11.22325,14.949859864196778,11.16853,14.867969864196777Q11.11381,14.786079864196777,11.07612,14.695079864196778Q11.03843,14.604089864196776,11.019210000000001,14.507489864196778Q11,14.410889864196777,11,14.312399864196777L11,12.312399864196777Q11,12.213909864196777,11.019210000000001,12.117309864196777Q11.03843,12.020709864196778,11.07612,11.929719864196777Q11.11381,11.838719864196777,11.16853,11.756829864196778Q11.22325,11.674939864196777,11.29289,11.605289864196777Q11.36254,11.535649864196778,11.44443,11.480929864196778Q11.52632,11.426209864196778,11.61732,11.388519864196777Q11.70831,11.350829864196777,11.80491,11.331609864196778Q11.90151,11.312399864196777,12,11.312399864196777Q12.82842,11.312399864196777,13.41421,10.726609864196778Q14,10.140819864196777,14,9.312399864196777Q14,8.483979864196778,13.41421,7.898189864196778Q12.82842,7.312399864196777,12,7.312399864196777Q11.17158,7.312399864196777,10.58579,7.898189864196778Q10,8.483979864196778,10,9.312399864196777Q10,9.410889864196777,9.980785000000001,9.507489864196778Q9.96157,9.604089864196776,9.923879,9.695079864196778Q9.886188,9.786079864196777,9.83147,9.867969864196777Q9.776751,9.949859864196778,9.707107,10.019509864196777Q9.637463,10.089149864196777,9.55557,10.143869864196777Q9.473678,10.198589864196776,9.382683,10.236279864196778Q9.291689,10.273969864196777,9.19509,10.293179864196777Q9.0984914,10.312399864196777,9,10.312399864196777Q8.9015086,10.312399864196777,8.80491,10.293179864196777Q8.708311,10.273969864196777,8.617317,10.236279864196778Q8.526322,10.198589864196776,8.44443,10.143869864196777Q8.362537,10.089149864196777,8.292893,10.019509864196777Q8.223249,9.949859864196778,8.16853,9.867969864196777Q8.113812,9.786079864196777,8.076121,9.695079864196778Q8.03843,9.604089864196776,8.019214999999999,9.507489864196778Q8,9.410889864196777,8,9.312399864196777ZM10,9.312399864196777Q10,9.410889864196777,9.980785000000001,9.507489864196778Q9.96157,9.604089864196776,9.923879,9.695079864196778Q9.886188,9.786079864196777,9.83147,9.867969864196777Q9.776751,9.949859864196778,9.707107,10.019509864196777Q9.637463,10.089149864196777,9.55557,10.143869864196777Q9.473678,10.198589864196776,9.382683,10.236279864196778Q9.291689,10.273969864196777,9.19509,10.293179864196777Q9.0984914,10.312399864196777,9,10.312399864196777Q8.9015086,10.312399864196777,8.80491,10.293179864196777Q8.708311,10.273969864196777,8.617317,10.236279864196778Q8.526322,10.198589864196776,8.44443,10.143869864196777Q8.362537,10.089149864196777,8.292893,10.019509864196777Q8.223249,9.949859864196778,8.16853,9.867969864196777Q8.113812,9.786079864196777,8.076121,9.695079864196778Q8.03843,9.604089864196776,8.019214999999999,9.507489864196778Q8,9.410889864196777,8,9.312399864196777Q8,9.213909864196777,8.019214999999999,9.117309864196777Q8.03843,9.020709864196778,8.076121,8.929719864196777Q8.113812,8.838719864196777,8.16853,8.756829864196778Q8.223249,8.674939864196777,8.292893,8.605289864196777Q8.362537,8.535649864196778,8.44443,8.480929864196778Q8.526322,8.426209864196778,8.617317,8.388519864196777Q8.708311,8.350829864196777,8.80491,8.331609864196778Q8.9015086,8.312399864196777,9,8.312399864196777Q9.0984914,8.312399864196777,9.19509,8.331609864196778Q9.291689,8.350829864196777,9.382683,8.388519864196777Q9.473678,8.426209864196778,9.55557,8.480929864196778Q9.637463,8.535649864196778,9.707107,8.605289864196777Q9.776751,8.674939864196777,9.83147,8.756829864196778Q9.886188,8.838719864196777,9.923879,8.929719864196777Q9.96157,9.020709864196778,9.980785000000001,9.117309864196777Q10,9.213909864196777,10,9.312399864196777ZM13,14.312399864196777Q13,14.410889864196777,12.98078,14.507489864196778Q12.96157,14.604089864196776,12.92388,14.695079864196778Q12.88619,14.786079864196777,12.83147,14.867969864196777Q12.77675,14.949859864196778,12.70711,15.019509864196777Q12.63746,15.089149864196777,12.55557,15.143869864196777Q12.47368,15.198589864196776,12.38268,15.236279864196778Q12.29169,15.273969864196777,12.19509,15.293179864196777Q12.09849,15.312399864196777,12,15.312399864196777Q11.90151,15.312399864196777,11.80491,15.293179864196777Q11.70831,15.273969864196777,11.61732,15.236279864196778Q11.52632,15.198589864196776,11.44443,15.143869864196777Q11.36254,15.089149864196777,11.29289,15.019509864196777Q11.22325,14.949859864196778,11.16853,14.867969864196777Q11.11381,14.786079864196777,11.07612,14.695079864196778Q11.03843,14.604089864196776,11.019210000000001,14.507489864196778Q11,14.410889864196777,11,14.312399864196777Q11,14.213909864196777,11.019210000000001,14.117309864196777Q11.03843,14.020709864196778,11.07612,13.929719864196777Q11.11381,13.838719864196777,11.16853,13.756829864196778Q11.22325,13.674939864196777,11.29289,13.605289864196777Q11.36254,13.535649864196778,11.44443,13.480929864196778Q11.52632,13.426209864196778,11.61732,13.388519864196777Q11.70831,13.350829864196777,11.80491,13.331609864196778Q11.90151,13.312399864196777,12,13.312399864196777Q12.09849,13.312399864196777,12.19509,13.331619864196778Q12.29169,13.350829864196777,12.38268,13.388519864196777Q12.47368,13.426209864196778,12.55557,13.480929864196778Q12.63746,13.535649864196778,12.70711,13.605289864196777Q12.77675,13.674939864196777,12.83147,13.756829864196778Q12.88619,13.838719864196777,12.92388,13.929719864196777Q12.96157,14.020709864196778,12.98078,14.117309864196777Q13,14.213909864196777,13,14.312399864196777Z" fill="#303133" fill-opacity="1"/></g><g><path d="M12,18.812400817871094C12.69035,18.812400817871094,13.25,18.252750817871092,13.25,17.562400817871094C13.25,16.872049817871094,12.69035,16.312400817871094,12,16.312400817871094C11.30965,16.312400817871094,10.75,16.872049817871094,10.75,17.562400817871094C10.75,18.252750817871092,11.30965,18.812400817871094,12,18.812400817871094Z" fill-rule="evenodd" fill-opacity="1"/></g></g></svg>