<svg xmlns="http://www.w3.org/2000/svg" xmlns:xlink="http://www.w3.org/1999/xlink" fill="none" version="1.1" width="22" height="22" viewBox="0 0 22 22"><defs><clipPath id="master_svg0_4538_01963"><rect x="0" y="0" width="22" height="22" rx="0"/></clipPath></defs><g clip-path="url(#master_svg0_4538_01963)"><g><path d="M18.2,3C18.6416,3,19,3.36759,19,3.820513L19,15.3077C19,15.7606,18.6416,16.1282,18.2,16.1282L6.564,16.1282L3,19L3,3.820513C3,3.36759,3.3584,3,3.8,3L18.2,3ZM10.169599999999999,7.18462L9.812000000000001,6.6201C8.3824,7.256,7.4,8.54256,7.4,9.97846C7.4,10.79487,7.6216,11.29867,8.0336,11.74749C8.2928,12.02974,8.703199999999999,12.23077,9.1328,12.23077C9.9056,12.23077,10.5328,11.58749,10.5328,10.79487C10.5328,10.04,9.964,9.432,9.2416,9.36308C9.1136,9.35077,8.9824,9.35323,8.8584,9.371279999999999L8.8584,9.29579C8.863199999999999,8.949539999999999,8.932,7.9559,10.0216,7.27241L10.169599999999999,7.18462L9.812000000000001,6.6201L10.169599999999999,7.18462ZM13.812,6.6201C12.3824,7.256,11.4,8.54256,11.4,9.97846C11.4,10.79487,11.6216,11.29867,12.0336,11.74749C12.2928,12.02974,12.7032,12.23077,13.1328,12.23077C13.9056,12.23077,14.5328,11.58749,14.5328,10.79487C14.5328,10.04,13.964,9.432,13.2416,9.36308C13.1136,9.35077,12.9824,9.35323,12.8584,9.371279999999999C12.8584,9.114460000000001,12.8352,7.92554,14.1696,7.18462L13.812,6.6201Z" fill="currentColor" fill-opacity="1"/></g></g></svg>