<svg xmlns="http://www.w3.org/2000/svg" xmlns:xlink="http://www.w3.org/1999/xlink" fill="none" version="1.1" width="31" height="21" viewBox="0 0 31 21"><g style="mix-blend-mode:passthrough"><path d="M0,20.5L0,8.5Q0,6.77101,0.668177,5.19126Q1.313401,3.66578,2.4895899999999997,2.4895899999999997Q3.66578,1.313401,5.19126,0.6681779999999999Q6.77101,0,8.5,0L30.5,0L30.5,1L8.5,1Q5.3934,1,3.1967,3.1967Q1,5.3934,1,8.5L1,20.5L0,20.5ZM1,20.5Q1,20.5492,0.9903930000000001,20.5975Q0.980785,20.6458,0.96194,20.6913Q0.943094,20.7368,0.915735,20.7778Q0.888375,20.8187,0.853553,20.8536Q0.818731,20.8884,0.777785,20.9157Q0.736839,20.9431,0.691342,20.9619Q0.645845,20.9808,0.5975451,20.9904Q0.5492457,21,0.5,21Q0.4507543,21,0.4024549,20.9904Q0.354155,20.9808,0.308658,20.9619Q0.263161,20.9431,0.222215,20.9157Q0.181269,20.8884,0.146447,20.8536Q0.11162499999999997,20.8187,0.08426499999999998,20.7778Q0.05690600000000001,20.7368,0.03805999999999998,20.6913Q0.019214999999999982,20.6458,0.009606999999999977,20.5975Q0,20.5492,0,20.5Q0,20.4508,0.009606999999999977,20.4025Q0.019214999999999982,20.3542,0.03805999999999998,20.3087Q0.05690600000000001,20.2632,0.08426499999999998,20.2222Q0.11162499999999997,20.1813,0.146447,20.1464Q0.181269,20.1116,0.222215,20.0843Q0.263161,20.0569,0.308658,20.0381Q0.354155,20.0192,0.4024549,20.0096Q0.4507543,20,0.5,20Q0.5492457,20,0.5975451,20.0096Q0.645845,20.0192,0.691342,20.0381Q0.736839,20.0569,0.777785,20.0843Q0.818731,20.1116,0.853553,20.1464Q0.888375,20.1813,0.915735,20.2222Q0.943094,20.2632,0.96194,20.3087Q0.980785,20.3542,0.9903930000000001,20.4025Q1,20.4508,1,20.5ZM31,0.5Q31,0.5492457,30.9904,0.5975451Q30.9808,0.645845,30.9619,0.691342Q30.9431,0.736839,30.9157,0.777785Q30.8884,0.818731,30.8536,0.853553Q30.8187,0.888375,30.7778,0.915735Q30.7368,0.943094,30.6913,0.96194Q30.6458,0.980785,30.5975,0.9903930000000001Q30.5492,1,30.5,1Q30.4508,1,30.4025,0.9903930000000001Q30.3542,0.980785,30.3087,0.96194Q30.2632,0.943094,30.2222,0.915735Q30.1813,0.888375,30.1464,0.853553Q30.1116,0.818731,30.0843,0.777785Q30.0569,0.736839,30.0381,0.691342Q30.0192,0.645845,30.0096,0.5975451Q30,0.5492457,30,0.5Q30,0.4507543,30.0096,0.4024549Q30.0192,0.354155,30.0381,0.308658Q30.0569,0.263161,30.0843,0.222215Q30.1116,0.181269,30.1464,0.146447Q30.1813,0.11162499999999997,30.2222,0.08426499999999998Q30.2632,0.05690600000000001,30.3087,0.03805999999999998Q30.3542,0.019214999999999982,30.4025,0.009606999999999977Q30.4508,0,30.5,0Q30.5492,0,30.5975,0.009606999999999977Q30.6458,0.019214999999999982,30.6913,0.03805999999999998Q30.7368,0.05690600000000001,30.7778,0.08426499999999998Q30.8187,0.11162499999999997,30.8536,0.146447Q30.8884,0.181269,30.9157,0.222215Q30.9431,0.263161,30.9619,0.308658Q30.9808,0.354155,30.9904,0.4024549Q31,0.4507543,31,0.5Z" fill="#D8D8D8" fill-opacity="1"/><path d="M0,20.5L0,8.5Q0,6.77101,0.668177,5.19126Q1.313401,3.66578,2.4895899999999997,2.4895899999999997Q3.66578,1.313401,5.19126,0.6681779999999999Q6.77101,0,8.5,0L30.5,0L30.5,1L8.5,1Q5.3934,1,3.1967,3.1967Q1,5.3934,1,8.5L1,20.5L0,20.5ZM1,20.5Q1,20.5492,0.9903930000000001,20.5975Q0.980785,20.6458,0.96194,20.6913Q0.943094,20.7368,0.915735,20.7778Q0.888375,20.8187,0.853553,20.8536Q0.818731,20.8884,0.777785,20.9157Q0.736839,20.9431,0.691342,20.9619Q0.645845,20.9808,0.5975451,20.9904Q0.5492457,21,0.5,21Q0.4507543,21,0.4024549,20.9904Q0.354155,20.9808,0.308658,20.9619Q0.263161,20.9431,0.222215,20.9157Q0.181269,20.8884,0.146447,20.8536Q0.11162499999999997,20.8187,0.08426499999999998,20.7778Q0.05690600000000001,20.7368,0.03805999999999998,20.6913Q0.019214999999999982,20.6458,0.009606999999999977,20.5975Q0,20.5492,0,20.5Q0,20.4508,0.009606999999999977,20.4025Q0.019214999999999982,20.3542,0.03805999999999998,20.3087Q0.05690600000000001,20.2632,0.08426499999999998,20.2222Q0.11162499999999997,20.1813,0.146447,20.1464Q0.181269,20.1116,0.222215,20.0843Q0.263161,20.0569,0.308658,20.0381Q0.354155,20.0192,0.4024549,20.0096Q0.4507543,20,0.5,20Q0.5492457,20,0.5975451,20.0096Q0.645845,20.0192,0.691342,20.0381Q0.736839,20.0569,0.777785,20.0843Q0.818731,20.1116,0.853553,20.1464Q0.888375,20.1813,0.915735,20.2222Q0.943094,20.2632,0.96194,20.3087Q0.980785,20.3542,0.9903930000000001,20.4025Q1,20.4508,1,20.5ZM31,0.5Q31,0.5492457,30.9904,0.5975451Q30.9808,0.645845,30.9619,0.691342Q30.9431,0.736839,30.9157,0.777785Q30.8884,0.818731,30.8536,0.853553Q30.8187,0.888375,30.7778,0.915735Q30.7368,0.943094,30.6913,0.96194Q30.6458,0.980785,30.5975,0.9903930000000001Q30.5492,1,30.5,1Q30.4508,1,30.4025,0.9903930000000001Q30.3542,0.980785,30.3087,0.96194Q30.2632,0.943094,30.2222,0.915735Q30.1813,0.888375,30.1464,0.853553Q30.1116,0.818731,30.0843,0.777785Q30.0569,0.736839,30.0381,0.691342Q30.0192,0.645845,30.0096,0.5975451Q30,0.5492457,30,0.5Q30,0.4507543,30.0096,0.4024549Q30.0192,0.354155,30.0381,0.308658Q30.0569,0.263161,30.0843,0.222215Q30.1116,0.181269,30.1464,0.146447Q30.1813,0.11162499999999997,30.2222,0.08426499999999998Q30.2632,0.05690600000000001,30.3087,0.03805999999999998Q30.3542,0.019214999999999982,30.4025,0.009606999999999977Q30.4508,0,30.5,0Q30.5492,0,30.5975,0.009606999999999977Q30.6458,0.019214999999999982,30.6913,0.03805999999999998Q30.7368,0.05690600000000001,30.7778,0.08426499999999998Q30.8187,0.11162499999999997,30.8536,0.146447Q30.8884,0.181269,30.9157,0.222215Q30.9431,0.263161,30.9619,0.308658Q30.9808,0.354155,30.9904,0.4024549Q31,0.4507543,31,0.5Z" fill="#BFC2CC" fill-opacity="1"/></g></svg>