<svg xmlns="http://www.w3.org/2000/svg" xmlns:xlink="http://www.w3.org/1999/xlink" fill="none" version="1.1" width="18" height="20" viewBox="0 0 18 20"><g><path d="M17.9022,4.04674C16.2037,5.92853,13.9531,7.2225,11.4749,7.74434C11.3056,7.77999,11.14,7.69453,11.0401,7.55336C10.575,6.89662,9.81659,6.49848,9,6.49848C8.18341,6.49848,7.42499,6.89662,6.95994,7.55336C6.85998,7.69453,6.69437,7.77999,6.5251,7.74435C4.04692,7.2225,1.79626,5.92853,0.0978341,4.04674C0.0326276,3.9745,0,3.88331,0,3.78599L0,1C0,0.447715,0.447715,0,1,0L17,0C17.5523,0,18,0.447715,18,1L18,3.78599C18,3.88331,17.9674,3.9745,17.9022,4.04674M18,7.58342L18,19C18,19.5523,17.5523,20,17,20L1,20C0.447715,20,0,19.5523,0,19L0,7.58342C0,7.24337,0.403929,7.05652,0.677145,7.25896C2.36813,8.51187,4.32327,9.36747,6.39676,9.75811C6.54131,9.78534,6.65719,9.88883,6.71724,10.0231C7.11658,10.9161,8.00708,11.5022,9,11.5022C9.99292,11.5022,10.8834,10.9161,11.2828,10.0231C11.3428,9.88883,11.4587,9.78534,11.6032,9.75811C13.6767,9.36747,15.6319,8.51187,17.3229,7.25896C17.5961,7.05652,18,7.24337,18,7.58342" fill="#303133" fill-opacity="1"/></g></svg>