<svg xmlns="http://www.w3.org/2000/svg" xmlns:xlink="http://www.w3.org/1999/xlink"  version="1.1" viewBox="0 0 24.000001907348633 24"><defs><clipPath id="master_svg0_790_3759"><rect x="0" y="0" width="24.000001907348633" height="24" rx="0"/></clipPath></defs><g style="mix-blend-mode:passthrough" clip-path="url(#master_svg0_790_3759)"><g style="mix-blend-mode:passthrough"><path d="M11.25,4C11.25,4.46413,11.4344,4.90925,11.7626,5.237439999999999L16.775100000000002,10.25L3,10.25C2.033502,10.25,1.25,11.0335,1.25,12C1.25,12.9665,2.033502,13.75,3,13.75L16.775100000000002,13.75L11.7626,18.7626C11.4344,19.0908,11.25,19.5359,11.25,20C11.25,20.9665,12.0335,21.75,13,21.75C13.4641,21.75,13.9092,21.5656,14.2374,21.2374L14.2374,21.2374L22.2374,13.2374C22.9209,12.554,22.9209,11.44598,22.2374,10.76256L14.2374,2.762563C13.9092,2.434374,13.4641,2.25,13,2.25C12.0335,2.25,11.25,3.033502,11.25,4Z" fill-rule="evenodd" fill-opacity="1"/></g></g></svg>