<svg xmlns="http://www.w3.org/2000/svg" xmlns:xlink="http://www.w3.org/1999/xlink"  version="1.1"  viewBox="0 0 24.2373046875 20.00048828125"><g><path d="M12.8614,2.3756820703125C12.4709,1.9851620703125,12.4709,1.3519920703125,12.8614,0.9614720703125L13.53,0.2928390703125C13.9206,-0.0976855296875,14.5537,-0.0976855296875,14.9443,0.2928390703125L23.9443,9.2928620703125C24.2273,9.5759020703125,24.3052,9.9864020703125,24.178,10.3396220703125C24.1297,10.4739220703125,24.0517,10.5999220703125,23.9441,10.7075220703125L14.9441,19.7076220703125C14.5536,20.0981220703125,13.9204,20.0981220703125,13.5299,19.7076220703125L12.8612,19.0389220703125C12.4707,18.6484220703125,12.4707,18.0152220703125,12.8612,17.6247220703125L19.0129,11.4730220703125L0.999727,11.4730220703125C0.447443,11.4730220703125,-0.000272751,11.0253220703125,-0.000272751,10.4730220703125L-0.000272751,9.5274620703125C-0.000272751,8.9751820703125,0.447443,8.5274620703125,0.999727,8.5274620703125L19.0132,8.5274620703125L12.8614,2.3756820703125Z" fill-rule="evenodd"  fill-opacity="1"/></g></svg>