<svg xmlns="http://www.w3.org/2000/svg" xmlns:xlink="http://www.w3.org/1999/xlink" fill="none" version="1.1" width="24" height="24" viewBox="0 0 24 24"><defs><clipPath id="master_svg0_1705_3502"><rect x="24" y="0" width="24" height="24" rx="0"/></clipPath></defs><g transform="matrix(-1,0,0,1,48,0)" clip-path="url(#master_svg0_1705_3502)"><g><path d="M45.4688,11.62286Q46.25,12.408909999999999,46.25,13.51723Q46.25,14.62556,45.4688,15.4116L39.4198,21.4622Q38.6331,22.25,37.5192,22.25Q36.40541,22.25,35.61827,21.4618L28.043196000000002,13.89326Q27.902405,13.75259,27.826203,13.56873Q27.75,13.38487,27.75,13.18585L27.75,4.75Q27.75,4.6515086,27.769215,4.55491Q27.788429999999998,4.458311,27.826121,4.367317Q27.863812,4.276322,27.91853,4.19443Q27.973249,4.112537,28.042893,4.042893Q28.112537,3.973249,28.19443,3.91853Q28.276322,3.8638120000000002,28.367317,3.826121Q28.458311,3.78843,28.55491,3.769215Q28.6515086,3.75,28.75,3.75L37.18368,3.75Q37.38262,3.75,37.56642,3.826145Q37.75022,3.90229,37.890879999999996,4.042984L45.4667,11.62076L45.4688,11.62286ZM44.0523,13.0348L36.47648,5.457016L37.18368,4.75L37.18368,5.75L28.75,5.75L28.75,4.75L29.75,4.75L29.75,13.18585L28.75,13.18585L29.456803999999998,12.478439999999999L37.0334,20.0485Q37.2346,20.25,37.5192,20.25Q37.80383,20.25,38.00537,20.0482L44.050200000000004,14.00177Q44.531800000000004,13.51723,44.050200000000004,13.03269L44.0523,13.0348Z" fill="currentColor" fill-opacity="1"/></g><g><path d="M33.669631015625,10.8423134375C34.316541015625,10.8423134375,34.840981015625,10.317743437499999,34.840981015625,9.6706734375C34.840981015625,9.0235914375,34.316541015625,8.4990234375,33.669631015625,8.4990234375C33.022726015625,8.4990234375,32.498291015625,9.0235914375,32.498291015625,9.6706734375C32.498291015625,10.317743437499999,33.022726015625,10.8423134375,33.669631015625,10.8423134375Z" fill-rule="evenodd" fill="currentColor" fill-opacity="1"/></g></g></svg>