<svg xmlns="http://www.w3.org/2000/svg" xmlns:xlink="http://www.w3.org/1999/xlink"  version="1.1" viewBox="0 0 24 24"><defs><clipPath><rect x="0" y="0" width="24" height="24" rx="0"/></clipPath></defs><g clip-path="url(#master_svg0_1616_8699)"><g><path d="M12,20.50006988143921Q11.33876,20.50006988143921,10.81007,20.89226988143921Q10.29005,21.278169881439208,10.09441,21.89016988143921Q10.06481,21.98276988143921,10.01792,22.067969881439208Q9.971029999999999,22.153069881439208,9.90861,22.22766988143921Q9.84619,22.30216988143921,9.770579999999999,22.36326988143921Q9.69497,22.424469881439208,9.609,22.46986988143921Q9.52303,22.51526988143921,9.429929999999999,22.54326988143921Q9.33682,22.57126988143921,9.24006,22.58076988143921Q9.14331,22.59036988143921,9.046520000000001,22.58106988143921Q8.94974,22.57176988143921,8.85655,22.54406988143921Q6.08734,21.71956988143921,4.0733999999999995,19.62686988143921Q4.00964,19.56066988143921,3.9590300000000003,19.483869881439208Q3.90842,19.40716988143921,3.8726599999999998,19.322369881439208Q3.8369,19.23766988143921,3.81719,19.14786988143921Q3.7974699999999997,19.05806988143921,3.79447,18.96616988143921Q3.79146,18.874269881439208,3.80527,18.78336988143921Q3.81907,18.69246988143921,3.84922,18.60556988143921Q3.8793800000000003,18.51876988143921,3.92486,18.43876988143921Q3.97035,18.358869881439208,4.0296400000000006,18.28866988143921Q4.5,17.731169881439207,4.5,17.00006988143921Q4.5,16.171669881439207,3.9142099999999997,15.585869881439208Q3.32843,15.00006988143921,2.5,15.00006988143921Q2.400102,15.00006988143921,2.300781,15.009769881439208Q2.209277,15.018769881439209,2.117668,15.010969881439209Q2.0260586,15.00306988143921,1.9374158,14.97866988143921Q1.848773,14.95426988143921,1.7660689999999999,14.91406988143921Q1.683365,14.873969881439209,1.609373,14.81936988143921Q1.535382,14.764769881439209,1.472583,14.69756988143921Q1.4097840000000001,14.63046988143921,1.360284,14.552969881439209Q1.310784,14.475469881439208,1.276243,14.39026988143921Q1.241702,14.30506988143921,1.223278,14.21496988143921Q1,13.123369881439208,1,12.000049881439208Q1,10.304139881439209,1.503854,8.700079881439208Q1.527757,8.623979881439208,1.563423,8.55262988143921Q1.599088,8.48127988143921,1.645612,8.416489881439208Q1.692137,8.35168988143921,1.748344,8.29509988143921Q1.804551,8.238499881439209,1.86902,8.191529881439209Q1.9334886,8.14454988143921,2.00458824,8.108399881439208Q2.0756878,8.07223988143921,2.15162,8.047809881439209Q2.227553,8.023379881439208,2.306398,8.01128988143921Q2.385243,7.999209881439209,2.465007,7.999779881439209L2.5071120000000002,8.00006988143921Q3.32843,8.00004988143921,3.9142099999999997,7.414259881439209Q4.5,6.828479881439209,4.5,6.0000498814392085Q4.5,5.532299881439209,4.29538,5.117239881439209Q4.259930000000001,5.045339881439209,4.23639,4.968719881439209Q4.2128499999999995,4.89209988143921,4.20182,4.812699881439209Q4.19079,4.733309881439209,4.19254,4.653169881439209Q4.1942900000000005,4.573039881439209,4.2087900000000005,4.494199881439209Q4.22329,4.415369881439209,4.25016,4.339849881439209Q4.27703,4.264329881439209,4.315580000000001,4.194049881439209Q4.35414,4.123779881439209,4.40339,4.060539881439209Q4.45265,3.9972998814392087,4.51135,3.942719881439209Q6.48063,2.111623881439209,9.05927,1.397813881439209Q9.14193,1.3749288814392089,9.22729,1.366457881439209Q9.31265,1.357989881439209,9.398209999999999,1.364176881439209Q9.48376,1.370365881439209,9.56701,1.391035881439209Q9.650269999999999,1.411704881439209,9.72878,1.446250881439209Q9.80729,1.480795881439209,9.878779999999999,1.528208881439209Q9.95026,1.575620881439209,10.01263,1.6345138814392088Q10.075,1.6934078814392088,10.12642,1.7620618814392088Q10.17784,1.830716881439209,10.21683,1.907125881439209Q10.46942,2.402248281439209,10.9418,2.697647881439209Q11.4254,3.000064881439209,12,3.000064881439209Q12.5746,3.000064881439209,13.0582,2.697647881439209Q13.5306,2.402248181439209,13.7832,1.907125881439209Q13.8222,1.830716881439209,13.8736,1.7620618814392088Q13.925,1.6934078814392088,13.9874,1.6345138814392088Q14.0497,1.575620881439209,14.1212,1.5282078814392088Q14.1927,1.480795881439209,14.2712,1.446250881439209Q14.3497,1.411704881439209,14.433,1.391035881439209Q14.5162,1.370365881439209,14.6018,1.364176881439209Q14.6873,1.357989881439209,14.7727,1.366457881439209Q14.8581,1.3749288814392089,14.9407,1.397813881439209Q17.519399999999997,2.111624881439209,19.4886,3.942719881439209Q19.5473,3.997309881439209,19.5966,4.060539881439209Q19.6459,4.123779881439209,19.6844,4.194049881439209Q19.723,4.264329881439209,19.7498,4.339849881439209Q19.7767,4.415369881439209,19.7912,4.494199881439209Q19.8057,4.57302988143921,19.8075,4.653169881439209Q19.8092,4.733309881439209,19.7982,4.812699881439209Q19.7871,4.89209988143921,19.7636,4.968719881439209Q19.7401,5.045339881439209,19.7046,5.117239881439209Q19.5,5.532299881439209,19.5,6.0000498814392085Q19.5,6.828469881439209,20.0858,7.414259881439209Q20.6716,8.00004988143921,21.5,8.00004988143921L21.535,7.999779881439209Q21.6148,7.999209881439209,21.6936,8.01128988143921Q21.7724,8.023379881439208,21.8484,8.047809881439209Q21.9243,8.07223988143921,21.9954,8.108399881439208Q22.0665,8.144559881439209,22.131,8.191529881439209Q22.1954,8.238499881439209,22.2517,8.29509988143921Q22.3079,8.35169988143921,22.3544,8.416489881439208Q22.4009,8.48128988143921,22.4366,8.552639881439209Q22.4722,8.623979881439208,22.4961,8.700089881439208Q23,10.30421988143921,23,12.000049881439208Q23,13.123269881439208,22.7767,14.21496988143921Q22.7583,14.30506988143921,22.7238,14.39026988143921Q22.6892,14.475469881439208,22.6397,14.552969881439209Q22.5902,14.63046988143921,22.5274,14.69756988143921Q22.4646,14.764769881439209,22.3906,14.81936988143921Q22.3166,14.873969881439209,22.2339,14.91406988143921Q22.1512,14.95426988143921,22.0626,14.97866988143921Q21.9739,15.00306988143921,21.8823,15.010969881439209Q21.7907,15.018769881439209,21.6992,15.009769881439208Q21.5999,15.00006988143921,21.5,15.00006988143921Q20.6716,15.00006988143921,20.0858,15.585869881439208Q19.5,16.171669881439207,19.5,17.00006988143921Q19.5,17.731169881439207,19.9704,18.28866988143921Q20.0296,18.358869881439208,20.0751,18.43886988143921Q20.1206,18.51876988143921,20.1508,18.60556988143921Q20.1809,18.69246988143921,20.1947,18.78336988143921Q20.2085,18.874269881439208,20.2055,18.96616988143921Q20.2025,19.05806988143921,20.1828,19.14786988143921Q20.1631,19.23766988143921,20.1273,19.322369881439208Q20.0916,19.40716988143921,20.041,19.483869881439208Q19.9903,19.56066988143921,19.9266,19.62686988143921Q17.9127,21.71956988143921,15.1434,22.54406988143921Q15.0503,22.57176988143921,14.9535,22.58106988143921Q14.8567,22.59036988143921,14.7599,22.58076988143921Q14.6632,22.57126988143921,14.5701,22.54326988143921Q14.477,22.51526988143921,14.391,22.46986988143921Q14.305,22.424469881439208,14.2294,22.36326988143921Q14.1538,22.30216988143921,14.0914,22.22766988143921Q14.029,22.153069881439208,13.9821,22.067969881439208Q13.9352,21.98276988143921,13.9056,21.89016988143921Q13.7099,21.278169881439208,13.1899,20.89226988143921Q12.6612,20.50006988143921,12,20.50006988143921ZM12,18.50006988143921Q13.3222,18.50006988143921,14.3816,19.28616988143921Q15.4189,20.055769881439208,15.8106,21.281169881439208L14.8581,21.58566988143921L14.5728,20.627269881439208Q16.837,19.95306988143921,18.4855,18.24006988143921L19.2061,18.93346988143921L18.4417,19.578369881439208Q17.5,18.46216988143921,17.5,17.00006988143921Q17.5,15.34316988143921,18.6716,14.17166988143921Q19.8431,13.00006988143921,21.5,13.00006988143921Q21.6979,13.00006988143921,21.8948,13.019369881439209L21.797,14.01456988143921L20.8173,13.81416988143921Q21,12.92086988143921,21,12.000049881439208Q21,10.610929881439208,20.5881,9.299409881439209L21.5421,8.99974988143921L21.5492,9.999719881439209L21.5,10.00004988143921Q19.8431,10.00004988143921,18.6716,8.82847988143921Q17.5,7.656899881439209,17.5,6.0000498814392085Q17.5,5.0660898814392095,17.910800000000002,4.232869881439209L18.8077,4.675059881439209L18.1268,5.407389881439209Q16.5151,3.9088498814392088,14.4072,3.325325881439209L14.674,2.361569881439209L15.5647,2.816013881439209Q15.0605,3.804389881439209,14.1186,4.393379881439209Q13.1485,5.000059881439209,12,5.000059881439209Q10.85153,5.000059881439209,9.88138,4.393379881439209Q8.93951,3.804389881439209,8.43527,2.816013881439209L9.32605,2.361569881439209L9.59283,3.325325881439209Q7.48487,3.9088498814392088,5.8732500000000005,5.407389881439209L5.1922999999999995,4.675059881439209L6.08922,4.232869881439209Q6.5,5.0660898814392095,6.5,6.0000498814392085Q6.5,7.656899881439209,5.32843,8.82847988143921Q4.15685,10.00004988143921,2.4928879999999998,10.000019881439208L2.450783,9.999719881439209L2.457895,8.99974988143921L3.41194,9.29942988143921Q3,10.61085988143921,3,12.000049881439208Q3,12.92086988143921,3.18271,13.81416988143921L2.202995,14.01456988143921L2.105209,13.019369881439209Q2.302075,13.00006988143921,2.5,13.00006988143921Q4.15686,13.00006988143921,5.32843,14.17166988143921Q6.5,15.34316988143921,6.5,17.00006988143921Q6.5,18.46216988143921,5.55823,19.578369881439208L4.79393,18.93346988143921L5.51447,18.24006988143921Q7.16303,19.95306988143921,9.42725,20.627269881439208L9.1419,21.58566988143921L8.18939,21.281169881439208Q8.58113,20.055769881439208,9.61835,19.28616988143921Q10.67783,18.50006988143921,12,18.50006988143921Z" fill-opacity="1"/></g><g><path d="M9.5,12Q9.5,13.035540000000001,10.23223,13.767769999999999Q10.964459999999999,14.5,12,14.5Q13.035540000000001,14.5,13.767769999999999,13.767769999999999Q14.5,13.035540000000001,14.5,12Q14.5,10.964459999999999,13.767769999999999,10.23223Q13.035540000000001,9.5,12,9.5Q10.964459999999999,9.5,10.23223,10.23223Q9.5,10.964459999999999,9.5,12ZM7.5,12Q7.5,10.13604,8.818018,8.818018Q10.13604,7.5,12,7.5Q13.863959999999999,7.5,15.18198,8.818018Q16.5,10.13604,16.5,12Q16.5,13.863959999999999,15.18198,15.18198Q13.863959999999999,16.5,12,16.5Q10.13604,16.5,8.818018,15.18198Q7.5,13.863959999999999,7.5,12Z" fill-opacity="1"/></g></g></svg>