<svg xmlns="http://www.w3.org/2000/svg" xmlns:xlink="http://www.w3.org/1999/xlink" fill="none" version="1.1" width="16.51553726196289" height="15" viewBox="0 0 16.51553726196289 15"><g transform="matrix(1,0,0,-1,0,30)"><path d="M13.9381,19.96917L16.3298,22.36088C16.5775,22.60855,16.5775,23.0101,16.3298,23.25777L10.845,28.7426C9.16842,30.4191,6.45023,30.4191,4.77369,28.7426C4.63398,28.602899999999998,4.63398,28.3764,4.77369,28.2367L7.65984,25.3505L0.185752,17.87642C-0.0619174,17.62876,-0.0619174,17.2272,0.185752,16.97953L1.97953,15.185752C2.2272,14.9380826,2.62875,14.9380826,2.87642,15.185752L10.3505,22.65984L13.0412,19.96917C13.2889,19.7215,13.6904,19.7215,13.9381,19.96917Z" fill-rule="evenodd" fill="#303133" fill-opacity="1"/></g></svg>