<svg xmlns="http://www.w3.org/2000/svg" xmlns:xlink="http://www.w3.org/1999/xlink" fill="none" version="1.1" width="30.228815727079905" height="30.228815727079905" viewBox="0 0 30.228815727079905 30.228815727079905"><g transform="matrix(-0.7071067690849304,-0.7071067690849304,-0.7071067690849304,0.7071067690849304,61.103815623947966,25.31002915982403)"><path d="M30.228815727079905,19.45169861261368L30.228815727079905,14.385028612613677C30.228815727079905,13.860357612613678,30.654145727079904,13.435028612613678,31.178815727079904,13.435028612613678L42.79801572707991,13.435028612613678C46.34961572707991,13.435028612613678,49.228815727079905,16.314178612613677,49.228815727079905,19.865798612613677C49.228815727079905,20.161768612613677,48.988915727079906,20.40169861261368,48.69291572707991,20.40169861261368L42.578815727079906,20.40169861261368L42.578815727079906,36.235028612613675C42.578815727079906,36.75972861261368,42.153515727079906,37.18502861261368,41.6288157270799,37.18502861261368L37.828815727079906,37.18502861261368C37.304145727079906,37.18502861261368,36.8788157270799,36.75972861261368,36.8788157270799,36.235028612613675L36.8788157270799,20.40169861261368L31.178815727079904,20.40169861261368C30.654145727079904,20.40169861261368,30.228815727079905,19.976368612613676,30.228815727079905,19.45169861261368Z" fill-rule="evenodd" fill="#303133" fill-opacity="1"/></g></svg>