<svg xmlns="http://www.w3.org/2000/svg" xmlns:xlink="http://www.w3.org/1999/xlink" fill="none" version="1.1" width="24" height="24" viewBox="0 0 24 24"><defs><clipPath id="master_svg0_4133_02258"><rect x="0" y="0" width="24" height="24" rx="0"/></clipPath></defs><g clip-path="url(#master_svg0_4133_02258)"><g><path d="M12.999998569488525,14L10.999998569488525,14C7.9262585694885255,13.9988,5.084858569488525,15.5644,3.4372675694885255,18.116300000000003C3.3096955694885253,18.3139,3.0000665262885255,18.243299999999998,2.9999990813835256,18.0081C2.9999983062035254,18.0054,2.9999986124052254,18.0027,2.999999999998525,18C2.999999999998525,12.477,7.476998569488526,8,12.999998569488525,8L12.999998569488525,4.04031C12.999998569488525,3.621059,13.484998569488525,3.387973,13.812298569488526,3.649878L22.219098569488526,10.3753C22.619498569488524,10.69556,22.619498569488524,11.30443,22.219098569488526,11.62469L13.812298569488526,18.350099999999998C13.484998569488525,18.612000000000002,12.999998569488525,18.3789,12.999998569488525,17.959699999999998L12.999998569488525,14Z" fill="#303133" fill-opacity="1"/></g></g></svg>