<svg xmlns="http://www.w3.org/2000/svg" xmlns:xlink="http://www.w3.org/1999/xlink" fill="none" version="1.1" width="22" height="22" viewBox="0 0 22 22"><defs><clipPath id="master_svg0_4538_01965"><rect x="0" y="0" width="22" height="22" rx="0"/></clipPath></defs><g clip-path="url(#master_svg0_4538_01965)"><g><path d="M10,13.8873046875L9.07526,13.8873046875C9.07509,13.8873046875,9.07516,13.8873046875,9.07499,13.8873046875C6.11652,13.8862046875,3.38167,15.3930046875,1.795871,17.8492046875C1.673092,18.0394046875,1.3750654038,17.9715046875,1.375000492699,17.7451046875C1.374999746588,17.742504687500002,1.3750000413073,17.7399046875,1.37500137687,17.7373046875C1.37500137687,12.7603046875,5.15221,8.6658046875,9.99647,8.163984687500001C10.54581,8.107074687499999,11,7.6645846875,11,7.1123046875L11,5.3804246875C11,4.5419246875,11.9699,4.0757506875,12.6247,4.5995646875L19.1609,9.8285046875C19.9115,10.428994687500001,19.9115,11.5706246875,19.1609,12.1711046875L12.6247,17.4000046875C11.9699,17.9239046875,11,17.457704687499998,11,16.6192046875L11,14.8873046875C11,14.3350046875,10.55229,13.8873046875,10,13.8873046875" fill="currentColor" fill-opacity="1"/></g></g></svg>