<svg xmlns="http://www.w3.org/2000/svg" xmlns:xlink="http://www.w3.org/1999/xlink" fill="currentColor" version="1.1" viewBox="0 0 24.000030517578125 19"><g style="mix-blend-mode:passthrough"><g><g><path d="M1.40838,12.6274L1.39808,12.617C0.500895,11.7118,-0.00204836,10.4849,0.00000706331,9.20632C-0.00212606,7.87691,0.541495,6.60567,1.50224,5.69339L1.50062,5.69175L5.73501,1.41263C6.62768,0.507364,7.84281,-0.001237,9.11002,0.00000355459C11.7514,0.00540297,13.8883,2.1649,13.883,4.82342C13.8851,6.10816,13.3773,7.34053,12.4724,8.24667L8.89547,11.8614C8.55721,12.2618,8.5802,12.8563,8.94835,13.2291C8.96894,13.2498,8.99047,13.2694,9.01223,13.2873C9.20449,13.4479,9.31558,13.6864,9.3152,13.9378C9.31566,14.3153,9.06699,14.6473,8.70625,14.7506L8.70706,14.7514L8.68032,14.7575Q8.65937,14.7627,8.63797,14.7668C8.08943,14.8867,7.52906,14.9471,6.96642,14.9471C4.88083,14.9492,2.88048,14.1143,1.40838,12.6274Z"  fill-opacity="1"/><path d="" fill-opacity="1"/></g></g><g><g><path d="M12.461611181657169,14.824989045715332C12.459739408347168,13.711139045715331,12.900709118347168,12.642829045715331,13.686214118347168,11.858209045715332L16.300334118347166,9.216399045715331C16.593074118347168,8.869689045715333,16.57295411834717,8.355019045715332,16.254034118347167,8.032529045715332C16.236214118347167,8.014359045715333,16.217814118347167,7.997589045715332,16.19871411834717,7.981519045715332C16.03232411834717,7.842579045715332,15.936174118347168,7.636189045715332,15.936484118347169,7.418584045715332C15.936104118347167,7.091775045715332,16.15142411834717,6.8044720457153325,16.46373411834717,6.715064045715332L16.463044118347167,6.714363045715332L16.48456411834717,6.709472045715332Q16.504124118347168,6.704581045715332,16.524144118347166,6.700735045715332C18.78485411834717,6.204980045715332,21.14082411834717,6.901470045715332,22.77610411834717,8.548989045715333C23.561004118347167,9.333499045715332,24.00170411834717,10.401339045715332,24.000004118347167,11.514719045715331C24.00170411834717,12.665189045715332,23.531104118347166,13.765269045715332,22.699704118347167,14.554769045715332L22.701004118347168,14.556049045715332L19.51413411834717,17.776589045715333C18.741504118347166,18.560289045715333,17.689684118347166,19.000689045715333,16.59276411834717,18.999589045715332C14.306684118347167,18.994889045715333,12.457189548347168,17.125889045715333,12.461611181657169,14.824989045715332Z"  fill-opacity="1"/><path d=""  fill-opacity="1"/></g></g></g></svg>