<svg xmlns="http://www.w3.org/2000/svg" xmlns:xlink="http://www.w3.org/1999/xlink" fill="none" version="1.1" width="130" height="130" viewBox="0 0 130 130"><g style="mix-blend-mode:passthrough"><g style="mix-blend-mode:passthrough" transform="matrix(0.9999999403953552,0,0,0.9999999403953552,0.000004351139068603516,0.0000036954879760742188)"><path d="M73,62C79.07513,68.07513,79.07513,77.9249,73,84C79.07513,77.9249,88.9249,77.9249,95,84C88.9249,77.9249,88.9249,68.07513,95,62C88.9249,68.07513,79.07513,68.07513,73,62Z" fill-rule="evenodd" fill="#303133" fill-opacity="1"/></g><g style="mix-blend-mode:passthrough" transform="matrix(0.9999999403953552,0,0,0.9999999403953552,0,0)"><path d="M128.439,1.56143C136.224,9.34724,114.134,44.0613,79.0975,79.0975C44.0613,114.134,9.34724,136.224,1.56143,128.439C-6.22438,120.653,15.8664,85.9387,50.9025,50.9025C85.9387,15.8664,120.653,-6.22438,128.439,1.56143ZM127.734,2.2663Q125.457,-0.00997434,119.065,1.78605Q111.656,3.86773,100.425,11.0147Q89.125,18.2054,75.8841,29.3049Q63.6769,39.5379,51.6074,51.6074Q39.5379,63.6769,29.3049,75.8841Q18.2055,89.1249,11.0147,100.425Q3.86782,111.655,1.78604,119.065Q-0.0100276,125.457,2.2663,127.734Q4.54264,130.01,10.9351,128.214Q18.3445,126.132,29.5754,118.985Q40.875,111.795,54.1159,100.695Q66.3228,90.4624,78.3926,78.3926Q90.4624,66.3228,100.695,54.1159Q111.795,40.8749,118.985,29.5754Q126.132,18.3443,128.214,10.9351Q130.01,4.5426,127.734,2.2663Z" fill-rule="evenodd" fill="#303133" fill-opacity="1"/></g></g></svg>