<svg xmlns="http://www.w3.org/2000/svg" xmlns:xlink="http://www.w3.org/1999/xlink"  version="1.1" width="37" height="37" viewBox="0 0 37 37"><g style="mix-blend-mode:passthrough"><g style="opacity:0.20000000298023224;mix-blend-mode:passthrough"><path d="M23.8247,10.77596Q23.9324,10.99405,24.0891,11.18Q24.2459,11.3659,24.4426,11.5089Q24.6394,11.6518,24.8647,11.7434Q25.0899,11.8351,25.3306,11.87L32.1087,12.855Q32.177499999999995,12.865,32.2455,12.8797Q32.3134,12.8945,32.3802,12.9139Q32.447,12.9334,32.512299999999996,12.9574Q32.5775,12.9814,32.641,13.0099Q32.7044,13.0385,32.765699999999995,13.0713Q32.827,13.1042,32.8859,13.1412Q32.9448,13.1782,33.0009,13.2192Q33.0571,13.2603,33.1102,13.3051Q33.1634,13.3499,33.2133,13.3983Q33.2633,13.4468,33.3097,13.4985Q33.3562,13.5503,33.3989,13.6052Q33.4417,13.66,33.4805,13.7177Q33.5193,13.7754,33.554,13.8357Q33.5887,13.896,33.6192,13.9585Q33.6496,14.021,33.6757,14.0855Q33.7017,14.15,33.7232,14.2161Q33.7447,14.2823,33.7615,14.3498Q33.7784,14.4172,33.7905,14.4857Q33.8026,14.5542,33.81,14.6234Q33.8173,14.6925,33.8198,14.762Q33.8223,14.8315,33.82,14.9011Q33.8177,14.9706,33.8105,15.0397Q33.8034,15.1089,33.7914,15.1774Q33.7795,15.246,33.7628,15.3135Q33.7461,15.381,33.7248,15.4472Q33.7035,15.5134,33.6776,15.578Q33.6518,15.6425,33.6215,15.7051Q33.5912,15.7677,33.5566,15.8281Q33.5221,15.8885,33.4834,15.9463Q33.4447,16.0041,33.4021,16.058999999999997Q33.3595,16.114,33.3132,16.1659Q33.2669,16.2178,33.2171,16.2663L28.3124,21.0472Q28.1383,21.217,28.0099,21.4235Q27.8815,21.6301,27.8064,21.8614Q27.7312,22.0927,27.7137,22.3352Q27.6961,22.5778,27.7373,22.8175L28.8951,29.5682Q28.9068,29.6367,28.9138,29.7059Q28.9208,29.7751,28.9229,29.8447Q28.9251,29.9142,28.9224,29.9837Q28.9197,30.0532,28.9122,30.1223Q28.9047,30.1914,28.8924,30.2599Q28.8801,30.3284,28.863,30.3958Q28.846,30.4632,28.8244,30.5293Q28.8027,30.5954,28.7765,30.6598Q28.7503,30.7242,28.7197,30.7867Q28.689,30.8491,28.6542,30.9093Q28.6193,30.9695,28.5803,31.0271Q28.5413,31.0847,28.4985,31.1394Q28.4556,31.1942,28.409,31.2458Q28.3624,31.2975,28.3123,31.3458Q28.2623,31.3941,28.209,31.4387Q28.1557,31.4834,28.0994,31.5243Q28.0432,31.5652,27.9842,31.6021Q27.9252,31.6389,27.8638,31.6716Q27.8025,31.7043,27.7389,31.7327Q27.6754,31.761,27.6101,31.7849Q27.5448,31.8087,27.478,31.828Q27.4111,31.8473,27.3431,31.8618Q27.2751,31.8764,27.2063,31.8862Q27.1374,31.8961,27.068,31.9011Q26.9987,31.9061,26.9291,31.9063Q26.8596,31.9065,26.7902,31.9018Q26.7208,31.8972,26.6519,31.8877Q26.583,31.8782,26.5149,31.864Q26.4468,31.8498,26.3799,31.8309Q26.313,31.812,26.2475,31.7884Q26.1821,31.7649,26.1184,31.7369Q26.0548,31.7089,25.9932,31.6765L19.9307,28.4893Q19.7154,28.3761,19.4793,28.3178Q19.2432,28.2596,19,28.2596Q18.7568,28.2596,18.5207,28.3178Q18.2846,28.3761,18.0693,28.4893L12.0068,31.6765Q11.9452,31.7089,11.8816,31.7369Q11.8179,31.7649,11.7525,31.7884Q11.687,31.812,11.6201,31.8309Q11.5532,31.8498,11.4851,31.864Q11.417,31.8782,11.3481,31.8877Q11.2792,31.8972,11.2098,31.9018Q11.1404,31.9065,11.0709,31.9063Q11.0013,31.9061,10.93196,31.9011Q10.86259,31.8961,10.79373,31.8862Q10.72488,31.8764,10.65688,31.8618Q10.58887,31.8473,10.52205,31.828Q10.45522,31.8087,10.38989,31.7849Q10.32456,31.761,10.26105,31.7327Q10.19754,31.7043,10.13615,31.6716Q10.07476,31.6389,10.01579,31.6021Q9.95682,31.5652,9.90056,31.5243Q9.84429,31.4834,9.791,31.4387Q9.73771,31.3941,9.68765,31.3458Q9.63759,31.2975,9.59101,31.2458Q9.54443,31.1942,9.50154,31.1394Q9.45866,31.0847,9.41969,31.0271Q9.38071,30.9695,9.34583,30.9093Q9.31095,30.8491,9.28034,30.7867Q9.24972,30.7242,9.22352,30.6598Q9.19731,30.5954,9.17565,30.5293Q9.15398,30.4632,9.13696,30.3958Q9.11994,30.3284,9.10764,30.2599Q9.09534,30.1914,9.08783,30.1223Q9.08032,30.0532,9.07763,29.9837Q9.07493,29.9142,9.07708,29.8447Q9.07922,29.7751,9.08619,29.7059Q9.09315,29.6367,9.10491,29.5682L10.26275,22.8175Q10.30386,22.5778,10.28633,22.3352Q10.2688,22.0927,10.19364,21.8614Q10.11849,21.6301,9.9901,21.4235Q9.8617,21.217,9.68755,21.0472L4.7828800000000005,16.2663Q4.73308,16.2178,4.68677,16.1659Q4.64046,16.114,4.59786,16.058999999999997Q4.55527,16.0041,4.5166,15.9463Q4.47792,15.8885,4.44336,15.8281Q4.408799999999999,15.7677,4.37851,15.7051Q4.3482199999999995,15.6425,4.32236,15.578Q4.29649,15.5134,4.27517,15.4472Q4.2538599999999995,15.381,4.23719,15.3135Q4.2205200000000005,15.246,4.2085799999999995,15.1774Q4.19665,15.1089,4.1895,15.0397Q4.18235,14.9706,4.18002,14.9011Q4.1777,14.8315,4.180210000000001,14.762Q4.18271,14.6925,4.19004,14.6234Q4.19738,14.5542,4.209490000000001,14.4857Q4.22161,14.4172,4.23845,14.3498Q4.2553,14.2823,4.27679,14.2161Q4.29828,14.15,4.32432,14.0855Q4.350350000000001,14.021,4.3808,13.9585Q4.41126,13.896,4.4459800000000005,13.8357Q4.480700000000001,13.7754,4.51952,13.7177Q4.55835,13.66,4.60109,13.6052Q4.6438299999999995,13.5503,4.69027,13.4985Q4.73672,13.4468,4.78665,13.3983Q4.83658,13.3499,4.889749999999999,13.3051Q4.9429300000000005,13.2603,4.99909,13.2192Q5.05524,13.1782,5.11412,13.1412Q5.17299,13.1042,5.23429,13.0713Q5.2956,13.0385,5.35903,13.0099Q5.42247,12.9814,5.48773,12.9574Q5.553,12.9334,5.61978,12.9139Q5.68655,12.8945,5.75452,12.8797Q5.82248,12.865,5.89131,12.855L12.6694,11.87Q12.9101,11.8351,13.1353,11.7434Q13.3606,11.6518,13.5574,11.5089Q13.7541,11.3659,13.9109,11.18Q14.0676,10.99405,14.1753,10.77596L17.2065,4.63397Q17.2373,4.5716,17.2723,4.5115300000000005Q17.3074,4.4514499999999995,17.3465,4.39395Q17.3856,4.33645,17.4287,4.28181Q17.4717,4.22716,17.5184,4.17564Q17.5651,4.12412,17.6153,4.07597Q17.6655,4.02782,17.7189,3.98327Q17.7723,3.93872,17.8287,3.89798Q17.8851,3.85725,17.9441,3.82053Q18.0032,3.78382,18.0647,3.75129Q18.1261,3.71877,18.1897,3.69059Q18.2533,3.66241,18.3187,3.63872Q18.3841,3.61503,18.451,3.59594Q18.5178,3.57684,18.5859,3.56244Q18.6539,3.54804,18.7228,3.5384Q18.7917,3.52876,18.8611,3.52393Q18.9305,3.5191,19,3.5191Q19.0695,3.5191,19.1389,3.52393Q19.2083,3.52876,19.2772,3.5384Q19.3461,3.54804,19.4141,3.56244Q19.4822,3.57684,19.549,3.59594Q19.6159,3.61503,19.6813,3.63872Q19.7467,3.66241,19.8103,3.69059Q19.8739,3.71877,19.9353,3.75129Q19.9968,3.78382,20.0559,3.82053Q20.1149,3.85725,20.1713,3.89798Q20.2277,3.93872,20.2811,3.98327Q20.3345,4.02782,20.3847,4.07597Q20.4349,4.12412,20.4816,4.17564Q20.5283,4.22716,20.5713,4.28181Q20.6144,4.33645,20.6535,4.39395Q20.6926,4.4514499999999995,20.7277,4.5115300000000005Q20.7627,4.5716,20.7935,4.63397L23.8247,10.77596Z" fill-opacity="1"/></g><g style="mix-blend-mode:passthrough"><path d="M22.8247,9.77596Q22.9324,9.99405,23.0891,10.18Q23.2459,10.3659,23.4426,10.5089Q23.6394,10.6518,23.8647,10.7434Q24.0899,10.8351,24.3306,10.87L31.1087,11.855Q31.1775,11.865,31.2455,11.8797Q31.3134,11.8945,31.3802,11.9139Q31.447,11.9334,31.5123,11.9574Q31.5775,11.9814,31.641,12.0099Q31.7044,12.0385,31.7657,12.0713Q31.827,12.1042,31.8859,12.1412Q31.9448,12.1782,32.0009,12.2192Q32.0571,12.2603,32.1102,12.3051Q32.1634,12.3499,32.2133,12.3983Q32.2633,12.4468,32.3097,12.4985Q32.3562,12.5503,32.3989,12.6052Q32.4417,12.66,32.4805,12.7177Q32.5193,12.7754,32.554,12.8357Q32.5887,12.896,32.6192,12.9585Q32.6496,13.021,32.6757,13.0855Q32.7017,13.15,32.7232,13.2161Q32.7447,13.2823,32.7615,13.3498Q32.7784,13.4172,32.7905,13.4857Q32.8026,13.5542,32.81,13.6234Q32.8173,13.6925,32.8198,13.762Q32.8223,13.8315,32.82,13.9011Q32.8177,13.9706,32.8105,14.0397Q32.8034,14.1089,32.7914,14.1774Q32.7795,14.246,32.7628,14.3135Q32.7461,14.381,32.7248,14.4472Q32.7035,14.5134,32.6776,14.578Q32.6518,14.6425,32.6215,14.7051Q32.5912,14.7677,32.5566,14.8281Q32.5221,14.8885,32.4834,14.9463Q32.4447,15.0041,32.4021,15.059Q32.3595,15.114,32.3132,15.1659Q32.2669,15.2178,32.2171,15.2663L27.3124,20.0472Q27.1383,20.217,27.0099,20.4235Q26.8815,20.6301,26.8064,20.8614Q26.7312,21.0927,26.7137,21.3352Q26.6961,21.5778,26.7373,21.8175L27.8951,28.5682Q27.9068,28.6367,27.9138,28.7059Q27.9208,28.7751,27.9229,28.8447Q27.9251,28.9142,27.9224,28.9837Q27.9197,29.0532,27.9122,29.1223Q27.9047,29.1914,27.8924,29.2599Q27.8801,29.3284,27.863,29.3958Q27.846,29.4632,27.8244,29.5293Q27.8027,29.5954,27.7765,29.6598Q27.7503,29.7242,27.7197,29.7867Q27.689,29.8491,27.6542,29.9093Q27.6193,29.9695,27.5803,30.0271Q27.5413,30.0847,27.4985,30.1394Q27.4556,30.1942,27.409,30.2458Q27.3624,30.2975,27.3123,30.3458Q27.2623,30.3941,27.209,30.4387Q27.1557,30.4834,27.0994,30.5243Q27.0432,30.5652,26.9842,30.6021Q26.9252,30.6389,26.8638,30.6716Q26.8025,30.7043,26.7389,30.7327Q26.6754,30.761,26.6101,30.7849Q26.5448,30.8087,26.478,30.828Q26.4111,30.8473,26.3431,30.8618Q26.2751,30.8764,26.2063,30.8862Q26.1374,30.8961,26.068,30.9011Q25.9987,30.9061,25.9291,30.9063Q25.8596,30.9065,25.7902,30.9018Q25.7208,30.8972,25.6519,30.8877Q25.583,30.8782,25.5149,30.864Q25.4468,30.8498,25.3799,30.8309Q25.313,30.812,25.2475,30.7884Q25.1821,30.7649,25.1184,30.7369Q25.0548,30.7089,24.9932,30.6765L18.9307,27.4893Q18.7154,27.3761,18.4793,27.3178Q18.2432,27.2596,18,27.2596Q17.7568,27.2596,17.5207,27.3178Q17.2846,27.3761,17.0693,27.4893L11.0068,30.6765Q10.9452,30.7089,10.8816,30.7369Q10.8179,30.7649,10.7525,30.7884Q10.687,30.812,10.6201,30.8309Q10.5532,30.8498,10.4851,30.864Q10.417,30.8782,10.3481,30.8877Q10.2792,30.8972,10.2098,30.9018Q10.1404,30.9065,10.0709,30.9063Q10.0013,30.9061,9.93196,30.9011Q9.86259,30.8961,9.79373,30.8862Q9.72488,30.8764,9.65688,30.8618Q9.58887,30.8473,9.52205,30.828Q9.45522,30.8087,9.38989,30.7849Q9.32456,30.761,9.26105,30.7327Q9.19754,30.7043,9.13615,30.6716Q9.07476,30.6389,9.01579,30.6021Q8.95682,30.5652,8.90056,30.5243Q8.84429,30.4834,8.791,30.4387Q8.73771,30.3941,8.68765,30.3458Q8.63759,30.2975,8.59101,30.2458Q8.54443,30.1942,8.50154,30.1394Q8.45866,30.0847,8.41969,30.0271Q8.38071,29.9695,8.34583,29.9093Q8.31095,29.8491,8.28034,29.7867Q8.24972,29.7242,8.22352,29.6598Q8.19731,29.5954,8.17565,29.5293Q8.15398,29.4632,8.13696,29.3958Q8.11994,29.3284,8.10764,29.2599Q8.09534,29.1914,8.08783,29.1223Q8.08032,29.0532,8.07763,28.9837Q8.07493,28.9142,8.07708,28.8447Q8.07922,28.7751,8.08619,28.7059Q8.09315,28.6367,8.10491,28.5682L9.26275,21.8175Q9.30386,21.5778,9.28633,21.3352Q9.2688,21.0927,9.19364,20.8614Q9.11849,20.6301,8.9901,20.4235Q8.8617,20.217,8.68755,20.0472L3.78288,15.2663Q3.73308,15.2178,3.68677,15.1659Q3.64046,15.114,3.59786,15.059Q3.55527,15.0041,3.5166,14.9463Q3.47792,14.8885,3.44336,14.8281Q3.4088,14.7677,3.37851,14.7051Q3.34822,14.6425,3.32236,14.578Q3.29649,14.5134,3.27517,14.4472Q3.25386,14.381,3.23719,14.3135Q3.22052,14.246,3.20858,14.1774Q3.19665,14.1089,3.1895,14.0397Q3.18235,13.9706,3.18002,13.9011Q3.1777,13.8315,3.18021,13.762Q3.18271,13.6925,3.19004,13.6234Q3.19738,13.5542,3.20949,13.4857Q3.22161,13.4172,3.23845,13.3498Q3.2553,13.2823,3.27679,13.2161Q3.29828,13.15,3.32432,13.0855Q3.35035,13.021,3.3808,12.9585Q3.41126,12.896,3.44598,12.8357Q3.4807,12.7754,3.51952,12.7177Q3.55835,12.66,3.60109,12.6052Q3.64383,12.5503,3.69027,12.4985Q3.73672,12.4468,3.78665,12.3983Q3.83658,12.3499,3.88975,12.3051Q3.94293,12.2603,3.99909,12.2192Q4.05524,12.1782,4.11412,12.1412Q4.17299,12.1042,4.23429,12.0713Q4.2956,12.0385,4.35903,12.0099Q4.42247,11.9814,4.48773,11.9574Q4.553,11.9334,4.61978,11.9139Q4.68655,11.8945,4.75452,11.8797Q4.82248,11.865,4.89131,11.855L11.6694,10.87Q11.9101,10.8351,12.1353,10.7434Q12.3606,10.6518,12.5574,10.5089Q12.7541,10.3659,12.9109,10.18Q13.0676,9.99405,13.1753,9.77596L16.2065,3.63397Q16.2373,3.5716,16.2723,3.51153Q16.3074,3.45145,16.3465,3.39395Q16.3856,3.33645,16.4287,3.28181Q16.4717,3.22716,16.5184,3.17564Q16.5651,3.12412,16.6153,3.07597Q16.6655,3.02782,16.7189,2.98327Q16.7723,2.93872,16.8287,2.89798Q16.8851,2.85725,16.9441,2.82053Q17.0032,2.78382,17.0647,2.75129Q17.1261,2.71877,17.1897,2.69059Q17.2533,2.66241,17.3187,2.63872Q17.3841,2.61503,17.451,2.59594Q17.5178,2.57684,17.5859,2.56244Q17.6539,2.54804,17.7228,2.5384Q17.7917,2.52876,17.8611,2.52393Q17.9305,2.5191,18,2.5191Q18.0695,2.5191,18.1389,2.52393Q18.2083,2.52876,18.2772,2.5384Q18.3461,2.54804,18.4141,2.56244Q18.4822,2.57684,18.549,2.59594Q18.6159,2.61503,18.6813,2.63872Q18.7467,2.66241,18.8103,2.69059Q18.8739,2.71877,18.9353,2.75129Q18.9968,2.78382,19.0559,2.82053Q19.1149,2.85725,19.1713,2.89798Q19.2277,2.93872,19.2811,2.98327Q19.3345,3.02782,19.3847,3.07597Q19.4349,3.12412,19.4816,3.17564Q19.5283,3.22716,19.5713,3.28181Q19.6144,3.33645,19.6535,3.39395Q19.6926,3.45145,19.7277,3.51153Q19.7627,3.5716,19.7935,3.63397L22.8247,9.77596Z"  fill-opacity="1"/><path d="M24.3306,10.87Q24.0899,10.8351,23.8647,10.7434Q23.6394,10.6518,23.4426,10.5089Q23.2459,10.3659,23.0891,10.18Q22.9324,9.99405,22.8247,9.77596L19.7935,3.63397Q19.7318,3.50909,19.6535,3.39395Q19.5751,3.27881,19.4816,3.17564Q19.388,3.07247,19.2811,2.98327Q19.1742,2.89406,19.0559,2.82053Q18.9376,2.74701,18.8103,2.69059Q18.6829,2.63417,18.549,2.59594Q18.4151,2.55771,18.2772,2.5384Q18.1393,2.5191,18,2.5191Q17.8607,2.5191,17.7228,2.5384Q17.5849,2.55771,17.451,2.59594Q17.3171,2.63417,17.1897,2.69059Q17.0624,2.74701,16.9441,2.82053Q16.8258,2.89406,16.7189,2.98327Q16.612,3.07247,16.5184,3.17564Q16.4249,3.27881,16.3465,3.39395Q16.2682,3.50909,16.2065,3.63397L13.1753,9.77596Q13.0676,9.99405,12.9109,10.18Q12.7541,10.3659,12.5574,10.5089Q12.3606,10.6518,12.1353,10.7434Q11.9101,10.8351,11.6694,10.87L4.89131,11.855Q4.75349,11.875,4.61978,11.9139Q4.48606,11.9529,4.35903,12.0099Q4.23201,12.067,4.11412,12.1412Q3.99623,12.2153,3.88975,12.3051Q3.78328,12.3949,3.69027,12.4985Q3.59727,12.6022,3.51952,12.7177Q3.44178,12.8333,3.38081,12.9585Q3.31983,13.0837,3.27679,13.2161Q3.23376,13.3486,3.20949,13.4857Q3.18523,13.6229,3.18021,13.762Q3.17518,13.9012,3.1895,14.0397Q3.20381,14.1783,3.23719,14.3135Q3.27056,14.4487,3.32236,14.578Q3.37415,14.7072,3.44336,14.8281Q3.51257,14.949,3.59786,15.059Q3.68315,15.1691,3.78288,15.2663L8.68755,20.0472Q8.8617,20.217,8.9901,20.4235Q9.11849,20.6301,9.19364,20.8614Q9.2688,21.0927,9.28633,21.3352Q9.30386,21.5778,9.26275,21.8175L8.10491,28.5682Q8.08137,28.7055,8.07708,28.8447Q8.07279,28.9839,8.08783,29.1223Q8.10287,29.2608,8.13696,29.3958Q8.17104,29.5308,8.22352,29.6598Q8.27599,29.7888,8.34583,29.9093Q8.41568,30.0298,8.50155,30.1394Q8.58741,30.2491,8.68765,30.3458Q8.78789,30.4425,8.90056,30.5243Q9.01323,30.6062,9.13615,30.6716Q9.25908,30.7371,9.38989,30.7849Q9.52071,30.8326,9.65688,30.8618Q9.79305,30.891,9.93196,30.9011Q10.0709,30.9111,10.2098,30.9018Q10.3488,30.8925,10.4851,30.864Q10.6214,30.8355,10.7525,30.7884Q10.8835,30.7413,11.0068,30.6765L17.0693,27.4893Q17.2846,27.3761,17.5207,27.3178Q17.7568,27.2596,18,27.2596Q18.2432,27.2596,18.4793,27.3178Q18.7154,27.3761,18.9307,27.4893L24.9932,30.6765Q25.1165,30.7413,25.2475,30.7884Q25.3786,30.8355,25.5149,30.864Q25.6512,30.8925,25.7902,30.9018Q25.9291,30.9111,26.068,30.9011Q26.207,30.891,26.3431,30.8618Q26.4793,30.8326,26.6101,30.7849Q26.7409,30.7371,26.8638,30.6716Q26.9868,30.6062,27.0994,30.5243Q27.2121,30.4425,27.3124,30.3458Q27.4126,30.2491,27.4985,30.1394Q27.5843,30.0298,27.6542,29.9093Q27.724,29.7888,27.7765,29.6598Q27.829,29.5308,27.863,29.3958Q27.8971,29.2608,27.9122,29.1223Q27.9272,28.9839,27.9229,28.8447Q27.9186,28.7055,27.8951,28.5682L26.7373,21.8175Q26.6961,21.5778,26.7137,21.3352Q26.7312,21.0927,26.8064,20.8614Q26.8815,20.6301,27.0099,20.4235Q27.1383,20.217,27.3124,20.0472L32.2171,15.2663Q32.3168,15.1691,32.4021,15.059Q32.4874,14.9489,32.5566,14.8281Q32.6258,14.7072,32.6776,14.578Q32.7294,14.4487,32.7628,14.3135Q32.7962,14.1783,32.8105,14.0397Q32.8248,13.9012,32.8198,13.762Q32.8148,13.6229,32.7905,13.4857Q32.7662,13.3486,32.7232,13.2161Q32.6802,13.0837,32.6192,12.9585Q32.5582,12.8333,32.4805,12.7177Q32.4027,12.6022,32.3097,12.4985Q32.2167,12.3949,32.1102,12.3051Q32.0038,12.2153,31.8859,12.1412Q31.768,12.067,31.641,12.0099Q31.5139,11.9529,31.3802,11.9139Q31.2465,11.875,31.1087,11.855L24.3306,10.87ZM18,4.5191L21.0313,10.6611Q21.4682,11.5465,22.2671,12.1269Q23.0659,12.7073,24.043,12.8493L30.8211,13.8342L25.9164,18.615Q25.2094,19.3043,24.9042,20.2433Q24.5991,21.1824,24.766,22.1556L25.9239,28.9063L19.8614,25.719Q18.9874,25.2596,18,25.2596Q17.0126,25.2596,16.1386,25.719L10.0761,28.9063L11.234,22.1556Q11.4009,21.1824,11.0958,20.2433Q10.7906,19.3043,10.0836,18.615L5.17891,13.8342L11.957,12.8493Q12.9341,12.7073,13.7329,12.1269Q14.5318,11.5465,14.9687,10.6611L18,4.5191Z" fill-rule="evenodd"  fill-opacity="1"/></g></g></svg>