<svg xmlns="http://www.w3.org/2000/svg" xmlns:xlink="http://www.w3.org/1999/xlink" fill="none" version="1.1" width="38" height="16" viewBox="0 0 38 16"><defs><linearGradient x1="1" y1="0" x2="0" y2="1" id="master_svg0_3293_00067"><stop offset="0%" stop-color="#FFC051" stop-opacity="1"/><stop offset="100.00002384185791%" stop-color="#F700FB" stop-opacity="1"/></linearGradient><clipPath id="master_svg1_6683_10613"><rect x="0" y="0" width="38" height="16" rx="2"/></clipPath></defs><g style="mix-blend-mode:passthrough" clip-path="url(#master_svg1_6683_10613)"><rect x="0" y="0" width="38" height="16" rx="2" fill="url(#master_svg0_3293_00067)" fill-opacity="1"/><g style="mix-blend-mode:passthrough"><path d="M4.927795,10.10909C4.667702,10.10909,4.438665,10.18741,4.271739,10.37016C4.0815217,10.541730000000001,4,10.76177,4,11.01165C4,11.265270000000001,4.0815217,11.4704,4.271739,11.65315C4.438665,11.81352,4.667702,11.90676,4.927795,11.90676C5.19177,11.90676,5.40528,11.81352,5.5954999999999995,11.65315C5.77795,11.4704,5.8711199999999995,11.265270000000001,5.8711199999999995,11.01165C5.8711199999999995,10.76177,5.77795,10.541730000000001,5.5954999999999995,10.37016C5.40528,10.18741,5.19177,10.10909,4.927795,10.10909ZM10.26941,5.75291C9.67547,5.75291,9.112580000000001,6.00653,8.600159999999999,6.52121L8.600159999999999,5.91329L7.24146,5.91329L7.24146,11.835899999999999L8.600159999999999,11.835899999999999L8.600159999999999,8.285309999999999C8.600159999999999,7.89744,8.720500000000001,7.55058,8.9573,7.27832C9.197980000000001,6.9799500000000005,9.50854,6.84196,9.90062,6.84196C10.711960000000001,6.84196,11.115680000000001,7.28951,11.115680000000001,8.1958L11.115680000000001,11.835899999999999L12.47826,11.835899999999999L12.47826,8.21818C12.47826,7.78182,12.58307,7.44988,12.82376,7.20746C13.04891,6.95758,13.32453,6.84196,13.65839,6.84196C14.1359,6.84196,14.4697,6.94639,14.6832,7.1627C14.8851,7.36783,14.9938,7.71096,14.9938,8.18089L14.9938,11.835899999999999L16.3525,11.835899999999999L16.3525,7.95338C16.3525,7.3007,16.139,6.77483,15.7314,6.36084C15.3043,5.9468499999999995,14.7803,5.75291,14.1475,5.75291C13.72826,5.75291,13.38276,5.82378,13.10714,5.9580400000000004C12.80047,6.09604,12.50155,6.3496500000000005,12.21429,6.7151499999999995C11.82221,6.07366,11.17779,5.75291,10.26941,5.75291ZM20.3005,5.75291C19.3804,5.75291,18.6545,6.05128,18.1304,6.65921C17.5792,7.25594,17.3191,7.98695,17.3191,8.87086C17.3191,9.85548,17.6025,10.62378,18.177,11.18322C18.712699999999998,11.72401,19.442500000000003,12,20.3587,12C21.1817,12,21.861,11.76876,22.4123,11.32121C22.8393,10.95571,23.1266,10.48578,23.2702,9.937529999999999L21.9076,9.937529999999999C21.7407,10.269459999999999,21.5621,10.50816,21.3602,10.65734C21.1002,10.84009,20.7663,10.93333,20.347,10.93333C19.8579,10.93333,19.4775,10.78415,19.2135,10.496970000000001C18.953400000000002,10.20979,18.798099999999998,9.78834,18.747700000000002,9.236360000000001L23.3634,9.236360000000001C23.3634,8.169699999999999,23.1149,7.33427,22.6258,6.73753C22.0901,6.07366,21.3137,5.75291,20.3005,5.75291ZM20.3354,6.81958C21.2904,6.81958,21.8261,7.28951,21.9464,8.251750000000001L18.771,8.251750000000001C18.8564,7.78182,19.0233,7.42751,19.2756,7.18508C19.5357,6.9352,19.8812,6.81958,20.3354,6.81958ZM26.3175,4L24.955,4.537063L24.955,5.91329L23.8486,5.91329L23.8486,6.99114L24.955,6.99114L24.955,10.3366C24.955,10.81772,25.0753,11.17203,25.3121,11.42564C25.5644,11.70163,25.9565,11.835899999999999,26.4961,11.835899999999999L27.5326,11.835899999999999L27.5326,10.76177L26.7213,10.76177C26.5776,10.76177,26.4845,10.72448,26.4107,10.65734C26.3408,10.57902,26.3175,10.47459,26.3175,10.3366L26.3175,6.99114L27.6879,6.99114L27.6879,5.91329L26.3175,5.91329L26.3175,4ZM31.4107,5.75291C30.6227,5.75291,30.0016,5.87972,29.5512,6.15571C29.0116,6.454079999999999,28.6778,6.9352,28.5458,7.58788L29.8967,7.68858C29.9666,7.379020000000001,30.1452,7.15152,30.4092,7.002330000000001C30.6343,6.86434,30.9332,6.80839,31.3137,6.80839C32.1988,6.80839,32.6374,7.18508,32.6374,7.96457L32.6374,8.1958L31.2904,8.22937C30.3859,8.251750000000001,29.6793,8.4345,29.1786,8.777619999999999C28.6312,9.13193,28.3672,9.65035,28.3672,10.314219999999999C28.3672,10.80653,28.5613,11.20932,28.9418,11.53007C29.3106,11.835899999999999,29.8113,12,30.4557,12C30.9915,12,31.4573,11.90676,31.8494,11.735199999999999C32.1988,11.57483,32.4938,11.35478,32.7345,11.06014L32.7345,11.835899999999999L34,11.835899999999999L34,8.05781C34,7.33427,33.8059,6.78601,33.4255,6.40559C32.9946,5.96923,32.315200000000004,5.75291,31.4107,5.75291ZM32.6374,9.13193L32.6374,9.430299999999999C32.6374,9.88904,32.447199999999995,10.269459999999999,32.0901,10.5641C31.7329,10.85128,31.2904,11.00047,30.7663,11.00047C30.4674,11.00047,30.2306,10.922139999999999,30.0404,10.78415C29.8463,10.646149999999999,29.7648,10.47459,29.7648,10.269459999999999C29.7648,9.55711,30.3005,9.19161,31.3874,9.169229999999999L32.6374,9.13193Z" fill="#FFFFFF" fill-opacity="1"/></g></g></svg>