<svg xmlns="http://www.w3.org/2000/svg" xmlns:xlink="http://www.w3.org/1999/xlink" fill="none" version="1.1" width="27.5" height="23.75" viewBox="0 0 27.5 23.75"><g style="mix-blend-mode:passthrough"><path d="M0,9.375C0,4.19733,4.19733,0,9.375,0L18.125,0C23.3027,0,27.5,4.19733,27.5,9.375L27.5,20.625C27.5,22.3509,26.1009,23.75,24.375,23.75L9.375,23.75C4.19733,23.75,0,19.5527,0,14.375L0,9.375ZM8.56252,8.125C9.14932,8.125,9.62502,8.6007,9.62502,9.1875L9.62502,12.0625C9.62502,12.6493,9.14932,13.125,8.56252,13.125C7.97571,13.125,7.50002,12.6493,7.50002,12.0625L7.50002,9.1875C7.50002,8.6007,7.97571,8.125,8.56252,8.125ZM14.8125,8.125C15.3993,8.125,15.875,8.6007,15.875,9.1875L15.875,12.0625C15.875,12.6493,15.3993,13.125,14.8125,13.125C14.2257,13.125,13.75,12.6493,13.75,12.0625L13.75,9.1875C13.75,8.6007,14.2257,8.125,14.8125,8.125Z" fill-rule="evenodd" fill="#303133" fill-opacity="1"/></g></svg>