<svg xmlns="http://www.w3.org/2000/svg" xmlns:xlink="http://www.w3.org/1999/xlink"  version="1.1" viewBox="0 0 21.599998474121094 21.599998474121094"><defs><clipPath id="master_svg0_5147_03594"><rect x="0" y="0" width="21.599998474121094" height="21.599998474121094" rx="0"/></clipPath></defs><g clip-path="url(#master_svg0_5147_03594)"><g><path d="M5.64548220703125,2.650390625L8.10001220703125,2.650390625Q8.19850220703125,2.650390625,8.295102207031249,2.669605625Q8.391702207031251,2.688820625,8.48269220703125,2.726511625Q8.57369220703125,2.7642026250000002,8.65558220703125,2.818920625Q8.73747220703125,2.873639625,8.807122207031249,2.943283625Q8.87676220703125,3.012927625,8.93148220703125,3.094820625Q8.986202207031251,3.176712625,9.023892207031249,3.267707625Q9.06158220703125,3.358701625,9.08079220703125,3.455300625Q9.10001220703125,3.551899225,9.10001220703125,3.650390625Q9.10001220703125,5.350390625,10.80001220703125,5.350390625Q12.50001220703125,5.350390625,12.50001220703125,3.650390625Q12.50001220703125,3.551899225,12.51922220703125,3.455300625Q12.53844220703125,3.358701625,12.57613220703125,3.267707625Q12.61382220703125,3.176712625,12.66854220703125,3.094820625Q12.72321220703125,3.012927625,12.79291220703125,2.943283625Q12.86251220703125,2.873639625,12.94441220703125,2.818920625Q13.02631220703125,2.7642026250000002,13.11731220703125,2.726511625Q13.20831220703125,2.688820625,13.30491220703125,2.669605625Q13.40151220703125,2.650390625,13.50001220703125,2.650390625L15.95451220703125,2.650390625Q16.07801220703125,2.650390625,16.197812207031248,2.680422625Q16.31751220703125,2.710454625,16.426412207031248,2.768715625Q16.53521220703125,2.826975625,16.62671220703125,2.909965625Q16.71811220703125,2.992954625,16.78661220703125,3.095688625L19.73201220703125,7.5138806250000005Q19.78251220703125,7.5895006249999994,19.81841220703125,7.672970625Q19.85441220703125,7.756440625,19.87471220703125,7.845020625Q19.89501220703125,7.933610625,19.89901220703125,8.024410625Q19.90301220703125,8.115200625,19.89061220703125,8.205230625Q19.87821220703125,8.295270625,19.84981220703125,8.381580625Q19.82131220703125,8.467900625,19.77781220703125,8.547680625Q19.73421220703125,8.627450625,19.67701220703125,8.698070625Q19.61981220703125,8.768690625,19.55081220703125,8.827840625L16.97351220703125,11.036930625L16.322712207031252,10.277670624999999L17.322712207031252,10.277670624999999L17.322712207031252,17.951190625000002Q17.322712207031252,18.049690625,17.30351220703125,18.146290625Q17.28431220703125,18.242890625,17.246612207031248,18.333890625000002Q17.20891220703125,18.424890625,17.15421220703125,18.506690624999997Q17.09951220703125,18.588590625000002,17.029912207031252,18.658290625Q16.960212207031248,18.727890625,16.87831220703125,18.782590624999997Q16.79641220703125,18.837390624999998,16.70541220703125,18.875090625Q16.61441220703125,18.912690625,16.51781220703125,18.931990624999997Q16.42121220703125,18.951190625000002,16.322712207031252,18.951190625000002L5.27728220703125,18.951190625000002Q5.17879220703125,18.951190625000002,5.08219220703125,18.931990624999997Q4.9855922070312495,18.912690625,4.89460220703125,18.875090625Q4.8036022070312505,18.837390624999998,4.72171220703125,18.782590624999997Q4.63982220703125,18.727890625,4.57017220703125,18.658290625Q4.50053220703125,18.588590625000002,4.44581220703125,18.506690624999997Q4.3910922070312495,18.424890625,4.35340220703125,18.333890625000002Q4.31571220703125,18.242890625,4.29650220703125,18.146290625Q4.27728220703125,18.049690625,4.27728220703125,17.951190625000002L4.27729220703125,10.277670624999999L5.27729220703125,10.277670624999999L4.62650220703125,11.036930625L2.0492222070312502,8.827840625Q1.98021620703125,8.768690625,1.92300520703125,8.698070625Q1.86579420703125,8.627450625,1.82225120703125,8.547680625Q1.7787082070312499,8.467900625,1.7502602070312498,8.381580625Q1.72181320703125,8.295270625,1.7093932070312499,8.205230625Q1.69697220703125,8.115200625,1.70098820703125,8.024400625Q1.70500320703125,7.933610625,1.72532120703125,7.845020625Q1.74563920703125,7.756440625,1.78159420703125,7.672970625Q1.81754920703125,7.5895006249999994,1.86796320703125,7.5138806250000005L4.81344220703125,3.095688625Q4.88193220703125,2.992954625,4.97335220703125,2.909965625Q5.06477220703125,2.826975625,5.17363220703125,2.768715625Q5.28249220703125,2.710454625,5.40225220703125,2.680422625Q5.52201220703125,2.650390625,5.64548220703125,2.650390625ZM5.64548220703125,4.650390625L5.64548220703125,3.650390625L6.47753220703125,4.205092625L3.53206120703125,8.623280625L2.70001220703125,8.068580625L3.3508022070312498,7.309320625L5.92809220703125,9.518420625000001Q6.01023220703125,9.588830625,6.07541220703125,9.675180625Q6.14060220703125,9.761530624999999,6.185812207031249,9.859820625000001Q6.23102220703125,9.958110625,6.25416220703125,10.063800624999999Q6.27730220703125,10.169490625,6.27729220703125,10.277680625L6.27728220703125,17.951190625000002L5.27728220703125,17.951190625000002L5.27728220703125,16.951190625000002L16.322712207031252,16.951190625000002L16.322712207031252,17.951190625000002L15.32271220703125,17.951190625000002L15.32271220703125,10.277680625Q15.32271220703125,10.169490625,15.34591220703125,10.063800624999999Q15.36901220703125,9.958110625,15.41421220703125,9.859820625000001Q15.45941220703125,9.761530624999999,15.52461220703125,9.675180625Q15.58981220703125,9.588830625,15.67191220703125,9.518420625000001L18.24921220703125,7.309320625L18.90001220703125,8.068580625L18.068012207031252,8.623280625L15.12251220703125,4.205092625L15.95451220703125,3.650390625L15.95451220703125,4.650390625L13.50001220703125,4.650390625L13.50001220703125,3.650390625L14.50001220703125,3.650390625Q14.50001220703125,5.182980625,13.41631220703125,6.266690625Q12.33260220703125,7.350390625,10.80001220703125,7.350390625Q9.267422207031249,7.350390625,8.18372220703125,6.266690625Q7.10001220703125,5.182980625,7.10001220703125,3.650390625L8.10001220703125,3.650390625L8.10001220703125,4.650390625L5.64548220703125,4.650390625Z"  fill-opacity="1"/></g></g></svg>