<svg xmlns="http://www.w3.org/2000/svg" xmlns:xlink="http://www.w3.org/1999/xlink"  version="1.1"  viewBox="0 0 20 20"><defs><clipPath id="master_svg0_1924_5274"><rect x="0" y="20" width="20" height="20" rx="0"/></clipPath></defs><g style="mix-blend-mode:passthrough" transform="matrix(0,-1,1,0,-20,20)" clip-path="url(#master_svg0_1924_5274)"><g style="mix-blend-mode:passthrough"><path d="M9.44186,24.25641C9.44186,24.58963,9.57907,24.9092,9.8233,25.14483L13.5536,28.74359L3.30233,28.74359C2.583071,28.74359,2,29.3061,2,30C2,30.6939,2.583071,31.256410000000002,3.30233,31.256410000000002L13.5536,31.256410000000002L9.8233,34.855199999999996C9.57907,35.0908,9.44186,35.410399999999996,9.44186,35.7436C9.44186,36.4375,10.02493,37,10.74419,37C11.08958,37,11.42084,36.867599999999996,11.66507,36.632L11.66507,36.632L17.6186,30.88842C18.1271,30.397759999999998,18.1271,29.602240000000002,17.6186,29.11158L11.66507,23.367994C11.42084,23.132371,11.08958,23,10.74419,23C10.02493,23,9.44186,23.562514,9.44186,24.25641Z" fill-rule="evenodd"  fill-opacity="1"/></g></g></svg>