<svg xmlns="http://www.w3.org/2000/svg" xmlns:xlink="http://www.w3.org/1999/xlink"  version="1.1"  viewBox="0 0 20 22.5"><g><path d="M4.73,13.75L5.255,8.75L0,8.75L0,6.25L5.51875,6.25L6.175,0L8.68875,0L8.0325,6.25L13.0188,6.25L13.675,0L16.1888,0L15.5325,6.25L20,6.25L20,8.75L15.27,8.75L14.745,13.75L20,13.75L20,16.25L14.4812,16.25L13.825,22.5L11.3113,22.5L11.9675,16.25L6.98125,16.25L6.325,22.5L3.81125,22.5L4.4675,16.25L0,16.25L0,13.75L4.73,13.75ZM7.24375,13.75L12.2312,13.75L12.7563,8.75L7.76875,8.75L7.24375,13.75Z" fill="inherit" fill-opacity="1"/></g></svg>