<svg xmlns="http://www.w3.org/2000/svg" xmlns:xlink="http://www.w3.org/1999/xlink" fill="none" version="1.1" width="22" height="22" viewBox="0 0 22 22"><defs><clipPath id="master_svg0_7666_04702"><rect x="0" y="0" width="22" height="22" rx="0"/></clipPath></defs><g clip-path="url(#master_svg0_7666_04702)"><g><path d="M4.64706,14.1316L4.64706,15.9211C4.64677,16.8575,5.35852,17.6358,6.27941,17.7061L6.41177,17.7105L9.05882,17.7105L9.05882,19.5L6.41177,19.5C4.46252,19.5,2.882353,17.8977,2.882353,15.9211L2.882353,14.1316L4.64706,14.1316ZM16.1176,9.65789L20,19.5L18.0985,19.5L17.038800000000002,16.8158L13.43,16.8158L12.3721,19.5L10.47147,19.5L14.3529,9.65789L16.1176,9.65789ZM15.2353,12.23921L14.135,15.0263L16.3338,15.0263L15.2353,12.23921ZM7.29412,2.5L7.29412,4.28947L10.82353,4.28947L10.82353,10.55263L7.29412,10.55263L7.29412,13.2368L5.52941,13.2368L5.52941,10.55263L2,10.55263L2,4.28947L5.52941,4.28947L5.52941,2.5L7.29412,2.5ZM15.2353,3.394737C17.1845,3.394737,18.7647,4.99709,18.7647,6.97368L18.7647,8.76316L17,8.76316L17,6.97368C17,5.985390000000001,16.209899999999998,5.18421,15.2353,5.18421L12.5882,5.18421L12.5882,3.394737L15.2353,3.394737ZM5.52941,6.07895L3.76471,6.07895L3.76471,8.76316L5.52941,8.76316L5.52941,6.07895ZM9.05882,6.07895L7.29412,6.07895L7.29412,8.76316L9.05882,8.76316L9.05882,6.07895Z" fill="currentColor" fill-opacity="1"/></g></g></svg>