<svg xmlns="http://www.w3.org/2000/svg" xmlns:xlink="http://www.w3.org/1999/xlink" version="1.1" viewBox="0 0 18.421905517578125 16.000001907348633"><g><path d="M3.96104,3.78314C6.87308,5.26095,9.33208,5.17373,9.33208,5.17373C9.33208,5.17373,8.39938,1.908,11.2823,0.459222C14.1653,-0.989508,16.1494,1.45252,16.1494,1.45252C16.1494,1.45252,16.6534,1.31442,17.0264,1.17634C17.402,1.03826,17.9422,0.791131,17.9422,0.791131C17.9422,0.791131,17.0531,2.38525,17.0531,2.38525C17.0531,2.38525,18.4219,2.23988,18.4219,2.23988C18.4219,2.23988,18.2523,2.48699,17.7048,2.9909C17.1573,3.49484,16.932,3.75645,16.932,3.75645C16.932,3.75645,17.1282,7.68844,15.0665,10.7144C13.0049,13.7402,10.3423,15.5572,6.47334,15.94C2.60435,16.3228,0.0847931,14.7481,0.0847931,14.7481C0.0847931,14.7481,1.77582,14.6512,2.8539,14.2369C3.93198,13.8226,5.4825,12.7324,5.4825,12.7324C5.4825,12.7324,3.27786,12.0517,2.48566,11.2837C1.69344,10.5181,1.49721,10.0627,1.49721,10.0627C1.49721,10.0627,3.67274,10.0336,3.67274,10.0336C3.67274,10.0336,1.38333,8.81257,0.73407,7.84591C0.0847931,6.8793,0,5.94413,0,5.94413C0,5.94413,1.67407,6.62249,1.67407,6.62249C1.67407,6.62249,0.283447,4.72311,0.0847931,3.24529C-0.113876,1.76747,0.339188,0.972833,0.339188,0.972833C0.339188,0.972833,1.04901,2.30528,3.96104,3.78314C3.96104,3.78314,3.96104,3.78314,3.96104,3.78314Z"  fill-opacity="1"/></g></svg>