<svg xmlns="http://www.w3.org/2000/svg" xmlns:xlink="http://www.w3.org/1999/xlink" fill="none" version="1.1" width="22.000001907348633" height="22" viewBox="0 0 22.000001907348633 22"><defs><clipPath id="master_svg0_4538_01972"><rect x="0" y="0" width="22.000001907348633" height="22" rx="0"/></clipPath></defs><g style="mix-blend-mode:passthrough" clip-path="url(#master_svg0_4538_01972)"><g style="mix-blend-mode:passthrough"><path d="M2.25,6.0771484375L2.25,7.4554184375000006L5.47345,7.4554184375000006L5.47345,15.9225884375L7.08966,15.9225884375L7.08966,7.4554184375000006L10.3176,7.4554184375000006L10.3176,6.0771484375L2.25,6.0771484375ZM10.95062,6.0771484375L14.2459,10.835998437499999L10.73063,15.9225884375L12.7015,15.9225884375L15.2381,12.1199884375L17.7791,15.9225884375L19.75,15.9225884375L16.2078,10.835998437499999L19.53,6.0771484375L17.5591,6.0771484375L15.2381,9.5520084375L12.9215,6.0771484375L10.95062,6.0771484375Z" fill="currentColor" fill-opacity="1"/><path d="M10.4676,5.9271484375L2.1,5.9271484375L2.1,7.6054184375L5.323449999999999,7.6054184375L5.323449999999999,16.0725784375L7.23966,16.0725784375L7.23966,7.6054184375L10.4676,7.6054184375L10.4676,5.9271484375ZM7.08966,7.6054184375L7.08966,7.4554184375000006L10.3176,7.4554184375000006L10.3176,6.0771484375L2.25,6.0771484375L2.25,7.4554184375000006L5.47345,7.4554184375000006L5.47345,15.9225884375L7.08966,15.9225884375L7.08966,7.6054184375ZM13.0018,5.9271484375L10.6643,5.9271484375L10.8273,6.1625420375L14.0635,10.8360784375L10.44463,16.0725784375L12.7818,16.0725784375L15.2382,12.3901284375L17.698900000000002,16.0725784375L20.0372,16.0725784375L16.390700000000002,10.8361084375L19.8177,5.9271484375L17.4789,5.9271484375L15.2382,9.2817684375L13.0018,5.9271484375ZM15.3283,9.416928437500001L15.2381,9.5520084375L15.148,9.4168484375L12.9215,6.0771484375L10.95062,6.0771484375L11.05448,6.2271484375L14.2459,10.835998437499999L10.83429,15.7725884375L10.73063,15.9225884375L12.7015,15.9225884375L15.1479,12.2550984375L15.2381,12.1199884375L15.3283,12.2550284375L17.7791,15.9225884375L19.75,15.9225884375L19.6455,15.7725884375L16.2078,10.835998437499999L19.4253,6.2271484375L19.53,6.0771484375L17.5591,6.0771484375L15.3283,9.416928437500001Z" fill-rule="evenodd" fill="currentColor" fill-opacity="1"/></g></g></svg>