<svg xmlns="http://www.w3.org/2000/svg" xmlns:xlink="http://www.w3.org/1999/xlink" fill="none" version="1.1" width="120" height="120" viewBox="0 0 120 120"><defs><clipPath id="master_svg0_1198_0966"><rect x="42" y="42" width="36" height="36" rx="0"/></clipPath></defs><g style="mix-blend-mode:passthrough"><g style="mix-blend-mode:passthrough"><g style="mix-blend-mode:passthrough"><path d="M49.3429,0.954028Q51.3139,0.598293,53.3042,0.374786L53.5274,2.36229Q51.6034,2.57836,49.6982,2.92223L49.3429,0.954028ZM41.5892,2.89446Q43.4937,2.28044,45.4349,1.79468L45.9204,3.73486Q44.044,4.20443,42.2029,4.79798L41.5892,2.89446ZM34.1596,5.84953Q35.9643,4.98831,37.8224,4.24917L38.5617,6.10753Q36.7656,6.82202,35.021,7.65454L34.1596,5.84953ZM27.1871,9.76741Q28.8633,8.6725,30.6087,7.69176L31.5884,9.43537Q29.9012,10.3834,28.2809,11.4418L27.1871,9.76741ZM20.8003,14.5755Q22.3153,13.2681,23.9141,12.0646L25.117,13.6624Q23.5715,14.8258,22.107,16.0896L20.8003,14.5755ZM15.1082,20.1913Q16.436,18.694,17.8606,17.2886L19.2652,18.7123Q17.8881,20.0709,16.6046,21.5183L15.1082,20.1913ZM10.2135,26.5141Q11.3303,24.8537,12.5552,23.2714L14.1367,24.4957Q12.9526,26.0252,11.8731,27.6303L10.2135,26.5141ZM6.20277,33.432Q7.08934,31.6368,8.09361,29.9047L9.82382,30.9079Q8.85303,32.5823,7.99601,34.3176L6.20277,33.432ZM3.14879,40.8182Q3.78811,38.9234,4.55218,37.0754L6.40044,37.8395Q5.66184,39.626,5.04383,41.4576L3.14879,40.8182ZM1.10278,48.5493Q1.48451,46.5859,1.99616,44.6522L3.92962,45.1638Q3.43503,47.033,3.06602,48.931L1.10278,48.5493ZM0.103152,56.4832Q0.220462,54.4852,0.470656,52.4995L2.45497,52.7495Q2.21311,54.6691,2.09971,56.6005L0.103152,56.4832ZM0.16656,64.4676Q0.0176342,62.4731,0.00186492,60.4731L2.0018,60.4573Q2.01704,62.3906,2.16101,64.3187L0.16656,64.4676ZM1.29172,72.383Q0.879066,70.4266,0.597575,68.447L2.57765,68.1654Q2.84976,70.079,3.24867,71.9702L1.29172,72.383ZM3.45983,80.0801Q2.79048,78.1954,2.24813,76.2703L4.17319,75.7279Q4.69746,77.5889,5.3445,79.4107L3.45983,80.0801ZM6.63268,87.4213Q5.71756,85.6403,4.92322,83.8023L6.75911,83.0089Q7.52697,84.7856,8.41159,86.5073L6.63268,87.4213ZM10.7515,94.2723Q9.60857,92.6299,8.57757,90.9149L10.2916,89.8844Q11.2883,91.5423,12.3932,93.1299L10.7515,94.2723ZM15.7464,100.517Q14.3951,99.041,13.1451,97.4782L14.7069,96.2289Q15.9153,97.7396,17.2216,99.1664L15.7464,100.517ZM21.5268,106.041Q19.9912,104.758,18.5445,103.376L19.9263,101.93Q21.3248,103.266,22.8092,104.507L21.5268,106.041ZM27.9908,110.749Q26.2976,109.681,24.6793,108.502L25.8567,106.885Q27.421,108.025,29.0578,109.057L27.9908,110.749ZM35.0209,114.553Q33.2025,113.721,31.4436,112.769L32.3954,111.01Q34.0958,111.93,35.8536,112.735L35.0209,114.553ZM42.4989,117.391Q40.5846,116.807,38.7135,116.097L39.423,114.227Q41.2318,114.914,43.0823,115.478L42.4989,117.391ZM50.2856,119.208Q48.3087,118.884,46.3579,118.429L46.8126,116.481Q48.6984,116.921,50.6094,117.235L50.2856,119.208ZM58.2438,119.974Q56.2423,119.916,54.2492,119.724L54.4409,117.733Q56.3675,117.918,58.3023,117.975L58.2438,119.974ZM66.2229,119.676Q64.2335,119.884,62.2347,119.958L62.1602,117.96Q64.0924,117.888,66.0154,117.687L66.2229,119.676ZM74.104,118.319Q72.1583,118.789,70.1855,119.129L69.8459,117.158Q71.753,116.83,73.6339,116.375L74.104,118.319ZM81.7329,115.926Q79.8666,116.651,77.9561,117.25L77.3576,115.342Q79.2043,114.763,81.0084,114.062L81.7329,115.926ZM88.9745,112.54Q87.2226,113.506,85.4102,114.354L84.5632,112.542Q86.3152,111.723,88.0087,110.789L88.9745,112.54ZM95.7044,108.22Q94.096,109.411,92.4119,110.492L91.3315,108.809Q92.9596,107.764,94.5142,106.613L95.7044,108.22ZM101.799,103.045Q100.363,104.439,98.8376,105.734L97.543,104.21Q99.0176,102.958,100.405,101.61L101.799,103.045ZM107.151,97.1045Q105.914,98.6774,104.574,100.164L103.088,98.8255Q104.383,97.3882,105.58,95.8677L107.151,97.1045ZM111.666,90.5063Q110.649,92.2289,109.519,93.88L107.868,92.7507Q108.961,91.1545,109.944,89.4894L111.666,90.5063ZM115.264,83.3638Q114.485,85.2076,113.584,86.9952L111.798,86.0954Q112.669,84.3672,113.422,82.5851L115.264,83.3638ZM117.88,75.809Q117.352,77.7402,116.697,79.6318L114.807,78.9774Q115.441,77.1488,115.95,75.2821L117.88,75.809ZM119.468,67.9758Q119.202,69.9572,118.805,71.9166L116.845,71.5194Q117.228,69.6253,117.485,67.7099L119.468,67.9758ZM119.993,59.0523Q120,59.5261,120,60Q120,61.998,119.867,63.9916L117.872,63.8585Q118,61.9314,118,60Q118,59.5418,117.993,59.0839L119.993,59.0523ZM119.334,51.0836Q119.631,53.0617,119.796,55.0552L117.803,55.2201Q117.643,53.2931,117.356,51.3808L119.334,51.0836ZM117.621,43.2713Q118.179,45.1944,118.608,47.1503L116.654,47.5787Q116.24,45.6878,115.7,43.8289L117.621,43.2713ZM114.886,35.7601Q115.694,37.5912,116.379,39.4721L114.5,40.1564Q113.838,38.3382,113.056,36.5681L114.886,35.7601ZM111.175,28.6779Q112.22,30.3841,113.148,32.156L111.376,33.0842Q110.479,31.3713,109.47,29.722L111.175,28.6779ZM106.555,22.1504Q107.818,23.7035,108.974,25.3373L107.342,26.4928Q106.224,24.9134,105.004,23.412L106.555,22.1504ZM101.11,16.2965Q102.567,17.6677,103.93,19.1329L102.466,20.4951Q101.148,19.0787,99.7393,17.7533L101.11,16.2965ZM94.9336,11.2184Q96.5607,12.3836,98.1065,13.6546L96.8363,15.1995Q95.3421,13.9709,93.7691,12.8445L94.9336,11.2184ZM88.137,7.00653Q89.9041,7.94479,91.6048,8.99868L90.5513,10.6987Q88.9073,9.67996,87.1991,8.77298L88.137,7.00653ZM80.8397,3.73537Q82.7173,4.43081,84.5443,5.24988L83.7262,7.07488Q81.96,6.28312,80.145,5.61086L80.8397,3.73537ZM73.175,1.46438Q75.1273,1.9038,77.046,2.47231L76.4778,4.3899Q74.6231,3.84034,72.7359,3.41557L73.175,1.46438ZM65.2779,0.232587Q67.269,0.408413,69.2439,0.716361L68.9358,2.69248Q67.0267,2.3948,65.102,2.22483L65.2779,0.232587ZM61.2793,0.0136389L61.2366,2.01318Q60.6184,2,60,2Q58.6877,2,57.3767,2.05936L57.2862,0.0614019Q58.6424,0,60,0Q60.6397,0,61.2793,0.0136389Z" fill-rule="evenodd" fill="#BFC2CC" fill-opacity="1"/></g><g clip-path="url(#master_svg0_1198_0966)"><g><path d="M66,73.5L58.857,60.405L64.5,51L76.5,73.5L66,73.5ZM54,57L63,73.5L45,73.5L54,57ZM50.25,54C48.17893,54,46.5,52.32107,46.5,50.25C46.5,48.17893,48.17893,46.5,50.25,46.5C52.32107,46.5,54,48.17893,54,50.25C54,52.32107,52.32107,54,50.25,54Z" fill="#BFC2CC" fill-opacity="1"/></g></g></g><g style="mix-blend-mode:passthrough"><g style="mix-blend-mode:passthrough"><ellipse cx="100" cy="100" rx="20" ry="20" fill="#FFDC51" fill-opacity="1"/><ellipse cx="100" cy="100" rx="19" ry="19" fill-opacity="0" stroke-opacity="1" stroke="#303133" fill="none" stroke-width="2"/></g><g style="mix-blend-mode:passthrough"><path d="M98.59375,101.40625L98.59375,106.0938Q98.59375,106.1628,98.60052,106.2316Q98.60729,106.3003,98.62077,106.3681Q98.63425,106.4359,98.6543,106.502Q98.67436000000001,106.5681,98.70079,106.6319Q98.72723,106.6957,98.7598,106.7566Q98.79236,106.8176,98.83074,106.875Q98.86913,106.9325,98.91295,106.9859Q98.95678,107.0393,99.00563,107.0881Q99.05448,107.137,99.10788,107.1808Q99.16129,107.2246,99.21873,107.263Q99.27617,107.3014,99.3371,107.334Q99.39802,107.3665,99.46185,107.393Q99.52568,107.4194,99.59179,107.4394Q99.6579,107.4595,99.72565,107.473Q99.79341,107.4865,99.86216,107.4932Q99.93092,107.5,100,107.5Q100.06909,107.5,100.13784,107.4932Q100.20659,107.4865,100.27435,107.473Q100.3421,107.4595,100.40821,107.4394Q100.47432,107.4194,100.53815,107.393Q100.60198,107.3665,100.66290000000001,107.334Q100.72382999999999,107.3014,100.78127,107.263Q100.83871,107.2246,100.89212,107.1808Q100.94552,107.137,100.99437,107.0881Q101.04322,107.0393,101.08705,106.9859Q101.13087,106.9325,101.16925,106.875Q101.20764,106.8176,101.2402,106.7566Q101.27277,106.6957,101.2992,106.6319Q101.32563999999999,106.5681,101.3457,106.502Q101.36575,106.4359,101.37923,106.3681Q101.39271,106.3003,101.39948,106.2316Q101.40625,106.1628,101.40625,106.0938L101.40625,101.40625L106.0938,101.40625Q106.1628,101.40625,106.2316,101.39948Q106.3003,101.39271,106.3681,101.37923Q106.4359,101.36575,106.502,101.3457Q106.5681,101.32563999999999,106.6319,101.2992Q106.6957,101.27277,106.7566,101.2402Q106.8176,101.20764,106.875,101.16925Q106.9325,101.13087,106.9859,101.08705Q107.0393,101.04322,107.0881,100.99437Q107.137,100.94552,107.1808,100.89212Q107.2246,100.83871,107.263,100.78127Q107.3014,100.72382999999999,107.334,100.66290000000001Q107.3665,100.60198,107.393,100.53815Q107.4194,100.47432,107.4394,100.40821Q107.4595,100.3421,107.473,100.27435Q107.4865,100.20659,107.4932,100.13784Q107.5,100.06909,107.5,100Q107.5,99.93092,107.4932,99.86216Q107.4865,99.79341,107.473,99.72565Q107.4595,99.6579,107.4394,99.59179Q107.4194,99.52568,107.393,99.46185Q107.3665,99.39802,107.334,99.3371Q107.3014,99.27617,107.263,99.21873Q107.2246,99.16129,107.1808,99.10788Q107.137,99.05448,107.0881,99.00563Q107.0393,98.95678,106.9859,98.91295Q106.9325,98.86913,106.875,98.83074Q106.8176,98.79236,106.7566,98.7598Q106.6957,98.72723,106.6319,98.70079Q106.5681,98.67436000000001,106.502,98.6543Q106.4359,98.63425,106.3681,98.62077Q106.3003,98.60729,106.2316,98.60052Q106.1628,98.59375,106.0938,98.59375L101.40625,98.59375L101.40625,93.90625Q101.40625,93.83717,101.39948,93.76841Q101.39271,93.69966,101.37923,93.6319Q101.36575,93.56415,101.3457,93.498037Q101.32563999999999,93.431927,101.2992,93.368101Q101.27277,93.304275,101.2402,93.243348Q101.20764,93.182421,101.16925,93.124979Q101.13087,93.067537,101.08705,93.014134Q101.04322,92.960731,100.99437,92.911881Q100.94552,92.863031,100.89212,92.819204Q100.83871,92.775377,100.78127,92.736996Q100.72382999999999,92.698614,100.66290000000001,92.666048Q100.60198,92.633482,100.53815,92.607044Q100.47432,92.5806069,100.40821,92.5605526Q100.3421,92.5404984,100.27435,92.5270207Q100.20659,92.513543,100.13784,92.50677148Q100.06909,92.5,100,92.5Q99.93092,92.5,99.86216,92.50677148Q99.79341,92.513543,99.72565,92.5270207Q99.6579,92.5404984,99.59179,92.5605526Q99.52568,92.5806069,99.46185,92.607044Q99.39802,92.633482,99.3371,92.666048Q99.27617,92.698614,99.21873,92.736996Q99.16129,92.775377,99.10788,92.819204Q99.05448,92.863031,99.00563,92.911881Q98.95678,92.960731,98.91295,93.014134Q98.86913,93.067537,98.83074,93.124979Q98.79236,93.182421,98.7598,93.243348Q98.72723,93.304275,98.70079,93.368101Q98.67436000000001,93.431927,98.6543,93.498037Q98.63425,93.56415,98.62077,93.6319Q98.60729,93.69966,98.60052,93.76841Q98.59375,93.83717,98.59375,93.90625L98.59375,98.59375L93.90625,98.59375Q93.83717,98.59375,93.76841,98.60052Q93.69966,98.60729,93.6319,98.62077Q93.56415,98.63425,93.498037,98.6543Q93.431927,98.67436000000001,93.368101,98.70079Q93.304275,98.72723,93.243348,98.7598Q93.182421,98.79236,93.124979,98.83074Q93.067537,98.86913,93.014134,98.91295Q92.960731,98.95678,92.911881,99.00563Q92.863031,99.05448,92.819204,99.10788Q92.775377,99.16129,92.736996,99.21873Q92.698614,99.27617,92.666048,99.3371Q92.633482,99.39802,92.607044,99.46185Q92.5806069,99.52568,92.5605526,99.59179Q92.5404984,99.6579,92.5270207,99.72565Q92.513543,99.79341,92.50677148,99.86216Q92.5,99.93092,92.5,100Q92.5,100.06909,92.50677148,100.13784Q92.513543,100.20659,92.5270207,100.27435Q92.5404984,100.3421,92.5605526,100.40821Q92.5806069,100.47432,92.607044,100.53815Q92.633482,100.60198,92.666048,100.66290000000001Q92.698614,100.72382999999999,92.736996,100.78127Q92.775377,100.83871,92.819204,100.89212Q92.863031,100.94552,92.911881,100.99437Q92.960731,101.04322,93.014134,101.08705Q93.067537,101.13087,93.124979,101.16925Q93.182421,101.20764,93.243348,101.2402Q93.304275,101.27277,93.368101,101.2992Q93.431927,101.32563999999999,93.498037,101.3457Q93.56415,101.36575,93.6319,101.37923Q93.69966,101.39271,93.76841,101.39948Q93.83717,101.40625,93.90625,101.40625L98.59375,101.40625Z" fill-rule="evenodd" fill="#303133" fill-opacity="1"/></g></g></g></svg>