<svg xmlns="http://www.w3.org/2000/svg" xmlns:xlink="http://www.w3.org/1999/xlink" fill="none" version="1.1" width="20" height="17.50003433227539" viewBox="0 0 20 17.50003433227539"><g style="mix-blend-mode:passthrough"><path d="M11.6667,4.16668Q11.6667,4.26896,11.6617,4.37112Q11.6567,4.47329,11.6467,4.57508Q11.6366,4.67687,11.6216,4.77805Q11.6066,4.87923,11.5867,4.97955Q11.5667,5.07987,11.5419,5.17909Q11.517,5.27831,11.4873,5.3762Q11.4576,5.47408,11.4232,5.57038Q11.3887,5.66669,11.3496,5.76119Q11.3104,5.85569,11.2667,5.94816Q11.2229,6.04062,11.1747,6.13083Q11.1265,6.22104,11.0739,6.30877Q11.0213,6.39651,10.9645,6.48155Q10.9077,6.5666,10.8468,6.64876Q10.7858,6.73092,10.7209,6.80999Q10.656,6.88905,10.5873,6.96484Q10.5187,7.04063,10.4463,7.11296Q10.374,7.18529,10.2982,7.25398Q10.2224,7.32267,10.1434,7.38756Q10.0643,7.45245,9.98213,7.51338Q9.89998,7.57431,9.81493,7.63114Q9.72988,7.68796,9.64215,7.74055Q9.55441,7.79314,9.4642,7.84135Q9.374,7.88957,9.28153,7.9333Q9.18906,7.97704,9.09457,8.01618Q9.00006,8.05532,8.90376,8.08978Q8.80745,8.12424,8.70957,8.15393Q8.61169,8.18363,8.51247,8.20848Q8.41325,8.23333,8.31293,8.25329Q8.21261,8.27324,8.11143,8.28825Q8.01025,8.30326,7.90846,8.31329Q7.80666,8.32331,7.7045,8.32833Q7.60234,8.33335,7.50005,8.33335Q7.39776,8.33335,7.2956,8.32833Q7.19344,8.32331,7.09164,8.31329Q6.98985,8.30326,6.88867,8.28825Q6.78749,8.27324,6.68717,8.25329Q6.58685,8.23333,6.48763,8.20848Q6.38841,8.18363,6.29053,8.15393Q6.19264,8.12424,6.09634,8.08978Q6.00003,8.05532,5.90553,8.01618Q5.81103,7.97704,5.71856,7.9333Q5.6261,7.88957,5.53589,7.84135Q5.44568,7.79314,5.35795,7.74055Q5.27022,7.68797,5.18517,7.63114Q5.10012,7.57431,5.01796,7.51338Q4.93581,7.45245,4.85674,7.38756Q4.77767,7.32267,4.70188,7.25398Q4.62609,7.18529,4.55376,7.11296Q4.48144,7.04063,4.41275,6.96484Q4.34406,6.88905,4.27917,6.80999Q4.21428,6.73092,4.15334,6.64876Q4.09241,6.5666,4.03558,6.48156Q3.97876,6.39651,3.92617,6.30877Q3.87359,6.22104,3.82537,6.13083Q3.77715,6.04062,3.73342,5.94816Q3.68969,5.85569,3.65054,5.76119Q3.6114,5.66669,3.57694,5.57038Q3.54248,5.47408,3.51279,5.3762Q3.4831,5.27831,3.45824,5.17909Q3.43339,5.07987,3.41343,4.97955Q3.39348,4.87923,3.37847,4.77805Q3.36346,4.67687,3.35344,4.57508Q3.34341,4.47329,3.33839,4.37112Q3.33337,4.26896,3.33337,4.16668Q3.33337,4.06439,3.33839,3.96223Q3.34341,3.86006,3.35344,3.75827Q3.36346,3.65648,3.37847,3.5553Q3.39348,3.45412,3.41343,3.3538Q3.43339,3.25348,3.45824,3.15426Q3.4831,3.05503,3.51279,2.95715Q3.54248,2.85927,3.57694,2.76296Q3.6114,2.66666,3.65054,2.57216Q3.68969,2.47766,3.73342,2.38519Q3.77715,2.29273,3.82537,2.20252Q3.87359,2.11231,3.92617,2.02458Q3.97876,1.93684,4.03558,1.85179Q4.09241,1.76675,4.15334,1.68459Q4.21428,1.60243,4.27917,1.52336Q4.34406,1.4443,4.41275,1.36851Q4.48144,1.29272,4.55376,1.22039Q4.62609,1.14806,4.70188,1.07937Q4.77767,1.01068,4.85674,0.945792Q4.93581,0.880902,5.01796,0.81997Q5.10012,0.759038,5.18517,0.702211Q5.27022,0.645384,5.35795,0.592799Q5.44568,0.540213,5.53589,0.491996Q5.6261,0.443778,5.71856,0.400045Q5.81103,0.356312,5.90553,0.317169Q6.00003,0.278026,6.09634,0.243567Q6.19264,0.209108,6.29053,0.179416Q6.38841,0.149724,6.48763,0.12487Q6.58685,0.100017,6.68717,0.0800615Q6.78749,0.0601064,6.88867,0.045098Q6.98985,0.0300895,7.09164,0.0200637Q7.19344,0.0100379,7.2956,0.00501894Q7.39776,0,7.50005,0Q7.60234,0,7.7045,0.00501894Q7.80666,0.0100379,7.90846,0.0200637Q8.01025,0.0300895,8.11143,0.045098Q8.21261,0.0601064,8.31293,0.0800615Q8.41325,0.100017,8.51247,0.12487Q8.61169,0.149724,8.70957,0.179416Q8.80745,0.209108,8.90376,0.243567Q9.00006,0.278026,9.09457,0.317169Q9.18906,0.356312,9.28153,0.400045Q9.374,0.443778,9.4642,0.491996Q9.55441,0.540213,9.64215,0.592799Q9.72988,0.645384,9.81493,0.702211Q9.89997,0.759038,9.98213,0.81997Q10.0643,0.880902,10.1434,0.945792Q10.2224,1.01068,10.2982,1.07937Q10.374,1.14806,10.4463,1.22039Q10.5187,1.29272,10.5874,1.36851Q10.656,1.4443,10.7209,1.52336Q10.7858,1.60243,10.8468,1.68459Q10.9077,1.76675,10.9645,1.85179Q11.0213,1.93684,11.0739,2.02458Q11.1265,2.11231,11.1747,2.20252Q11.2229,2.29273,11.2667,2.38519Q11.3104,2.47766,11.3496,2.57216Q11.3887,2.66666,11.4232,2.76296Q11.4576,2.85927,11.4873,2.95715Q11.517,3.05503,11.5419,3.15426Q11.5667,3.25348,11.5867,3.3538Q11.6066,3.45412,11.6216,3.5553Q11.6366,3.65648,11.6467,3.75827Q11.6567,3.86006,11.6617,3.96223Q11.6667,4.06439,11.6667,4.16668ZM9.66672,4.16668Q9.66672,3.26921,9.03212,2.6346Q8.39752,2,7.50005,2Q6.60258,2,5.96798,2.6346Q5.33337,3.26921,5.33337,4.16668Q5.33337,5.06414,5.96798,5.69875Q6.60258,6.33335,7.50005,6.33335Q8.39751,6.33335,9.03212,5.69875Q9.66672,5.06414,9.66672,4.16668ZM19.1667,4.16667L16.6667,4.16667C16.2064,4.16667,15.8333,4.53977,15.8333,5.00001C15.8333,5.46025,16.2064,5.83334,16.6667,5.83334L19.1667,5.83334C19.6269,5.83334,20,5.46025,20,5.00001C20,4.53977,19.6269,4.16667,19.1667,4.16667ZM19.1667,8.33335L15,8.33335C14.5398,8.33335,14.1667,8.70644,14.1667,9.16668C14.1667,9.62692,14.5398,10,15,10L19.1667,10C19.6269,10,20,9.62692,20,9.16668C20,8.70644,19.6269,8.33335,19.1667,8.33335ZM15,14.7173C15,17.5341,12.1652,17.5177,8.49181,17.4965C8.1673,17.4946,7.83624,17.4927,7.50002,17.4927C7.16379,17.4927,6.83273,17.4946,6.50822,17.4965C2.83486,17.5177,0,17.5341,0,14.7173C0,11.6518,3.35787,9.16668,7.50002,9.16668C11.6422,9.16668,15,11.6518,15,14.7173ZM13,14.7173Q13,13.4262,11.6136,12.4001Q9.94703,11.1667,7.50002,11.1667Q5.053,11.1667,3.38648,12.4001Q2,13.4262,2,14.7173Q2,15.0175,2.04708,15.075Q2.11306,15.1554,2.44373,15.2532Q3.32834,15.5148,6.49666,15.4965Q7.15809,15.4927,7.50002,15.4927Q7.8421,15.4927,8.50337,15.4965Q11.6717,15.5148,12.5563,15.2532Q12.887,15.1554,12.9529,15.075Q13,15.0175,13,14.7173ZM19.1667,12.5L17.5,12.5C17.0398,12.5,16.6667,12.8731,16.6667,13.3334C16.6667,13.7936,17.0398,14.1667,17.5,14.1667L19.1667,14.1667C19.6269,14.1667,20,13.7936,20,13.3334C20,12.8731,19.6269,12.5,19.1667,12.5Z" fill-rule="evenodd" fill="#303133" fill-opacity="1"/></g></svg>