<svg xmlns="http://www.w3.org/2000/svg" xmlns:xlink="http://www.w3.org/1999/xlink"  version="1.1" viewBox="0 0 24 24"><defs><clipPath id="master_svg0_1616_8678"><rect x="0" y="0" width="24" height="24" rx="0"/></clipPath></defs><g clip-path="url(#master_svg0_1616_8678)"><g><path d="M5.63603,18.3639Q6.88218,19.6101,8.497119999999999,20.2931Q10.16831,21,12,21Q13.8317,21,15.5029,20.2931Q17.117800000000003,19.6101,18.3639,18.3639Q19.6101,17.117800000000003,20.2931,15.5029Q21,13.8317,21,12Q21,10.16831,20.2931,8.497119999999999Q19.6101,6.88218,18.3639,5.63603Q17.117800000000003,4.38992,15.5029,3.70685Q13.8317,3,12,3Q10.16831,3,8.497119999999999,3.70685Q6.88218,4.38992,5.63603,5.6360399999999995Q4.38992,6.88218,3.70685,8.497119999999999Q3,10.16831,3,12Q3,13.8317,3.70685,15.5029Q4.38991,17.117800000000003,5.6360399999999995,18.3639L5.63603,18.3639ZM4.22182,19.7782Q2.6998670000000002,18.2562,1.864846,16.282Q1,14.2373,1,12Q1,9.76274,1.864846,7.71801Q2.699864,5.74381,4.221830000000001,4.22182Q5.74381,2.699865,7.71801,1.864846Q9.76274,1,12,1Q14.2373,1,16.282,1.864846Q18.2562,2.6998670000000002,19.7782,4.221830000000001Q21.3001,5.74381,22.1351,7.71801Q23,9.76274,23,12Q23,14.2373,22.1351,16.282Q21.3001,18.2562,19.7782,19.7782Q18.2562,21.3001,16.282,22.1351Q14.2373,23,12,23Q9.76274,23,7.71801,22.1351Q5.74381,21.3001,4.221830000000001,19.7782L4.22182,19.7782Z" fill="#303133" fill-opacity="1"/></g><g><path d="M12,5.5C12.69035,5.5,13.25,6.0596499999999995,13.25,6.75C13.25,7.4403500000000005,12.69035,8,12,8C11.30965,8,10.75,7.4403500000000005,10.75,6.75C10.75,6.0596499999999995,11.30965,5.5,12,5.5Z" fill-rule="evenodd" fill="#303133" fill-opacity="1"/></g><g><path d="M11.25,9L11.75,9L12.25,9Q12.34849,9,12.44509,9.019214999999999Q12.54169,9.03843,12.63268,9.076121Q12.72368,9.113812,12.80557,9.16853Q12.88746,9.223249,12.95711,9.292893Q13.02675,9.362537,13.08147,9.44443Q13.13619,9.526322,13.17388,9.617317Q13.21157,9.708311,13.23079,9.80491Q13.25,9.9015086,13.25,10L13.25,17Q13.25,17.098489999999998,13.23079,17.19509Q13.21157,17.29169,13.17388,17.38268Q13.13619,17.47368,13.08147,17.55557Q13.02675,17.63746,12.95711,17.70711Q12.88746,17.77675,12.80557,17.83147Q12.72368,17.88619,12.63268,17.92388Q12.54169,17.961570000000002,12.44509,17.98078Q12.34849,18,12.25,18Q12.151509,18,12.05491,17.98078Q11.958311,17.961570000000002,11.867316,17.92388Q11.776322,17.88619,11.69443,17.83147Q11.612537,17.77675,11.542893,17.70711Q11.473249,17.63746,11.41853,17.55557Q11.363811,17.47368,11.3261205,17.38268Q11.2884294,17.29169,11.2692147,17.19509Q11.25,17.098489999999998,11.25,17L11.25,10L12.25,10L12.25,11L11.75,11L11.25,11Q11.1515086,11,11.05491,10.980785000000001Q10.958311,10.96157,10.867317,10.923879Q10.776322,10.886188,10.69443,10.83147Q10.612537,10.776751,10.542893,10.707107Q10.473249,10.637463,10.41853,10.55557Q10.363812,10.473678,10.326121,10.382683Q10.28843,10.291689,10.269214999999999,10.19509Q10.25,10.0984914,10.25,10Q10.25,9.9015086,10.269214999999999,9.80491Q10.28843,9.708311,10.326121,9.617317Q10.363812,9.526322,10.41853,9.44443Q10.473249,9.362537,10.542893,9.292893Q10.612537,9.223249,10.69443,9.16853Q10.776322,9.113812,10.867317,9.076121Q10.958311,9.03843,11.05491,9.019214999999999Q11.1515086,9,11.25,9ZM12.25,10Q12.25,10.0984914,12.230785000000001,10.19509Q12.21157,10.291689,12.173879,10.382683Q12.136188,10.473678,12.08147,10.55557Q12.026751,10.637463,11.957107,10.707107Q11.887463,10.776751,11.80557,10.83147Q11.723678,10.886188,11.632683,10.923879Q11.541689,10.96157,11.44509,10.980785000000001Q11.3484914,11,11.25,11Q11.1515086,11,11.05491,10.980785000000001Q10.958311,10.96157,10.867317,10.923879Q10.776322,10.886188,10.69443,10.83147Q10.612537,10.776751,10.542893,10.707107Q10.473249,10.637463,10.41853,10.55557Q10.363812,10.473678,10.326121,10.382683Q10.28843,10.291689,10.269214999999999,10.19509Q10.25,10.0984914,10.25,10Q10.25,9.9015086,10.269214999999999,9.80491Q10.28843,9.708311,10.326121,9.617317Q10.363812,9.526322,10.41853,9.44443Q10.473249,9.362537,10.542893,9.292893Q10.612537,9.223249,10.69443,9.16853Q10.776322,9.113812,10.867317,9.076121Q10.958311,9.03843,11.05491,9.019214999999999Q11.1515086,9,11.25,9Q11.3484914,9,11.44509,9.019214999999999Q11.541689,9.03843,11.632683,9.076121Q11.723678,9.113812,11.80557,9.16853Q11.887463,9.223249,11.957107,9.292893Q12.026751,9.362537,12.08147,9.44443Q12.136188,9.526322,12.173879,9.617317Q12.21157,9.708311,12.230785000000001,9.80491Q12.25,9.9015086,12.25,10ZM13.25,17Q13.25,17.098489999999998,13.23079,17.19509Q13.21157,17.29169,13.17388,17.38268Q13.13619,17.47368,13.08147,17.55557Q13.02675,17.63746,12.95711,17.70711Q12.88746,17.77675,12.80557,17.83147Q12.72368,17.88619,12.63268,17.92388Q12.54169,17.961570000000002,12.44509,17.98078Q12.34849,18,12.25,18Q12.151509,18,12.05491,17.98078Q11.958311,17.961570000000002,11.867316,17.92388Q11.776322,17.88619,11.69443,17.83147Q11.612537,17.77675,11.542893,17.70711Q11.473249,17.63746,11.41853,17.55557Q11.363811,17.47368,11.3261205,17.38268Q11.2884294,17.29169,11.2692147,17.19509Q11.25,17.098489999999998,11.25,17Q11.25,16.901510000000002,11.2692147,16.80491Q11.2884294,16.70831,11.3261205,16.61732Q11.363811,16.52632,11.41853,16.44443Q11.473249,16.36254,11.542893,16.29289Q11.612537,16.22325,11.69443,16.16853Q11.776322,16.11381,11.867316,16.07612Q11.958311,16.038429999999998,12.05491,16.01921Q12.151509,16,12.25,16Q12.34849,16,12.44509,16.01921Q12.54169,16.038429999999998,12.63268,16.07612Q12.72368,16.11381,12.80557,16.16853Q12.88746,16.22325,12.95711,16.29289Q13.02675,16.36254,13.08147,16.44443Q13.13619,16.52632,13.17388,16.61732Q13.21157,16.70831,13.23079,16.80491Q13.25,16.901510000000002,13.25,17Z" fill="#303133" fill-opacity="1"/></g><g><path d="M14,18L10.5,18Q10.4015086,18,10.30491,17.980785Q10.208311,17.961570000000002,10.117317,17.923879Q10.026322,17.886188,9.94443,17.83147Q9.862537,17.776751,9.792893,17.707107Q9.723249,17.637463,9.66853,17.55557Q9.613812,17.473678,9.576121,17.382683Q9.53843,17.291689,9.519214999999999,17.19509Q9.5,17.0984914,9.5,17Q9.5,16.9015086,9.519214999999999,16.80491Q9.53843,16.708311,9.576121,16.617317Q9.613812,16.526322,9.66853,16.44443Q9.723249,16.362537,9.792893,16.292893Q9.862537,16.223249,9.94443,16.16853Q10.026322,16.113812,10.117317,16.076121Q10.208311,16.038429999999998,10.30491,16.019215Q10.4015086,16,10.5,16L14,16Q14.09849,16,14.19509,16.019215Q14.29169,16.038429999999998,14.38268,16.076121Q14.47368,16.113812,14.55557,16.16853Q14.63746,16.223249,14.70711,16.292893Q14.77675,16.362537,14.83147,16.44443Q14.88619,16.526322,14.92388,16.617317Q14.96157,16.708311,14.98078,16.80491Q15,16.9015086,15,17Q15,17.0984914,14.98078,17.19509Q14.96157,17.291689,14.92388,17.382683Q14.88619,17.473678,14.83147,17.55557Q14.77675,17.637463,14.70711,17.707107Q14.63746,17.776751,14.55557,17.83147Q14.47368,17.886188,14.38268,17.923879Q14.29169,17.961570000000002,14.19509,17.980785Q14.09849,18,14,18ZM15,17Q15,17.0984914,14.98078,17.19509Q14.96157,17.291689,14.92388,17.382683Q14.88619,17.473678,14.83147,17.55557Q14.77675,17.637463,14.70711,17.707107Q14.63746,17.776751,14.55557,17.83147Q14.47368,17.886188,14.38268,17.923879Q14.29169,17.961570000000002,14.19509,17.980785Q14.09849,18,14,18Q13.90151,18,13.80491,17.980785Q13.70831,17.961570000000002,13.61732,17.923879Q13.52632,17.886188,13.44443,17.83147Q13.36254,17.776751,13.29289,17.707107Q13.22325,17.637463,13.16853,17.55557Q13.11381,17.473678,13.07612,17.382683Q13.03843,17.291689,13.019210000000001,17.19509Q13,17.0984914,13,17Q13,16.9015086,13.019210000000001,16.80491Q13.03843,16.708311,13.07612,16.617317Q13.11381,16.526322,13.16853,16.44443Q13.22325,16.362537,13.29289,16.292893Q13.36254,16.223249,13.44443,16.16853Q13.52632,16.113812,13.61732,16.076121Q13.70831,16.038429999999998,13.80491,16.019215Q13.90151,16,14,16Q14.09849,16,14.19509,16.019215Q14.29169,16.038429999999998,14.38268,16.076121Q14.47368,16.113812,14.55557,16.16853Q14.63746,16.223249,14.70711,16.292893Q14.77675,16.362537,14.83147,16.44443Q14.88619,16.526322,14.92388,16.617317Q14.96157,16.708311,14.98078,16.80491Q15,16.9015086,15,17ZM11.5,17Q11.5,17.0984914,11.480785000000001,17.19509Q11.46157,17.291689,11.423879,17.382683Q11.386188,17.473678,11.33147,17.55557Q11.276751,17.637463,11.207107,17.707107Q11.137463,17.776751,11.05557,17.83147Q10.973678,17.886188,10.882683,17.923879Q10.791689,17.961570000000002,10.69509,17.980785Q10.5984914,18,10.5,18Q10.4015086,18,10.30491,17.980785Q10.208311,17.961570000000002,10.117317,17.923879Q10.026322,17.886188,9.94443,17.83147Q9.862537,17.776751,9.792893,17.707107Q9.723249,17.637463,9.66853,17.55557Q9.613812,17.473678,9.576121,17.382683Q9.53843,17.291689,9.519214999999999,17.19509Q9.5,17.0984914,9.5,17Q9.5,16.9015086,9.519214999999999,16.80491Q9.53843,16.708311,9.576121,16.617317Q9.613812,16.526322,9.66853,16.44443Q9.723249,16.362537,9.792893,16.292893Q9.862537,16.223249,9.94443,16.16853Q10.026322,16.113812,10.117317,16.076121Q10.208311,16.038429999999998,10.30491,16.019215Q10.4015086,16,10.5,16Q10.5984914,16,10.69509,16.019215Q10.791689,16.038429999999998,10.882683,16.076121Q10.973678,16.113812,11.05557,16.16853Q11.137463,16.223249,11.207107,16.292893Q11.276751,16.362537,11.33147,16.44443Q11.386188,16.526322,11.423879,16.617317Q11.46157,16.708311,11.480785000000001,16.80491Q11.5,16.9015086,11.5,17Z" fill-opacity="1"/></g></g></svg>