<svg xmlns="http://www.w3.org/2000/svg" xmlns:xlink="http://www.w3.org/1999/xlink"  version="1.1" viewBox="0 0 21.9130859375 17.999267578125"><g><path d="M20.3898,1.74311C18.2946,-0.266472,15.2231,0.013267,15.2231,0.013267C14.8463,0.0218424,14.5381,0.332969,14.5381,0.715492L14.5381,1.05517C14.5381,1.43482,14.8435,1.72599,15.2318,1.71744C15.2318,1.71744,18.1804,1.40343,19.4393,3.23603C20.6953,5.06861,20.1529,7.36651,20.1529,7.36651C20.0958,7.74046,20.3556,8.04587,20.741,8.04587L21.0321,8.04587C21.4146,8.04587,21.7657,7.74331,21.8085,7.36364C21.8091,7.36374,22.4842,3.75477,20.3898,1.74311ZM15.8597,8.39389C15.8597,8.35759,15.924,8.26726,16.0165,8.13729C16.4187,7.57236,17.3542,6.25852,15.8597,5.37671C14.4323,4.53667,12.0842,5.34016,11.1539,5.65852C10.886,5.75017,10.7357,5.80161,10.7587,5.76205C12.2059,3.23581,10.1393,2.43652,9.08307,2.43652C6.57109,2.43652,0,8.03427,0,11.5796C0,15.1249,4.38739,17.9994,9.79669,17.9994C15.2089,17.9994,19.5534,15.1249,19.5534,11.5796C19.5534,8.58804,15.8597,8.58804,15.8597,8.39389ZM17.9549,7.23524L18.3688,7.23524C18.6229,7.23524,18.8683,7.03541,18.9083,6.78138C18.9083,6.78138,19.3964,4.87742,18.2546,3.83265C17.1127,2.78791,15.6199,3.17039,15.6199,3.17039C15.3687,3.20753,15.166,3.44731,15.166,3.6985L15.166,3.87834C15.166,4.13239,15.3687,4.32081,15.6313,4.31504C15.6313,4.31504,16.8844,4.14378,17.4924,4.88026C18.1005,5.6139,17.6237,6.80421,17.6237,6.80421C17.5552,7.04115,17.7036,7.23524,17.9549,7.23524ZM10.0622,16.0354C6.60535,16.5208,3.54245,15.0649,3.22275,12.7842C2.90305,10.5005,5.44357,8.25687,8.90039,7.77164C12.3572,7.28638,15.4201,8.74216,15.7398,11.0229C16.0624,13.3065,13.519,15.5502,10.0622,16.0354ZM8.19778,9.11324C6.14251,9.51277,4.74951,11.2484,5.08636,12.9867C5.42608,14.728,7.36712,15.8128,9.42239,15.413C11.4776,15.0134,12.8706,13.2779,12.5338,11.5395C12.1941,9.80117,10.253,8.71352,8.19778,9.11324ZM9.47949,12.2246C9.13122,12.2246,8.8486,11.9363,8.8486,11.5824C8.8486,11.2284,9.13122,10.9401,9.47949,10.9401C9.82776,10.9401,10.1132,11.2284,10.1132,11.5824C10.1132,11.9392,9.83056,12.2246,9.47949,12.2246ZM8.02939,13.689C7.39569,13.9829,6.70202,13.8317,6.4765,13.3493C6.251,12.8668,6.58212,12.236,7.21585,11.942C7.84955,11.648,8.54318,11.7992,8.76873,12.2818C8.9942,12.7641,8.66305,13.3949,8.02939,13.689Z" fill-rule="evenodd" fill-opacity="1"/></g></svg>