<svg xmlns="http://www.w3.org/2000/svg" xmlns:xlink="http://www.w3.org/1999/xlink" fill="none" version="1.1" width="124" height="29" viewBox="0 0 124 29"><g><g><path d="M0,10.092514818267823L0,25.93388481826782L1.52147,27.46698481826782L3.23313,28.999984818267823L21.681,28.999984818267823L21.681,14.327384818267822L14.5682,14.327384818267822L14.5682,7.163691048267823L21.681,7.163691048267823L21.681,7.1636898982678225L3.23313,7.154184818267822L1.64826,8.623344818267823L0,10.092514818267823ZM7.28412,14.499994818267822L14.3968,14.499994818267822L14.3968,21.66368481826782L7.28412,21.66368481826782L7.28412,14.499994818267822Z" fill-rule="evenodd" fill="#FF43BA" fill-opacity="1"/></g><g><rect x="14.56821060180664" y="0" width="7.112729072570801" height="7.163690090179443" rx="0" fill="#FF43BA" fill-opacity="1"/></g><g><path d="M31.824132919311523,25.039684818267823L31.824132919311523,7.154184818267822L45.27803291931153,7.154184818267822L49.28043291931152,10.818644818267822L49.28043291931152,21.399484818267823L45.27803291931153,25.039684818267823L31.824132919311523,25.039684818267823ZM37.42781291931152,21.32668481826782L43.676732919311526,21.32668481826782L43.676732919311526,10.867174818267822L37.42781291931152,10.867174818267822L37.42781291931152,21.32668481826782ZM51.42623291931152,25.039684818267823L51.42623291931152,7.154184818267822L65.69993291931152,7.154184818267822L68.37623291931152,9.459634818267823L68.37623291931152,17.22538481826782L66.83313291931152,18.535884818267824L69.17183291931153,25.039684818267823L63.68873291931152,25.039684818267823L61.880432919311524,19.50658481826782L57.02993291931152,19.50658481826782L57.02993291931152,25.039684818267823L51.42623291931152,25.039684818267823ZM57.02993291931152,15.793564818267821L63.03773291931152,15.793564818267821L63.03773291931152,10.867174818267822L57.02993291931152,10.867174818267822L57.02993291931152,15.793564818267821ZM73.05373291931153,25.039684818267823L70.37743291931153,22.73418481826782L70.37743291931153,9.459634818267823L73.05373291931153,7.154184818267822L84.94043291931152,7.154184818267822L87.61673291931152,9.459634818267823L87.61673291931152,22.73418481826782L84.94043291931152,25.039684818267823L73.05373291931153,25.039684818267823ZM75.98113291931152,21.32668481826782L82.01293291931152,21.32668481826782L82.01293291931152,10.867174818267822L75.98113291931152,10.867174818267822L75.98113291931152,21.32668481826782ZM89.76253291931152,25.039684818267823L89.76253291931152,7.154184818267822L103.96383291931153,7.154184818267822L106.64013291931153,9.459634818267823L106.64013291931153,17.783584818267823L103.96383291931153,20.06468481826782L95.36623291931153,20.06468481826782L95.36623291931153,25.039684818267823L89.76253291931152,25.039684818267823ZM95.36623291931153,16.37599481826782L101.30163291931153,16.37599481826782L101.30163291931153,10.867174818267822L95.36623291931153,10.867174818267822L95.36623291931153,16.37599481826782ZM108.59313291931153,25.039684818267823L108.59313291931153,20.35598481826782L118.58913291931152,20.35598481826782L118.58913291931152,18.220384818267824L110.52203291931153,18.19608481826782L107.84573291931153,15.914904818267821L107.84573291931153,9.459634818267823L110.52203291931153,7.154184818267822L123.13203291931153,7.154184818267822L123.13203291931153,11.789364818267822L113.23243291931152,11.789364818267822L113.23243291931152,13.755064818267822L121.32373291931152,13.779324818267822L124.00003291931152,16.060514818267823L124.00003291931152,22.73418481826782L121.32373291931152,25.039684818267823L108.59313291931153,25.039684818267823Z" fill="#FF43BA" fill-opacity="1"/></g></g></svg>