<svg xmlns="http://www.w3.org/2000/svg" xmlns:xlink="http://www.w3.org/1999/xlink" version="1.1"  viewBox="0 0 100 35"><g style="mix-blend-mode:passthrough"><path d="M12.6172,22.1602Q12.6172,21.0957,11.8164,20.5Q11.0156,19.9043,9.00391,19.25Q7.00195,18.5957,5.73242,17.9902Q1.58203,16.0078,1.58203,12.5605Q1.58203,10.8418,2.61719,9.5332Q3.65234,8.21484,5.53711,7.48242Q7.43164,6.75,9.78516,6.75Q12.0898,6.75,13.9062,7.55078Q15.7324,8.3418,16.7383,9.81641Q17.7539,11.2812,17.7539,13.1758L12.627,13.1758Q12.627,11.9648,11.8262,11.3008Q11.0352,10.6367,9.66797,10.6367Q8.29102,10.6367,7.49023,11.2031Q6.69922,11.7598,6.69922,12.6387Q6.69922,13.3906,7.57812,14.0156Q8.45703,14.6309,10.6641,15.2949Q12.8809,15.9492,14.2969,16.75Q17.7539,18.7031,17.7539,22.1309Q17.7539,24.875,15.6445,26.4375Q13.5352,28,9.86328,28Q7.26562,28,5.16602,27.0918Q3.06641,26.1836,2.00195,24.6113Q0.9375,23.0293,0.9375,20.9785L6.09375,20.9785Q6.09375,22.5996,6.98242,23.3711Q7.87109,24.1328,9.86328,24.1328Q11.1328,24.1328,11.875,23.6152Q12.6172,23.0977,12.6172,22.1602ZM24.9609,13.752Q26.543,11.75,29.0039,11.75Q31.6309,11.75,32.959,13.3125Q34.2969,14.875,34.3262,17.9316L34.3262,28L29.375,28L29.375,18.0293Q29.375,16.7598,28.8574,16.1641Q28.3496,15.5586,27.1191,15.5586Q25.5957,15.5586,24.9609,16.5352L24.9609,28L20.0293,28L20.0293,5.5L24.9609,5.5L24.9609,13.752ZM36.3867,19.7285Q36.3867,17.3848,37.3047,15.5586Q38.2324,13.7227,39.9609,12.7363Q41.6895,11.75,44.0234,11.75Q47.5781,11.75,49.6289,13.9277Q51.6797,16.1055,51.6797,19.8652L51.6797,20.0312Q51.6797,23.7031,49.6191,25.8516Q47.5684,28,44.0527,28Q40.6641,28,38.6133,25.998Q36.5625,23.9863,36.4062,20.5586L36.3867,19.7285ZM41.3281,20.0312Q41.3281,22.1797,42.0117,23.1855Q42.7051,24.1914,44.0527,24.1914Q46.6895,24.1914,46.748,20.2168L46.748,19.7285Q46.748,15.5586,44.0234,15.5586Q41.543,15.5586,41.3379,19.1621L41.3281,20.0312ZM67.5781,21.3301L69.1699,11.75L73.9062,11.75L70.166,28L65.9961,28L63.3691,18.3613L60.7324,28L56.5625,28L52.8223,11.75L57.5586,11.75L59.1211,21.5547L61.6406,11.75L65.0879,11.75L67.5781,21.3301ZM87.6953,14.875L90.0195,14.875Q92.793,14.875,92.793,12.5801Q92.793,11.6914,92.1289,11.125Q91.4746,10.5586,90.2734,10.5586Q89.2871,10.5586,88.5645,11.0469Q87.8418,11.5254,87.8418,12.248L82.9004,12.248Q82.9004,10.6562,83.8379,9.40625Q84.7754,8.15625,86.4355,7.45312Q88.1055,6.75,90.0977,6.75Q93.6523,6.75,95.6836,8.26367Q97.7246,9.76758,97.7246,12.4043Q97.7246,13.6738,96.8848,14.8164Q96.0449,15.9492,94.4336,16.6523Q96.1328,17.2773,97.0996,18.5371Q98.0664,19.7969,98.0664,21.6621Q98.0664,24.543,95.8691,26.2715Q93.6719,28,90.0977,28Q87.998,28,86.2012,27.1992Q84.4141,26.3887,83.4863,24.9727Q82.5684,23.5469,82.5684,21.7305L87.5293,21.7305Q87.5293,22.7266,88.3203,23.459Q89.1113,24.1914,90.2734,24.1914Q91.5723,24.1914,92.3438,23.459Q93.125,22.7168,93.125,21.5645Q93.125,19.9238,92.3145,19.2402Q91.5137,18.5566,90.0977,18.5566L87.6953,18.5566L87.6953,14.875Z"  fill-opacity="1"/></g></svg>