<svg xmlns="http://www.w3.org/2000/svg" xmlns:xlink="http://www.w3.org/1999/xlink" fill="none" version="1.1" width="26.508193969726562" height="32" viewBox="0 0 26.508193969726562 32"><defs><linearGradient x1="1" y1="0.015281280502676964" x2="0" y2="1" id="master_svg0_20_6353"><stop offset="2.857142873108387%" stop-color="#905ADC" stop-opacity="1"/><stop offset="100%" stop-color="#4C0D29" stop-opacity="1"/></linearGradient><linearGradient x1="0.005919137038290501" y1="1.002891182899475" x2="0.9842951893806458" y2="0.007127248216420412" id="master_svg1_20_6438"><stop offset="0%" stop-color="#F4BED6" stop-opacity="1"/><stop offset="100%" stop-color="#E61673" stop-opacity="1"/></linearGradient></defs><g><g><path d="M20.6096,31.999966257858276L0,31.999966257858276L5.89968,3.5286662578582764L26.5082,3.5286662578582764L20.6096,31.999966257858276Z" fill="url(#master_svg0_20_6353)" fill-opacity="1" style="mix-blend-mode:passthrough"/></g><g><path d="M20.4004,29.0329L0,32L1.84551,2.96815L22.2448,0L20.4004,29.0329Z" fill="url(#master_svg1_20_6438)" fill-opacity="1" style="mix-blend-mode:passthrough"/></g><g><path d="M6.177888642059326,18.73735047302246C6.240534642059326,17.84665047302246,6.295753642059326,17.039750473022462,6.353097642059327,16.23395047302246C6.459283642059326,14.745050473022461,6.565469642059326,13.25614047302246,6.673777642059326,11.76829047302246C6.792707642059327,10.135210473022461,6.911637642059326,8.50211047302246,7.044367642059326,6.870120473022461C7.051797642059326,6.777580473022461,7.172847642059326,6.6732304730224605,7.265227642059326,6.615135473022461C7.343807642059327,6.565652473022461,7.459547642059326,6.575318473022461,7.558307642059326,6.561345473022461C9.559897642059326,6.274112473022461,11.561497642059326,5.984699473022461,13.564167642059326,5.6996194730224605C15.222787642059327,5.462946473022461,16.723227642059328,6.821680473022461,16.626527642059326,8.51932047302246C16.508727642059327,10.588100473022461,16.336727642059326,12.652570473022461,16.194427642059324,14.720280473022461C16.109427642059327,15.94885047302246,16.057427642059324,17.18065047302246,15.952327642059327,18.40815047302246C15.772827642059326,20.50595047302246,14.881937642059325,22.26175047302246,13.388967642059326,23.71515047302246C12.092437642059327,24.977050473022462,10.530437642059326,25.66235047302246,8.767757642059326,25.916250473022462C7.8450076420593255,26.048550473022463,6.921187642059326,26.17335047302246,5.9995046420593265,26.31755047302246C5.688374542059326,26.365950473022462,5.5864404420593265,26.278750473022463,5.618301352059326,25.952850473022462C5.687324642059326,25.23205047302246,5.732977642059327,24.509150473022462,5.773328642059326,23.78615047302246C5.789258642059326,23.49465047302246,5.896507642059326,23.342950473022462,6.202322642059326,23.30525047302246C7.042257642059326,23.20095047302246,7.878997642059327,23.07185047302246,8.715737642059326,22.94915047302246C11.029537642059326,22.61035047302246,13.030067642059326,20.25965047302246,13.103327642059327,17.88745047302246C13.151107642059326,16.35335047302246,13.302957642059326,14.82250047302246,13.404897642059325,13.289470473022462C13.478157642059326,12.190000473022462,13.558857642059326,11.09160047302246,13.610887642059327,9.991050473022462C13.643807642059326,9.30254047302246,13.185077642059326,8.79368047302246,12.509737642059326,8.83239047302246C11.682547642059326,8.879720473022461,10.857487642059326,9.00238047302246,10.038797642059325,9.137930473022461C9.917747642059325,9.158370473022462,9.762717642059325,9.41981047302246,9.748917642059325,9.58118047302246C9.666087642059326,10.533280473022462,9.622557642059327,11.48967047302246,9.562027642059327,12.44500047302246C9.480257642059327,13.731670473022461,9.392127642059325,15.019410473022461,9.311427642059327,16.30605047302246C9.280627642059326,16.79775047302246,9.248787642059327,17.28935047302246,9.241347642059326,17.78105047302246C9.236027642059327,18.17155047302246,9.116037642059325,18.38775047302246,8.682807642059327,18.42435047302246C8.026567642059327,18.48025047302246,7.375657642059326,18.60395047302246,6.722617642059326,18.69435047302246C6.570770642059326,18.715850473022464,6.415743642059326,18.71915047302246,6.176826642059326,18.73845047302246L6.177888642059326,18.73735047302246Z" fill="#FFFFFF" fill-opacity="1" style="mix-blend-mode:passthrough"/></g></g></svg>