<svg xmlns="http://www.w3.org/2000/svg" xmlns:xlink="http://www.w3.org/1999/xlink" width="26" height="26" viewBox="0 0 26 26"><defs><style>.a{fill:#fff;stroke:#707070;}.b{clip-path:url(#a);}.c{fill:#707070;}</style><clipPath id="a"><rect class="a" width="26" height="26" transform="translate(458 91)"/></clipPath></defs><g class="b" transform="translate(-458 -91)"><path class="c" d="M13.413,3.518a.821.821,0,1,0,.788.821A.806.806,0,0,0,13.413,3.518Zm-4.925,0a.821.821,0,1,0,.788.821A.806.806,0,0,0,8.488,3.518ZM16.668,7a6.745,6.745,0,0,0-.539-2.2A4.731,4.731,0,0,0,13.9,2.4l.833-1.054c.062-.082.027-.209-.082-.3l-.006,0a.294.294,0,0,0-.166-.064.153.153,0,0,0-.115.051l-.915,1.141a6.7,6.7,0,0,0-2.5-.442h-.05a6.723,6.723,0,0,0-2.458.427L7.559,1.04a.131.131,0,0,0-.021-.029A.147.147,0,0,0,7.427.969a.236.236,0,0,0-.163.07.225.225,0,0,0-.09.282l0,.009.828,1.055a4.672,4.672,0,0,0-2.219,2.4A6.826,6.826,0,0,0,5.253,7l-.008.127H16.677ZM6.44,6.036A3.921,3.921,0,0,1,8.548,3.308l.509-.235a6.153,6.153,0,0,1,1.853-.267h.045a5.944,5.944,0,0,1,1.9.288l.5.23a3.967,3.967,0,0,1,2.122,2.713Zm12.128.845a1.353,1.353,0,0,0-1.314,1.386v5.067a1.316,1.316,0,1,0,2.628,0V8.266A1.353,1.353,0,0,0,18.568,6.88ZM18.28,8.266a.288.288,0,1,1,.576,0v5.067a.288.288,0,1,1-.576,0ZM3.353,6.88A1.353,1.353,0,0,0,2.039,8.266v5.067a1.353,1.353,0,0,0,1.314,1.386,1.353,1.353,0,0,0,1.314-1.386V8.266A1.353,1.353,0,0,0,3.353,6.88ZM3.065,8.266a.288.288,0,1,1,.576,0v5.067a.288.288,0,1,1-.576,0Zm2.177,8.34c0,.421.32.911.733.911H7.244V20.09a1.316,1.316,0,1,0,2.628,0V17.517H12.1V20.09a1.422,1.422,0,0,0,.505,1.073,1.229,1.229,0,0,0,.823.313h.021a1.328,1.328,0,0,0,1.283-1.386V17.517h1.319c.411,0,.633-.466.633-.905V7.725H5.242Zm8.458-.172V20.09a.278.278,0,0,1-.254.3h-.019a.215.215,0,0,1-.14-.054l-.023-.024-.025-.006a.331.331,0,0,1-.11-.219V16.434H8.846V20.09a.288.288,0,1,1-.576,0V16.434h-2V8.807h9.384v7.627Z" transform="translate(460.04 92.778)"/></g></svg>