<svg xmlns="http://www.w3.org/2000/svg" xmlns:xlink="http://www.w3.org/1999/xlink" width="26" height="26" viewBox="0 0 26 26"><defs><style>.a,.b,.c{fill:#fff;stroke:#707070;}.a{stroke-width:1.5px;}.b{opacity:0.001;}.c{stroke-width:1.2px;}.d{clip-path:url(#a);}.e{fill:#707070;}.f{stroke:none;}.g{fill:none;}</style><clipPath id="a"><circle class="a" cx="6" cy="6" r="6" transform="translate(459.775 94.775)"/></clipPath></defs><g transform="translate(-456 -91)"><g class="b" transform="translate(456 91)"><rect class="f" width="26" height="26"/><rect class="g" x="0.5" y="0.5" width="25" height="25"/></g><g class="c" transform="translate(459 94)"><circle class="f" cx="10" cy="10" r="10"/><circle class="g" cx="10" cy="10" r="9.4"/></g><g class="d" transform="translate(3.225 3.225)"><path class="e" d="M12.919,17.479l4.015-4a.477.477,0,0,0,.141-.34.485.485,0,0,0-.781-.384l-3.267,3.256V6.492a.484.484,0,0,0-.968,0v9.516L8.715,12.674a.5.5,0,0,0-.58.081A.479.479,0,0,0,8,13.1a.544.544,0,0,0,.163.386l.267.267.735.733.136.138,2.869,2.859a.479.479,0,0,0,.367.136h.019a.478.478,0,0,0,.367-.135h0ZM12.919,17.479Z" transform="translate(453.24 88.962)"/></g></g></svg>