<svg xmlns="http://www.w3.org/2000/svg" xmlns:xlink="http://www.w3.org/1999/xlink" width="26" height="26" viewBox="0 0 26 26"><defs><style>.a{fill:#fff;stroke:#707070;}.b{clip-path:url(#a);}.c{fill:#707070;}</style><clipPath id="a"><rect class="a" width="26" height="26" transform="translate(458 91)"/></clipPath></defs><g class="b" transform="translate(-458 -91)"><path class="c" d="M13.333,2.318a2.474,2.474,0,0,1-.5,1.224,2.03,2.03,0,0,1-1.127.745,2.361,2.361,0,0,1,.513-1.212,2.467,2.467,0,0,1,1.11-.757M14.442,6.75a2.741,2.741,0,0,1,2.161.893,4.647,4.647,0,0,0-1.5,3.987,4.895,4.895,0,0,0,2.183,3.924,9.022,9.022,0,0,1-.774,1.4c-.675,1.065-1.439,2.148-2.4,2.158h-.017a2.073,2.073,0,0,1-.973-.278,4.029,4.029,0,0,0-1.911-.467h-.028a4.243,4.243,0,0,0-1.934.468,2.172,2.172,0,0,1-.994.278H8.231c-.989-.008-1.847-1.158-2.484-2.159-2.014-3.165-2.011-6.608-.986-8.24A3.893,3.893,0,0,1,7.889,6.751,4.5,4.5,0,0,1,9.5,7.123a4.718,4.718,0,0,0,1.666.384,4.03,4.03,0,0,0,1.523-.364,4.43,4.43,0,0,1,1.748-.393m0-5.823a4.431,4.431,0,0,0-2.884,1.6,4.038,4.038,0,0,0-.942,3.083H10.7a3.769,3.769,0,0,0,2.827-1.524A4.347,4.347,0,0,0,14.442.927m.374,4.556c-1.7,0-2.423.835-3.606.835-1.216,0-2.143-.833-3.618-.833A4.905,4.905,0,0,0,3.629,7.941c-1.37,2.18-1.138,6.281,1.088,9.778.794,1.249,1.858,2.655,3.247,2.667H8c1.212,0,1.569-.812,3.232-.823h.027c1.642,0,1.969.821,3.179.821h.024c1.39-.015,2.512-1.571,3.3-2.82A14.024,14.024,0,0,0,18.99,15.2a4.334,4.334,0,0,1-.551-7.747,4.76,4.76,0,0,0-3.623-1.973Z" transform="translate(460.115 93.344)"/></g></svg>