<svg xmlns="http://www.w3.org/2000/svg" xmlns:xlink="http://www.w3.org/1999/xlink" width="30" height="30" viewBox="0 0 30 30">
  <defs>
    <style>
      .cls-1, .cls-3 {
        fill: none;
      }

      .cls-2 {
        clip-path: url(#clip-path);
      }

      .cls-3 {
        stroke: #ff4e19;
        stroke-linejoin: round;
        stroke-width: 2.5px;
      }
    </style>
    <clipPath id="clip-path">
      <rect id="mask" class="cls-1" width="30" height="30" transform="translate(223 152)"/>
    </clipPath>
  </defs>
  <g id="card_icon_fire" class="cls-2" transform="translate(-223 -152)">
    <g id="group" transform="translate(223 152)">
      <rect id="shape" class="cls-1" width="30" height="30"/>
      <path id="icon" class="cls-3" d="M16.875,28.333A9.306,9.306,0,0,0,26.25,19.02a13.744,13.744,0,0,0-.778-4.8,15.087,15.087,0,0,0-1.609-3.74,5.708,5.708,0,0,1-2.481,4.159A21.155,21.155,0,0,0,18.761,8.1a22.569,22.569,0,0,0-4.9-4.771,15.971,15.971,0,0,1-1.312,6.225,9.173,9.173,0,0,1-1.883,2.588,15.4,15.4,0,0,0-2.216,2.728A8.57,8.57,0,0,0,7.5,19.22,9.139,9.139,0,0,0,16.875,28.333Z" transform="translate(-1.875 -0.833)"/>
    </g>
  </g>
</svg>
