<svg xmlns="http://www.w3.org/2000/svg" xmlns:xlink="http://www.w3.org/1999/xlink"  version="1.1"  viewBox="0 0 24 24"><defs><clipPath id="master_svg0_1135_8803"><rect x="0" y="0" width="24" height="24" rx="0"/></clipPath></defs><g clip-path="url(#master_svg0_1135_8803)"><g style="opacity:0.20000000298023224;"><path d="M4.04486083984375,11.5641Q4.04486083984375,8.5345,6.18711083984375,6.39225Q8.32936083984375,4.25,11.35896083984375,4.25L14.64102083984375,4.25Q17.670660839843748,4.25,19.81286083984375,6.39225Q21.95516083984375,8.5345,21.95516083984375,11.5641Q21.95516083984375,14.16124,20.320260839843748,16.1734Q18.70926083984375,18.156100000000002,16.22826083984375,18.7053Q15.85266083984375,18.7885,15.61096083984375,19.0492Q15.39106083984375,19.2864,15.39106083984375,19.575200000000002Q15.39106083984375,20.4851,14.64212083984375,20.9946Q13.88345083984375,21.5108,13.03713083984375,21.1554Q9.137360839843751,19.5176,7.10341083984375,17.7589Q4.04486083984375,15.1142,4.04486083984375,11.5641L4.04486083984375,11.5641ZM5.54486083984375,11.5641Q5.54486083984375,14.42821,8.08452083984375,16.624200000000002Q9.93807083984375,18.227,13.61793083984375,19.772399999999998Q13.71319083984375,19.8124,13.79834083984375,19.7545Q13.89102083984375,19.6914,13.89102083984375,19.575200000000002Q13.89102083984375,18.6979,14.51106083984375,18.0293Q15.07126083984375,17.4252,15.90406083984375,17.2408Q17.874760839843752,16.8045,19.15606083984375,15.2275Q20.45516083984375,13.62868,20.45516083984375,11.5641Q20.45516083984375,9.15582,18.75216083984375,7.45291Q17.04926083984375,5.75,14.64102083984375,5.75L11.35896083984375,5.75Q8.95068083984375,5.75,7.24777083984375,7.45291Q5.54486083984375,9.15582,5.54486083984375,11.5641L5.54486083984375,11.5641Z" fill="#303133" fill-opacity="1"/></g><g><path d="M10.35896083984375,4L13.64102083984375,4C17.26626083984375,4,20.20516083984375,6.93885,20.20516083984375,10.5641C20.20516083984375,13.69995,18.00616083984375,16.322200000000002,15.06616083984375,16.973100000000002C14.28596083984375,17.1458,13.64102083984375,17.776,13.64102083984375,18.575200000000002C13.64102083984375,19.2576,12.95675083984375,19.728099999999998,12.32753083984375,19.463900000000002C8.414920839843749,17.820700000000002,3.79486083984375,15.3474,3.79486083984375,10.5641C3.79486083984375,6.93885,6.73371083984375,4,10.35896083984375,4Z" fill="#FFFFFF" fill-opacity="1"/><path d="M3.04486083984375,10.5641Q3.04486083984375,7.5344999999999995,5.18711083984375,5.39225Q7.3293608398437495,3.25,10.35896083984375,3.25L13.64102083984375,3.25Q16.670660839843748,3.25,18.81286083984375,5.39225Q20.95516083984375,7.5344999999999995,20.95516083984375,10.5641Q20.95516083984375,13.16124,19.320260839843748,15.1734Q17.70926083984375,17.156100000000002,15.22826083984375,17.7053Q14.85266083984375,17.7885,14.61096083984375,18.0492Q14.39106083984375,18.2864,14.39106083984375,18.575200000000002Q14.39106083984375,19.4851,13.64212083984375,19.9946Q12.88345083984375,20.5108,12.03713083984375,20.1554Q8.137360839843751,18.5176,6.10341083984375,16.7589Q3.04486083984375,14.1142,3.04486083984375,10.5641L3.04486083984375,10.5641ZM4.54486083984375,10.5641Q4.54486083984375,13.42821,7.08452083984375,15.6242Q8.93807083984375,17.227,12.61793083984375,18.772399999999998Q12.71319083984375,18.8124,12.79834083984375,18.7545Q12.89102083984375,18.6914,12.89102083984375,18.575200000000002Q12.89102083984375,17.6979,13.51106083984375,17.0293Q14.07126083984375,16.4252,14.90406083984375,16.2408Q16.874760839843752,15.8045,18.15606083984375,14.2275Q19.45516083984375,12.62868,19.45516083984375,10.5641Q19.45516083984375,8.15582,17.75216083984375,6.45291Q16.04926083984375,4.75,13.64102083984375,4.75L10.35896083984375,4.75Q7.95068083984375,4.75,6.24777083984375,6.45291Q4.54486083984375,8.15582,4.54486083984375,10.5641L4.54486083984375,10.5641Z" fill="#303133" fill-opacity="1"/></g></g></svg>