<svg xmlns="http://www.w3.org/2000/svg" xmlns:xlink="http://www.w3.org/1999/xlink" fill="none" version="1.1" width="24" height="24" viewBox="0 0 24 24"><defs><clipPath id="master_svg0_5472_8919"><rect x="0" y="0" width="24" height="24" rx="0"/></clipPath></defs><g clip-path="url(#master_svg0_5472_8919)"><g><path d="M21,3C21.5523,3,22,3.447715,22,4L22,11C22,11.55229,21.5523,12,21,12L18.999,12L19,20C19,20.5523,18.5523,21,18,21L6,21C5.44772,21,5,20.5523,5,20L4.9990000000000006,11.999L3,12C2.447715,12,2,11.55229,2,11L2,4C2,3.447715,2.447715,3,3,3L9,3C9,4.65685,10.34315,6,12,6C13.6569,6,15,4.65685,15,3L21,3Z" fill="#303133" fill-opacity="1"/></g></g></svg>