<svg xmlns="http://www.w3.org/2000/svg" xmlns:xlink="http://www.w3.org/1999/xlink" fill="none" version="1.1" width="24" height="24" viewBox="0 0 24 24"><defs><clipPath id="master_svg0_5472_8916"><rect x="0" y="0" width="24" height="24" rx="0"/></clipPath></defs><g clip-path="url(#master_svg0_5472_8916)"><g><path d="M12,21L18,21C18.55228,21,19,20.5523,19,20L18.999,12L21,12C21.55228,12,22,11.55229,22,11L22,4C22,3.447715,21.55228,3,21,3L15,3C15,4.65685,13.65685,6,12,6L12,21Z" fill="#303133" fill-opacity="1"/></g><g><path d="M2,11C2,11.55229,2.447715,12,3,12L4.9990000000000006,11.999L5,20C5,20.5523,5.44772,21,6,21L12,21L12,6C10.34315,6,9,4.65685,9,3L3,3C2.447715,3,2,3.447715,2,4L2,11Z" fill="#EDEFF2" fill-opacity="1"/></g></g></svg>