<svg xmlns="http://www.w3.org/2000/svg" xmlns:xlink="http://www.w3.org/1999/xlink"  version="1.1"  viewBox="0 0 36 36"><defs><clipPath id="master_svg0_2694_03413"><rect x="8" y="8" width="20" height="20" rx="0"/></clipPath></defs><g style="mix-blend-mode:passthrough"><g style="mix-blend-mode:passthrough"><ellipse cx="18" cy="18" rx="18" ry="18" fill="#FFDC51" fill-opacity="1"/></g><g clip-path="url(#master_svg0_2694_03413)"><g><path d="M18,27.5C12.75315,27.5,8.5,23.2469,8.5,18C8.5,12.75315,12.75315,8.5,18,8.5C23.2468,8.5,27.5,12.75315,27.5,18C27.5,23.2468,23.2468,27.5,18,27.5ZM21.645,13.967310000000001L16.51482,15.94045C16.25073,16.04203,16.04203,16.25073,15.94045,16.51482L13.967310000000001,21.645C13.87399,21.8876,14.112390000000001,22.125999999999998,14.35501,22.0327L19.4852,20.0595C19.749299999999998,19.958,19.958,19.749299999999998,20.0595,19.4852L22.0327,14.35501C22.125999999999998,14.112390000000001,21.8876,13.87399,21.645,13.967310000000001M18,18.95C17.47533,18.95,17.05,18.5247,17.05,18C17.05,17.47533,17.47533,17.05,18,17.05C18.5247,17.05,18.95,17.47533,18.95,18C18.95,18.5247,18.5247,18.95,18,18.95Z" fill="#303133" fill-opacity="1"/></g></g></g></svg>