<svg xmlns="http://www.w3.org/2000/svg" xmlns:xlink="http://www.w3.org/1999/xlink"  version="1.1"  viewBox="0 0 36 36"><defs><clipPath id="master_svg0_2694_03408"><rect x="8" y="8" width="20" height="20" rx="0"/></clipPath></defs><g style="mix-blend-mode:passthrough"><g style="mix-blend-mode:passthrough"><ellipse cx="18" cy="18" rx="18" ry="18" fill="#4499F4" fill-opacity="1"/></g><g clip-path="url(#master_svg0_2694_03408)"><g><path d="M23.142899999999997,9.4287109375L12.857143,9.4287109375C12.383756,9.4287109375,12,9.8124669375,12,10.2858539375L12,25.7144109375C12,26.1878109375,12.383756,26.5716109375,12.857143,26.5716109375L23.142899999999997,26.5716109375C23.6162,26.5716109375,24,26.1878109375,24,25.7144109375L24,10.2858539375C24,9.8124669375,23.6162,9.4287109375,23.142899999999997,9.4287109375ZM18,24.4287109375C18.710079999999998,24.4287109375,19.28571,23.8531109375,19.28571,23.1430109375C19.28571,22.4329109375,18.710079999999998,21.8573109375,18,21.8573109375C17.289920000000002,21.8573109375,16.71429,22.4329109375,16.71429,23.1430109375C16.71429,23.8531109375,17.289920000000002,24.4287109375,18,24.4287109375Z" fill-rule="evenodd" fill="#303133" fill-opacity="1"/></g></g></g></svg>