<svg xmlns="http://www.w3.org/2000/svg" xmlns:xlink="http://www.w3.org/1999/xlink"  version="1.1"  viewBox="0 0 24 24"><defs><clipPath id="master_svg0_5448_01802"><rect x="0" y="0" width="24" height="24" rx="0"/></clipPath></defs><g style="mix-blend-mode:passthrough" clip-path="url(#master_svg0_5448_01802)"><g style="mix-blend-mode:passthrough"><path d="M12,24C18.6274,24,24,18.6274,24,12C24,5.37259,18.6274,0,12,0C5.37259,0,0,5.37259,0,12C0,18.6274,5.37259,24,12,24C12,24,12,24,12,24Z" fill="#F0F0F0" fill-opacity="1"/></g><g style="mix-blend-mode:passthrough"><g style="mix-blend-mode:passthrough"><path d="M11.478033423423767,11.999769425354003C11.478033423423767,11.999769425354003,23.999733423423766,11.999769425354003,23.999733423423766,11.999769425354003C23.999733423423766,10.916669425354003,23.855333423423765,9.867421425354005,23.586333423423767,8.869309425354004C23.586333423423767,8.869309425354004,11.478033423423767,8.869309425354004,11.478033423423767,8.869309425354004C11.478033423423767,8.869309425354004,11.478033423423767,11.999769425354003,11.478033423423767,11.999769425354003C11.478033423423767,11.999769425354003,11.478033423423767,11.999769425354003,11.478033423423767,11.999769425354003Z" fill="#D80027" fill-opacity="1"/></g><g style="mix-blend-mode:passthrough"><path d="M11.478033423423767,5.739993800354004C11.478033423423767,5.739993800354004,22.238533423423767,5.739993800354004,22.238533423423767,5.739993800354004C21.503933423423767,4.541313800354004,20.564673423423766,3.481793800354004,19.46955342342377,2.609543800354004C19.46955342342377,2.609543800354004,11.478033423423767,2.609543800354004,11.478033423423767,2.609543800354004C11.478033423423767,2.609543800354004,11.478033423423767,5.739993800354004,11.478033423423767,5.739993800354004C11.478033423423767,5.739993800354004,11.478033423423767,5.739993800354004,11.478033423423767,5.739993800354004Z" fill="#D80027" fill-opacity="1"/></g><g style="mix-blend-mode:passthrough"><path d="M11.999611235923767,23.999483800354003C14.823791235923768,23.999483800354003,17.419591235923768,23.023353800354005,19.469391235923766,21.390793800354004C19.469391235923766,21.390793800354004,4.529791235923767,21.390793800354004,4.529791235923767,21.390793800354004C6.579641235923767,23.023353800354005,9.175431235923767,23.999483800354003,11.999611235923767,23.999483800354003C11.999611235923767,23.999483800354003,11.999611235923767,23.999483800354003,11.999611235923767,23.999483800354003Z" fill="#D80027" fill-opacity="1"/></g><g style="mix-blend-mode:passthrough"><path d="M1.7614702984237671,18.261488175354003C1.7614702984237671,18.261488175354003,22.238880298423766,18.261488175354003,22.238880298423766,18.261488175354003C22.828580298423766,17.299188175354004,23.285980298423766,16.247308175354004,23.58678029842377,15.131028175354004C23.58678029842377,15.131028175354004,0.4135802984237671,15.131028175354004,0.4135802984237671,15.131028175354004C0.7143772984237671,16.247308175354004,1.171734298423767,17.299188175354004,1.7614702984237671,18.261488175354003C1.7614702984237671,18.261488175354003,1.7614702984237671,18.261488175354003,1.7614702984237671,18.261488175354003C1.7614702984237671,18.261488175354003,1.7614702984237671,18.261488175354003,1.7614702984237671,18.261488175354003Z" fill="#D80027" fill-opacity="1"/></g></g><g style="mix-blend-mode:passthrough"><path d="M5.55862,1.87397C5.55862,1.87397,6.6522,1.87397,6.6522,1.87397C6.6522,1.87397,5.63498,2.61295,5.63498,2.61295C5.63498,2.61295,6.02352,3.80869,6.02352,3.80869C6.02352,3.80869,5.00639,3.0697,5.00639,3.0697C5.00639,3.0697,3.98925,3.80869,3.98925,3.80869C3.98925,3.80869,4.32488,2.7757,4.32488,2.7757C3.42928,3.52172,2.64431,4.39575,1.99744,5.36963C1.99744,5.36963,2.34783,5.36963,2.34783,5.36963C2.34783,5.36963,1.70035,5.84002,1.70035,5.84002C1.59947,6.00828,1.50272,6.17922,1.41,6.35274C1.41,6.35274,1.71919,7.30434,1.71919,7.30434C1.71919,7.30434,1.14235,6.88524,1.14235,6.88524C0.998952,7.18902,0.867798,7.4997,0.749904,7.8168C0.749904,7.8168,1.09055,8.8653,1.09055,8.8653C1.09055,8.8653,2.34783,8.8653,2.34783,8.8653C2.34783,8.8653,1.33064,9.60426,1.33064,9.60426C1.33064,9.60426,1.71919,10.8,1.71919,10.8C1.71919,10.8,0.702048,10.061,0.702048,10.061C0.702048,10.061,0.0927654,10.5037,0.0927654,10.5037C0.0317812,10.9939,0,11.4932,0,12C0,12,12,12,12,12C12,5.37262,12,4.59131,12,0C9.62946,0,7.4196,0.687654,5.55862,1.87397C5.55862,1.87397,5.55862,1.87397,5.55862,1.87397C5.55862,1.87397,5.55862,1.87397,5.55862,1.87397ZM6.02352,10.8C6.02352,10.8,5.00639,10.061,5.00639,10.061C5.00639,10.061,3.98925,10.8,3.98925,10.8C3.98925,10.8,4.3778,9.60426,4.3778,9.60426C4.3778,9.60426,3.36061,8.8653,3.36061,8.8653C3.36061,8.8653,4.61789,8.8653,4.61789,8.8653C4.61789,8.8653,5.00639,7.66956,5.00639,7.66956C5.00639,7.66956,5.39489,8.8653,5.39489,8.8653C5.39489,8.8653,6.6522,8.8653,6.6522,8.8653C6.6522,8.8653,5.63498,9.60426,5.63498,9.60426C5.63498,9.60426,6.02352,10.8,6.02352,10.8C6.02352,10.8,6.02352,10.8,6.02352,10.8ZM5.63498,6.1086C5.63498,6.1086,6.02352,7.30434,6.02352,7.30434C6.02352,7.30434,5.00639,6.56538,5.00639,6.56538C5.00639,6.56538,3.98925,7.30434,3.98925,7.30434C3.98925,7.30434,4.3778,6.1086,4.3778,6.1086C4.3778,6.1086,3.36061,5.36963,3.36061,5.36963C3.36061,5.36963,4.61789,5.36963,4.61789,5.36963C4.61789,5.36963,5.00639,4.17389,5.00639,4.17389C5.00639,4.17389,5.39489,5.36963,5.39489,5.36963C5.39489,5.36963,6.6522,5.36963,6.6522,5.36963C6.6522,5.36963,5.63498,6.1086,5.63498,6.1086C5.63498,6.1086,5.63498,6.1086,5.63498,6.1086ZM10.3279,10.8C10.3279,10.8,9.31074,10.061,9.31074,10.061C9.31074,10.061,8.29362,10.8,8.29362,10.8C8.29362,10.8,8.68212,9.60426,8.68212,9.60426C8.68212,9.60426,7.66494,8.8653,7.66494,8.8653C7.66494,8.8653,8.92224,8.8653,8.92224,8.8653C8.92224,8.8653,9.31074,7.66956,9.31074,7.66956C9.31074,7.66956,9.69924,8.8653,9.69924,8.8653C9.69924,8.8653,10.9565,8.8653,10.9565,8.8653C10.9565,8.8653,9.9393,9.60426,9.9393,9.60426C9.9393,9.60426,10.3279,10.8,10.3279,10.8C10.3279,10.8,10.3279,10.8,10.3279,10.8ZM9.9393,6.1086C9.9393,6.1086,10.3279,7.30434,10.3279,7.30434C10.3279,7.30434,9.31074,6.56538,9.31074,6.56538C9.31074,6.56538,8.29362,7.30434,8.29362,7.30434C8.29362,7.30434,8.68212,6.1086,8.68212,6.1086C8.68212,6.1086,7.66494,5.36963,7.66494,5.36963C7.66494,5.36963,8.92224,5.36963,8.92224,5.36963C8.92224,5.36963,9.31074,4.17389,9.31074,4.17389C9.31074,4.17389,9.69924,5.36963,9.69924,5.36963C9.69924,5.36963,10.9565,5.36963,10.9565,5.36963C10.9565,5.36963,9.9393,6.1086,9.9393,6.1086C9.9393,6.1086,9.9393,6.1086,9.9393,6.1086ZM9.9393,2.61295C9.9393,2.61295,10.3279,3.80869,10.3279,3.80869C10.3279,3.80869,9.31074,3.0697,9.31074,3.0697C9.31074,3.0697,8.29362,3.80869,8.29362,3.80869C8.29362,3.80869,8.68212,2.61295,8.68212,2.61295C8.68212,2.61295,7.66494,1.87397,7.66494,1.87397C7.66494,1.87397,8.92224,1.87397,8.92224,1.87397C8.92224,1.87397,9.31074,0.678234,9.31074,0.678234C9.31074,0.678234,9.69924,1.87397,9.69924,1.87397C9.69924,1.87397,10.9565,1.87397,10.9565,1.87397C10.9565,1.87397,9.9393,2.61295,9.9393,2.61295C9.9393,2.61295,9.9393,2.61295,9.9393,2.61295Z" fill="#0052B4" fill-opacity="1"/></g></g></svg>