<svg xmlns="http://www.w3.org/2000/svg" xmlns:xlink="http://www.w3.org/1999/xlink"  version="1.1"  viewBox="0 0 24 24"><defs><clipPath id="master_svg0_5448_02040/5448_01717"><rect x="0" y="0" width="24" height="24" rx="0"/></clipPath></defs><g style="mix-blend-mode:passthrough"><g style="mix-blend-mode:passthrough" clip-path="url(#master_svg0_5448_02040/5448_01717)"><g style="mix-blend-mode:passthrough"><path d="M12,24C18.6274,24,24,18.6274,24,12C24,5.37259,18.6274,0,12,0C5.37259,0,0,5.37259,0,12C0,18.6274,5.37259,24,12,24C12,24,12,24,12,24Z" fill="#D80027" fill-opacity="1"/></g><g style="mix-blend-mode:passthrough"><g style="mix-blend-mode:passthrough"><path d="M6.567221355438233,7.3028059005737305C6.567221355438233,7.3028059005737305,7.603161355438233,10.49030590057373,7.603161355438233,10.49030590057373C7.603161355438233,10.49030590057373,10.954721355438233,10.49030590057373,10.954721355438233,10.49030590057373C10.954721355438233,10.49030590057373,8.245361355438233,12.46374590057373,8.245361355438233,12.46374590057373C8.245361355438233,12.46374590057373,9.281261355438232,15.65126590057373,9.281261355438232,15.65126590057373C9.281261355438232,15.65126590057373,6.567221355438233,13.682485900573731,6.567221355438233,13.682485900573731C6.567221355438233,13.682485900573731,3.8531613554382327,15.65126590057373,3.8531613554382327,15.65126590057373C3.8531613554382327,15.65126590057373,4.893781355438232,12.46374590057373,4.893781355438232,12.46374590057373C4.893781355438232,12.46374590057373,2.1797213554382324,10.49030590057373,2.1797213554382324,10.49030590057373C2.1797213554382324,10.49030590057373,5.5312813554382325,10.49030590057373,5.5312813554382325,10.49030590057373C5.5312813554382325,10.49030590057373,6.567221355438233,7.3028059005737305,6.567221355438233,7.3028059005737305C6.567221355438233,7.3028059005737305,6.567221355438233,7.3028059005737305,6.567221355438233,7.3028059005737305Z" fill="#FFDA44" fill-opacity="1"/></g><g style="mix-blend-mode:passthrough"><path d="M14.226984480438233,18.58679277557373C14.226984480438233,18.58679277557373,13.434794480438232,17.61179277557373,13.434794480438232,17.61179277557373C13.434794480438232,17.61179277557373,12.262925480438232,18.066482775573732,12.262925480438232,18.066482775573732C12.262925480438232,18.066482775573732,12.942610480438232,17.01179277557373,12.942610480438232,17.01179277557373C12.942610480438232,17.01179277557373,12.150424480438232,16.03210277557373,12.150424480438232,16.03210277557373C12.150424480438232,16.03210277557373,13.364484480438232,16.35554277557373,13.364484480438232,16.35554277557373C13.364484480438232,16.35554277557373,14.048864480438233,15.30085277557373,14.048864480438233,15.30085277557373C14.048864480438233,15.30085277557373,14.114484480438232,16.557102775573732,14.114484480438232,16.557102775573732C14.114484480438232,16.557102775573732,15.333234480438232,16.88054277557373,15.333234480438232,16.88054277557373C15.333234480438232,16.88054277557373,14.156674480438232,17.33054277557373,14.156674480438232,17.33054277557373C14.156674480438232,17.33054277557373,14.226984480438233,18.58679277557373,14.226984480438233,18.58679277557373C14.226984480438233,18.58679277557373,14.226984480438233,18.58679277557373,14.226984480438233,18.58679277557373Z" fill="#FFDA44" fill-opacity="1"/></g><g style="mix-blend-mode:passthrough"><path d="M15.801988480438233,15.72741277557373C15.801988480438233,15.72741277557373,16.176984480438232,14.52741277557373,16.176984480438232,14.52741277557373C16.176984480438232,14.52741277557373,15.150424480438232,13.80085277557373,15.150424480438232,13.80085277557373C15.150424480438232,13.80085277557373,16.406674480438234,13.78210277557373,16.406674480438234,13.78210277557373C16.406674480438234,13.78210277557373,16.776984480438234,12.58210277557373,16.776984480438234,12.58210277557373C16.776984480438234,12.58210277557373,17.18479448043823,13.77272277557373,17.18479448043823,13.77272277557373C17.18479448043823,13.77272277557373,18.441044480438233,13.75866277557373,18.441044480438233,13.75866277557373C18.441044480438233,13.75866277557373,17.433234480438234,14.50866277557373,17.433234480438234,14.50866277557373C17.433234480438234,14.50866277557373,17.83636448043823,15.699292775573731,17.83636448043823,15.699292775573731C17.83636448043823,15.699292775573731,16.80979448043823,14.97272277557373,16.80979448043823,14.97272277557373C16.80979448043823,14.97272277557373,15.801988480438233,15.72741277557373,15.801988480438233,15.72741277557373C15.801988480438233,15.72741277557373,15.801988480438233,15.72741277557373,15.801988480438233,15.72741277557373Z" fill="#FFDA44" fill-opacity="1"/></g><g style="mix-blend-mode:passthrough"><path d="M17.924645730438233,8.80827365057373C17.924645730438233,8.80827365057373,17.371515730438233,9.937959650573731,17.371515730438233,9.937959650573731C17.371515730438233,9.937959650573731,18.27151573043823,10.81451965057373,18.27151573043823,10.81451965057373C18.27151573043823,10.81451965057373,17.029335730438234,10.63639965057373,17.029335730438234,10.63639965057373C17.029335730438234,10.63639965057373,16.47620573043823,11.76139965057373,16.47620573043823,11.76139965057373C16.47620573043823,11.76139965057373,16.260585730438233,10.52389965057373,16.260585730438233,10.52389965057373C16.260585730438233,10.52389965057373,15.013705730438232,10.34576965057373,15.013705730438232,10.34576965057373C15.013705730438232,10.34576965057373,16.129335730438232,9.759839650573731,16.129335730438232,9.759839650573731C16.129335730438232,9.759839650573731,15.913705730438233,8.51764965057373,15.913705730438233,8.51764965057373C15.913705730438233,8.51764965057373,16.813705730438233,9.39421365057373,16.813705730438233,9.39421365057373C16.813705730438233,9.39421365057373,17.924645730438233,8.80827365057373,17.924645730438233,8.80827365057373C17.924645730438233,8.80827365057373,17.924645730438233,8.80827365057373,17.924645730438233,8.80827365057373Z" fill="#FFDA44" fill-opacity="1"/></g><g style="mix-blend-mode:passthrough"><path d="M14.259216042938233,5.3867902755737305C14.259216042938233,5.3867902755737305,14.165466042938233,6.63835027557373,14.165466042938233,6.63835027557373C14.165466042938233,6.63835027557373,15.332656042938233,7.11179027557373,15.332656042938233,7.11179027557373C15.332656042938233,7.11179027557373,14.109216042938233,7.411790275573731,14.109216042938233,7.411790275573731C14.109216042938233,7.411790275573731,14.020156042938233,8.66804027557373,14.020156042938233,8.66804027557373C14.020156042938233,8.66804027557373,13.359216042938233,7.599290275573731,13.359216042938233,7.599290275573731C13.359216042938233,7.599290275573731,12.135776042938232,7.899290275573731,12.135776042938232,7.899290275573731C12.135776042938232,7.899290275573731,12.946712042938232,6.938350275573731,12.946712042938232,6.938350275573731C12.946712042938232,6.938350275573731,12.281089042938232,5.87429027557373,12.281089042938232,5.87429027557373C12.281089042938232,5.87429027557373,13.448276042938232,6.347726275573731,13.448276042938232,6.347726275573731C13.448276042938232,6.347726275573731,14.259216042938233,5.3867902755737305,14.259216042938233,5.3867902755737305C14.259216042938233,5.3867902755737305,14.259216042938233,5.3867902755737305,14.259216042938233,5.3867902755737305Z" fill="#FFDA44" fill-opacity="1"/></g></g></g></g></svg>