<?xml version="1.0" standalone="no"?><!DOCTYPE svg PUBLIC "-//W3C//DTD SVG 1.1//EN" "http://www.w3.org/Graphics/SVG/1.1/DTD/svg11.dtd"><svg t="1672992951928" class="icon" viewBox="0 0 1024 1024" version="1.1" xmlns="http://www.w3.org/2000/svg" p-id="3952" xmlns:xlink="http://www.w3.org/1999/xlink" width="200" height="200"><path d="M400.7 13h224C588.6 4.9 551.1 0.6 512.6 0.6 474.2 0.7 436.7 5 400.7 13z" fill="#00D995" p-id="3953"></path><path d="M342.4 29.7l340.7 0.2c-19-6.7-38.4-12.3-58.4-16.8h-224c-19.9 4.3-39.4 9.9-58.3 16.6z" fill="#01D996" p-id="3954"></path><path d="M300.9 46.4l423.6 0.1c-13.5-6.1-27.4-11.7-41.4-16.8l-340.7-0.1c-14.1 5.1-28 10.7-41.5 16.8z" fill="#01D997" p-id="3955"></path><path d="M267.4 63.2l490.4 0.1c-10.9-5.9-22-11.5-33.5-16.8l-423.6-0.1c-11.2 5.3-22.3 10.8-33.3 16.8z" fill="#01D898" p-id="3956"></path><path d="M239.1 79.9l547.2 0.1c-9.3-5.8-18.7-11.4-28.3-16.8l-490.4-0.1c-9.8 5.4-19.2 11-28.5 16.8z" fill="#01D899" p-id="3957"></path><path d="M214.3 96.7l596.8 0.1C803 91 794.8 85.4 786.3 80l-547.2-0.1c-8.4 5.4-16.7 11-24.8 16.8z" fill="#01D89A" p-id="3958"></path><path d="M192.3 113.4l640.7 0.1c-7.2-5.8-14.5-11.3-22-16.8l-596.8-0.1c-7.3 5.4-14.7 11-21.9 16.8z" fill="#01D79B" p-id="3959"></path><path d="M172.5 130.1l680.3 0.1c-6.4-5.7-13-11.3-19.8-16.8l-640.7-0.1c-6.6 5.5-13.3 11-19.8 16.8z" fill="#01D79C" p-id="3960"></path><path d="M154.7 146.8l716.1 0.1c-5.8-5.7-11.8-11.3-17.9-16.8l-680.3-0.1c-6.1 5.5-12.1 11.1-17.9 16.8z" fill="#02D79D" p-id="3961"></path><path d="M138.4 163.6l748.7 0.1c-5.4-5.7-10.7-11.3-16.3-16.8l-716.2-0.1c-5.5 5.5-11 11.1-16.2 16.8z" fill="#02D79E" p-id="3962"></path><path d="M123.4 180.3l778.5 0.1c-4.8-5.7-9.8-11.3-14.8-16.8H138.4c-5.2 5.5-10.1 11-15 16.7z" fill="#02D69F" p-id="3963"></path><path d="M109.7 197.1l805.9 0.1c-4.5-5.7-9-11.3-13.7-16.8l-778.5-0.1c-4.7 5.5-9.2 11.1-13.7 16.8z" fill="#02D6A0" p-id="3964"></path><path d="M97.1 213.7l831 0.1c-4.1-5.7-8.2-11.3-12.6-16.8l-805.9-0.1c-4.1 5.7-8.4 11.3-12.5 16.8z" fill="#02D6A1" p-id="3965"></path><path d="M85.6 230.5l854.1 0.1c-3.8-5.7-7.7-11.2-11.5-16.8l-831-0.1c-3.9 5.5-7.8 11.1-11.6 16.8z" fill="#02D5A2" p-id="3966"></path><path d="M75 247.2l875.3 0.2c-3.4-5.7-7-11.2-10.6-16.8l-854.1-0.1c-3.7 5.5-7.2 11.1-10.6 16.7z" fill="#02D5A3" p-id="3967"></path><path d="M65.3 264l894.8 0.2c-3.2-5.6-6.4-11.2-9.7-16.8l-875.3-0.2c-3.4 5.6-6.6 11.1-9.8 16.8z" fill="#02D5A4" p-id="3968"></path><path d="M56.4 280.7l912.6 0.2c-2.9-5.6-5.8-11.2-8.9-16.8l-894.8-0.2c-3.1 5.6-6.1 11.2-8.9 16.8z" fill="#03D4A5" p-id="3969"></path><path d="M48.3 297.5l928.8 0.2c-2.6-5.6-5.4-11.2-8.1-16.8l-912.6-0.2c-2.8 5.6-5.5 11.2-8.1 16.8z" fill="#03D4A6" p-id="3970"></path><path d="M40.8 314.1l943.6 0.2c-2.4-5.6-4.8-11.2-7.4-16.8l-928.8-0.2c-2.5 5.7-5 11.2-7.4 16.8z" fill="#03D4A7" p-id="3971"></path><path d="M34.2 330.9l957 0.2c-2.2-5.6-4.3-11.2-6.6-16.8L41 314.1c-2.5 5.6-4.7 11.2-6.8 16.8z" fill="#03D4A8" p-id="3972"></path><path d="M28.1 347.7l969 0.2c-1.9-5.6-3.9-11.2-6.1-16.8l-957-0.2c-2 5.5-3.9 11.1-5.9 16.8z" fill="#03D3A9" p-id="3973"></path><path d="M22.8 364.4l979.7 0.2c-1.7-5.6-3.4-11.2-5.4-16.8l-969-0.2c-1.8 5.6-3.6 11.2-5.3 16.8z" fill="#03D3AA" p-id="3974"></path><path d="M18.1 381.2l989.1 0.2c-1.5-5.6-3.1-11.2-4.7-16.8l-979.7-0.2c-1.6 5.6-3.2 11.1-4.7 16.8z" fill="#03D3AB" p-id="3975"></path><path d="M14 397.9l997.3 0.2c-1.3-5.6-2.6-11.2-4.1-16.8l-989.1-0.2c-1.5 5.6-2.9 11.2-4.1 16.8z" fill="#04D2AC" p-id="3976"></path><path d="M10.4 414.7l1004.4 0.2c-1.1-5.6-2.3-11.2-3.5-16.8L14 397.9c-1.3 5.6-2.5 11.2-3.6 16.8z" fill="#04D2AD" p-id="3977"></path><path d="M7.5 431.3l1010.3 0.2c-0.9-5.6-1.8-11.2-3-16.8l-1004.4-0.2c-1.1 5.6-2 11.2-2.9 16.8z" fill="#04D2AE" p-id="3978"></path><path d="M5.1 448.1l1015 0.2c-0.7-5.6-1.5-11.2-2.4-16.8L7.4 431.3c-0.8 5.6-1.6 11.2-2.3 16.8z" fill="#04D1AF" p-id="3979"></path><path d="M3.3 464.8l1018.7 0.2c-0.6-5.6-1.1-11.2-1.8-16.8L5.1 448c-0.7 5.6-1.3 11.2-1.8 16.8z" fill="#04D1B0" p-id="3980"></path><path d="M2 481.6l1021.2 0.2c-0.3-5.6-0.8-11.2-1.3-16.7L3.3 464.8c-0.5 5.6-1 11.2-1.3 16.8z" fill="#04D1B1" p-id="3981"></path><path d="M1.3 498.3l1022.6 0.2c-0.1-5.6-0.3-11.2-0.7-16.7L2 481.6c-0.3 5.6-0.6 11.1-0.7 16.7z" fill="#04D1B2" p-id="3982"></path><path d="M1.3 498.3c-0.1 4.5-0.2 9.2-0.2 13.9v2.9l1022.9 0.2v-3.1c0-4.6-0.1-9.1-0.2-13.7" fill="#05D0B3" p-id="3983"></path><path d="M1.5 531.8l1022.2 0.2c0.2-5.6 0.3-11.2 0.3-16.8L1.2 515c0 5.6 0.1 11.2 0.3 16.8z" fill="#05D0B4" p-id="3984"></path><path d="M2.5 548.5l1020.4 0.2c0.3-5.6 0.7-11.2 0.9-16.8L1.5 531.7c0.2 5.7 0.5 11.2 1 16.8z" fill="#05D0B5" p-id="3985"></path><path d="M3.8 565.3l1017.5 0.2c0.6-5.6 1-11.2 1.5-16.8L2.5 548.5c0.3 5.6 0.8 11.2 1.3 16.8z" fill="#05CFB6" p-id="3986"></path><path d="M5.9 582l1013.5 0.2c0.8-5.6 1.4-11.2 2.1-16.8L3.9 565.2c0.5 5.7 1.2 11.3 2 16.8z" fill="#05CFB7" p-id="3987"></path><path d="M8.4 598.8l1008.4 0.2c0.9-5.6 1.8-11.1 2.6-16.8L5.9 582c0.7 5.6 1.6 11.2 2.5 16.8z" fill="#05CFB8" p-id="3988"></path><path d="M11.6 615.4l1002.1 0.2c1.1-5.6 2.2-11.1 3.2-16.8H8.4c1 5.6 2 11.2 3.2 16.6z" fill="#05CEB9" p-id="3989"></path><path d="M15.2 632.2l994.6 0.2c1.4-5.5 2.6-11.1 3.8-16.8l-1002.1-0.2c1.2 5.6 2.5 11.2 3.7 16.8z" fill="#06CEBA" p-id="3990"></path><path d="M19.6 648.9l985.9 0.2c1.5-5.5 3-11.1 4.3-16.8l-994.6-0.2c1.4 5.7 2.9 11.3 4.4 16.8z" fill="#06CEBB" p-id="3991"></path><path d="M24.5 665.7l976.1 0.2c1.7-5.5 3.4-11.1 4.9-16.8l-985.9-0.2c1.6 5.7 3.2 11.2 4.9 16.8z" fill="#06CEBD" p-id="3992"></path><path d="M30.1 682.4l964.9 0.2c1.9-5.5 3.8-11.1 5.6-16.8l-976.1-0.2c1.8 5.7 3.6 11.3 5.6 16.8z" fill="#06CDBE" p-id="3993"></path><path d="M36.4 699.2l952.4 0.2c2.2-5.5 4.2-11.1 6.3-16.8l-964.9-0.2c1.9 5.7 4 11.3 6.2 16.8z" fill="#06CDBF" p-id="3994"></path><path d="M43.3 716l938.6 0.2c2.4-5.5 4.7-11.1 7-16.8l-952.5-0.2c2.1 5.6 4.5 11.2 6.9 16.8z" fill="#06CDC0" p-id="3995"></path><path d="M50.9 732.6l923.3 0.2c2.6-5.5 5.1-11.1 7.7-16.8l-938.7-0.2c2.5 5.7 5.1 11.3 7.7 16.8z" fill="#06CCC1" p-id="3996"></path><path d="M59.3 749.4l906.5 0.2c2.9-5.5 5.7-11.1 8.3-16.8l-923.3-0.2c2.8 5.7 5.7 11.2 8.5 16.8z" fill="#07CCC2" p-id="3997"></path><path d="M68.5 766.1l888.1 0.2c3.2-5.5 6.3-11.1 9.1-16.8l-906.5-0.2c3.1 5.7 6.2 11.3 9.3 16.8z" fill="#07CCC3" p-id="3998"></path><path d="M78.5 782.9l868.1 0.2c3.4-5.5 6.7-11.1 10.1-16.8l-888.1-0.2c3.2 5.7 6.5 11.3 9.9 16.8z" fill="#07CBC4" p-id="3999"></path><path d="M89.5 799.6l846.2 0.2c3.8-5.5 7.4-11.1 11-16.8l-868.2-0.2c3.6 5.7 7.2 11.3 11 16.8z" fill="#07CBC5" p-id="4000"></path><path d="M101.4 816.3l822.5 0.2c4.1-5.5 8-11.1 11.9-16.8l-846.2-0.2c3.7 5.8 7.6 11.4 11.8 16.8z" fill="#07CBC6" p-id="4001"></path><path d="M114.3 833.1l796.5 0.1c4.5-5.5 8.8-11.1 12.9-16.8l-822.5-0.2c4.3 5.9 8.6 11.5 13.1 16.9z" fill="#07CBC7" p-id="4002"></path><path d="M128.3 849.8l768.3 0.1c4.8-5.5 9.5-11.1 14.2-16.8l-796.5-0.1c4.5 5.7 9.2 11.3 14 16.8z" fill="#07CAC8" p-id="4003"></path><path d="M143.7 866.6l737.6 0.1c5.3-5.5 10.4-11.1 15.4-16.8l-768.3-0.1c4.9 5.7 10.1 11.3 15.3 16.8z" fill="#08CAC9" p-id="4004"></path><path d="M160.6 883.3l703.9 0.1c5.7-5.5 11.4-11.1 16.9-16.8H143.7c5.5 5.7 11.1 11.3 16.9 16.7z" fill="#08CACA" p-id="4005"></path><path d="M179.1 900.1l666.8 0.1c6.3-5.5 12.4-11 18.5-16.8l-703.9-0.1c6.1 5.7 12.4 11.3 18.6 16.8z" fill="#08C9CB" p-id="4006"></path><path d="M199.6 916.7l625.8 0.1c7-5.4 13.8-11 20.6-16.8H179.1c6.7 5.8 13.5 11.4 20.5 16.7z" fill="#08C9CC" p-id="4007"></path><path d="M211.5 925.6l602.1 0.1c4-2.9 8-5.9 11.9-8.9l-625.8-0.1c3.8 3.1 7.8 6.1 11.8 8.9zM512.6 1023.8c112.5 0 216.6-36.3 301-97.9l-602.1-0.1c84.5 61.5 188.5 98 301.1 98z" fill="#08C9CC" p-id="4008"></path><path d="M391.6 245.2h-52.5c-32.6 0-59 26.5-59 59v424.5c0 32.6 26.5 59 59 59h52.5V245.2zM683.9 245.2h-265v542.6h265c32.6 0 59-26.5 59-59V304.3c0-32.6-26.4-59.1-59-59.1z m-10.3 184.9c0 4.4-2.2 8.6-5.8 11.2-3.7 2.5-8.3 3.1-12.5 1.6l-70.8-26-70.8 26c-1.5 0.6-3.1 0.8-4.7 0.8-2.7 0-5.5-0.8-7.8-2.4-3.6-2.5-5.8-6.7-5.8-11.2V289.3c0-7.5 6.1-13.6 13.6-13.6h151c7.5 0 13.6 6.1 13.6 13.6v140.8z" fill="#FFFFFF" p-id="4009"></path><path d="M629.3 433.3l-15.5-5.7 16 242.7zM628.9 275.7l-0.1-30.5h-27l2 30.5z" fill="#FFFFFF" opacity=".69" p-id="4010"></path><path d="M613.8 427.6l-29.3-10.7-59.3 21.8 23 349.1h81.9l-0.3-117.5zM603.8 275.7l-2-30.5h-89.4l2 30.5z" fill="#FFFFFF" opacity=".69" p-id="4011"></path><path d="M523.5 439.3l23 348.5h1.7l-23-349.1zM514.4 275.7l-2-30.5h-1.7l2 30.5z" fill="#FFFFFF" opacity=".69" p-id="4012"></path><path d="M512.7 275.7l-2-30.5H509l2 30.5zM521.9 439.9l22.9 347.9h1.7l-23-348.5z" fill="#FCFFFF" opacity=".69" p-id="4013"></path><path d="M511 275.7l-2-30.5h-1.7l2 30.5zM520.2 440.5l22.9 347.3h1.7l-22.9-347.9z" fill="#FAFFFE" opacity=".69" p-id="4014"></path><path d="M509.1 275.7h0.3l-2-30.5h-1.7l2 30.5h1.4zM518.6 441.1l22.8 346.7h1.7l-22.9-347.3z" fill="#F7FFFE" opacity=".69" p-id="4015"></path><path d="M507.6 275.8l-2-30.5h-1.7l2 30.8c0.6-0.2 1.2-0.3 1.7-0.3zM516.9 441.7l22.8 346.1h1.7l-22.8-346.7z" fill="#F5FEFD" opacity=".69" p-id="4016"></path><path d="M515.3 442.3l22.8 345.5h1.6l-22.8-346.1zM506 276.1l-2-30.8h-1.7l2.1 31.3c0.4-0.2 1-0.4 1.6-0.5z" fill="#F2FEFD" opacity=".69" p-id="4017"></path><path d="M504.3 276.6l-2.1-31.3h-1.7l2.1 32.1c0.6-0.4 1.1-0.6 1.7-0.8zM513.8 442.9c-0.1 0-0.1 0-0.2 0.1l22.8 344.9h1.7l-22.8-345.5-1.5 0.5z" fill="#EFFEFC" opacity=".69" p-id="4018"></path><path d="M511.9 443.4l22.7 344.4h1.7l-22.8-344.9c-0.4 0.2-1 0.4-1.6 0.5zM502.7 277.3l-2.1-32.1h-1.7l2.2 33.1c0.5-0.4 1-0.7 1.6-1z" fill="#EDFEFC" opacity=".69" p-id="4019"></path><path d="M501 278.3l-2.2-33.1h-1.7l2.3 34.4c0.5-0.4 1.1-0.9 1.6-1.3zM510.3 443.7L533 787.8h1.7L512 443.4c-0.6 0.1-1.2 0.2-1.7 0.3z" fill="#EAFEFB" opacity=".69" p-id="4020"></path><path d="M499.4 279.7l-2.3-34.4h-1.7l2.4 36.3c0.5-0.7 1.1-1.3 1.6-1.9zM509.1 443.7h-0.5l22.7 344.1h1.7l-22.7-344.2c-0.4 0.1-0.8 0.1-1.2 0.1z" fill="#E8FEFB" opacity=".69" p-id="4021"></path><path d="M497.9 281.6l-2.4-36.3h-1.7l2.6 39.2c0.4-1.1 0.9-2.1 1.5-2.9zM506.9 443.5l22.7 344.3h1.7l-22.7-344.1c-0.6 0-1.2-0.1-1.7-0.2z" fill="#E5FDFA" opacity=".69" p-id="4022"></path><path d="M505.2 443.1l22.7 344.7h1.7l-22.7-344.3c-0.6-0.1-1.2-0.2-1.7-0.4zM495.4 289.3c0-1.7 0.3-3.4 0.9-4.9l-2.6-39.2H492l3.3 50.6v-6.5z" fill="#E2FDFA" opacity=".69" p-id="4023"></path><path d="M495.4 295.8l-3.3-50.6h-1.7l5 76.3zM503.4 442.5l22.8 345.3h1.7l-22.7-344.7c-0.6-0.1-1.2-0.3-1.8-0.6z" fill="#E0FDF9" opacity=".69" p-id="4024"></path><path d="M495.4 321.5l-5-76.3h-1.7l6.7 101.9zM501.7 441.5l22.9 346.3h1.7l-22.8-345.3c-0.7-0.3-1.3-0.6-1.8-1z" fill="#DDFDF9" opacity=".69" p-id="4025"></path><path d="M501.3 441.3c-0.5-0.3-0.9-0.7-1.4-1.1l22.9 347.6h1.7l-22.9-346.3c-0.1 0-0.2-0.1-0.3-0.2zM495.4 347.1l-6.7-101.9H487l8.4 127.5z" fill="#DBFDF8" opacity=".69" p-id="4026"></path><path d="M495.4 372.7L487 245.2h-1.7l10.1 153.1zM498.1 438.1l23.1 349.7h1.7L500 440.2c-0.8-0.7-1.4-1.3-1.9-2.1z" fill="#D8FDF8" opacity=".69" p-id="4027"></path><path d="M495.4 398.3l-10.1-153.1h-1.7L495.4 424zM496.1 434.3l23.3 353.5h1.7L498 438.1c-0.8-1.2-1.4-2.4-1.9-3.8z" fill="#D5FCF7" opacity=".69" p-id="4028"></path><path d="M495.4 430.1V424l-11.8-178.7h-1.7l35.8 542.6h1.7l-23.3-353.5c-0.4-1.5-0.7-2.9-0.7-4.3z" fill="#D3FCF7" opacity=".69" p-id="4029"></path><path d="M480.3 245.2l35.8 542.6h1.7l-35.9-542.6z" fill="#D0FCF6" opacity=".69" p-id="4030"></path><path d="M478.6 245.2l35.8 542.6h1.7l-35.8-542.6z" fill="#CEFCF6" opacity=".69" p-id="4031"></path><path d="M476.9 245.2l35.8 542.6h1.7l-35.8-542.6z" fill="#CBFCF5" opacity=".69" p-id="4032"></path><path d="M475.2 245.2L511 787.8h1.7l-35.8-542.6z" fill="#C8FCF5" opacity=".69" p-id="4033"></path><path d="M473.5 245.2l35.8 542.6h1.7l-35.8-542.6z" fill="#C6FBF4" opacity=".69" p-id="4034"></path><path d="M471.8 245.2l35.8 542.6h1.7l-35.8-542.6z" fill="#C3FBF4" opacity=".69" p-id="4035"></path><path d="M470.1 245.2l35.8 542.6h1.7l-35.8-542.6z" fill="#C0FBF3" opacity=".69" p-id="4036"></path><path d="M468.4 245.2l35.8 542.6h1.7l-35.8-542.6z" fill="#BEFBF3" opacity=".69" p-id="4037"></path><path d="M466.7 245.2l35.8 542.6h1.7l-35.8-542.6z" fill="#BBFBF2" opacity=".69" p-id="4038"></path><path d="M465 245.2l35.8 542.6h1.7l-35.8-542.6z" fill="#B9FBF2" opacity=".69" p-id="4039"></path><path d="M463.3 245.2l35.9 542.6h1.6L465 245.2z" fill="#B6FBF1" opacity=".69" p-id="4040"></path><path d="M461.7 245.2l35.8 542.6h1.7l-35.9-542.6z" fill="#B3FAF1" opacity=".69" p-id="4041"></path><path d="M460 245.2l35.8 542.6h1.7l-35.8-542.6z" fill="#B1FAF0" opacity=".69" p-id="4042"></path><path d="M458.3 245.2l35.8 542.6h1.7L460 245.2z" fill="#AEFAF0" opacity=".69" p-id="4043"></path><path d="M456.6 245.2l35.8 542.6h1.7l-35.8-542.6z" fill="#ACFAEF" opacity=".69" p-id="4044"></path><path d="M454.9 245.2l35.8 542.6h1.7l-35.8-542.6z" fill="#A9FAEF" opacity=".69" p-id="4045"></path><path d="M453.2 245.2L489 787.8h1.7l-35.8-542.6z" fill="#A6FAEE" opacity=".69" p-id="4046"></path><path d="M451.5 245.2l35.8 542.6h1.7l-35.8-542.6z" fill="#A4F9EE" opacity=".69" p-id="4047"></path><path d="M449.8 245.2l35.8 542.6h1.7l-35.8-542.6z" fill="#A1F9ED" opacity=".69" p-id="4048"></path><path d="M448.1 245.2l35.8 542.6h1.7l-35.8-542.6z" fill="#9FF9ED" opacity=".69" p-id="4049"></path><path d="M446.4 245.2l35.8 542.6h1.7l-35.8-542.6z" fill="#9CF9EC" opacity=".69" p-id="4050"></path><path d="M444.7 245.2l35.8 542.6h1.7l-35.8-542.6z" fill="#99F9EC" opacity=".69" p-id="4051"></path><path d="M443 245.2l35.9 542.6h1.6l-35.8-542.6z" fill="#97F9EB" opacity=".69" p-id="4052"></path><path d="M441.4 245.2l35.8 542.6h1.7L443 245.2z" fill="#94F8EB" opacity=".69" p-id="4053"></path><path d="M439.7 245.2l35.8 542.6h1.7l-35.8-542.6z" fill="#92F8EA" opacity=".69" p-id="4054"></path><path d="M438 245.2l35.8 542.6h1.7l-35.8-542.6z" fill="#8FF8EA" opacity=".69" p-id="4055"></path><path d="M436.3 245.2l35.8 542.6h1.7L438 245.2z" fill="#8CF8E9" opacity=".69" p-id="4056"></path><path d="M434.6 245.2l35.8 542.6h1.7l-35.8-542.6z" fill="#8AF8E9" opacity=".69" p-id="4057"></path><path d="M432.9 245.2l35.8 542.6h1.7l-35.8-542.6z" fill="#87F8E8" opacity=".69" p-id="4058"></path><path d="M431.2 245.2L467 787.8h1.7l-35.8-542.6z" fill="#84F7E8" opacity=".69" p-id="4059"></path><path d="M429.5 245.2l35.8 542.6h1.7l-35.8-542.6z" fill="#82F7E7" opacity=".69" p-id="4060"></path><path d="M427.8 245.2l35.8 542.6h1.7l-35.8-542.6z" fill="#7FF7E7" opacity=".69" p-id="4061"></path><path d="M426.1 245.2l35.8 542.6h1.7l-35.8-542.6z" fill="#7DF7E6" opacity=".69" p-id="4062"></path><path d="M424.4 245.2l35.9 542.6h1.6l-35.8-542.6z" fill="#7AF7E6" opacity=".69" p-id="4063"></path><path d="M422.7 245.2l35.9 542.6h1.7l-35.9-542.6z" fill="#77F7E5" opacity=".69" p-id="4064"></path><path d="M421.1 245.2l35.8 542.6h1.7l-35.9-542.6z" fill="#75F6E5" opacity=".69" p-id="4065"></path><path d="M419.4 245.2l35.8 542.6h1.7l-35.8-542.6z" fill="#72F6E4" opacity=".69" p-id="4066"></path><path d="M418.9 245.2v18.1l34.6 524.5h1.7l-35.8-542.6z" fill="#70F6E4" opacity=".69" p-id="4067"></path><path d="M418.9 288.9l32.9 498.9h1.7l-34.6-524.5z" fill="#6DF6E3" opacity=".69" p-id="4068"></path><path d="M418.9 787.8h32.9l-32.9-498.9z" fill="#6DF6E3" opacity=".69" p-id="4069"></path></svg>