<svg xmlns="http://www.w3.org/2000/svg" xmlns:xlink="http://www.w3.org/1999/xlink" version="1.1"  viewBox="0 0 127 27"><g style="mix-blend-mode:passthrough"><path d="M19.1855,21L19.1354,5.41667L16.2135,5.41667L10.5345,15.1061L4.76953,5.41667L1.81901,5.41667L1.81901,21L5.16341,21L5.16341,11.8548L9.67513,19.3529L11.2865,19.3529L15.8125,11.6543L15.8411,21L19.1855,21ZM34.2604,15.0345C34.2604,10.9596,31.5749,8.625,28.1016,8.625C24.4922,8.625,21.7852,11.1816,21.7852,14.9915C21.7852,18.8874,24.4492,21.4583,28.5384,21.4583C30.6725,21.4583,32.3197,20.7995,33.4225,19.5462L31.5964,17.3906C30.7799,18.2786,29.8776,18.7083,28.6243,18.7083C26.8197,18.7083,25.5664,17.6699,25.237,15.9583L34.196,15.9583C34.2174,15.679,34.2604,15.2995,34.2604,15.0345ZM28.123,11.2246C29.6628,11.2246,30.7799,12.2988,31.0234,13.9603L25.194,13.9603C25.4375,12.2773,26.5547,11.2246,28.123,11.2246ZM43.1263,18.293C42.7539,18.5794,42.2454,18.737,41.737,18.737C40.8132,18.737,40.2617,18.1784,40.2617,17.1543L40.2617,12.2917L43.2122,12.2917L43.2122,9.65625L40.2617,9.65625L40.2617,6.77018L36.8314,6.77018L36.8314,9.65625L35.0052,9.65625L35.0052,12.2917L36.8314,12.2917L36.8314,17.2044C36.8314,20.0332,38.457,21.4583,41.2572,21.4583C42.3099,21.4583,43.3411,21.222,44.0501,20.7135L43.1263,18.293ZM50.8106,8.625C48.9199,8.625,47.0078,9.13346,45.7116,10.0573L46.9434,12.5853C47.7956,11.8262,49.099,11.3535,50.3522,11.3535C52.1999,11.3535,53.0807,12.3132,53.0807,13.9603L50.3522,13.9603C46.7428,13.9603,45.2676,15.4141,45.2676,17.7057C45.2676,19.9186,46.9219,21.4583,49.6934,21.4583C51.4264,21.4583,52.6582,20.8926,53.3027,19.8112L53.3027,21L56.5111,21L56.5111,14.1608C56.5111,10.3008,54.4199,8.625,50.8106,8.625ZM50.5527,19.1523C49.3424,19.1523,48.612,18.5007,48.612,17.5339C48.612,16.6315,49.1204,15.9583,50.7246,15.9583L53.0807,15.9583L53.0807,17.3333C52.6869,18.5508,51.6914,19.1523,50.5527,19.1523ZM70.6335,5.41667L70.6335,14.8841L62.9779,5.41667L60.0273,5.41667L60.0273,21L63.5508,21L63.5508,11.5397L71.2279,21L74.1569,21L74.1569,5.41667L70.6335,5.41667ZM82.4355,8.625C80.5449,8.625,78.6328,9.13346,77.3366,10.0573L78.5684,12.5853C79.4206,11.8262,80.724,11.3535,81.9772,11.3535C83.8249,11.3535,84.7057,12.3132,84.7057,13.9603L81.9772,13.9603C78.3678,13.9603,76.8926,15.4141,76.8926,17.7057C76.8926,19.9186,78.5469,21.4583,81.3184,21.4583C83.0514,21.4583,84.2832,20.8926,84.9277,19.8112L84.9277,21L88.1361,21L88.1361,14.1608C88.1361,10.3008,86.0449,8.625,82.4355,8.625ZM82.1777,19.1523C80.9675,19.1523,80.237,18.5007,80.237,17.5339C80.237,16.6315,80.7454,15.9583,82.3496,15.9583L84.7057,15.9583L84.7057,17.3333C84.3119,18.5508,83.3164,19.1523,82.1777,19.1523ZM106.57,8.625C104.794,8.625,103.254,9.35547,102.301,10.5658C101.471,9.26953,100.06,8.625,98.4128,8.625C96.8945,8.625,95.5697,9.15495,94.6888,10.1719L94.6888,9.08333L91.416,9.08333L91.416,21L94.8464,21L94.8464,15.013C94.8464,12.6283,95.9277,11.597,97.446,11.597C98.8711,11.597,99.6875,12.5137,99.6875,14.5046L99.6875,21L103.118,21L103.118,14.8268C103.118,12.6283,104.199,11.597,105.739,11.597C107.121,11.597,107.98,12.5137,107.98,14.5046L107.98,21L111.411,21L111.411,13.9531C111.411,10.2578,109.391,8.625,106.57,8.625ZM125.927,15.0345C125.927,10.9596,123.242,8.625,119.768,8.625C116.159,8.625,113.452,11.1816,113.452,14.9915C113.452,18.8874,116.116,21.4583,120.205,21.4583C122.339,21.4583,123.986,20.7995,125.089,19.5462L123.263,17.3906C122.447,18.2786,121.544,18.7083,120.291,18.7083C118.486,18.7083,117.233,17.6699,116.904,15.9583L125.863,15.9583C125.884,15.679,125.927,15.2995,125.927,15.0345ZM119.79,11.2246C121.329,11.2246,122.447,12.2988,122.69,13.9603L116.861,13.9603C117.104,12.2773,118.221,11.2246,119.79,11.2246Z"  fill-opacity="1"/></g></svg>