<svg xmlns="http://www.w3.org/2000/svg" xmlns:xlink="http://www.w3.org/1999/xlink"  version="1.1" viewBox="0 0 24 24"><defs><clipPath id="master_svg0_1135_8793"><rect x="0" y="0" width="24" height="24" rx="0"/></clipPath></defs><g clip-path="url(#master_svg0_1135_8793)"><g style="opacity:0.20000000298023224;"><path d="M12.25,18.9194L12.25,17Q12.25,16.75,12,16.75L11.00026,16.75Q11.00364,16.75,11.00725,16.75Q11.00354,16.75,10.99999,16.75Q8.892330000000001,16.749200000000002,7.0433,17.759Q5.20313,18.7639,4.06735,20.5231Q3.683108,21.1182,2.9962935,20.9539Q2.68355,20.8791,2.478355,20.637Q2.250104,20.367800000000003,2.250001,20.0083L2.25,20.0041L2.250001,19.9998Q2.250001,15.8371,5.05143,12.76219Q7.83386,9.70815,11.92887,9.30275Q12.25,9.27095,12.25,9L12.25,7.08063Q12.25,5.980086,13.2419,5.503344Q14.2338,5.0266029,15.0932,5.714104L22.0044,11.24304Q22.8488,11.91859,22.8488,13Q22.8488,14.0814,22.0044,14.75695L15.0932,20.285899999999998Q14.2338,20.973399999999998,13.2419,20.4967Q12.25,20.0199,12.25,18.9194L12.25,18.9194ZM13.75,18.9194Q13.75,19.0766,13.8917,19.1447Q14.0334,19.2128,14.1562,19.1146L21.0674,13.58565Q21.3488,13.36047,21.3488,13Q21.3488,12.63953,21.0674,12.414349999999999L14.1562,6.88541Q14.0334,6.78719,13.8917,6.8553Q13.75,6.9234100000000005,13.75,7.08063L13.75,9Q13.75,9.713000000000001,13.2462,10.2331Q12.76765,10.727039999999999,12.07665,10.795449999999999Q8.55479,11.144110000000001,6.16025,13.7724Q3.750001,16.4179,3.750001,20.0002L3.75,20.003999999999998L3.75,20.0079Q3.7498810000000002,19.591900000000003,3.345354,19.4951Q2.99909845,19.4122,2.807182,19.7095Q4.14969,17.6301,6.32435,16.442500000000003Q8.509699999999999,15.2491,10.99999,15.25Q10.99651,15.25,10.993,15.25Q10.99661,15.25,11.00026,15.25L12,15.25Q12.72487,15.25,13.2374,15.7626Q13.75,16.275100000000002,13.75,17L13.75,18.9194L13.75,18.9194Z" fill="#303133" fill-opacity="1"/></g><g><path d="M11,15L10.00026,15C10.00009,15,10.00016,15,9.99999,15C6.92625,14.9988,4.08486,16.5644,2.437269,19.116300000000003C2.309706,19.3138,2.0000679517,19.243299999999998,2.000000511895,19.0081C1.999999736715,19.0054,2.0000000429167,19.0027,2.00000143051,19C2.00000143051,13.81356,5.94799,9.549520000000001,11.00276,9.0491C11.55235,8.99469,12,8.55228,12,8L12,6.08063C12,5.24212,12.9699,4.775945,13.6247,5.29976L20.5359,10.828700000000001C21.2865,11.429179999999999,21.2865,12.57082,20.5359,13.1713L13.6247,18.700200000000002C12.9699,19.2241,12,18.7579,12,17.9194L12,16C12,15.4477,11.55229,15,11,15" fill="#FFFFFF" fill-opacity="1"/><path d="M11.25,17.9194L11.25,16Q11.25,15.75,11,15.75L10.00026,15.75Q10.00364,15.75,10.00725,15.75Q10.00354,15.75,9.99999,15.75Q7.89233,15.7492,6.0433,16.759Q4.20313,17.7639,3.0673500000000002,19.5231Q2.683108,20.1182,1.9962935,19.9539Q1.6835499999999999,19.8791,1.478355,19.637Q1.2501039999999999,19.367800000000003,1.2500010000000001,19.0083L1.25,19.0041L1.2500010000000001,18.9998Q1.2500010000000001,14.8371,4.05143,11.76219Q6.83386,8.70815,10.92887,8.30275Q11.25,8.27095,11.25,8L11.25,6.08063Q11.25,4.980086,12.2419,4.503344Q13.2338,4.0266029,14.0932,4.714104L21.0044,10.24304Q21.8488,10.91859,21.8488,12Q21.8488,13.0814,21.0044,13.75695L14.0932,19.285899999999998Q13.2338,19.973399999999998,12.2419,19.4967Q11.25,19.0199,11.25,17.9194L11.25,17.9194ZM12.75,17.9194Q12.75,18.0766,12.8917,18.1447Q13.0334,18.2128,13.1562,18.1146L20.0674,12.58565Q20.3488,12.36047,20.3488,12Q20.3488,11.63953,20.0674,11.414349999999999L13.1562,5.88541Q13.0334,5.78719,12.8917,5.8553Q12.75,5.9234100000000005,12.75,6.08063L12.75,8Q12.75,8.713000000000001,12.2462,9.2331Q11.76765,9.727039999999999,11.07665,9.795449999999999Q7.55479,10.144110000000001,5.16025,12.7724Q2.750001,15.4179,2.750001,19.0002L2.75,19.003999999999998L2.75,19.0079Q2.7498810000000002,18.591900000000003,2.345354,18.4951Q1.99909845,18.4122,1.807182,18.7095Q3.14969,16.6301,5.32435,15.4425Q7.5097,14.2491,9.99999,14.25Q9.99651,14.25,9.993,14.25Q9.99661,14.25,10.00026,14.25L11,14.25Q11.72487,14.25,12.2374,14.7626Q12.75,15.2751,12.75,16L12.75,17.9194L12.75,17.9194Z" fill-opacity="1"/></g></g></svg>