<svg xmlns="http://www.w3.org/2000/svg" xmlns:xlink="http://www.w3.org/1999/xlink" fill="none" version="1.1" width="14" height="14" viewBox="0 0 14 14"><defs><linearGradient x1="1" y1="0" x2="0" y2="1" id="master_svg0_3293_00067999"><stop offset="0%" stop-color="#FFC051" stop-opacity="1"/><stop offset="100.00002384185791%" stop-color="#F700FB" stop-opacity="1"/></linearGradient><clipPath id="master_svg1_5406_01001999"><rect x="0" y="0" width="14" height="14" rx="2"/></clipPath></defs><g style="mix-blend-mode:passthrough" clip-path="url(#master_svg1_5406_01001999)"><rect x="0" y="0" width="14" height="14" rx="2" fill="url(#master_svg0_3293_00067999)" fill-opacity="1"/><g style="mix-blend-mode:passthrough"><path d="M4,4L4,10L5.18482,10L5.18482,5.61423L5.22442,5.61423L8.84488,10L10,10L10,4L8.80528,4L8.80528,8.32832L8.76568,8.32832L5.18482,4L4,4Z" fill="#FFFFFF" fill-opacity="1"/><path d="M5.27893,3.8L3.8,3.8L3.8,10.2L5.3848199999999995,10.2L5.3848199999999995,6.12269L8.75064,10.2L10.2,10.2L10.2,3.8L8.60528,3.8L8.60528,7.82069L5.27893,3.8ZM8.80528,8.062429999999999L8.80528,8.32832L8.76568,8.32832L8.60528,8.13444L5.18482,4L4,4L4,10L5.18482,10L5.18482,5.61423L5.22442,5.61423L5.3848199999999995,5.80853L8.84488,10L10,10L10,4L8.80528,4L8.80528,8.062429999999999Z" fill-rule="evenodd" fill="#FFFFFF" fill-opacity="1"/></g></g></svg>